<?xml version="1.0" standalone="no"?>
<!DOCTYPE svg PUBLIC "-//W3C//DTD SVG 1.1//EN" "http://www.w3.org/Graphics/SVG/1.1/DTD/svg11.dtd" >
<svg xmlns="http://www.w3.org/2000/svg" xmlns:xlink="http://www.w3.org/1999/xlink" version="1.1">
<metadata>
Created by FontForge 20170731 at Thu May 19 09:59:37 2022
 By Aleksey,,,
Copyright (c) 2003-2022 SIL International
</metadata>
<defs>
<font id="GentiumBookPlus-Bold" horiz-adv-x="0" >
  <font-face 
    font-family="Gentium Book Plus"
    font-weight="700"
    font-stretch="normal"
    units-per-em="2048"
    panose-1="2 0 5 3 6 0 0 2 0 4"
    ascent="1638"
    descent="-410"
    x-height="930"
    cap-height="1260"
    bbox="-1445 -950 4760 2600"
    underline-thickness="100"
    underline-position="-400"
    unicode-range="U+0020-1DF1E"
  />
<missing-glyph horiz-adv-x="1400" 
d="M100 1800h1200v-1800h-1200v1800zM150 50h1100v1700h-1100v-1700z" />
    <glyph glyph-name="f_i" unicode="fi" horiz-adv-x="1350" 
d="M915 1454q0 -19 -21.5 -48.5t-52.5 -59.5t-59.5 -53t-43.5 -30q-47 65 -91.5 93.5t-78.5 28.5t-61 -29.5t-42 -109.5t-15 -230v-86h246l39 -39q-19 -35 -49.5 -74.5t-48.5 -56.5q-23 12 -65 23.5t-122 11.5v-653q0 -12 41 -24.5t158 -34.5v-83h-599v83q68 12 99 29.5
t31 29.5v653h-114l-31 38l78 97h67v31q0 278 159 437q80 80 165 116t153 36q66 0 125 -19t96 -42t37 -35zM1215 1261q0 -71 -52.5 -114t-132.5 -43q-59 0 -107 27.5t-48 88.5q0 72 54 114t131 42q58 0 106.5 -26.5t48.5 -88.5zM775 0v83q68 14 99 31t31 30v496
q0 69 -5.5 103t-32.5 47.5t-92 19.5v80q93 12 173 28.5t153 41.5h74v-816q0 -12 28.5 -29.5t101.5 -31.5v-83h-530z" />
    <glyph glyph-name="f_l" unicode="fl" horiz-adv-x="1350" 
d="M915 1454q0 -19 -21.5 -48.5t-52.5 -59.5t-59.5 -53t-43.5 -30q-47 65 -91.5 93.5t-78.5 28.5t-61 -29.5t-42 -109.5t-15 -230v-86h246l39 -39q-19 -35 -49.5 -74.5t-48.5 -56.5q-23 12 -65 23.5t-122 11.5v-653q0 -12 41 -24.5t158 -34.5v-83h-599v83q68 12 99 29.5
t31 29.5v653h-114l-31 38l78 97h67v31q0 278 159 437q80 80 165 116t153 36q66 0 125 -19t96 -42t37 -35zM765 0v83q86 15 113 30t27 31v1112q0 59 -9 85t-37 34.5t-84 14.5v80q110 14 190 31t164 49l46 -44v-1362q0 -15 29 -31t111 -30v-83h-550z" />
    <glyph glyph-name="f_f_i" unicode="ffi" horiz-adv-x="2065" 
d="M915 1454q0 -19 -21.5 -48.5t-52.5 -59.5t-59.5 -53t-43.5 -30q-47 65 -91.5 93.5t-78.5 28.5t-61 -29.5t-42 -109.5t-15 -230v-86h246l39 -39q-19 -35 -49.5 -74.5t-48.5 -56.5q-23 12 -65 23.5t-122 11.5v-653q0 -12 41 -24.5t158 -34.5v-83h-599v83q68 12 99 29.5
t31 29.5v653h-114l-31 38l78 97h67v31q0 278 159 437q80 80 165 116t153 36q66 0 125 -19t96 -42t37 -35zM1630 1454q0 -19 -21.5 -48.5t-52.5 -59.5t-59.5 -53t-43.5 -30q-47 65 -91.5 93.5t-78.5 28.5t-61 -29.5t-42 -109.5t-15 -230v-86h246l39 -39q-19 -35 -49.5 -74.5
t-48.5 -56.5q-23 12 -65 23.5t-122 11.5v-653q0 -12 41 -24.5t158 -34.5v-83h-599v83q68 12 99 29.5t31 29.5v653h-114l-31 38l78 97h67v31q0 278 159 437q80 80 165 116t153 36q66 0 125 -19t96 -42t37 -35zM1930 1261q0 -71 -52.5 -114t-132.5 -43q-59 0 -107 27.5
t-48 88.5q0 72 54 114t131 42q58 0 106.5 -26.5t48.5 -88.5zM1490 0v83q68 14 99 31t31 30v496q0 69 -5.5 103t-32.5 47.5t-92 19.5v80q93 12 173 28.5t153 41.5h74v-816q0 -12 28.5 -29.5t101.5 -31.5v-83h-530z" />
    <glyph glyph-name="f_f_l" unicode="ffl" horiz-adv-x="2065" 
d="M915 1454q0 -19 -21.5 -48.5t-52.5 -59.5t-59.5 -53t-43.5 -30q-47 65 -91.5 93.5t-78.5 28.5t-61 -29.5t-42 -109.5t-15 -230v-86h246l39 -39q-19 -35 -49.5 -74.5t-48.5 -56.5q-23 12 -65 23.5t-122 11.5v-653q0 -12 41 -24.5t158 -34.5v-83h-599v83q68 12 99 29.5
t31 29.5v653h-114l-31 38l78 97h67v31q0 278 159 437q80 80 165 116t153 36q66 0 125 -19t96 -42t37 -35zM1630 1454q0 -19 -21.5 -48.5t-52.5 -59.5t-59.5 -53t-43.5 -30q-47 65 -91.5 93.5t-78.5 28.5t-61 -29.5t-42 -109.5t-15 -230v-86h246l39 -39q-19 -35 -49.5 -74.5
t-48.5 -56.5q-23 12 -65 23.5t-122 11.5v-653q0 -12 41 -24.5t158 -34.5v-83h-599v83q68 12 99 29.5t31 29.5v653h-114l-31 38l78 97h67v31q0 278 159 437q80 80 165 116t153 36q66 0 125 -19t96 -42t37 -35zM1480 0v83q86 15 113 30t27 31v1112q0 59 -9 85t-37 34.5
t-84 14.5v80q110 14 190 31t164 49l46 -44v-1362q0 -15 29 -31t111 -30v-83h-550z" />
    <glyph glyph-name="f_f" unicode="ff" horiz-adv-x="1430" 
d="M915 1454q0 -19 -21.5 -48.5t-52.5 -59.5t-59.5 -53t-43.5 -30q-47 65 -91.5 93.5t-78.5 28.5t-61 -29.5t-42 -109.5t-15 -230v-86h246l39 -39q-19 -35 -49.5 -74.5t-48.5 -56.5q-23 12 -65 23.5t-122 11.5v-653q0 -12 41 -24.5t158 -34.5v-83h-599v83q68 12 99 29.5
t31 29.5v653h-114l-31 38l78 97h67v31q0 278 159 437q80 80 165 116t153 36q66 0 125 -19t96 -42t37 -35zM1630 1454q0 -19 -21.5 -48.5t-52.5 -59.5t-59.5 -53t-43.5 -30q-47 65 -91.5 93.5t-78.5 28.5t-61 -29.5t-42 -109.5t-15 -230v-86h246l39 -39q-19 -35 -49.5 -74.5
t-48.5 -56.5q-23 12 -65 23.5t-122 11.5v-653q0 -12 41 -24.5t158 -34.5v-83h-599v83q68 12 99 29.5t31 29.5v653h-114l-31 38l78 97h67v31q0 278 159 437q80 80 165 116t153 36q66 0 125 -19t96 -42t37 -35z" />
    <glyph glyph-name=".notdef" horiz-adv-x="1400" 
d="M100 1800h1200v-1800h-1200v1800zM150 50h1100v1700h-1100v-1700z" />
    <glyph glyph-name=".null" 
 />
    <glyph glyph-name="nonmarkingreturn" horiz-adv-x="1024" 
 />
    <glyph glyph-name="space" unicode=" " horiz-adv-x="451" 
 />
    <glyph glyph-name="exclam" unicode="!" horiz-adv-x="658" 
d="M394 419q-19 -13 -54 -22t-60 -17l-29 21l-87 957q31 17 83.5 42t104 48t78.5 32l53 -35zM504 133q0 -84 -58.5 -128.5t-139.5 -44.5q-61 0 -110.5 33t-49.5 109q0 83 60 128.5t139 45.5q57 0 108 -33t51 -110z" />
    <glyph glyph-name="quotedbl" unicode="&#x22;" horiz-adv-x="990" 
d="M777 834q-10 -5 -36.5 -10t-55 -8t-44.5 -3l-93 573q11 6 48 20.5t82 30.5t82 28.5t47 14.5l53 -31zM359 834q-10 -5 -36.5 -10t-55 -8t-44.5 -3l-93 573q11 6 48 20.5t82 30.5t82 28.5t47 14.5l53 -31z" />
    <glyph glyph-name="numbersign" unicode="#" horiz-adv-x="1061" 
d="M1062 956q-3 -14 -13.5 -41t-21.5 -52.5t-16 -36.5h-813l-25 24q5 22 24.5 66.5t26.5 64.5h813zM650 170q-18 -13 -62 -23.5t-70 -19.5l-26 20l315 1104q22 16 64.5 24t65.5 17l27 -22zM329 170q-18 -13 -61 -23.5t-69 -19.5l-26 20l315 1104q22 16 64 24t64 17l29 -22z
M953 583q-3 -13 -12.5 -39t-20 -51.5t-15.5 -37.5h-816l-22 25q3 13 13 39t20.5 52t16.5 39h814z" />
    <glyph glyph-name="dollar" unicode="$" horiz-adv-x="1061" 
d="M592 -123q-18 -16 -43 -30.5t-50 -20.5l-37 32v1478q28 17 46.5 29t47.5 19l36 -32v-1475zM482 -10q-54 0 -124.5 15.5t-142.5 44t-133 66.5q-7 5 -9 43t0 91t7 102.5t12 77.5l83 -4q56 -118 140.5 -201.5t223.5 -83.5q51 0 98.5 17t78.5 55t31 101q0 79 -48.5 126.5
t-124.5 79t-161.5 59.5t-161.5 66t-124.5 98.5t-48.5 157.5q0 47 22.5 101t75 102.5t142.5 79t224 30.5q80 0 162 -16t146.5 -41t90.5 -53q6 -7 -1 -40t-21.5 -75.5t-31.5 -78t-30 -47.5l-79 8q-40 101 -105 158t-172 57q-86 0 -141 -40.5t-55 -97.5q0 -62 49 -101
t126 -67.5t163.5 -58t163.5 -72.5t126 -110t49 -172q0 -89 -48.5 -176t-158 -144t-293.5 -57z" />
    <glyph glyph-name="percent" unicode="%" horiz-adv-x="1517" 
d="M1471 310q0 -93 -42.5 -170.5t-118.5 -124t-178 -46.5q-101 0 -174.5 46.5t-112.5 124t-39 170.5t40 171t116 124.5t183 46.5q105 0 177.5 -46.5t110.5 -124t38 -171.5zM379 3q-23 -11 -74.5 -18.5t-78.5 -14.5l-25 30l932 1203q13 6 43 12t61 11.5t45 8.5l25 -28z
M711 897q0 -93 -42.5 -170.5t-118.5 -124t-178 -46.5q-101 0 -174.5 46.5t-112.5 124t-39 170.5t40 171t116 124.5t183 46.5q105 0 178 -46.5t110.5 -124t37.5 -171.5zM1246 290q0 148 -31.5 218.5t-82.5 70.5q-52 0 -76.5 -55t-24.5 -191q0 -291 114 -291q53 0 77 56
t24 192zM486 877q0 148 -31.5 218.5t-82.5 70.5q-52 0 -76.5 -55t-24.5 -191q0 -291 114 -291q53 0 77 56t24 192z" />
    <glyph glyph-name="ampersand" unicode="&#x26;" horiz-adv-x="1436" 
d="M1436 748q-25 -31 -59.5 -76.5t-59.5 -62.5q-37 17 -77.5 33.5t-74.5 17.5q21 -26 27 -56.5t6 -60.5q0 -87 -52.5 -186t-145.5 -187.5t-216.5 -144t-265.5 -55.5q-218 0 -338 97.5t-120 284.5q0 135 113.5 272.5t372.5 280.5q92 51 127.5 125.5t35.5 140.5
q0 70 -31.5 106t-69.5 36q-49 0 -71.5 -52t-22.5 -131q0 -90 41.5 -191t111 -204.5t153.5 -201.5t169.5 -182t158.5 -145q56 -46 115 -57.5t107 -0.5l19 -83q-57 -25 -126 -47t-123 -35t-69 -13q-33 0 -105.5 47.5t-164.5 131t-187 192.5t-176 232.5t-131 251.5t-50 248
q0 108 56 193t150 134.5t208 49.5q160 0 233.5 -74.5t73.5 -171.5q0 -69 -50 -143.5t-125.5 -141.5t-154.5 -117q-121 -76 -185 -145t-87.5 -137.5t-23.5 -146.5q0 -93 36.5 -147.5t91 -78t108.5 -23.5q78 0 151 35t131.5 91t92.5 122.5t34 129.5q0 84 -45.5 128.5
t-104.5 44.5l-32 38q11 13 42.5 43.5t51.5 37.5h494z" />
    <glyph glyph-name="quotesingle" unicode="'" horiz-adv-x="572" 
d="M359 834q-10 -5 -36.5 -10t-55 -8t-44.5 -3l-93 573q11 6 48 20.5t82 30.5t82 28.5t47 14.5l53 -31z" />
    <glyph glyph-name="parenleft" unicode="(" horiz-adv-x="689" 
d="M608 -315q-256 142 -381.5 381t-125.5 557q0 329 135.5 580.5t371.5 396.5l62 -85q-115 -124 -197 -333.5t-82 -530.5q0 -292 70.5 -516t208.5 -365z" />
    <glyph glyph-name="parenright" unicode=")" horiz-adv-x="689" 
d="M590 661q0 -328 -135.5 -580t-371.5 -397l-62 85q116 124 197.5 333.5t81.5 530.5q0 292 -70.5 516t-208.5 365l62 85q257 -142 382 -381t125 -557z" />
    <glyph glyph-name="asterisk" unicode="*" horiz-adv-x="904" 
d="M505 1230l202 180q14 -8 45 -32.5t61.5 -50t40.5 -36.5l-12 -60l-279 -95l256 -85q-1 -16 -6.5 -55.5t-12 -78t-11.5 -53.5l-58 -19l-221 193l54 -263q-14 -7 -51 -22t-74 -28.5t-52 -17.5l-46 41l57 289l-201 -179q-13 9 -44.5 33t-62 49.5t-40.5 36.5l12 60l280 95
l-257 85q1 16 6.5 55.5t12.5 78.5t11 53l58 19l221 -194l-54 264q15 8 52 22.5t74 28.5t51 17l46 -41z" />
    <glyph glyph-name="plus" unicode="+" horiz-adv-x="870" 
d="M820 606q-6 -22 -24.5 -63t-26.5 -58h-684l-35 34q5 22 23.5 62t27.5 59h684zM515 221q-19 -10 -58.5 -23t-61.5 -18l-35 32v694q19 6 59 20t62 19l34 -33v-691z" />
    <glyph glyph-name="comma" unicode="," horiz-adv-x="579" 
d="M510 70q0 -77 -43.5 -168t-114.5 -173t-156 -134l-75 55q56 65 90.5 139.5t34.5 160.5q0 44 -38.5 85.5t-103.5 36.5l-16 87q9 12 48.5 30.5t92 37t102 31t78.5 11.5q48 -22 74.5 -67.5t26.5 -131.5z" />
    <glyph glyph-name="hyphen" unicode="-" horiz-adv-x="740" 
d="M690 556q-6 -22 -24.5 -63t-26.5 -58h-554l-35 34q5 22 23.5 62t27.5 59h554z" />
    <glyph glyph-name="period" unicode="." horiz-adv-x="579" 
d="M489 133q0 -84 -58.5 -128.5t-139.5 -44.5q-61 0 -110.5 33t-49.5 109q0 83 60 128.5t139 45.5q57 0 108 -33t51 -110z" />
    <glyph glyph-name="slash" unicode="/" horiz-adv-x="980" 
d="M252 -274q-13 -9 -49 -21.5t-72.5 -23.5t-53.5 -16l-47 35l701 1841q18 12 51.5 23.5t67.5 21t53 14.5l47 -32z" />
    <glyph glyph-name="zero" unicode="0" horiz-adv-x="1061" 
d="M1005 602q0 -172 -62 -315.5t-171 -230t-251 -86.5t-246.5 86.5t-161.5 230t-57 315.5t58 316t166.5 230.5t259.5 86.5q147 0 251 -85.5t159 -229.5t55 -318zM711 565q0 274 -52 404.5t-138 130.5q-88 0 -129.5 -102t-41.5 -353q0 -274 47 -407t143 -133q89 0 130 103.5
t41 356.5z" />
    <glyph glyph-name="one" unicode="1" horiz-adv-x="1061" 
d="M150 0v93q157 19 213.5 44t56.5 46v717q0 40 -3 62.5t-15 35.5t-66 13.5t-186 -27.5l-31 91q43 8 115.5 29.5t152.5 48.5t149.5 52t106.5 40l47 -45v-1017q0 -19 49.5 -45t200.5 -45v-93h-790z" />
    <glyph glyph-name="two" unicode="2" horiz-adv-x="1061" 
d="M941 0h-834l-29 74q175 206 288 345.5t177 232t89.5 156t25.5 116.5q0 83 -33 137t-108 54q-82 0 -112.5 -62.5t-14.5 -138.5q-22 -12 -69.5 -27t-97.5 -27t-81 -15l-37 80q0 52 37.5 106t103.5 100.5t153 75t186 28.5q166 0 262 -62.5t96 -180.5q0 -68 -29 -136.5
t-94.5 -155.5t-176 -210t-272.5 -299h393q34 0 54 31.5t30.5 72.5t14 72.5l3.5 31.5l90 -22z" />
    <glyph glyph-name="three" unicode="3" horiz-adv-x="1061" 
d="M945 381q0 -112 -60 -205.5t-166 -149.5t-243 -56q-52 0 -122.5 18.5t-143 56t-132.5 94.5l44 107q91 -67 168.5 -96.5t152.5 -29.5q86 0 149 55.5t63 182.5q0 90 -35 141.5t-83 72.5t-87 21q-28 0 -42.5 -1t-45.5 -6l-19 100q112 30 166 73.5t71.5 91.5t17.5 89
q0 69 -26 122t-96 53q-43 0 -75 -46.5t-11 -115.5q-43 -25 -116 -49.5t-133 -29.5l-36 71q0 56 53 124t149.5 117t225.5 49q130 0 207.5 -41t112.5 -104.5t35 -131.5q0 -50 -27 -103t-75 -95.5t-111 -61.5q125 -13 197.5 -104t72.5 -213z" />
    <glyph glyph-name="four" unicode="4" horiz-adv-x="1061" 
d="M984 450q-21 -32 -53.5 -67.5t-55.5 -52.5h-50v-186q0 -15 28.5 -28.5t110.5 -32.5v-83h-609v83q131 22 170.5 38.5t39.5 33.5v175h-467l-43 43l476 791q50 17 124.5 40.5t122.5 40.5l47 -45v-720h133zM565 960l-302 -480h302v480z" />
    <glyph glyph-name="five" unicode="5" horiz-adv-x="1061" 
d="M948 410q0 -116 -48 -216.5t-151 -162t-267 -61.5q-92 0 -204 42t-198 122l55 97q106 -73 187 -97t138 -24q90 0 154 71.5t64 185.5q0 137 -67 205t-166 68q-92 0 -149 -25t-110 -65l-47 33q9 54 22 137.5t25.5 175t22 174t12.5 135.5h556q57 0 89 9l32 9l39 -39
q-14 -21 -42.5 -59.5t-57 -73t-44.5 -46.5h-447q-3 -58 -15 -132.5t-21 -118.5q46 22 102 34t123 12q139 0 230.5 -56.5t137 -146t45.5 -187.5z" />
    <glyph glyph-name="six" unicode="6" horiz-adv-x="1061" 
d="M1001 412q0 -70 -27.5 -147t-82.5 -144t-136 -109t-189 -42q-132 0 -240 63t-172 176.5t-64 263.5q0 189 88.5 352.5t262 276t427.5 147.5l29 -99q-200 -42 -313 -134.5t-158.5 -217t-45.5 -261.5q0 -237 60 -334.5t145 -97.5q54 0 83.5 35t41 91t11.5 117
q0 125 -23 187.5t-60 83.5t-78 21q-58 0 -130.5 -58t-131.5 -150l-23 136q79 106 178 164t178 58q173 0 271.5 -107t98.5 -271z" />
    <glyph glyph-name="seven" unicode="7" horiz-adv-x="1061" 
d="M985 1167q-69 -161 -134 -324.5t-120.5 -313.5t-99 -272.5t-69.5 -202.5q-23 -16 -68 -32.5t-93 -29.5t-81 -22l-51 43q87 153 155 280t124 241.5t108 229t107 241.5h-444q-19 0 -43 -9t-50.5 -43.5t-55.5 -112.5l-76 28q3 23 9.5 69.5t14.5 100t15.5 99.5t13.5 68h805z
" />
    <glyph glyph-name="eight" unicode="8" horiz-adv-x="1061" 
d="M987 352q0 -103 -62.5 -190t-170.5 -139.5t-243 -52.5q-144 0 -241 44.5t-146.5 116.5t-49.5 154q0 112 93 209t232 157l121 -37q-76 -70 -116 -138.5t-40 -160.5q0 -104 57.5 -159.5t118.5 -55.5q73 0 115 61t42 148q0 88 -41.5 141.5t-106.5 88.5t-138 64t-138 65.5
t-106.5 94.5t-41.5 152q0 93 56 165t151 113.5t210 41.5q203 0 299 -75t96 -191q0 -91 -84.5 -164t-202.5 -139l-120 43q129 113 127 229q-1 104 -47 138.5t-99 34.5q-59 0 -92.5 -46.5t-33.5 -114.5q0 -61 43.5 -100.5t112 -69t145.5 -61t145.5 -76.5t112 -114.5
t43.5 -176.5z" />
    <glyph glyph-name="nine" unicode="9" horiz-adv-x="1061" 
d="M990 731q0 -202 -87.5 -367t-261 -271.5t-431.5 -135.5l-28 99q166 41 268.5 98t156.5 129.5t73.5 159.5t19.5 187q0 152 -14.5 245t-40 141.5t-56.5 66t-64 17.5q-77 0 -121 -62.5t-44 -181.5q0 -108 28.5 -169.5t66.5 -86.5t66 -25q63 0 115 36t92 91.5t65 111.5
l13 -145q-52 -108 -146 -181t-212 -73q-121 0 -203 53.5t-123.5 140.5t-41.5 186q0 76 33.5 153.5t96 142.5t148 104.5t188.5 39.5q200 0 322 -119t122 -385z" />
    <glyph glyph-name="colon" unicode=":" horiz-adv-x="579" 
d="M489 133q0 -84 -58.5 -128.5t-139.5 -44.5q-61 0 -110.5 33t-49.5 109q0 83 60 128.5t139 45.5q57 0 108 -33t51 -110zM489 858q0 -84 -58.5 -128.5t-139.5 -44.5q-61 0 -110.5 33t-49.5 109q0 83 60 128.5t139 45.5q57 0 108 -33t51 -110z" />
    <glyph glyph-name="semicolon" unicode=";" horiz-adv-x="579" 
d="M510 70q0 -77 -43.5 -168t-114.5 -173t-156 -134l-75 55q56 65 90.5 139.5t34.5 160.5q0 44 -38.5 85.5t-103.5 36.5l-16 87q9 12 48.5 30.5t92 37t102 31t78.5 11.5q48 -22 74.5 -67.5t26.5 -131.5zM489 858q0 -84 -58.5 -128.5t-139.5 -44.5q-61 0 -110.5 33t-49.5 109
q0 83 60 128.5t139 45.5q57 0 108 -33t51 -110z" />
    <glyph glyph-name="less" unicode="&#x3c;" horiz-adv-x="940" 
d="M890 892q-3 -14 -11 -42t-16 -55.5t-12 -40.5l-766 -274l-35 45q5 20 18.5 64.5t22.5 64.5l764 273zM890 336q-22 -20 -52.5 -50.5t-61.5 -49.5l-691 244l-35 45q5 20 18.5 64.5t22.5 64.5l772 -272z" />
    <glyph glyph-name="equal" unicode="=" horiz-adv-x="940" 
d="M890 756q-6 -22 -24.5 -63t-26.5 -58h-754l-35 34q5 22 23.5 62t27.5 59h754zM890 456q-6 -22 -24.5 -63t-26.5 -58h-754l-35 34q5 22 23.5 62t27.5 59h754z" />
    <glyph glyph-name="greater" unicode="&#x3e;" horiz-adv-x="940" 
d="M890 638q-7 -28 -19 -65.5t-22 -63.5l-764 -273l-35 35q4 14 11.5 42t15.5 56t12 40l518 185l-530 187l-27 46q22 20 52.5 50.5t61.5 49.5l691 -244z" />
    <glyph glyph-name="question" unicode="?" horiz-adv-x="947" 
d="M886 1165q0 -90 -36 -162.5t-89 -133.5t-107 -117t-92.5 -113.5t-42.5 -123.5l-6 -96q-19 -13 -48.5 -23t-57.5 -18l-35 31l-8 106q-4 86 29.5 165t80 152.5t82.5 145t36 142.5q0 123 -35 178.5t-93 55.5q-43 0 -76.5 -45t-33.5 -123q0 -14 4 -34t8 -34q-21 -11 -74 -26
t-108 -27t-85 -15l-37 40q-1 8 -1.5 27t-0.5 26q0 94 65.5 170.5t173.5 121.5t233 45q171 0 262.5 -87.5t91.5 -227.5zM631 133q0 -84 -58.5 -128.5t-139.5 -44.5q-61 0 -110.5 33t-49.5 109q0 83 60 128.5t139 45.5q57 0 108 -33t51 -110z" />
    <glyph glyph-name="at" unicode="@" horiz-adv-x="1843" 
d="M1753 579q0 -126 -43.5 -236.5t-117 -194t-165.5 -131t-190 -47.5q-64 0 -110 31.5t-67 120.5q-54 -61 -91.5 -94t-74.5 -45.5t-90 -12.5q-68 0 -136 48t-113 150.5t-45 265.5q0 98 29 191.5t85.5 169t138 120.5t186.5 45q46 0 85 -16t85 -75q64 21 109 40.5t95 50.5
l31 -30l-7.5 -36t-15 -90.5t-7.5 -110.5v-408q0 -52 9 -79t49 -27q50 0 100.5 82t50.5 251q0 230 -72 378.5t-202 220.5t-304 72q-204 0 -340.5 -89.5t-205.5 -239t-69 -330.5q0 -256 88.5 -424.5t238.5 -251.5t336 -83q133 0 240 29t183.5 69.5t116.5 74.5l53 -97
q-48 -55 -134.5 -117t-212.5 -105.5t-295 -43.5q-254 0 -449 105.5t-305 304.5t-110 480q0 185 69 349t192 290t287.5 197.5t355.5 71.5q224 0 395 -85.5t267.5 -261.5t96.5 -447zM1054 731q-20 41 -45.5 65t-70.5 24q-80 0 -119 -83.5t-39 -271.5q0 -113 20.5 -175
t51.5 -86t63 -24q39 0 66 21.5t73 88.5v441z" />
    <glyph glyph-name="A" unicode="A" horiz-adv-x="1309" 
d="M396 425l-91 -274q-10 -31 23.5 -45t115.5 -23v-83h-444v83q68 12 103 25t45 43l342 1046q55 46 126 75t131 45l420 -1166q10 -28 33.5 -44t87.5 -24v-83h-522v83q77 5 104.5 20t16.5 48l-98 274h-393zM743 555l-161 448l-143 -448h304z" />
    <glyph glyph-name="B" unicode="B" horiz-adv-x="1266" 
d="M1166 356q0 -170 -141 -270t-396 -100q-69 0 -159 2.5t-181 5.5t-166 6l322 128q31 -16 64 -22t78 -6q144 0 214.5 65t70.5 177q0 74 -24.5 141t-88 109.5t-179.5 42.5q-66 0 -106 -7t-73 -16l-10 133h78q127 0 191.5 32.5t87 84.5t22.5 109q0 100 -61.5 152.5
t-225.5 52.5q-52 0 -135 -5t-167 -13.5t-141 -19.5l-14 92q62 15 153 28.5t189.5 22.5t180.5 9q239 0 372.5 -72t133.5 -198q0 -107 -60 -184.5t-180 -112.5q158 -25 254.5 -126.5t96.5 -240.5zM40 0v83q68 14 101.5 31t33.5 30v1066l280 21v-1097q0 -12 21 -29.5t94 -31.5
v-73h-530z" />
    <glyph glyph-name="C" unicode="C" horiz-adv-x="1158" 
d="M1088 211q-127 -129 -252.5 -185t-244.5 -56q-138 0 -262 73.5t-201.5 211.5t-77.5 331q0 213 85 371t231.5 245.5t329.5 87.5q72 0 144.5 -13.5t133.5 -36t95 -50.5q6 -4 -6 -37.5t-32 -77t-40 -80t-32 -48.5l-75 16q-49 101 -114 144t-138 43q-51 0 -103.5 -24.5
t-96.5 -83.5t-70.5 -161t-26.5 -258q0 -167 54 -271.5t136.5 -153t167.5 -48.5q54 0 144.5 25.5t193.5 110.5q11 -8 32 -37.5t25 -37.5z" />
    <glyph glyph-name="D" unicode="D" horiz-adv-x="1334" 
d="M40 0v83q68 14 101.5 31t33.5 30v1003q-39 -5 -73.5 -10t-61.5 -9l-14 102q69 17 169 30.5t207 21.5t196 8q316 0 485.5 -162t169.5 -452q0 -187 -55 -316.5t-145 -209t-198.5 -115t-215.5 -35.5h-89h-224h-244h-42zM597 114q54 0 115.5 29t116.5 91.5t89.5 162
t34.5 240.5q0 266 -109.5 402.5t-320.5 136.5q-16 0 -33 -0.5t-35 -1.5v-1000q0 -38 42 -49t100 -11z" />
    <glyph glyph-name="E" unicode="E" horiz-adv-x="1096" 
d="M989 1225q-2 -34 -8.5 -94.5t-15.5 -117.5t-17 -83h-85q-4 92 -24.5 146t-57.5 54h-378l29 130h514zM886 697q-16 -28 -43 -71.5t-49 -59.5q-31 29 -72.5 42t-125.5 13h-207l22 114h439zM1054 324q-5 -57 -12.5 -125.5t-15 -123.5t-13.5 -75h-973v83q68 14 101.5 31
t33.5 30v971q0 12 -31.5 30t-103.5 32v83h560v-83q-67 -7 -106 -16.5t-39 -23.5v-943q0 -19 14.5 -33.5t58 -22.5t131.5 -8h89q92 0 136 52.5t87 169.5z" />
    <glyph glyph-name="F" unicode="F" horiz-adv-x="1059" 
d="M997 1225q-1 -34 -7.5 -94.5t-15 -117.5t-16.5 -83h-87q-3 92 -23.5 146t-58.5 54h-386l29 130h524zM858 697q-19 -35 -46 -75t-48 -56q-29 29 -71.5 42t-125.5 13h-329l145 114h436zM40 0v83q68 14 101.5 31t33.5 30v971q0 12 -31.5 30t-103.5 32v83h560v-83
q-59 -7 -102 -16.5t-43 -23.5v-993q0 -12 33.5 -27t131.5 -34v-83h-580z" />
    <glyph glyph-name="G" unicode="G" horiz-adv-x="1244" 
d="M1205 547q-57 -13 -76 -36t-19 -46v-291l-27.5 -9.5t-67.5 -22.5t-80 -25t-67.5 -18t-27.5 -1v367q0 15 -6 28.5t-36.5 27t-103.5 26.5v83h511v-83zM1112 1188q7 -5 -5 -37.5t-33 -74.5t-43 -77.5t-35 -47.5l-73 16q-66 108 -134 150.5t-151 42.5q-37 0 -88.5 -23.5
t-100.5 -82t-81.5 -160t-32.5 -257.5q0 -175 49.5 -285t130 -161t171.5 -51q101 0 159.5 33t110.5 82q9 -4 45 -22t70.5 -36t38.5 -23q-148 -121 -264.5 -162.5t-207.5 -41.5q-111 0 -216 37.5t-189 113.5t-133.5 191.5t-49.5 269.5q0 222 92 380.5t252 243t363 84.5
q44 0 111 -12t134 -34.5t110 -55.5z" />
    <glyph glyph-name="H" unicode="H" horiz-adv-x="1419" 
d="M810 0v83q68 14 101.5 31t33.5 30v971q0 12 -31.5 30t-103.5 32v83h550v-83q-135 -28 -135 -62v-971q0 -12 31.5 -29.5t103.5 -31.5v-83h-550zM427 595v130h538v-130h-538zM40 0v83q68 14 101.5 31t33.5 30v971q0 12 -31.5 30t-103.5 32v83h550v-83q-135 -28 -135 -62
v-971q0 -12 31 -29.5t104 -31.5v-83h-550z" />
    <glyph glyph-name="I" unicode="I" horiz-adv-x="690" 
d="M60 0v83q68 14 101.5 31t33.5 30v971q0 12 -31.5 30t-103.5 32v83h550v-83q-135 -28 -135 -62v-971q0 -12 31.5 -29.5t103.5 -31.5v-83h-550z" />
    <glyph glyph-name="J" unicode="J" horiz-adv-x="705" 
d="M645 1177q-135 -28 -135 -62v-940q0 -143 -40.5 -236.5t-98 -153.5t-110.5 -103t-131 -77.5t-155 -34.5q-65 0 -126 18t-100 42t-39 40q0 12 23 39t56 57.5t63 54.5t44 29q56 -52 108 -74.5t90 -22.5q35 0 66 22.5t50.5 97t19.5 230.5v1012q0 12 -32.5 28.5t-152.5 33.5
v83h600v-83z" />
    <glyph glyph-name="K" unicode="K" horiz-adv-x="1294" 
d="M1230 1177q-64 -8 -91 -18.5t-59 -43.5l-459 -472h-184l377 445q46 54 40.5 68t-84.5 21v83h460v-83zM1294 57q-39 -12 -91.5 -29t-102.5 -29.5t-82 -12.5q-29 0 -51.5 9t-42.5 34l-487 614l176 78l522 -544q32 -33 66 -38t86 1zM40 0v83q68 14 101.5 31t33.5 30v971
q0 12 -31.5 30t-103.5 32v83h550v-83q-135 -28 -135 -62v-971q0 -12 31 -29.5t104 -31.5v-83h-550z" />
    <glyph glyph-name="L" unicode="L" horiz-adv-x="1065" 
d="M1044 324q-5 -57 -13 -125.5t-15.5 -123.5t-12.5 -75h-963v83q68 14 101.5 31t33.5 30v971q0 12 -31.5 30t-103.5 32v83h550v-83q-135 -28 -135 -62v-911q0 -35 38.5 -54.5t147.5 -19.5h103q92 0 133 52.5t84 169.5z" />
    <glyph glyph-name="M" unicode="M" horiz-adv-x="1761" 
d="M1145 0v83q68 14 106.5 31t38.5 30l-10 973l255 57l10 -1030q0 -12 36.5 -29.5t108.5 -31.5v-83h-545zM1660 1177q-34 0 -84 -13t-102 -36.5t-94 -56t-60 -71.5l-457 -1000h-4q-15 84 -29.5 134t-20 78.5t3.5 49.5l417 914q26 59 40.5 71.5t33.5 12.5h356v-83zM903 264
q14 -31 -2.5 -84.5t-41.5 -179.5h-105l-457 1031q-26 60 -68 91.5t-87 43t-82 11.5v83h366q20 0 35 -15t39 -69zM50 0v83q68 14 101.5 31t33.5 30l10 1012l156 25l-11 -1037q0 -12 31.5 -29.5t103.5 -31.5v-83h-425z" />
    <glyph glyph-name="N" unicode="N" horiz-adv-x="1369" 
d="M1330 1177q-72 -10 -103.5 -29t-31.5 -33v-1083l-160 39v1044q0 12 -27.5 31.5t-107.5 30.5v83h430v-83zM1195 -30q-110 8 -178.5 43t-100.5 78l-678 939q-41 58 -93 98.5t-105 48.5v83h302q29 0 44 -13t52 -65l619 -859q11 -15 33 -43t46.5 -58t41.5 -51l17 -21v-180z
M40 0v83q74 9 104.5 28.5t30.5 32.5v1012l160 65v-1077q0 -12 29 -31t106 -30v-83h-430z" />
    <glyph glyph-name="O" unicode="O" horiz-adv-x="1289" 
d="M605 -30q-128 0 -230.5 52.5t-175 142.5t-111 205.5t-38.5 241.5q0 136 44 258.5t126 217t194.5 148.5t248.5 54q135 0 238.5 -54t174 -145.5t106.5 -206.5t36 -237q0 -136 -48.5 -258t-133.5 -216.5t-195.5 -148.5t-235.5 -54zM654 110q121 0 200 127t79 392
q0 138 -41 258t-115 194t-173 74q-133 0 -201 -134.5t-68 -379.5q0 -149 43.5 -269.5t116 -191t159.5 -70.5z" />
    <glyph glyph-name="P" unicode="P" horiz-adv-x="1191" 
d="M1122 936q0 -104 -40.5 -182.5t-105 -131.5t-139.5 -80t-144 -27q-46 0 -91.5 7.5t-79.5 22.5l-33 115q41 -19 70 -24.5t64 -5.5q85 0 149.5 62t64.5 203q0 134 -82 207.5t-222 73.5q-70 0 -160.5 -7t-179 -18t-153.5 -23l-14 102q75 18 171.5 31.5t199 21t193.5 7.5
q159 0 278.5 -41t186.5 -119.5t67 -193.5zM40 0v83q68 14 101.5 31t33.5 30v1036h280v-1036q0 -12 30.5 -28t134.5 -33v-83h-580z" />
    <glyph glyph-name="Q" unicode="Q" horiz-adv-x="1289" 
d="M1218 647q0 -136 -48.5 -258t-133.5 -216.5t-195.5 -148.5t-235.5 -54q-128 0 -230.5 52.5t-175 142.5t-111 205.5t-38.5 241.5q0 136 44 258.5t126 217t194.5 148.5t248.5 54q135 0 238.5 -54t174 -145.5t106.5 -206.5t36 -237zM1462 -127q-31 -58 -70 -105t-74 -75
t-56 -28q-71 0 -144 32.5t-146.5 81.5t-147.5 100.5t-147.5 90.5t-146.5 50l33.5 5.5t80 12t87 10.5t53.5 1q97 -20 180 -61t158 -74.5t146 -33.5q25 0 51.5 12t85.5 56zM933 629q0 138 -41 258t-115 194t-173 74q-133 0 -201 -134.5t-68 -379.5q0 -149 43.5 -269.5
t116 -191t159.5 -70.5q121 0 200 127t79 392z" />
    <glyph glyph-name="R" unicode="R" horiz-adv-x="1269" 
d="M1067 987q0 -128 -68.5 -219t-183.5 -139.5t-254 -48.5q-28 0 -57.5 3.5t-60.5 10.5l-6 120q35 -6 58.5 -8t48.5 -2q128 0 183 67.5t55 184.5q0 58 -22.5 108t-83 81t-174.5 31q-58 0 -140.5 -7.5t-167.5 -18.5t-154 -22l-14 102q109 23 242.5 41.5t280.5 18.5
q190 0 303.5 -40t164 -108.5t50.5 -154.5zM1279 57q-44 -14 -105.5 -31t-117 -28.5t-81.5 -11.5q-28 0 -56 16.5t-42 38.5l-298 571l164 66l365 -479q32 -42 60 -53.5t95 -5.5zM40 0v83q68 14 101.5 31t33.5 30v1047h280v-1047q0 -12 31 -29.5t104 -31.5v-83h-550z" />
    <glyph glyph-name="S" unicode="S" horiz-adv-x="1075" 
d="M845 985l-76 6q-40 103 -107.5 141t-124.5 38q-96 0 -138 -44.5t-42 -101.5q0 -63 46 -108.5t118.5 -83.5t154.5 -77.5t154.5 -89.5t118.5 -119.5t46 -168.5q0 -67 -31 -138t-94.5 -132t-160.5 -99t-229 -38q-49 0 -117.5 12t-136.5 34t-115 52q-7 4 -10.5 40.5
t-2.5 89.5t6.5 108.5t16.5 97.5l81 -5q46 -118 129 -198.5t185 -80.5q90 0 157 44.5t67 139.5q0 81 -45.5 135t-118 93t-153 75t-153 80.5t-118 108.5t-45.5 161q0 47 28 104t86.5 109.5t149 86t215.5 33.5q113 0 211.5 -26t135.5 -66q7 -6 -1 -35t-23.5 -66.5t-33.5 -69
t-30 -42.5z" />
    <glyph glyph-name="T" unicode="T" horiz-adv-x="1208" 
d="M1173 1225q-1 -34 -7.5 -90t-15.5 -114.5t-17 -100.5h-85q-19 93 -29.5 151.5t-53.5 58.5h-277l29 130h416zM212 1130q-31 0 -57.5 -51.5t-71.5 -168.5l-83 29q3 39 10.5 101.5t16.5 123.5t16 96h427l8 -130h-266zM297 0v83q92 19 123 38.5t31 33.5v982q0 12 -26.5 19
t-98.5 21v83h548v-83q-67 -14 -105 -20t-38 -20v-982q0 -13 31 -33t123 -39v-83h-588z" />
    <glyph glyph-name="U" unicode="U" horiz-adv-x="1379" 
d="M1325 1177q-135 -28 -135 -62v-591q0 -175 -66 -299t-180 -189.5t-258 -65.5q-137 0 -253.5 51t-187 156t-70.5 267v671q0 12 -31.5 30t-103.5 32v83h550v-83q-135 -28 -135 -62v-601q0 -192 64.5 -290.5t235.5 -98.5q95 0 148.5 53.5t75 139.5t21.5 185v612
q0 12 -31.5 30t-103.5 32v83h460v-83z" />
    <glyph glyph-name="V" unicode="V" horiz-adv-x="1371" 
d="M1340 1177q-67 -13 -106 -25.5t-49 -40.5l-373 -1022q-10 -30 -46 -53.5t-81 -40t-83 -25.5l-460 1141q-10 26 -39.5 42t-92.5 24v83h535v-83q-79 -6 -104 -20.5t-14 -43.5l315 -800l284 798q11 29 -14.5 42.5t-107.5 23.5v83h436v-83z" />
    <glyph glyph-name="W" unicode="W" horiz-adv-x="1741" 
d="M1742 1177q-88 -18 -118.5 -32t-33.5 -30l-229 -1056q-6 -28 -34 -46.5t-61 -28t-54 -14.5l-346 884l-287 -795q-14 -43 -67 -61.5t-94 -27.5l-260 1137q-5 25 -36 41t-102 29v83h509v-83q-65 -6 -92.5 -17t-32 -24.5t-1.5 -28.5l162 -677l281 830h115l329 -830l152 685
q5 23 -40.5 37t-113.5 25v83h454v-83z" />
    <glyph glyph-name="X" unicode="X" horiz-adv-x="1300" 
d="M1230 1177q-73 -8 -114.5 -25t-68.5 -59l-389 -604l-76 152l286 452q29 46 13.5 61.5t-104.5 22.5v83h453v-83zM718 0v83q88 9 110.5 26.5t-5.5 57.5l-636 926q-31 44 -60.5 59t-95.5 25v83h571v-83q-85 -8 -111 -24t4 -60l636 -926q29 -43 59.5 -59.5t88.5 -24.5v-83
h-561zM382 167q-29 -43 -16 -60.5t105 -23.5v-83h-450v83q131 9 182 84l393 585l65 -174z" />
    <glyph glyph-name="Y" unicode="Y" horiz-adv-x="1267" 
d="M1236 1177q-68 -13 -100 -26.5t-46 -39.5l-335 -632h-240q-47 111 -111.5 232t-130 227.5t-115.5 172.5q-17 23 -44 34t-110 11l-4 83q39 6 94 13t106.5 12.5t78.5 5.5q29 0 60 -13t48 -36q49 -66 103.5 -156t108.5 -190.5t100 -196.5l222 433q15 26 -9.5 41t-101.5 25
v83h426v-83zM340 0v83q91 19 122.5 38.5t31.5 33.5v482h280v-482q0 -13 31 -33t125 -39v-83h-590z" />
    <glyph glyph-name="Z" unicode="Z" horiz-adv-x="1131" 
d="M1061 373q-2 -43 -4.5 -116.5t-4.5 -145.5t-3 -111h-961l-39 55l661 1065h-369q-32 0 -76.5 -71.5t-66.5 -175.5l-97 22l39 381q55 -12 93.5 -14t96.5 -2h686l35 -53l-655 -1067h433q43 0 71 67t66 190z" />
    <glyph glyph-name="bracketleft" unicode="[" horiz-adv-x="711" 
d="M691 -219q-4 -19 -17.5 -59t-21.5 -57h-532v1935h526l43 -36q-4 -25 -17.5 -66t-19.5 -53h-272v-1625h266z" />
    <glyph glyph-name="backslash" unicode="\" horiz-adv-x="961" 
d="M880 -335q-16 5 -50.5 16t-68 23.5t-45.5 21.5l-681 1842l47 32q29 -7 82 -24.5t81 -34.5l680 -1841z" />
    <glyph glyph-name="bracketright" unicode="]" horiz-adv-x="630" 
d="M65 -335l-43 36q5 25 18 66t19 53h271v1625h-265l-45 39q5 20 18.5 59.5t20.5 56.5h531v-1935h-525z" />
    <glyph glyph-name="asciicircum" unicode="^" horiz-adv-x="1008" 
d="M907 635q-43 -41 -106 -70l-37 27l-283 723l-250 -680q-21 -20 -54.5 -40t-53.5 -30l-23 27l322 870q25 23 65 49t68 39z" />
    <glyph glyph-name="underscore" unicode="_" horiz-adv-x="814" 
d="M857 -164q-6 -22 -24.5 -63t-26.5 -58h-814l-35 34q5 22 23.5 62t27.5 59h814z" />
    <glyph glyph-name="grave" unicode="`" horiz-adv-x="653" 
d="M456 1088q-13 -12 -46 -29t-50 -22l-392 377l32 61q10 3 44 9.5t76.5 14.5t78 13.5t47.5 6.5z" />
    <glyph glyph-name="a" unicode="a" horiz-adv-x="1050" 
d="M1046 122q-56 -39 -121.5 -73.5t-120.5 -56.5t-82 -22q-43 0 -71 52.5t-28 141.5v518q0 60 -25 99t-93 39q-42 0 -80.5 -33t-32.5 -93q1 -9 -38 -25t-93.5 -31t-100.5 -24.5t-58 -6.5l-24 59q33 84 114.5 150.5t192 105t229.5 38.5q147 0 213 -72.5t66 -175.5v-454
q0 -78 40 -78q14 0 31 5.5t57 21.5zM633 468q-110 -18 -158 -34.5t-73 -41.5q-26 -26 -42 -54t-16 -69q0 -64 31 -86.5t57 -22.5q32 0 77 18t124 88l8 -124q-94 -101 -187 -136.5t-161 -35.5q-58 0 -111.5 26.5t-87.5 79.5t-34 130q0 65 24 111.5t61 83.5q33 33 82 62.5
t144 57t262 52.5v-105z" />
    <glyph glyph-name="b" unicode="b" horiz-adv-x="1120" 
d="M1050 512q0 -87 -49 -181.5t-129.5 -176.5t-175.5 -133t-187 -51q-40 0 -104 17t-138.5 45.5t-146.5 63.5v1160q0 60 -7.5 85.5t-32.5 34t-80 14.5v80q104 16 184 32.5t159 47.5q26 -22 47 -44v-679q100 75 190 104t147 29q152 0 237.5 -122t85.5 -326zM800 418
q0 200 -62 278.5t-151 78.5q-35 0 -81.5 -16.5t-115.5 -58.5v-477q80 -37 134.5 -55t82.5 -18q99 0 146 76.5t47 191.5z" />
    <glyph glyph-name="c" unicode="c" horiz-adv-x="945" 
d="M910 190q-87 -97 -160 -144t-137.5 -61.5t-127.5 -14.5q-112 0 -209 56.5t-156.5 163t-59.5 254.5q0 144 69.5 261t193.5 186t287 69q44 0 104.5 -10t114.5 -27.5t76 -41.5q2 -12 -7.5 -53.5t-24.5 -92t-30.5 -92.5t-24.5 -56l-77 10q-38 119 -83 176t-118 57
q-55 0 -103 -34.5t-77.5 -112t-29.5 -208.5q0 -155 71 -240t176 -85q38 0 74.5 7.5t83.5 31.5t116 72z" />
    <glyph glyph-name="d" unicode="d" horiz-adv-x="1175" 
d="M1171 124q-61 -41 -129 -76t-121 -56.5t-72 -21.5q-55 0 -79.5 90.5t-24.5 251.5v922q0 74 -6.5 109t-34.5 47t-94 16v79q119 11 215.5 30t148.5 35l41 -40v-1196q0 -70 5.5 -96t17.5 -32t30 -4t70 25zM819 200q-87 -88 -147 -138t-113.5 -71t-122.5 -21q-94 0 -180 56.5
t-141 163t-55 254.5q0 140 62.5 257.5t173.5 188t255 70.5q60 0 121 -19.5t139 -90.5q0 -60 -13.5 -101.5t-45.5 -61.5q-38 63 -91 98t-121 35q-90 0 -150 -73t-60 -242q0 -154 67.5 -239.5t149.5 -85.5q56 0 105.5 25t119.5 92q9 -4 19 -26t18.5 -44t9.5 -27z" />
    <glyph glyph-name="e" unicode="e" horiz-adv-x="1006" 
d="M946 547q-18 -20 -68 -47t-82 -40h-614l2 120h460q23 0 30.5 7.5t7.5 28.5q0 41 -15.5 92.5t-52 89t-98.5 37.5q-105 0 -140.5 -93.5t-35.5 -254.5q0 -150 60.5 -243.5t175.5 -93.5q42 0 82 7.5t93 32.5t132 76q13 -7 33 -35t24 -36q-94 -92 -165 -141t-138.5 -66.5
t-151.5 -17.5q-117 0 -213.5 60t-154 166.5t-57.5 247.5q0 267 201 417q56 41 133 70t160 29q131 0 218 -55.5t130.5 -149t43.5 -208.5z" />
    <glyph glyph-name="f" unicode="f" horiz-adv-x="715" 
d="M915 1454q0 -19 -21.5 -48.5t-52.5 -59.5t-59.5 -53t-43.5 -30q-47 65 -91.5 93.5t-78.5 28.5t-61 -29.5t-42 -109.5t-15 -230v-86h246l39 -39q-19 -35 -49.5 -74.5t-48.5 -56.5q-23 12 -65 23.5t-122 11.5v-653q0 -12 41 -24.5t158 -34.5v-83h-599v83q68 12 99 29.5
t31 29.5v653h-114l-31 38l78 97h67v31q0 278 159 437q80 80 165 116t153 36q66 0 125 -19t96 -42t37 -35z" />
    <glyph glyph-name="g" unicode="g" horiz-adv-x="1079" 
d="M1060 -100q0 -67 -47 -136t-125.5 -126.5t-175 -92.5t-195.5 -35q-81 0 -169.5 15t-165 47.5t-124.5 84t-48 124.5q0 37 26.5 76t97 88t200.5 116l31.5 -2t63.5 -8.5t35 -20.5q-87 -56 -126 -94.5t-48.5 -65.5t-9.5 -50q0 -61 88 -108t224 -47q113 0 160.5 50t47.5 108
q0 22 -16 45.5t-65.5 44t-150.5 33.5q-196 26 -311 72.5t-115 94.5q0 26 52 85.5t168 134.5l192 17q-82 -60 -100 -93t-18 -41q0 -11 10.5 -21t56 -20.5t149.5 -24.5q161 -21 249.5 -51.5t123.5 -78.5t35 -120zM1079 920q-4 -20 -22.5 -57.5t-34.5 -62.5q-54 -9 -114.5 -14
t-145.5 -2l-37 97q95 8 186.5 35t137.5 44zM920 641q0 -102 -57.5 -180t-153 -122t-210.5 -44q-118 0 -213 38t-150.5 107t-55.5 162q0 98 63 179.5t166.5 130t225.5 48.5q113 0 199.5 -43.5t136 -116t49.5 -159.5zM660 600q0 99 -47 169.5t-137 70.5q-49 0 -92.5 -44.5
t-43.5 -136.5q0 -99 44 -169t140 -70q59 0 97.5 44t38.5 136z" />
    <glyph glyph-name="h" unicode="h" horiz-adv-x="1210" 
d="M660 0v83q72 19 101 33.5t29 27.5v409q0 122 -24.5 164.5t-83.5 42.5q-54 0 -107.5 -24.5t-129.5 -66.5v-525q0 -34 130 -61v-83h-530v83q130 34 130 61v1114q0 56 -5.5 81t-32.5 34.5t-92 16.5v80q122 16 198 33.5t155 46.5l47 -44v-692q124 83 220 114.5t174 31.5
q58 0 108 -25.5t81.5 -84.5t31.5 -159v-547q0 -13 25.5 -27t104.5 -34v-83h-530z" />
    <glyph glyph-name="i" unicode="i" horiz-adv-x="635" 
d="M500 1261q0 -71 -52.5 -114t-132.5 -43q-59 0 -107 27.5t-48 88.5q0 72 54 114t131 42q58 0 106.5 -26.5t48.5 -88.5zM60 0v83q68 14 99 31t31 30v496q0 69 -5.5 103t-32.5 47.5t-92 19.5v80q93 12 173 28.5t153 41.5h74v-816q0 -12 28.5 -29.5t101.5 -31.5v-83h-530z
" />
    <glyph glyph-name="j" unicode="j" horiz-adv-x="610" 
d="M500 1261q0 -71 -52.5 -114t-132.5 -43q-59 0 -107 27.5t-48 88.5q0 72 54 114t131 42q58 0 106.5 -26.5t48.5 -88.5zM455 109q0 -153 -37.5 -246t-93 -147.5t-109.5 -95.5t-131 -75.5t-138 -34.5q-56 0 -115.5 18t-100 41.5t-40.5 39.5t23 43.5t56 56.5t63 51.5t45 29.5
q33 -43 92 -69t96 -26q34 0 61 26t43 101t16 221v597q0 69 -5.5 102.5t-32.5 47t-92 20.5v80q76 10 126.5 19.5t95 21.5t101.5 29h77v-851z" />
    <glyph glyph-name="k" unicode="k" horiz-adv-x="1164" 
d="M1139 847q-44 -4 -90 -22t-90 -50l-377 -279l-147 30l258 233q44 40 49 58.5t-16 24t-56 5.5v83h469v-83zM45 0v83q66 17 98 30t32 31v1112q0 60 -8.5 85.5t-36 34t-85.5 14.5v80q107 14 193.5 31.5t159.5 48.5l47 -44v-1362q0 -15 18 -26.5t92 -34.5v-83h-510zM1174 38
q-39 -9 -93.5 -20.5t-100.5 -19.5t-60 -8q-42 0 -72.5 12t-52.5 41l-358 483l194 76l393 -441q29 -32 57.5 -38t86.5 -2z" />
    <glyph glyph-name="l" unicode="l" horiz-adv-x="635" 
d="M50 0v83q86 15 113 30t27 31v1112q0 59 -9 85t-37 34.5t-84 14.5v80q110 14 190 31t164 49l46 -44v-1362q0 -15 29 -31t111 -30v-83h-550z" />
    <glyph glyph-name="m" unicode="m" horiz-adv-x="1755" 
d="M1216 0v83q72 19 90.5 33.5t18.5 27.5v449q0 82 -11 119.5t-34 47.5t-58 10q-36 0 -88.5 -17.5t-113.5 -59.5v-549q0 -13 21 -27t100 -34v-83h-500v83q72 19 90.5 33.5t18.5 27.5v449q0 82 -8 119.5t-28.5 47.5t-56.5 10q-37 0 -89.5 -16.5t-122.5 -60.5v-549
q0 -15 28 -31t92 -30v-83h-520v83q130 34 130 61v537q0 53 -5.5 77.5t-32.5 34.5t-92 17v80q113 12 188.5 28t151.5 42l45 -45l11 -89q119 88 197 111t150 23q95 0 144 -42t64 -83l4 -11q122 88 201 112t152 24q64 0 119 -25.5t89 -84.5t34 -159v-547q0 -13 31 -27t110 -34
v-83h-520z" />
    <glyph glyph-name="n" unicode="n" horiz-adv-x="1210" 
d="M660 0v83q72 19 101 33.5t29 27.5v429q0 107 -21 147t-77 40q-43 0 -96.5 -16.5t-150.5 -74.5v-525q0 -34 130 -61v-83h-530v83q130 34 130 61v537q0 52 -5.5 77t-32.5 35t-92 17v80q105 11 183.5 26.5t156.5 43.5l45 -45l11 -109q125 89 222.5 121.5t175.5 32.5
q58 0 108 -25.5t81.5 -84.5t31.5 -159v-547q0 -13 25.5 -27t104.5 -34v-83h-530z" />
    <glyph glyph-name="o" unicode="o" horiz-adv-x="1090" 
d="M1030 485q0 -100 -40 -192t-110 -165t-161 -115.5t-193 -42.5q-141 0 -245.5 62t-162.5 169t-58 243q0 133 63.5 250.5t177.5 191.5t264 74q141 0 245.5 -62t162 -169t57.5 -244zM745 435q0 106 -23.5 195.5t-70 144.5t-115.5 55q-76 0 -117.5 -47t-57.5 -127.5
t-16 -182.5q0 -105 26.5 -189.5t74 -134t108.5 -49.5q112 0 151.5 86t39.5 249z" />
    <glyph glyph-name="p" unicode="p" horiz-adv-x="1165" 
d="M713 -30q-58 0 -116.5 23.5t-151.5 84.5v-413q0 -16 37.5 -32t131.5 -30v-83h-569v83q130 31 130 62v1016q0 50 -6 77t-33 38t-91 14v80q86 10 141.5 19t100 21t98.5 30l45 -45l9 -98q115 90 189.5 116.5t131.5 26.5q91 0 169.5 -47.5t127 -148.5t48.5 -262
q0 -102 -38.5 -197t-99.5 -171t-128.5 -120t-125.5 -44zM623 775q-24 0 -42 -3.5t-47.5 -19.5t-88.5 -52v-467q75 -40 119.5 -57.5t75 -21.5t61.5 -4q68 0 108.5 72t40.5 204t-34 208t-86 108.5t-107 32.5z" />
    <glyph glyph-name="q" unicode="q" horiz-adv-x="1145" 
d="M565 -480v83q94 14 132 29.5t38 32.5v1153q16 5 53.5 23t80.5 41t78.5 44.5t47.5 33.5l41 -40l-8 -33t-15.5 -86t-7.5 -114v-1022q0 -16 26.5 -32t102.5 -30v-83h-569zM809 200q-87 -88 -150 -138t-121 -71t-132 -21q-79 0 -159 56.5t-133.5 163t-53.5 254.5
q0 117 34 199t83.5 136t96.5 86q56 39 132.5 67t144.5 28q60 0 116 -21t134 -99q0 -60 -13.5 -101.5t-45.5 -61.5q-31 63 -95 103t-117 40q-89 0 -144.5 -70t-55.5 -235q0 -170 62.5 -252.5t144.5 -82.5q56 0 105.5 25t119.5 92q9 -4 18.5 -26t17.5 -44t11 -27z" />
    <glyph glyph-name="r" unicode="r" horiz-adv-x="941" 
d="M910 913q9 -6 4 -52.5t-18.5 -109.5t-30 -120.5t-28.5 -84.5h-83q-4 81 -31 147.5t-80 66.5q-24 0 -54 -8.5t-66 -42.5t-78 -113v-452q0 -15 42.5 -31t136.5 -30v-83h-579v83q130 30 130 61v512q0 66 -7 92t-16 35q-13 14 -32 19t-75 8v80q83 11 135 20t97 20.5t108 29.5
l45 -45l13 -117q54 66 136 114t168 48q40 0 83.5 -13t79.5 -34z" />
    <glyph glyph-name="s" unicode="s" horiz-adv-x="880" 
d="M809 283q0 -106 -45.5 -169t-113.5 -94t-137.5 -40.5t-117.5 -9.5q-70 0 -156.5 17.5t-153.5 55.5q-8 5 -12 59t0.5 125t18.5 126l93 -11q27 -114 93 -178t147 -64q134 0 134 97q0 54 -34 94t-88.5 73t-115.5 65q-55 29 -110 65.5t-91.5 84.5t-36.5 111q0 83 54.5 143.5
t141 93.5t181.5 33q93 0 179 -21t134 -56q6 -5 3 -35t-12.5 -70.5t-23 -78t-27.5 -56.5l-79 8q-17 94 -63 146.5t-117 52.5q-58 0 -89.5 -24.5t-31.5 -65.5q0 -61 56 -100.5t175 -100.5q58 -29 114.5 -64.5t93.5 -86t37 -125.5z" />
    <glyph glyph-name="t" unicode="t" horiz-adv-x="775" 
d="M756 167q-143 -103 -236.5 -150t-146.5 -47q-91 0 -157 71t-66 210v544h-119l-31 38l78 97h72v196l229 164l41 -35v-325h297l39 -39q-19 -35 -50 -74.5t-51 -56.5q-24 12 -71.5 23.5t-91.5 11.5h-72v-448q0 -97 23.5 -137t53.5 -40q35 0 80 15.5t130 62.5z" />
    <glyph glyph-name="u" unicode="u" horiz-adv-x="1175" 
d="M1169 122q-49 -32 -115.5 -67.5t-121.5 -60t-72 -24.5q-35 0 -68 26.5t-47 129.5q-83 -68 -142.5 -101.5t-105.5 -44t-89 -10.5q-62 0 -121.5 25t-98 92t-38.5 192v402q0 64 -5 91.5t-30 36.5t-84 15v80q110 9 186.5 19.5t164.5 36.5l38 -49v-567q0 -118 27 -151t76 -33
q35 0 88.5 19t133.5 83v419q0 60 -7 89.5t-34 40t-89 13.5v80q110 9 196.5 23.5t163.5 32.5l40 -49v-617q0 -61 5 -80t18 -30q11 -9 30.5 -4t70.5 27z" />
    <glyph glyph-name="v" unicode="v" horiz-adv-x="1050" 
d="M1039 847q-58 -14 -73 -26.5t-27 -41.5l-283 -690q-18 -44 -73.5 -74.5t-111.5 -44.5l-360 809q-12 27 -31.5 42t-69.5 26v83h476v-83q-77 -10 -92 -23t-1 -45l204 -457l193 457q13 30 2.5 43.5t-76.5 24.5v83h323v-83z" />
    <glyph glyph-name="w" unicode="w" horiz-adv-x="1476" 
d="M1465 847q-54 -14 -73 -26.5t-27 -35.5l-221 -726q-8 -29 -37 -47.5t-61 -28t-49 -13.5l-294 626l58 334h30.5h42.5l249 -563l134 418q8 23 0 37t-77 25v83h325v-83zM534 59q-10 -31 -37.5 -49t-57.5 -27t-48 -13l-272 815q-13 40 -109 62v83h476v-83q-82 -10 -97 -26.5
t-8 -35.5l137 -418l237 563h44.5h30.5l1 -185z" />
    <glyph glyph-name="x" unicode="x" horiz-adv-x="1080" 
d="M1035 847q-81 -6 -114 -27.5t-62 -57.5l-266 -336l-103 77l208 261q38 47 28 62t-72 21v83h381v-83zM544 0v83q50 5 76.5 17t-12.5 66l-427 596q-26 36 -56 57.5t-104 27.5v83h520v-83q-61 -6 -71.5 -20.5t23.5 -62.5l423 -592q22 -30 53 -55t97 -34v-83h-522zM331 166
q-27 -34 -21 -51t32 -23t57 -9v-83h-389v83q73 12 106 35.5t57 53.5l276 347l101 -80z" />
    <glyph glyph-name="y" unicode="y" horiz-adv-x="1050" 
d="M1039 847q-60 -14 -79.5 -26.5t-30.5 -41.5l-334 -851q-86 -220 -198.5 -319t-249.5 -99q-51 0 -100 13t-81.5 30.5t-32.5 29.5q0 10 18 37.5t44.5 60t52.5 60t42 37.5q50 -34 101.5 -42.5t88.5 4.5q38 13 76 47.5t74 120.5l29 69l-338 802q-20 47 -111 68v83h476v-83
q-70 -9 -83 -22.5t0 -45.5l193 -457l184 457q12 30 3 44t-68 24v83h324v-83z" />
    <glyph glyph-name="z" unicode="z" horiz-adv-x="976" 
d="M899 358q0 -31 -0.5 -83.5t-2 -109t-4 -102t-5.5 -63.5h-805l-26 45l520 755h-231q-101 0 -157 -230l-79 22l28 354q44 -12 78 -14t98 -2h582l22 -43l-522 -757h317q40 0 60 67.5t50 180.5z" />
    <glyph glyph-name="braceleft" unicode="{" horiz-adv-x="727" 
d="M707 1513q-78 -49 -126 -112t-48 -129q0 -67 10.5 -120.5t20.5 -107t10 -121.5q0 -83 -58 -158t-142 -112q100 -18 150 -88t50 -180q0 -105 -20.5 -191t-20.5 -171q0 -73 29 -125.5t135 -111.5l-43 -101q-126 45 -217.5 93t-140.5 113t-49 161q0 69 10.5 125t20.5 114
t10 131q0 81 -33.5 112.5t-92.5 31.5q-28 0 -32 -0.5t-33 -5.5l-17 93q110 31 159 83t49 127q0 71 -10 123t-20.5 104.5t-10.5 124.5q0 90 56 160t150 125t208 100z" />
    <glyph glyph-name="bar" unicode="|" horiz-adv-x="500" 
d="M340 -343q-18 -16 -64 -35t-71 -27l-45 33v1983q28 17 66.5 34.5t67.5 24.5l46 -32v-1981z" />
    <glyph glyph-name="braceright" unicode="}" horiz-adv-x="727" 
d="M647 631q-109 -31 -158.5 -83t-49.5 -127q0 -71 10.5 -123t20.5 -104.5t10 -124.5q0 -90 -56 -160t-149.5 -125t-208.5 -100l-46 87q78 49 126 112t48 129q0 68 -10 121.5t-20.5 107t-10.5 120.5q0 83 58 158t142 112q-100 18 -150 88t-50 180q0 105 20.5 191t20.5 171
q0 73 -29 126t-135 111l43 101q127 -45 218 -93t140 -112.5t49 -161.5q0 -68 -10 -124.5t-20.5 -114.5t-10.5 -131q0 -81 33.5 -112.5t92.5 -31.5q28 0 32 1t33 5z" />
    <glyph glyph-name="asciitilde" unicode="~" horiz-adv-x="999" 
d="M970 784q-21 -49 -53 -105.5t-74 -107t-91.5 -82.5t-104.5 -32q-42 0 -87.5 24t-92 56t-92.5 56t-89 24q-41 0 -91.5 -39.5t-92.5 -122.5l-73 37q21 49 53.5 105.5t74 107t91 82.5t104.5 32q54 0 102 -24t91.5 -56t84.5 -56t81 -24t92.5 39t93.5 121z" />
    <glyph glyph-name="uni00A0" unicode="&#xa0;" horiz-adv-x="451" 
 />
    <glyph glyph-name="exclamdown" unicode="&#xa1;" horiz-adv-x="658" 
d="M502 818q0 -82 -60 -128t-139 -46q-57 0 -108 33.5t-51 109.5q0 84 58.5 128.5t139.5 44.5q61 0 110.5 -32.5t49.5 -109.5zM482 -438q-30 -16 -82.5 -41.5t-104 -48t-79.5 -32.5l-53 35l89 1026q19 14 54 23t60 16l29 -21z" />
    <glyph glyph-name="cent" unicode="&#xa2;" horiz-adv-x="1061" 
d="M635 12q-41 -36 -95 -53l-35 35v1200q28 17 45.5 30.5t48.5 20.5l36 -32v-1201zM974 360q-87 -96 -157.5 -146t-136.5 -67.5t-141 -17.5q-72 0 -151 29.5t-148.5 87.5t-112.5 143.5t-43 196.5q0 142 72.5 253.5t203 175.5t304.5 64q44 0 107.5 -9.5t120 -27.5t78.5 -43
q2 -11 -7.5 -43t-24.5 -71t-30.5 -71.5t-24.5 -45.5l-75 20q-12 24 -41 60t-76.5 64.5t-116.5 28.5q-58 0 -115 -29.5t-95 -100.5t-38 -195q0 -172 82.5 -253t202.5 -81q68 0 132 31t162 128z" />
    <glyph glyph-name="sterling" unicode="&#xa3;" horiz-adv-x="1061" 
d="M981 1165q-1 -25 -4.5 -73t-9.5 -101t-12.5 -97.5t-12.5 -63.5h-87q-14 124 -66 200t-139 76q-28 0 -65 -12.5t-68.5 -60t-44.5 -151.5t6 -287q15 -140 -9.5 -245.5t-90.5 -198.5q68 6 108.5 6t70 -2t63.5 -3.5t89 -0.5q62 2 101.5 19.5t68 60.5t56.5 121l83 -28
q-5 -57 -15 -125.5t-20.5 -123.5t-15.5 -75q-54 -30 -140.5 -30t-189.5 12.5t-207.5 24t-194 6.5t-148.5 -43l-43 79q48 39 79 76t46.5 90t17 139t-9.5 224q-15 189 42 337.5t172 234t273 85.5q53 0 138.5 -11.5t178.5 -58.5zM755 516h-689l-32 35q5 15 20.5 47.5t21.5 48.5
h689l35 -33z" />
    <glyph glyph-name="currency" unicode="&#xa4;" horiz-adv-x="1061" 
d="M367 769q-34 -34 -52 -78.5t-18 -89.5t17 -87.5t51 -76.5q36 -36 79 -53t88 -17q97 0 165 69q69 71 69 166q0 97 -70 167q-69 68 -164 68q-45 0 -87.5 -16.5t-77.5 -51.5zM273 863q55 54 122 81.5t137 27.5q148 0 257 -109q54 -54 82 -123t28 -141q0 -70 -27.5 -137.5
t-80.5 -121.5q-52 -53 -119.5 -79.5t-139.5 -26.5q-71 0 -139 26.5t-123 81.5q-53 53 -79.5 120t-26.5 137q0 72 27 140.5t82 123.5zM378 357l-209 -207l-46 3q-10 19 -22 42t-21 45l207 207l48 3zM279 765l-198 198l3 47q42 23 87 43l197 -197l3 -48zM889 151l-198 198
l3 47q19 11 42.5 22.5t44.5 21.5l199 -199l1 -48zM978 961l-207 -208l-47 3q-10 19 -22 42.5t-22 44.5l209 209l47 1z" />
    <glyph glyph-name="yen" unicode="&#xa5;" horiz-adv-x="1061" 
d="M226 0v83q91 19 122.5 38.5t31.5 33.5v217h-293l-22 24q5 15 18 52.5t19 53.5h278v10q-70 157 -154 303t-154 240q-17 23 -44 34t-110 11l-4 83q39 6 96.5 13t111.5 12.5t81 5.5q29 0 60 -13t48 -36q74 -99 141.5 -213.5t137.5 -258.5l185 362q15 26 -9.5 41t-101.5 25
v83h426v-83q-68 -13 -100 -26.5t-46 -39.5l-284 -546v-7h265l25 -23l-40 -107h-250v-217q0 -13 31 -33t125 -39v-83h-590z" />
    <glyph glyph-name="brokenbar" unicode="&#xa6;" horiz-adv-x="500" 
d="M346 777q-13 -10 -41.5 -22.5t-57.5 -23t-46 -15.5l-47 32v863q29 17 71.5 34.5t73.5 24.5l47 -32v-861zM346 -344q-13 -10 -41.5 -22.5t-57.5 -23t-46 -16.5l-47 33v852q29 17 71.5 34.5t73.5 27.5l47 -35v-850z" />
    <glyph glyph-name="section" unicode="&#xa7;" horiz-adv-x="1046" 
d="M472 -30q-70 0 -156.5 18t-153.5 55q-7 3 -10.5 35.5t-3.5 81t5 100.5t16 93l93 -11q27 -114 93 -179t147 -65q72 0 103 22t31 77q0 54 -41.5 94t-103.5 73t-123 65q-55 29 -117.5 75t-106.5 114.5t-44 161.5q0 70 41.5 136.5t109 114.5t144.5 61l97 -102q-36 -1 -71 -26
t-58 -61t-23 -73q0 -58 28.5 -98t86.5 -77t146 -86q58 -29 124.5 -67.5t113.5 -91t47 -127.5q0 -106 -45.5 -169t-113.5 -94t-137.5 -40.5t-117.5 -9.5zM714 336l-143 104q50 5 92.5 55t42.5 112q0 69 -28 115t-87.5 86.5t-152.5 90.5q-55 30 -120 69t-111.5 89t-46.5 113
q0 83 54.5 143.5t141 93.5t181.5 33q93 0 179 -21t134 -56q6 -5 3 -35t-12.5 -70.5t-23 -78t-27.5 -56.5l-79 8q-17 94 -63 146.5t-117 52.5q-58 0 -89.5 -24.5t-31.5 -65.5q0 -43 34 -73t93 -59t134 -69q58 -29 122 -75t108.5 -116t44.5 -175q0 -87 -34.5 -157
t-87.5 -116.5t-110 -63.5z" />
    <glyph glyph-name="dieresis" unicode="&#xa8;" horiz-adv-x="801" 
d="M337 1270q0 -79 -50.5 -134.5t-119.5 -55.5q-130 0 -130 130q0 80 52 135t118 55q60 0 95 -32.5t35 -97.5zM767 1270q0 -79 -50.5 -134.5t-119.5 -55.5q-130 0 -130 130q0 80 52 135t118 55q60 0 95 -32.5t35 -97.5z" />
    <glyph glyph-name="copyright" unicode="&#xa9;" horiz-adv-x="1508" 
d="M753 -30q-146 0 -269 55t-213.5 152.5t-140.5 225.5t-50 274t50 274t140.5 225t213.5 151.5t269 54.5t269.5 -54.5t214.5 -151.5t141 -225t50 -274t-50 -274t-141 -225.5t-214.5 -152.5t-269.5 -55zM731 239q-95 0 -179.5 50.5t-137 143t-52.5 218.5q0 122 61 225.5
t168.5 166.5t246.5 63q63 0 134 -23.5t99 -53.5q2 -10 -6 -45.5t-21 -78t-26 -78.5t-21 -48l-65 9q-14 81 -46.5 144.5t-107.5 63.5q-89 0 -141.5 -76t-52.5 -236q0 -132 68.5 -211t157.5 -79q32 0 61 6t67 26t96 61l50 -61q-74 -82 -134 -122t-112.5 -52.5t-106.5 -12.5z
M753 102q159 0 282 77.5t193 208t70 289.5q0 158 -70 288t-193 207.5t-282 77.5q-157 0 -280 -77.5t-193 -207.5t-70 -288q0 -159 70 -289.5t193 -208t280 -77.5z" />
    <glyph glyph-name="ordfeminine" unicode="&#xaa;" horiz-adv-x="577" 
d="M562 811q-46 -31 -94.5 -55.5t-86.5 -24.5q-18 0 -31 32.5t-13 142.5v165q0 62 -8 94t-55 32q-29 0 -47.5 -14t-11.5 -49q1 -4 -19.5 -12t-49.5 -16.5t-53.5 -13t-31.5 -3.5l-13 29q32 71 113 112t171 41q72 0 110 -34.5t38 -138.5v-196q0 -28 4 -40.5t10 -19.5
q5 -3 15.5 0t38.5 14zM284 994q-38 -8 -66 -35t-28 -70q0 -34 16 -46t30 -12q19 0 42 9.5t64 46.5l4 -66q-52 -54 -99.5 -72t-84.5 -18q-40 0 -81.5 25.5t-41.5 88.5q0 62 43 118t146 76l172 34v-55zM41 586v93h494v-93h-494z" />
    <glyph glyph-name="guillemotleft" unicode="&#xab;" horiz-adv-x="1074" 
d="M480 430v17.5t0.5 36t1.5 19.5l409 430l62 -50l-19 -42t-48 -104.5t-57.5 -124.5t-47.5 -104t-18 -41l191 -420l-63 -50zM60 430v17.5t0.5 36t1.5 19.5l409 430l62 -50l-19 -42t-48 -104.5t-57.5 -124.5t-47.5 -104t-18 -41l191 -420l-63 -50z" />
    <glyph glyph-name="logicalnot" unicode="&#xac;" horiz-adv-x="1061" 
d="M971 233q-20 -15 -60.5 -39t-65.5 -32l-35 35v289h-695l-35 34q5 20 23.5 59.5t27.5 58.5h386.5h235.5h123h47h9l39 -32v-373z" />
    <glyph glyph-name="uni00AD" unicode="&#xad;" horiz-adv-x="740" 
d="M690 556q-6 -22 -24.5 -63t-26.5 -58h-554l-35 34q5 22 23.5 62t27.5 59h554z" />
    <glyph glyph-name="registered" unicode="&#xae;" horiz-adv-x="730" 
d="M716 1084q0 -100 -46 -183.5t-125.5 -133t-180.5 -49.5q-100 0 -179 49.5t-124.5 133t-45.5 183.5q0 101 45.5 184t124.5 132.5t179 49.5q101 0 180.5 -49.5t125.5 -132.5t46 -184zM637 1084q0 79 -35 144t-96.5 104t-141.5 39q-78 0 -139.5 -39t-96.5 -104t-35 -144
t35 -144.5t96.5 -104t139.5 -38.5q80 0 141.5 38.5t96.5 104t35 144.5zM519 1196q0 -60 -42.5 -95t-132.5 -35q-15 0 -37 5l-2 42q19 -4 35 -4q50 0 70 20t20 58q0 29 -23 49t-65 20q-28 0 -65.5 -3.5t-69.5 -8.5l-4 35q65 15 150 15q90 0 128 -28.5t38 -69.5zM561 900
q-20 -6 -52.5 -13.5t-43.5 -7.5q-20 0 -27 15l-93 189l61 14l106 -157q7 -10 15.5 -13.5t30.5 -2.5zM205 883v25q38 8 38 17v350h78v-350q0 -4 6.5 -8t28.5 -9v-25h-151z" />
    <glyph glyph-name="macron" unicode="&#xaf;" horiz-adv-x="1010" 
d="M960 1315q-4 -14 -17 -43.5t-26 -57.5t-18 -39h-814l-35 34q4 15 16 43t25.5 56t19.5 41h814z" />
    <glyph glyph-name="degree" unicode="&#xb0;" horiz-adv-x="733" 
d="M627 1052q0 -94 -46.5 -168.5t-116.5 -117.5t-141 -43q-94 0 -155.5 64.5t-61.5 153.5q0 96 46 170.5t116 117t142 42.5q60 0 109 -30.5t78.5 -80t29.5 -108.5zM461 995q0 47 -23 82.5t-62 35.5q-40 0 -71.5 -31t-31.5 -84q0 -45 22.5 -81.5t61.5 -36.5t71.5 30t32.5 85z
" />
    <glyph glyph-name="plusminus" unicode="&#xb1;" horiz-adv-x="870" 
d="M820 736q-6 -22 -24.5 -63t-26.5 -58h-684l-35 34q5 22 23.5 62t27.5 59h684zM515 351q-19 -10 -58.5 -23t-61.5 -18l-35 32v694q19 6 59 20t62 19l34 -33v-691zM820 226q-6 -22 -24.5 -63t-26.5 -58h-684l-35 34q5 22 23.5 62t27.5 59h684z" />
    <glyph glyph-name="twosuperior" unicode="&#xb2;" horiz-adv-x="742" 
d="M659 620h-584l-20 44q122 123 201.5 207t124 140t62.5 94t18 69q0 50 -23 82.5t-76 32.5q-57 0 -78.5 -37.5t-10.5 -83.5q-16 -7 -49 -16t-68 -16t-57 -9l-25 48q0 42 45.5 85t122 72t168.5 29q116 0 183 -37.5t67 -108.5q0 -54 -37 -110.5t-124 -142.5t-239 -227h275
q32 0 47 31t19.5 62l4.5 31l63 -13z" />
    <glyph glyph-name="threesuperior" unicode="&#xb3;" horiz-adv-x="742" 
d="M662 849q0 -67 -42 -123.5t-116.5 -90t-170.5 -33.5q-55 0 -135 24.5t-143 76.5l30 65q64 -40 118.5 -58t106.5 -18q60 0 104 33.5t44 109.5q0 54 -24.5 85t-57.5 43.5t-61 12.5q-19 0 -29.5 -0.5t-32.5 -3.5l-13 60q78 18 116.5 44t50.5 55t12 53q0 41 -18.5 73
t-67.5 32q-30 0 -52.5 -28t-7.5 -69q-31 -16 -81.5 -30t-92.5 -18l-25 43q0 34 37 74.5t104.5 70t157.5 29.5q136 0 192.5 -52.5t56.5 -113.5q0 -45 -42 -92t-108 -64q88 -7 139 -62t51 -128z" />
    <glyph glyph-name="acute" unicode="&#xb4;" horiz-adv-x="653" 
d="M294 1037q-18 3 -52 21t-45 27l204 434q12 -1 48 -6.5t80 -12.5t80 -14t47 -10l33 -59z" />
    <glyph glyph-name="mu" unicode="&#xb5;" horiz-adv-x="1185" 
d="M1185 102q-39 -30 -95.5 -61t-112.5 -51.5t-94 -20.5q-67 0 -100 75t-33 172v62v128v150v128.5v63.5q0 32 -12 82.5t-26 69.5q59 9 142 25t144 35l38 -49q-4 -25 -9 -57.5t-7 -94.5v-51v-106v-125v-110v-59q0 -93 9 -121t30 -28q22 0 42.5 6t53.5 22zM811 234
q-97 -145 -165.5 -205t-145.5 -60q-42 0 -99.5 41.5t-112.5 112t-91.5 158.5t-36.5 181v40.5v72v71v35.5q0 52 -3.5 78t-28 37.5t-87.5 17.5v80q93 6 176 22.5t165 43.5q1 0 20.5 -21t27.5 -32v-54v-128v-152.5v-129.5v-57q0 -63 26.5 -109t60.5 -71t56 -25q26 0 54 13
t68.5 54.5t100.5 124.5zM301 459q-7 -91 -1.5 -178.5t3.5 -204.5q0 -169 58 -285.5t120 -179.5q-15 -5 -54 -20.5t-85 -34t-83.5 -34.5t-49.5 -22l-49 39v64v149v200v219v205.5v159.5v79l20 -16.5t47.5 -41.5t49 -51.5t24.5 -46.5z" />
    <glyph glyph-name="paragraph" unicode="&#xb6;" horiz-adv-x="1276" 
d="M1144 1260l-20.5 -24.5t-48.5 -56t-50.5 -54t-26.5 -18.5q-64 25 -148.5 37.5t-159 17t-110.5 4.5q-59 0 -118 -26t-97.5 -76.5t-38.5 -125.5q0 -72 27 -140.5t85 -113t150 -44.5q65 0 93 4l28 4l8 -95l-35.5 -18.5t-136.5 -18.5q-149 0 -265.5 44.5t-183 131
t-66.5 211.5q0 114 63 201t179.5 136.5t276.5 49.5q35 0 105.5 -3t154 -7.5t160 -9t126 -7.5zM495 -250v83q136 28 136 62l2 1286q0 8 -16.5 2.5t-48.5 -10.5t-81 4v83h719v-83q-136 -29 -136 -62v-1220q0 -13 31.5 -30.5t104.5 -31.5v-83h-711zM892 1164l-80 19v-1288
q0 -11 14.5 -19.5t24.5 -11.5q12 3 26.5 11.5t14.5 19.5v1269z" />
    <glyph glyph-name="periodcentered" unicode="&#xb7;" horiz-adv-x="459" 
d="M409 703q0 -84 -58.5 -128.5t-139.5 -44.5q-61 0 -110.5 33t-49.5 109q0 83 60 128.5t139 45.5q57 0 108 -33t51 -110z" />
    <glyph glyph-name="cedilla" unicode="&#xb8;" horiz-adv-x="469" 
d="M469 -229q0 -49 -52 -95t-137.5 -78t-188.5 -42l-42 79q81 11 116.5 39t35.5 60q0 34 -23 49t-61 18l9 16.5t30.5 70t56.5 164.5l138 -2l-52 -134q170 -30 170 -145z" />
    <glyph glyph-name="onesuperior" unicode="&#xb9;" horiz-adv-x="742" 
d="M105 620v56q110 11 149.5 26t39.5 28v430q0 47 -13 59q-8 8 -46 8t-130 -17l-22 55q30 5 81 17.5t107 29t104.5 31.5t74.5 24l33 -27v-610q0 -12 34.5 -27.5t140.5 -26.5v-56h-553z" />
    <glyph glyph-name="ordmasculine" unicode="&#xba;" horiz-adv-x="574" 
d="M544 1009q0 -68 -36.5 -132t-97 -105t-133.5 -41q-115 0 -181 74t-66 183q0 70 33 135t93.5 107t140.5 42q112 0 179.5 -77t67.5 -186zM39 586v93h495v-93h-495zM394 983q0 84 -26.5 152t-85.5 68t-80.5 -52t-21.5 -137t33 -149.5t79 -64.5q62 0 82 49t20 134z" />
    <glyph glyph-name="guillemotright" unicode="&#xbb;" horiz-adv-x="1074" 
d="M592 427l-409 -430l-62 50l190 416l-191 420l63 50l411 -433zM1012 427l-409 -430l-62 50l190 416l-191 420l63 50l411 -433z" />
    <glyph glyph-name="onequarter" unicode="&#xbc;" horiz-adv-x="1300" 
d="M306 3q-23 -11 -69.5 -18.5t-73.5 -14.5l-25 30l932 1203q13 6 40.5 12t56 11.5t42.5 8.5l25 -28zM1251 216q-12 -16 -30.5 -33t-31.5 -25h-29v-89q0 -7 16.5 -13.5t62.5 -15.5v-40h-347v40q75 11 98 18.5t23 15.5v84h-267l-25 21l272 380q28 8 70.5 19.5t69.5 19.5
l27 -22v-345h76zM1013 461l-173 -230h173v230zM85 637v45q90 9 122 21t32 22v344q0 37 -10 47q-7 6 -37.5 6.5t-106.5 -13.5l-17 44q33 6 93 21.5t119 33t87 27.5l26 -22v-488q0 -10 28.5 -22t114.5 -21v-45h-451z" />
    <glyph glyph-name="onehalf" unicode="&#xbd;" horiz-adv-x="1300" 
d="M306 3q-23 -11 -69.5 -18.5t-73.5 -14.5l-25 30l932 1203q13 6 40.5 12t56 11.5t42.5 8.5l25 -28zM85 637v45q90 9 122 21t32 22v344q0 37 -10 47q-7 6 -37.5 6.5t-106.5 -13.5l-17 44q33 6 93 21.5t119 33t87 27.5l26 -22v-488q0 -10 28.5 -22t114.5 -21v-45h-451z
M1227 0h-475l-17 36q133 132 204.5 208.5t99 121t27.5 78.5q0 39 -18.5 64t-61.5 25q-46 0 -64 -29t-8 -65q-19 -9 -67.5 -20t-74.5 -13l-21 38q0 33 37 67.5t99 58t137 23.5q95 0 149 -30t54 -87q0 -43 -30 -88.5t-100.5 -114t-194.5 -181.5h224q26 0 38.5 25t16.5 50l4 25
l51 -11z" />
    <glyph glyph-name="threequarters" unicode="&#xbe;" horiz-adv-x="1300" 
d="M306 3q-23 -11 -69.5 -18.5t-73.5 -14.5l-25 30l932 1203q13 6 40.5 12t56 11.5t42.5 8.5l25 -28zM539 820q0 -81 -75.5 -139t-192.5 -58q-45 0 -110 20t-117 61l26 51q52 -32 96 -45.5t87 -13.5q48 0 84.5 26t36.5 87q0 65 -42 89t-76 24q-16 0 -24 -0.5t-26 -3.5
l-10 48q95 22 120 57.5t25 64.5q0 33 -15 57.5t-55 24.5q-25 0 -43 -21t-6 -55q-25 -12 -66 -23.5t-76 -13.5l-20 34q0 27 30 59.5t85 56t129 23.5q110 0 155.5 -42t45.5 -91q0 -36 -33.5 -73.5t-86.5 -51.5q71 -6 112.5 -49.5t41.5 -102.5zM1251 216q-12 -16 -30.5 -33
t-31.5 -25h-29v-89q0 -7 16.5 -13.5t62.5 -15.5v-40h-347v40q75 11 98 18.5t23 15.5v84h-267l-25 21l272 380q28 8 70.5 19.5t69.5 19.5l27 -22v-345h76zM1013 461l-173 -230h173v230z" />
    <glyph glyph-name="questiondown" unicode="&#xbf;" horiz-adv-x="947" 
d="M674 818q0 -82 -60 -128t-139 -46q-57 0 -108 33.5t-51 109.5q0 84 58.5 128.5t139.5 44.5q61 0 110.5 -32.5t49.5 -109.5zM434 501q19 14 48.5 24t57.5 17l35 -31l8 -106q5 -86 -29 -165t-80 -152.5t-82 -145t-36 -142.5q0 -123 34.5 -178.5t92.5 -55.5q43 0 76.5 45
t33.5 123q0 14 -3.5 34t-8.5 34q22 11 74.5 26t108 27t84.5 15l37 -40q2 -7 2 -26v-27q0 -94 -65.5 -170.5t-173 -121.5t-233.5 -45q-171 0 -263 87.5t-92 227.5q0 90 36 162.5t89.5 133.5t107.5 117t92.5 113.5t42.5 123.5z" />
    <glyph glyph-name="Agrave" unicode="&#xc0;" horiz-adv-x="1309" 
d="M396 425l-91 -274q-10 -31 23.5 -45t115.5 -23v-83h-444v83q68 12 103 25t45 43l342 1046q55 46 126 75t131 45l420 -1166q10 -28 33.5 -44t87.5 -24v-83h-522v83q77 5 104.5 20t16.5 48l-98 274h-393zM743 555l-161 448l-143 -448h304zM837 1430q-7 -16 -33 -42t-42 -37
l-512 258l9 68q9 6 39 22t67.5 35t69.5 34.5t43 20.5z" />
    <glyph glyph-name="Aacute" unicode="&#xc1;" horiz-adv-x="1309" 
d="M396 425l-91 -274q-10 -31 23.5 -45t115.5 -23v-83h-444v83q68 12 103 25t45 43l342 1046q55 46 126 75t131 45l420 -1166q10 -28 33.5 -44t87.5 -24v-83h-522v83q77 5 104.5 20t16.5 48l-98 274h-393zM743 555l-161 448l-143 -448h304zM491 1355q-16 8 -41 37t-33 41
l363 348q11 -4 43 -20.5t70 -36.5t69.5 -37.5t40.5 -24.5l11 -67z" />
    <glyph glyph-name="Acircumflex" unicode="&#xc2;" horiz-adv-x="1309" 
d="M396 425l-91 -274q-10 -31 23.5 -45t115.5 -23v-83h-444v83q68 12 103 25t45 43l342 1046q55 46 126 75t131 45l420 -1166q10 -28 33.5 -44t87.5 -24v-83h-522v83q77 5 104.5 20t16.5 48l-98 274h-393zM743 555l-161 448l-143 -448h304zM990 1432q-12 -19 -30.5 -43
t-35.5 -32l-281 158l-281 -158q-16 8 -38.5 32t-36.5 43l284 339h147z" />
    <glyph glyph-name="Atilde" unicode="&#xc3;" horiz-adv-x="1309" 
d="M396 425l-91 -274q-10 -31 23.5 -45t115.5 -23v-83h-444v83q68 12 103 25t45 43l342 1046q55 46 126 75t131 45l420 -1166q10 -28 33.5 -44t87.5 -24v-83h-522v83q77 5 104.5 20t16.5 48l-98 274h-393zM743 555l-161 448l-143 -448h304zM1054 1657q-18 -40 -44 -91
t-60 -98t-76 -77.5t-90 -30.5q-61 0 -115 26t-105.5 51.5t-105.5 25.5q-47 0 -76.5 -28.5t-66.5 -84.5l-83 30q18 41 44 92t60 98.5t75.5 78.5t89.5 31q66 0 121.5 -25.5t105.5 -51.5t97 -26q46 0 78.5 27.5t66.5 85.5z" />
    <glyph glyph-name="Adieresis" unicode="&#xc4;" horiz-adv-x="1309" 
d="M396 425l-91 -274q-10 -31 23.5 -45t115.5 -23v-83h-444v83q68 12 103 25t45 43l342 1046q55 46 126 75t131 45l420 -1166q10 -28 33.5 -44t87.5 -24v-83h-522v83q77 5 104.5 20t16.5 48l-98 274h-393zM743 555l-161 448l-143 -448h304zM578 1550q0 -79 -50.5 -134.5
t-119.5 -55.5q-130 0 -130 130q0 80 52 135t118 55q60 0 95 -32.5t35 -97.5zM1008 1550q0 -79 -50.5 -134.5t-119.5 -55.5q-130 0 -130 130q0 80 52 135t118 55q60 0 95 -32.5t35 -97.5z" />
    <glyph glyph-name="Aring" unicode="&#xc5;" horiz-adv-x="1309" 
d="M396 425l-91 -274q-10 -31 23.5 -45t115.5 -23v-83h-444v83q68 12 103 25t45 43l342 1046q55 46 126 75t131 45l420 -1166q10 -28 33.5 -44t87.5 -24v-83h-522v83q77 5 104.5 20t16.5 48l-98 274h-393zM743 555l-161 448l-143 -448h304zM861 1634q0 -72 -34.5 -132
t-90.5 -96t-122 -36q-82 0 -133.5 49.5t-51.5 134.5q0 73 34 133.5t90.5 96.5t122.5 36q87 0 135.5 -51.5t49.5 -134.5zM711 1593q0 48 -19.5 69.5t-36.5 21.5q-41 0 -58.5 -29t-17.5 -60q0 -46 19.5 -67.5t36.5 -21.5q40 0 58 26.5t18 60.5z" />
    <glyph glyph-name="AE" unicode="&#xc6;" horiz-adv-x="1675" 
d="M1633 324q-6 -57 -13.5 -125.5t-14.5 -123.5t-12 -75h-972v83q68 14 100.5 31t32.5 30v471h-251l-188 -464q-13 -29 8.5 -44t92.5 -24v-83h-416v83q59 8 93.5 23.5t47.5 44.5l380 942q14 34 -14 49.5t-126 34.5v83h530h168h449l40 -35q-2 -34 -8 -94.5t-14.5 -117.5
t-18.5 -83h-85q-4 92 -23.5 146t-58.5 54h-326v-395h395l37 -38q-17 -28 -45 -73.5t-47 -63.5q-19 20 -48.5 32t-47 17.5t-3.5 5.5h-241v-421q0 -19 15 -33.5t59.5 -22.5t132.5 -8h84q92 0 137.5 52.5t88.5 169.5zM754 1108q0 22 -22 20t-36 -37l-147 -356h205v373z" />
    <glyph glyph-name="Ccedilla" unicode="&#xc7;" horiz-adv-x="1158" 
d="M1088 211q-127 -129 -252.5 -185t-244.5 -56q-138 0 -262 73.5t-201.5 211.5t-77.5 331q0 213 85 371t231.5 245.5t329.5 87.5q72 0 144.5 -13.5t133.5 -36t95 -50.5q6 -4 -6 -37.5t-32 -77t-40 -80t-32 -48.5l-75 16q-49 101 -114 144t-138 43q-51 0 -103.5 -24.5
t-96.5 -83.5t-70.5 -161t-26.5 -258q0 -167 54 -271.5t136.5 -153t167.5 -48.5q54 0 144.5 25.5t193.5 110.5q11 -8 32 -37.5t25 -37.5zM842 -229q0 -49 -52 -95t-137.5 -78t-188.5 -42l-42 79q81 11 116.5 39t35.5 60q0 34 -23 49t-61 18l9 16.5t30.5 70t56.5 164.5l138 -2
l-52 -134q170 -30 170 -145z" />
    <glyph glyph-name="Egrave" unicode="&#xc8;" horiz-adv-x="1096" 
d="M989 1225q-2 -34 -8.5 -94.5t-15.5 -117.5t-17 -83h-85q-4 92 -24.5 146t-57.5 54h-378l29 130h514zM886 697q-16 -28 -43 -71.5t-49 -59.5q-31 29 -72.5 42t-125.5 13h-207l22 114h439zM1054 324q-5 -57 -12.5 -125.5t-15 -123.5t-13.5 -75h-973v83q68 14 101.5 31
t33.5 30v971q0 12 -31.5 30t-103.5 32v83h560v-83q-67 -7 -106 -16.5t-39 -23.5v-943q0 -19 14.5 -33.5t58 -22.5t131.5 -8h89q92 0 136 52.5t87 169.5zM740 1430q-7 -16 -33 -42t-42 -37l-512 258l9 68q9 6 39 22t67.5 35t69.5 34.5t43 20.5z" />
    <glyph glyph-name="Eacute" unicode="&#xc9;" horiz-adv-x="1096" 
d="M989 1225q-2 -34 -8.5 -94.5t-15.5 -117.5t-17 -83h-85q-4 92 -24.5 146t-57.5 54h-378l29 130h514zM886 697q-16 -28 -43 -71.5t-49 -59.5q-31 29 -72.5 42t-125.5 13h-207l22 114h439zM1054 324q-5 -57 -12.5 -125.5t-15 -123.5t-13.5 -75h-973v83q68 14 101.5 31
t33.5 30v971q0 12 -31.5 30t-103.5 32v83h560v-83q-67 -7 -106 -16.5t-39 -23.5v-943q0 -19 14.5 -33.5t58 -22.5t131.5 -8h89q92 0 136 52.5t87 169.5zM394 1355q-16 8 -41 37t-33 41l363 348q11 -4 43 -20.5t70 -36.5t69.5 -37.5t40.5 -24.5l11 -67z" />
    <glyph glyph-name="Ecircumflex" unicode="&#xca;" horiz-adv-x="1096" 
d="M989 1225q-2 -34 -8.5 -94.5t-15.5 -117.5t-17 -83h-85q-4 92 -24.5 146t-57.5 54h-378l29 130h514zM886 697q-16 -28 -43 -71.5t-49 -59.5q-31 29 -72.5 42t-125.5 13h-207l22 114h439zM1054 324q-5 -57 -12.5 -125.5t-15 -123.5t-13.5 -75h-973v83q68 14 101.5 31
t33.5 30v971q0 12 -31.5 30t-103.5 32v83h560v-83q-67 -7 -106 -16.5t-39 -23.5v-943q0 -19 14.5 -33.5t58 -22.5t131.5 -8h89q92 0 136 52.5t87 169.5zM893 1432q-12 -19 -30.5 -43t-35.5 -32l-281 158l-281 -158q-16 8 -38.5 32t-36.5 43l284 339h147z" />
    <glyph glyph-name="Edieresis" unicode="&#xcb;" horiz-adv-x="1096" 
d="M989 1225q-2 -34 -8.5 -94.5t-15.5 -117.5t-17 -83h-85q-4 92 -24.5 146t-57.5 54h-378l29 130h514zM886 697q-16 -28 -43 -71.5t-49 -59.5q-31 29 -72.5 42t-125.5 13h-207l22 114h439zM1054 324q-5 -57 -12.5 -125.5t-15 -123.5t-13.5 -75h-973v83q68 14 101.5 31
t33.5 30v971q0 12 -31.5 30t-103.5 32v83h560v-83q-67 -7 -106 -16.5t-39 -23.5v-943q0 -19 14.5 -33.5t58 -22.5t131.5 -8h89q92 0 136 52.5t87 169.5zM481 1550q0 -79 -50.5 -134.5t-119.5 -55.5q-130 0 -130 130q0 80 52 135t118 55q60 0 95 -32.5t35 -97.5zM911 1550
q0 -79 -50.5 -134.5t-119.5 -55.5q-130 0 -130 130q0 80 52 135t118 55q60 0 95 -32.5t35 -97.5z" />
    <glyph glyph-name="Igrave" unicode="&#xcc;" horiz-adv-x="690" 
d="M60 0v83q68 14 101.5 31t33.5 30v971q0 12 -31.5 30t-103.5 32v83h550v-83q-135 -28 -135 -62v-971q0 -12 31.5 -29.5t103.5 -31.5v-83h-550zM528 1430q-7 -16 -33 -42t-42 -37l-512 258l9 68q9 6 39 22t67.5 35t69.5 34.5t43 20.5z" />
    <glyph glyph-name="Iacute" unicode="&#xcd;" horiz-adv-x="690" 
d="M60 0v83q68 14 101.5 31t33.5 30v971q0 12 -31.5 30t-103.5 32v83h550v-83q-135 -28 -135 -62v-971q0 -12 31.5 -29.5t103.5 -31.5v-83h-550zM182 1355q-16 8 -41 37t-33 41l363 348q11 -4 43 -20.5t70 -36.5t69.5 -37.5t40.5 -24.5l11 -67z" />
    <glyph glyph-name="Icircumflex" unicode="&#xce;" horiz-adv-x="690" 
d="M60 0v83q68 14 101.5 31t33.5 30v971q0 12 -31.5 30t-103.5 32v83h550v-83q-135 -28 -135 -62v-971q0 -12 31.5 -29.5t103.5 -31.5v-83h-550zM681 1432q-12 -19 -30.5 -43t-35.5 -32l-281 158l-281 -158q-16 8 -38.5 32t-36.5 43l284 339h147z" />
    <glyph glyph-name="Idieresis" unicode="&#xcf;" horiz-adv-x="690" 
d="M60 0v83q68 14 101.5 31t33.5 30v971q0 12 -31.5 30t-103.5 32v83h550v-83q-135 -28 -135 -62v-971q0 -12 31.5 -29.5t103.5 -31.5v-83h-550zM269 1550q0 -79 -50.5 -134.5t-119.5 -55.5q-130 0 -130 130q0 80 52 135t118 55q60 0 95 -32.5t35 -97.5zM699 1550
q0 -79 -50.5 -134.5t-119.5 -55.5q-130 0 -130 130q0 80 52 135t118 55q60 0 95 -32.5t35 -97.5z" />
    <glyph glyph-name="Eth" unicode="&#xd0;" horiz-adv-x="1334" 
d="M675 615h-625l-22 24q5 15 18 52.5t19 53.5h625l25 -23zM40 0v83q68 14 101.5 31t33.5 30v1003q-39 -5 -73.5 -10t-61.5 -9l-14 102q69 17 169 30.5t207 21.5t196 8q316 0 485.5 -162t169.5 -452q0 -187 -55 -316.5t-145 -209t-198.5 -115t-215.5 -35.5h-89h-224h-244
h-42zM597 114q54 0 115.5 29t116.5 91.5t89.5 162t34.5 240.5q0 266 -109.5 402.5t-320.5 136.5q-16 0 -33 -0.5t-35 -1.5v-1000q0 -38 42 -49t100 -11z" />
    <glyph glyph-name="Ntilde" unicode="&#xd1;" horiz-adv-x="1369" 
d="M1330 1177q-72 -10 -103.5 -29t-31.5 -33v-1083l-160 39v1044q0 12 -27.5 31.5t-107.5 30.5v83h430v-83zM1195 -30q-110 8 -178.5 43t-100.5 78l-678 939q-41 58 -93 98.5t-105 48.5v83h302q29 0 44 -13t52 -65l619 -859q11 -15 33 -43t46.5 -58t41.5 -51l17 -21v-180z
M40 0v83q74 9 104.5 28.5t30.5 32.5v1012l160 65v-1077q0 -12 29 -31t106 -30v-83h-430zM1095 1657q-18 -40 -44 -91t-60 -98t-76 -77.5t-90 -30.5q-61 0 -115 26t-105.5 51.5t-105.5 25.5q-47 0 -76.5 -28.5t-66.5 -84.5l-83 30q18 41 44 92t60 98.5t75.5 78.5t89.5 31
q66 0 121.5 -25.5t105.5 -51.5t97 -26q46 0 78.5 27.5t66.5 85.5z" />
    <glyph glyph-name="Ograve" unicode="&#xd2;" horiz-adv-x="1289" 
d="M605 -30q-128 0 -230.5 52.5t-175 142.5t-111 205.5t-38.5 241.5q0 136 44 258.5t126 217t194.5 148.5t248.5 54q135 0 238.5 -54t174 -145.5t106.5 -206.5t36 -237q0 -136 -48.5 -258t-133.5 -216.5t-195.5 -148.5t-235.5 -54zM654 110q121 0 200 127t79 392
q0 138 -41 258t-115 194t-173 74q-133 0 -201 -134.5t-68 -379.5q0 -149 43.5 -269.5t116 -191t159.5 -70.5zM839 1430q-7 -16 -33 -42t-42 -37l-512 258l9 68q9 6 39 22t67.5 35t69.5 34.5t43 20.5z" />
    <glyph glyph-name="Oacute" unicode="&#xd3;" horiz-adv-x="1289" 
d="M605 -30q-128 0 -230.5 52.5t-175 142.5t-111 205.5t-38.5 241.5q0 136 44 258.5t126 217t194.5 148.5t248.5 54q135 0 238.5 -54t174 -145.5t106.5 -206.5t36 -237q0 -136 -48.5 -258t-133.5 -216.5t-195.5 -148.5t-235.5 -54zM654 110q121 0 200 127t79 392
q0 138 -41 258t-115 194t-173 74q-133 0 -201 -134.5t-68 -379.5q0 -149 43.5 -269.5t116 -191t159.5 -70.5zM493 1355q-16 8 -41 37t-33 41l363 348q11 -4 43 -20.5t70 -36.5t69.5 -37.5t40.5 -24.5l11 -67z" />
    <glyph glyph-name="Ocircumflex" unicode="&#xd4;" horiz-adv-x="1289" 
d="M605 -30q-128 0 -230.5 52.5t-175 142.5t-111 205.5t-38.5 241.5q0 136 44 258.5t126 217t194.5 148.5t248.5 54q135 0 238.5 -54t174 -145.5t106.5 -206.5t36 -237q0 -136 -48.5 -258t-133.5 -216.5t-195.5 -148.5t-235.5 -54zM654 110q121 0 200 127t79 392
q0 138 -41 258t-115 194t-173 74q-133 0 -201 -134.5t-68 -379.5q0 -149 43.5 -269.5t116 -191t159.5 -70.5zM992 1432q-12 -19 -30.5 -43t-35.5 -32l-281 158l-281 -158q-16 8 -38.5 32t-36.5 43l284 339h147z" />
    <glyph glyph-name="Otilde" unicode="&#xd5;" horiz-adv-x="1289" 
d="M605 -30q-128 0 -230.5 52.5t-175 142.5t-111 205.5t-38.5 241.5q0 136 44 258.5t126 217t194.5 148.5t248.5 54q135 0 238.5 -54t174 -145.5t106.5 -206.5t36 -237q0 -136 -48.5 -258t-133.5 -216.5t-195.5 -148.5t-235.5 -54zM654 110q121 0 200 127t79 392
q0 138 -41 258t-115 194t-173 74q-133 0 -201 -134.5t-68 -379.5q0 -149 43.5 -269.5t116 -191t159.5 -70.5zM1056 1657q-18 -40 -44 -91t-60 -98t-76 -77.5t-90 -30.5q-61 0 -115 26t-105.5 51.5t-105.5 25.5q-47 0 -76.5 -28.5t-66.5 -84.5l-83 30q18 41 44 92t60 98.5
t75.5 78.5t89.5 31q66 0 121.5 -25.5t105.5 -51.5t97 -26q46 0 78.5 27.5t66.5 85.5z" />
    <glyph glyph-name="Odieresis" unicode="&#xd6;" horiz-adv-x="1289" 
d="M605 -30q-128 0 -230.5 52.5t-175 142.5t-111 205.5t-38.5 241.5q0 136 44 258.5t126 217t194.5 148.5t248.5 54q135 0 238.5 -54t174 -145.5t106.5 -206.5t36 -237q0 -136 -48.5 -258t-133.5 -216.5t-195.5 -148.5t-235.5 -54zM654 110q121 0 200 127t79 392
q0 138 -41 258t-115 194t-173 74q-133 0 -201 -134.5t-68 -379.5q0 -149 43.5 -269.5t116 -191t159.5 -70.5zM580 1550q0 -79 -50.5 -134.5t-119.5 -55.5q-130 0 -130 130q0 80 52 135t118 55q60 0 95 -32.5t35 -97.5zM1010 1550q0 -79 -50.5 -134.5t-119.5 -55.5
q-130 0 -130 130q0 80 52 135t118 55q60 0 95 -32.5t35 -97.5z" />
    <glyph glyph-name="multiply" unicode="&#xd7;" horiz-adv-x="840" 
d="M758 290q-13 -5 -40.5 -14.5t-54.5 -17.5t-41 -11l-542 542l-1 49q20 9 67.5 19.5t69.5 15.5l542 -542v-41zM83 334l539 539q22 -5 68 -17t65 -26v-44l-539 -539q-19 5 -62 16t-71 27v44z" />
    <glyph glyph-name="Oslash" unicode="&#xd8;" horiz-adv-x="1289" 
d="M1218 647q0 -136 -48.5 -258t-133.5 -216.5t-195.5 -148.5t-235.5 -54q-128 0 -230.5 52.5t-175 142.5t-111 205.5t-38.5 241.5q0 136 44 258.5t126 217t194.5 148.5t248.5 54q135 0 238.5 -54t174 -145.5t106.5 -206.5t36 -237zM933 629q0 138 -41 258t-115 194t-173 74
q-133 0 -201 -134.5t-68 -379.5q0 -149 43.5 -269.5t116 -191t159.5 -70.5q121 0 200 127t79 392zM267 -2q-12 -10 -47.5 -21.5t-72.5 -19.5t-54 -10l-33 38l943 1279q19 11 51.5 21.5t66.5 18t54 9.5l33 -38z" />
    <glyph glyph-name="Ugrave" unicode="&#xd9;" horiz-adv-x="1379" 
d="M1325 1177q-135 -28 -135 -62v-591q0 -175 -66 -299t-180 -189.5t-258 -65.5q-137 0 -253.5 51t-187 156t-70.5 267v671q0 12 -31.5 30t-103.5 32v83h550v-83q-135 -28 -135 -62v-601q0 -192 64.5 -290.5t235.5 -98.5q95 0 148.5 53.5t75 139.5t21.5 185v612
q0 12 -31.5 30t-103.5 32v83h460v-83zM890 1430q-7 -16 -33 -42t-42 -37l-512 258l9 68q9 6 39 22t67.5 35t69.5 34.5t43 20.5z" />
    <glyph glyph-name="Uacute" unicode="&#xda;" horiz-adv-x="1379" 
d="M1325 1177q-135 -28 -135 -62v-591q0 -175 -66 -299t-180 -189.5t-258 -65.5q-137 0 -253.5 51t-187 156t-70.5 267v671q0 12 -31.5 30t-103.5 32v83h550v-83q-135 -28 -135 -62v-601q0 -192 64.5 -290.5t235.5 -98.5q95 0 148.5 53.5t75 139.5t21.5 185v612
q0 12 -31.5 30t-103.5 32v83h460v-83zM544 1355q-16 8 -41 37t-33 41l363 348q11 -4 43 -20.5t70 -36.5t69.5 -37.5t40.5 -24.5l11 -67z" />
    <glyph glyph-name="Ucircumflex" unicode="&#xdb;" horiz-adv-x="1379" 
d="M1325 1177q-135 -28 -135 -62v-591q0 -175 -66 -299t-180 -189.5t-258 -65.5q-137 0 -253.5 51t-187 156t-70.5 267v671q0 12 -31.5 30t-103.5 32v83h550v-83q-135 -28 -135 -62v-601q0 -192 64.5 -290.5t235.5 -98.5q95 0 148.5 53.5t75 139.5t21.5 185v612
q0 12 -31.5 30t-103.5 32v83h460v-83zM1043 1432q-12 -19 -30.5 -43t-35.5 -32l-281 158l-281 -158q-16 8 -38.5 32t-36.5 43l284 339h147z" />
    <glyph glyph-name="Udieresis" unicode="&#xdc;" horiz-adv-x="1379" 
d="M1325 1177q-135 -28 -135 -62v-591q0 -175 -66 -299t-180 -189.5t-258 -65.5q-137 0 -253.5 51t-187 156t-70.5 267v671q0 12 -31.5 30t-103.5 32v83h550v-83q-135 -28 -135 -62v-601q0 -192 64.5 -290.5t235.5 -98.5q95 0 148.5 53.5t75 139.5t21.5 185v612
q0 12 -31.5 30t-103.5 32v83h460v-83zM631 1550q0 -79 -50.5 -134.5t-119.5 -55.5q-130 0 -130 130q0 80 52 135t118 55q60 0 95 -32.5t35 -97.5zM1061 1550q0 -79 -50.5 -134.5t-119.5 -55.5q-130 0 -130 130q0 80 52 135t118 55q60 0 95 -32.5t35 -97.5z" />
    <glyph glyph-name="Yacute" unicode="&#xdd;" horiz-adv-x="1267" 
d="M1236 1177q-68 -13 -100 -26.5t-46 -39.5l-335 -632h-240q-47 111 -111.5 232t-130 227.5t-115.5 172.5q-17 23 -44 34t-110 11l-4 83q39 6 94 13t106.5 12.5t78.5 5.5q29 0 60 -13t48 -36q49 -66 103.5 -156t108.5 -190.5t100 -196.5l222 433q15 26 -9.5 41t-101.5 25
v83h426v-83zM340 0v83q91 19 122.5 38.5t31.5 33.5v482h280v-482q0 -13 31 -33t125 -39v-83h-590zM481 1355q-16 8 -41 37t-33 41l363 348q11 -4 43 -20.5t70 -36.5t69.5 -37.5t40.5 -24.5l11 -67z" />
    <glyph glyph-name="Thorn" unicode="&#xde;" horiz-adv-x="1191" 
d="M1124 676q0 -104 -40.5 -183t-105 -132t-139.5 -79.5t-144 -26.5q-46 0 -91.5 7.5t-79.5 22.5l-33 115q41 -19 70 -24.5t64 -5.5q85 0 149.5 62t64.5 203q0 134 -82 206.5t-222 72.5q-56 0 -126.5 -4.5t-141.5 -12.5l-12 111q176 22 337 22q159 0 278.5 -41t186.5 -119.5
t67 -193.5zM41 0v83q136 27 136 61v971q0 12 -32 30t-104 32v83h581v-83q-103 -17 -134 -32.5t-31 -29.5v-971q0 -12 30.5 -28t134.5 -33v-83h-581z" />
    <glyph glyph-name="germandbls" unicode="&#xdf;" horiz-adv-x="1332" 
d="M1292 283q0 -131 -104.5 -222t-308.5 -91q-61 0 -125 13.5t-110.5 30.5t-56.5 29q-8 10 -11 55t-1.5 100t7 100t12.5 55l93 -11q26 -118 85.5 -180t135.5 -62q63 0 98.5 26t35.5 81q0 62 -33 103.5t-85.5 73.5t-111 62t-111 66.5t-85.5 88.5t-33 128q0 72 32.5 115.5
t80.5 71.5t96 53.5t80.5 60t32.5 92.5q0 131 -73.5 202t-186.5 71q-54 0 -99.5 -31t-73 -117t-27.5 -251v-996h-400v83q68 12 99 29.5t31 29.5v799q0 161 43 263t103 161.5t112 92.5q59 38 141 65t169 27q132 0 229.5 -53t151 -135.5t53.5 -171.5q0 -98 -34.5 -155t-86 -89
t-103 -53.5t-86 -48t-34.5 -74.5q0 -47 33 -80.5t85.5 -60.5t111 -56t111 -66.5t85.5 -91.5t33 -132z" />
    <glyph glyph-name="agrave" unicode="&#xe0;" horiz-adv-x="1050" 
d="M1046 122q-56 -39 -121.5 -73.5t-120.5 -56.5t-82 -22q-43 0 -71 52.5t-28 141.5v518q0 60 -25 99t-93 39q-42 0 -80.5 -33t-32.5 -93q1 -9 -38 -25t-93.5 -31t-100.5 -24.5t-58 -6.5l-24 59q33 84 114.5 150.5t192 105t229.5 38.5q147 0 213 -72.5t66 -175.5v-454
q0 -78 40 -78q14 0 31 5.5t57 21.5zM633 468q-110 -18 -158 -34.5t-73 -41.5q-26 -26 -42 -54t-16 -69q0 -64 31 -86.5t57 -22.5q32 0 77 18t124 88l8 -124q-94 -101 -187 -136.5t-161 -35.5q-58 0 -111.5 26.5t-87.5 79.5t-34 130q0 65 24 111.5t61 83.5q33 33 82 62.5
t144 57t262 52.5v-105zM659 1088q-13 -12 -46 -29t-50 -22l-392 377l32 61q10 3 44 9.5t76.5 14.5t78 13.5t47.5 6.5z" />
    <glyph glyph-name="aacute" unicode="&#xe1;" horiz-adv-x="1050" 
d="M1046 122q-56 -39 -121.5 -73.5t-120.5 -56.5t-82 -22q-43 0 -71 52.5t-28 141.5v518q0 60 -25 99t-93 39q-42 0 -80.5 -33t-32.5 -93q1 -9 -38 -25t-93.5 -31t-100.5 -24.5t-58 -6.5l-24 59q33 84 114.5 150.5t192 105t229.5 38.5q147 0 213 -72.5t66 -175.5v-454
q0 -78 40 -78q14 0 31 5.5t57 21.5zM633 468q-110 -18 -158 -34.5t-73 -41.5q-26 -26 -42 -54t-16 -69q0 -64 31 -86.5t57 -22.5q32 0 77 18t124 88l8 -124q-94 -101 -187 -136.5t-161 -35.5q-58 0 -111.5 26.5t-87.5 79.5t-34 130q0 65 24 111.5t61 83.5q33 33 82 62.5
t144 57t262 52.5v-105zM460 1037q-18 3 -52 21t-45 27l204 434q12 -1 48 -6.5t80 -12.5t80 -14t47 -10l33 -59z" />
    <glyph glyph-name="acircumflex" unicode="&#xe2;" horiz-adv-x="1050" 
d="M1046 122q-56 -39 -121.5 -73.5t-120.5 -56.5t-82 -22q-43 0 -71 52.5t-28 141.5v518q0 60 -25 99t-93 39q-42 0 -80.5 -33t-32.5 -93q1 -9 -38 -25t-93.5 -31t-100.5 -24.5t-58 -6.5l-24 59q33 84 114.5 150.5t192 105t229.5 38.5q147 0 213 -72.5t66 -175.5v-454
q0 -78 40 -78q14 0 31 5.5t57 21.5zM633 468q-110 -18 -158 -34.5t-73 -41.5q-26 -26 -42 -54t-16 -69q0 -64 31 -86.5t57 -22.5q32 0 77 18t124 88l8 -124q-94 -101 -187 -136.5t-161 -35.5q-58 0 -111.5 26.5t-87.5 79.5t-34 130q0 65 24 111.5t61 83.5q33 33 82 62.5
t144 57t262 52.5v-105zM872 1112q-12 -19 -29 -43t-34 -32l-284 208l-281 -208q-16 8 -38.5 32t-36.5 43l284 389h147z" />
    <glyph glyph-name="atilde" unicode="&#xe3;" horiz-adv-x="1050" 
d="M1046 122q-56 -39 -121.5 -73.5t-120.5 -56.5t-82 -22q-43 0 -71 52.5t-28 141.5v518q0 60 -25 99t-93 39q-42 0 -80.5 -33t-32.5 -93q1 -9 -38 -25t-93.5 -31t-100.5 -24.5t-58 -6.5l-24 59q33 84 114.5 150.5t192 105t229.5 38.5q147 0 213 -72.5t66 -175.5v-454
q0 -78 40 -78q14 0 31 5.5t57 21.5zM633 468q-110 -18 -158 -34.5t-73 -41.5q-26 -26 -42 -54t-16 -69q0 -64 31 -86.5t57 -22.5q32 0 77 18t124 88l8 -124q-94 -101 -187 -136.5t-161 -35.5q-58 0 -111.5 26.5t-87.5 79.5t-34 130q0 65 24 111.5t61 83.5q33 33 82 62.5
t144 57t262 52.5v-105zM927 1356q-23 -54 -61.5 -120.5t-92.5 -115.5t-126 -49q-51 0 -94.5 26t-83 51.5t-78.5 25.5q-32 0 -65.5 -34t-68.5 -90l-93 34q24 55 62 121.5t92 115t126 48.5q56 0 99 -25.5t80.5 -51.5t74.5 -26q31 0 66.5 35.5t69.5 93.5z" />
    <glyph glyph-name="adieresis" unicode="&#xe4;" horiz-adv-x="1050" 
d="M1046 122q-56 -39 -121.5 -73.5t-120.5 -56.5t-82 -22q-43 0 -71 52.5t-28 141.5v518q0 60 -25 99t-93 39q-42 0 -80.5 -33t-32.5 -93q1 -9 -38 -25t-93.5 -31t-100.5 -24.5t-58 -6.5l-24 59q33 84 114.5 150.5t192 105t229.5 38.5q147 0 213 -72.5t66 -175.5v-454
q0 -78 40 -78q14 0 31 5.5t57 21.5zM633 468q-110 -18 -158 -34.5t-73 -41.5q-26 -26 -42 -54t-16 -69q0 -64 31 -86.5t57 -22.5q32 0 77 18t124 88l8 -124q-94 -101 -187 -136.5t-161 -35.5q-58 0 -111.5 26.5t-87.5 79.5t-34 130q0 65 24 111.5t61 83.5q33 33 82 62.5
t144 57t262 52.5v-105zM461 1270q0 -79 -50.5 -134.5t-119.5 -55.5q-130 0 -130 130q0 80 52 135t118 55q60 0 95 -32.5t35 -97.5zM891 1270q0 -79 -50.5 -134.5t-119.5 -55.5q-130 0 -130 130q0 80 52 135t118 55q60 0 95 -32.5t35 -97.5z" />
    <glyph glyph-name="aring" unicode="&#xe5;" horiz-adv-x="1050" 
d="M1046 122q-56 -39 -121.5 -73.5t-120.5 -56.5t-82 -22q-43 0 -71 52.5t-28 141.5v518q0 60 -25 99t-93 39q-42 0 -80.5 -33t-32.5 -93q1 -9 -38 -25t-93.5 -31t-100.5 -24.5t-58 -6.5l-24 59q33 84 114.5 150.5t192 105t229.5 38.5q147 0 213 -72.5t66 -175.5v-454
q0 -78 40 -78q14 0 31 5.5t57 21.5zM633 468q-110 -18 -158 -34.5t-73 -41.5q-26 -26 -42 -54t-16 -69q0 -64 31 -86.5t57 -22.5q32 0 77 18t124 88l8 -124q-94 -101 -187 -136.5t-161 -35.5q-58 0 -111.5 26.5t-87.5 79.5t-34 130q0 65 24 111.5t61 83.5q33 33 82 62.5
t144 57t262 52.5v-105zM743 1314q0 -72 -34.5 -132t-90.5 -96t-122 -36q-82 0 -133.5 49.5t-51.5 134.5q0 73 34 133.5t90.5 96.5t122.5 36q87 0 135.5 -51.5t49.5 -134.5zM593 1273q0 48 -19.5 69.5t-36.5 21.5q-41 0 -58.5 -29t-17.5 -60q0 -46 19.5 -67.5t36.5 -21.5
q40 0 58 26.5t18 60.5z" />
    <glyph glyph-name="ae" unicode="&#xe6;" horiz-adv-x="1529" 
d="M293 -30q-48 0 -102 22.5t-92.5 74t-38.5 139.5q0 119 91.5 212.5t301.5 141.5q26 6 77 10t105 6v76q0 93 -32.5 130.5t-85.5 37.5q-32 0 -66 -14.5t-54 -42t-11 -67.5q2 -10 -36 -25.5t-91.5 -31t-99 -24.5t-57.5 -6l-24 56q38 86 104.5 143t145 90t152 47.5t125.5 14.5
q71 0 127.5 -20.5t93.5 -70.5q66 50 138 70.5t133 20.5q117 0 200 -57.5t127.5 -151.5t44.5 -204q-19 -20 -64.5 -47t-77.5 -40h-442v-6v-6q0 -57 26 -126.5t78 -119.5t131 -50q63 0 128 26t156 88q13 -7 33 -35t24 -36q-80 -85 -145.5 -134.5t-133.5 -70t-156 -20.5
q-85 0 -182 55.5t-157 155.5q-92 -114 -191.5 -162.5t-202.5 -48.5zM432 160q44 0 98 22.5t118 88.5q-13 47 -13 94v91q-36 -1 -68 -2.5t-41 -3.5q-118 -25 -155 -77t-37 -104q0 -57 32 -83t66 -26zM891 580h294q38 0 38 36q0 110 -45.5 167t-109.5 57q-31 0 -67.5 -16.5
t-66.5 -71.5t-43 -172z" />
    <glyph glyph-name="ccedilla" unicode="&#xe7;" horiz-adv-x="945" 
d="M910 190q-87 -97 -160 -144t-137.5 -61.5t-127.5 -14.5q-112 0 -209 56.5t-156.5 163t-59.5 254.5q0 144 69.5 261t193.5 186t287 69q44 0 104.5 -10t114.5 -27.5t76 -41.5q2 -12 -7.5 -53.5t-24.5 -92t-30.5 -92.5t-24.5 -56l-77 10q-38 119 -83 176t-118 57
q-55 0 -103 -34.5t-77.5 -112t-29.5 -208.5q0 -155 71 -240t176 -85q38 0 74.5 7.5t83.5 31.5t116 72zM748 -229q0 -49 -52 -95t-137.5 -78t-188.5 -42l-42 79q81 11 116.5 39t35.5 60q0 34 -23 49t-61 18l9 16.5t30.5 70t56.5 164.5l138 -2l-52 -134q170 -30 170 -145z" />
    <glyph glyph-name="egrave" unicode="&#xe8;" horiz-adv-x="1006" 
d="M946 547q-18 -20 -68 -47t-82 -40h-614l2 120h460q23 0 30.5 7.5t7.5 28.5q0 41 -15.5 92.5t-52 89t-98.5 37.5q-105 0 -140.5 -93.5t-35.5 -254.5q0 -150 60.5 -243.5t175.5 -93.5q42 0 82 7.5t93 32.5t132 76q13 -7 33 -35t24 -36q-94 -92 -165 -141t-138.5 -66.5
t-151.5 -17.5q-117 0 -213.5 60t-154 166.5t-57.5 247.5q0 267 201 417q56 41 133 70t160 29q131 0 218 -55.5t130.5 -149t43.5 -208.5zM677 1088q-13 -12 -46 -29t-50 -22l-392 377l32 61q10 3 44 9.5t76.5 14.5t78 13.5t47.5 6.5z" />
    <glyph glyph-name="eacute" unicode="&#xe9;" horiz-adv-x="1006" 
d="M946 547q-18 -20 -68 -47t-82 -40h-614l2 120h460q23 0 30.5 7.5t7.5 28.5q0 41 -15.5 92.5t-52 89t-98.5 37.5q-105 0 -140.5 -93.5t-35.5 -254.5q0 -150 60.5 -243.5t175.5 -93.5q42 0 82 7.5t93 32.5t132 76q13 -7 33 -35t24 -36q-94 -92 -165 -141t-138.5 -66.5
t-151.5 -17.5q-117 0 -213.5 60t-154 166.5t-57.5 247.5q0 267 201 417q56 41 133 70t160 29q131 0 218 -55.5t130.5 -149t43.5 -208.5zM478 1037q-18 3 -52 21t-45 27l204 434q12 -1 48 -6.5t80 -12.5t80 -14t47 -10l33 -59z" />
    <glyph glyph-name="ecircumflex" unicode="&#xea;" horiz-adv-x="1006" 
d="M946 547q-18 -20 -68 -47t-82 -40h-614l2 120h460q23 0 30.5 7.5t7.5 28.5q0 41 -15.5 92.5t-52 89t-98.5 37.5q-105 0 -140.5 -93.5t-35.5 -254.5q0 -150 60.5 -243.5t175.5 -93.5q42 0 82 7.5t93 32.5t132 76q13 -7 33 -35t24 -36q-94 -92 -165 -141t-138.5 -66.5
t-151.5 -17.5q-117 0 -213.5 60t-154 166.5t-57.5 247.5q0 267 201 417q56 41 133 70t160 29q131 0 218 -55.5t130.5 -149t43.5 -208.5zM890 1112q-12 -19 -29 -43t-34 -32l-284 208l-281 -208q-16 8 -38.5 32t-36.5 43l284 389h147z" />
    <glyph glyph-name="edieresis" unicode="&#xeb;" horiz-adv-x="1006" 
d="M946 547q-18 -20 -68 -47t-82 -40h-614l2 120h460q23 0 30.5 7.5t7.5 28.5q0 41 -15.5 92.5t-52 89t-98.5 37.5q-105 0 -140.5 -93.5t-35.5 -254.5q0 -150 60.5 -243.5t175.5 -93.5q42 0 82 7.5t93 32.5t132 76q13 -7 33 -35t24 -36q-94 -92 -165 -141t-138.5 -66.5
t-151.5 -17.5q-117 0 -213.5 60t-154 166.5t-57.5 247.5q0 267 201 417q56 41 133 70t160 29q131 0 218 -55.5t130.5 -149t43.5 -208.5zM479 1270q0 -79 -50.5 -134.5t-119.5 -55.5q-130 0 -130 130q0 80 52 135t118 55q60 0 95 -32.5t35 -97.5zM909 1270
q0 -79 -50.5 -134.5t-119.5 -55.5q-130 0 -130 130q0 80 52 135t118 55q60 0 95 -32.5t35 -97.5z" />
    <glyph glyph-name="igrave" unicode="&#xec;" horiz-adv-x="635" 
d="M60 0v83q68 14 99 31t31 30v496q0 69 -3 103t-29.5 47.5t-97.5 19.5v80q93 12 173 28.5t153 41.5h74v-816q0 -12 28.5 -29.5t101.5 -31.5v-83h-530zM458 1088q-13 -12 -46 -29t-50 -22l-392 377l32 61q10 3 44 9.5t76.5 14.5t78 13.5t47.5 6.5z" />
    <glyph glyph-name="iacute" unicode="&#xed;" horiz-adv-x="635" 
d="M60 0v83q68 14 99 31t31 30v496q0 69 -3 103t-29.5 47.5t-97.5 19.5v80q93 12 173 28.5t153 41.5h74v-816q0 -12 28.5 -29.5t101.5 -31.5v-83h-530zM259 1037q-18 3 -52 21t-45 27l204 434q12 -1 48 -6.5t80 -12.5t80 -14t47 -10l33 -59z" />
    <glyph glyph-name="icircumflex" unicode="&#xee;" horiz-adv-x="635" 
d="M60 0v83q68 14 99 31t31 30v496q0 69 -3 103t-29.5 47.5t-97.5 19.5v80q93 12 173 28.5t153 41.5h74v-816q0 -12 28.5 -29.5t101.5 -31.5v-83h-530zM671 1112q-12 -19 -29 -43t-34 -32l-284 208l-281 -208q-16 8 -38.5 32t-36.5 43l284 389h147z" />
    <glyph glyph-name="idieresis" unicode="&#xef;" horiz-adv-x="635" 
d="M60 0v83q68 14 99 31t31 30v496q0 69 -3 103t-29.5 47.5t-97.5 19.5v80q93 12 173 28.5t153 41.5h74v-816q0 -12 28.5 -29.5t101.5 -31.5v-83h-530zM260 1270q0 -79 -50.5 -134.5t-119.5 -55.5q-130 0 -130 130q0 80 52 135t118 55q60 0 95 -32.5t35 -97.5zM690 1270
q0 -79 -50.5 -134.5t-119.5 -55.5q-130 0 -130 130q0 80 52 135t118 55q60 0 95 -32.5t35 -97.5z" />
    <glyph glyph-name="eth" unicode="&#xf0;" horiz-adv-x="1055" 
d="M995 612q0 -173 -47 -295t-120 -199t-153.5 -112.5t-148.5 -35.5q-145 0 -249.5 62t-160.5 169t-56 243q0 133 56 250.5t156.5 191.5t233.5 74q121 0 196 -76q-17 71 -45.5 130.5t-86.5 126.5l-206 -84q-37 1 -69.5 4.5t-67.5 13.5l-11 47l264 109q-55 39 -131 59t-163 7
l-15 81l291 102q55 -36 114.5 -80.5t101.5 -82.5l180 73q47 -4 80.5 -8.5t59.5 -13.5l7 -45l-239 -97q126 -142 177.5 -295.5t51.5 -318.5zM725 621q-19 70 -59 113.5t-86 64.5t-85 21q-81 0 -120.5 -83.5t-39.5 -243.5q0 -105 26.5 -194.5t72 -144t102.5 -54.5
q110 0 149.5 112.5t39.5 358.5v25v25z" />
    <glyph glyph-name="ntilde" unicode="&#xf1;" horiz-adv-x="1210" 
d="M660 0v83q72 19 101 33.5t29 27.5v429q0 107 -21 147t-77 40q-43 0 -96.5 -16.5t-150.5 -74.5v-525q0 -34 130 -61v-83h-530v83q130 34 130 61v537q0 52 -5.5 77t-32.5 35t-92 17v80q105 11 183.5 26.5t156.5 43.5l45 -45l11 -109q125 89 222.5 121.5t175.5 32.5
q58 0 108 -25.5t81.5 -84.5t31.5 -159v-547q0 -13 25.5 -27t104.5 -34v-83h-530zM1018 1356q-23 -54 -61.5 -120.5t-92.5 -115.5t-126 -49q-51 0 -94.5 26t-83 51.5t-78.5 25.5q-32 0 -65.5 -34t-68.5 -90l-93 34q24 55 62 121.5t92 115t126 48.5q56 0 99 -25.5t80.5 -51.5
t74.5 -26q31 0 66.5 35.5t69.5 93.5z" />
    <glyph glyph-name="ograve" unicode="&#xf2;" horiz-adv-x="1090" 
d="M1030 485q0 -100 -40 -192t-110 -165t-161 -115.5t-193 -42.5q-141 0 -245.5 62t-162.5 169t-58 243q0 133 63.5 250.5t177.5 191.5t264 74q141 0 245.5 -62t162 -169t57.5 -244zM745 435q0 106 -23.5 195.5t-70 144.5t-115.5 55q-76 0 -117.5 -47t-57.5 -127.5
t-16 -182.5q0 -105 26.5 -189.5t74 -134t108.5 -49.5q112 0 151.5 86t39.5 249zM700 1088q-13 -12 -46 -29t-50 -22l-392 377l32 61q10 3 44 9.5t76.5 14.5t78 13.5t47.5 6.5z" />
    <glyph glyph-name="oacute" unicode="&#xf3;" horiz-adv-x="1090" 
d="M1030 485q0 -100 -40 -192t-110 -165t-161 -115.5t-193 -42.5q-141 0 -245.5 62t-162.5 169t-58 243q0 133 63.5 250.5t177.5 191.5t264 74q141 0 245.5 -62t162 -169t57.5 -244zM745 435q0 106 -23.5 195.5t-70 144.5t-115.5 55q-76 0 -117.5 -47t-57.5 -127.5
t-16 -182.5q0 -105 26.5 -189.5t74 -134t108.5 -49.5q112 0 151.5 86t39.5 249zM501 1037q-18 3 -52 21t-45 27l204 434q12 -1 48 -6.5t80 -12.5t80 -14t47 -10l33 -59z" />
    <glyph glyph-name="ocircumflex" unicode="&#xf4;" horiz-adv-x="1090" 
d="M1030 485q0 -100 -40 -192t-110 -165t-161 -115.5t-193 -42.5q-141 0 -245.5 62t-162.5 169t-58 243q0 133 63.5 250.5t177.5 191.5t264 74q141 0 245.5 -62t162 -169t57.5 -244zM745 435q0 106 -23.5 195.5t-70 144.5t-115.5 55q-76 0 -117.5 -47t-57.5 -127.5
t-16 -182.5q0 -105 26.5 -189.5t74 -134t108.5 -49.5q112 0 151.5 86t39.5 249zM913 1112q-12 -19 -29 -43t-34 -32l-284 208l-281 -208q-16 8 -38.5 32t-36.5 43l284 389h147z" />
    <glyph glyph-name="otilde" unicode="&#xf5;" horiz-adv-x="1090" 
d="M1030 485q0 -100 -40 -192t-110 -165t-161 -115.5t-193 -42.5q-141 0 -245.5 62t-162.5 169t-58 243q0 133 63.5 250.5t177.5 191.5t264 74q141 0 245.5 -62t162 -169t57.5 -244zM745 435q0 106 -23.5 195.5t-70 144.5t-115.5 55q-76 0 -117.5 -47t-57.5 -127.5
t-16 -182.5q0 -105 26.5 -189.5t74 -134t108.5 -49.5q112 0 151.5 86t39.5 249zM968 1356q-23 -54 -61.5 -120.5t-92.5 -115.5t-126 -49q-51 0 -94.5 26t-83 51.5t-78.5 25.5q-32 0 -65.5 -34t-68.5 -90l-93 34q24 55 62 121.5t92 115t126 48.5q56 0 99 -25.5t80.5 -51.5
t74.5 -26q31 0 66.5 35.5t69.5 93.5z" />
    <glyph glyph-name="odieresis" unicode="&#xf6;" horiz-adv-x="1090" 
d="M1030 485q0 -100 -40 -192t-110 -165t-161 -115.5t-193 -42.5q-141 0 -245.5 62t-162.5 169t-58 243q0 133 63.5 250.5t177.5 191.5t264 74q141 0 245.5 -62t162 -169t57.5 -244zM745 435q0 106 -23.5 195.5t-70 144.5t-115.5 55q-76 0 -117.5 -47t-57.5 -127.5
t-16 -182.5q0 -105 26.5 -189.5t74 -134t108.5 -49.5q112 0 151.5 86t39.5 249zM502 1270q0 -79 -50.5 -134.5t-119.5 -55.5q-130 0 -130 130q0 80 52 135t118 55q60 0 95 -32.5t35 -97.5zM932 1270q0 -79 -50.5 -134.5t-119.5 -55.5q-130 0 -130 130q0 80 52 135t118 55
q60 0 95 -32.5t35 -97.5z" />
    <glyph glyph-name="divide" unicode="&#xf7;" horiz-adv-x="870" 
d="M820 606q-6 -22 -24.5 -63t-26.5 -58h-684l-35 34q5 22 23.5 62t27.5 59h684zM551 853q0 -62 -37 -107.5t-92 -45.5q-94 0 -94 108q0 63 38 107t91 44q94 0 94 -106zM551 319q0 -62 -37 -107.5t-92 -45.5q-94 0 -94 108q0 63 38 107t91 44q94 0 94 -106z" />
    <glyph glyph-name="oslash" unicode="&#xf8;" horiz-adv-x="1090" 
d="M1030 485q0 -100 -40 -192t-110 -165t-161 -115.5t-193 -42.5q-66 0 -129 17t-113 42l-13 -16q-12 -10 -44 -23.5t-66.5 -25.5t-56.5 -17l-26 30l105 133q-55 63 -89 150t-34 184q0 133 63.5 250.5t177.5 191.5t264 74q65 0 127 -16.5t111 -42.5l13 14q27 17 79.5 39
t88.5 29l30 -31l-105 -133q55 -63 88 -150t33 -184zM356 330l322 411q-25 38 -62.5 63.5t-79.5 25.5q-76 0 -118 -47t-58.5 -127.5t-16.5 -182.5q0 -34 4 -74t9 -69zM554 100q112 0 152.5 86t40.5 249q0 38 -5.5 82.5t-11.5 78.5l-319 -404q27 -39 65 -65.5t78 -26.5z" />
    <glyph glyph-name="ugrave" unicode="&#xf9;" horiz-adv-x="1175" 
d="M1169 122q-49 -32 -115.5 -67.5t-121.5 -60t-72 -24.5q-35 0 -68 26.5t-47 129.5q-83 -68 -142.5 -101.5t-105.5 -44t-89 -10.5q-62 0 -121.5 25t-98 92t-38.5 192v402q0 64 -5 91.5t-30 36.5t-84 15v80q110 9 186.5 19.5t164.5 36.5l38 -49v-567q0 -118 27 -151t76 -33
q35 0 88.5 19t133.5 83v419q0 60 -7 89.5t-34 40t-89 13.5v80q110 9 196.5 23.5t163.5 32.5l40 -49v-617q0 -61 5 -80t18 -30q11 -9 30.5 -4t70.5 27zM721 1088q-13 -12 -46 -29t-50 -22l-392 377l32 61q10 3 44 9.5t76.5 14.5t78 13.5t47.5 6.5z" />
    <glyph glyph-name="uacute" unicode="&#xfa;" horiz-adv-x="1175" 
d="M1169 122q-49 -32 -115.5 -67.5t-121.5 -60t-72 -24.5q-35 0 -68 26.5t-47 129.5q-83 -68 -142.5 -101.5t-105.5 -44t-89 -10.5q-62 0 -121.5 25t-98 92t-38.5 192v402q0 64 -5 91.5t-30 36.5t-84 15v80q110 9 186.5 19.5t164.5 36.5l38 -49v-567q0 -118 27 -151t76 -33
q35 0 88.5 19t133.5 83v419q0 60 -7 89.5t-34 40t-89 13.5v80q110 9 196.5 23.5t163.5 32.5l40 -49v-617q0 -61 5 -80t18 -30q11 -9 30.5 -4t70.5 27zM522 1037q-18 3 -52 21t-45 27l204 434q12 -1 48 -6.5t80 -12.5t80 -14t47 -10l33 -59z" />
    <glyph glyph-name="ucircumflex" unicode="&#xfb;" horiz-adv-x="1175" 
d="M1169 122q-49 -32 -115.5 -67.5t-121.5 -60t-72 -24.5q-35 0 -68 26.5t-47 129.5q-83 -68 -142.5 -101.5t-105.5 -44t-89 -10.5q-62 0 -121.5 25t-98 92t-38.5 192v402q0 64 -5 91.5t-30 36.5t-84 15v80q110 9 186.5 19.5t164.5 36.5l38 -49v-567q0 -118 27 -151t76 -33
q35 0 88.5 19t133.5 83v419q0 60 -7 89.5t-34 40t-89 13.5v80q110 9 196.5 23.5t163.5 32.5l40 -49v-617q0 -61 5 -80t18 -30q11 -9 30.5 -4t70.5 27zM934 1112q-12 -19 -29 -43t-34 -32l-284 208l-281 -208q-16 8 -38.5 32t-36.5 43l284 389h147z" />
    <glyph glyph-name="udieresis" unicode="&#xfc;" horiz-adv-x="1175" 
d="M1169 122q-49 -32 -115.5 -67.5t-121.5 -60t-72 -24.5q-35 0 -68 26.5t-47 129.5q-83 -68 -142.5 -101.5t-105.5 -44t-89 -10.5q-62 0 -121.5 25t-98 92t-38.5 192v402q0 64 -5 91.5t-30 36.5t-84 15v80q110 9 186.5 19.5t164.5 36.5l38 -49v-567q0 -118 27 -151t76 -33
q35 0 88.5 19t133.5 83v419q0 60 -7 89.5t-34 40t-89 13.5v80q110 9 196.5 23.5t163.5 32.5l40 -49v-617q0 -61 5 -80t18 -30q11 -9 30.5 -4t70.5 27zM523 1270q0 -79 -50.5 -134.5t-119.5 -55.5q-130 0 -130 130q0 80 52 135t118 55q60 0 95 -32.5t35 -97.5zM953 1270
q0 -79 -50.5 -134.5t-119.5 -55.5q-130 0 -130 130q0 80 52 135t118 55q60 0 95 -32.5t35 -97.5z" />
    <glyph glyph-name="yacute" unicode="&#xfd;" horiz-adv-x="1050" 
d="M1039 847q-60 -14 -79.5 -26.5t-30.5 -41.5l-334 -851q-86 -220 -198.5 -319t-249.5 -99q-51 0 -100 13t-81.5 30.5t-32.5 29.5q0 10 18 37.5t44.5 60t52.5 60t42 37.5q50 -34 101.5 -42.5t88.5 4.5q38 13 76 47.5t74 120.5l29 69l-338 802q-20 47 -111 68v83h476v-83
q-70 -9 -83 -22.5t0 -45.5l193 -457l184 457q12 30 3 44t-68 24v83h324v-83zM482 1037q-18 3 -52 21t-45 27l204 434q12 -1 48 -6.5t80 -12.5t80 -14t47 -10l33 -59z" />
    <glyph glyph-name="thorn" unicode="&#xfe;" horiz-adv-x="1165" 
d="M1105 512q0 -103 -37 -199.5t-96 -174t-125 -123t-124 -45.5t-121.5 23.5t-156.5 84.5v-413q0 -16 37.5 -32t131.5 -30v-83h-569v83q130 31 130 62v1596q0 58 -8.5 82.5t-36.5 32.5t-85 14v80q86 10 145 21.5t107.5 26t102.5 32.5l45 -45v-688q115 90 191.5 116.5
t133.5 26.5q91 0 167 -50.5t122 -150t46 -247.5zM850 436q1 120 -30.5 194.5t-81.5 109.5t-105 35q-24 0 -44.5 -3.5t-52.5 -19.5t-91 -52v-467q75 -40 122 -57.5t80 -21.5t64 -4q68 1 104 77t35 209z" />
    <glyph glyph-name="ydieresis" unicode="&#xff;" horiz-adv-x="1050" 
d="M1039 847q-60 -14 -79.5 -26.5t-30.5 -41.5l-334 -851q-86 -220 -198.5 -319t-249.5 -99q-51 0 -100 13t-81.5 30.5t-32.5 29.5q0 10 18 37.5t44.5 60t52.5 60t42 37.5q50 -34 101.5 -42.5t88.5 4.5q38 13 76 47.5t74 120.5l29 69l-338 802q-20 47 -111 68v83h476v-83
q-70 -9 -83 -22.5t0 -45.5l193 -457l184 457q12 30 3 44t-68 24v83h324v-83zM483 1270q0 -79 -50.5 -134.5t-119.5 -55.5q-130 0 -130 130q0 80 52 135t118 55q60 0 95 -32.5t35 -97.5zM913 1270q0 -79 -50.5 -134.5t-119.5 -55.5q-130 0 -130 130q0 80 52 135t118 55
q60 0 95 -32.5t35 -97.5z" />
    <glyph glyph-name="Amacron" unicode="&#x100;" horiz-adv-x="1309" 
d="M396 425l-91 -274q-10 -31 23.5 -45t115.5 -23v-83h-444v83q68 12 103 25t45 43l342 1046q55 46 126 75t131 45l420 -1166q10 -28 33.5 -44t87.5 -24v-83h-522v83q77 5 104.5 20t16.5 48l-98 274h-393zM743 555l-161 448l-143 -448h304zM1069 1575q-4 -14 -17 -43.5
t-26 -57.5t-18 -39h-754l-35 34q4 15 16 43t25.5 56t19.5 41h754z" />
    <glyph glyph-name="amacron" unicode="&#x101;" horiz-adv-x="1050" 
d="M1046 122q-56 -39 -121.5 -73.5t-120.5 -56.5t-82 -22q-43 0 -71 52.5t-28 141.5v518q0 60 -25 99t-93 39q-42 0 -80.5 -33t-32.5 -93q1 -9 -38 -25t-93.5 -31t-100.5 -24.5t-58 -6.5l-24 59q33 84 114.5 150.5t192 105t229.5 38.5q147 0 213 -72.5t66 -175.5v-454
q0 -78 40 -78q14 0 31 5.5t57 21.5zM633 468q-110 -18 -158 -34.5t-73 -41.5q-26 -26 -42 -54t-16 -69q0 -64 31 -86.5t57 -22.5q32 0 77 18t124 88l8 -124q-94 -101 -187 -136.5t-161 -35.5q-58 0 -111.5 26.5t-87.5 79.5t-34 130q0 65 24 111.5t61 83.5q33 33 82 62.5
t144 57t262 52.5v-105zM981 1315q-4 -14 -17 -43.5t-26 -57.5t-18 -39h-814l-35 34q4 15 16 43t25.5 56t19.5 41h814z" />
    <glyph glyph-name="Abreve" unicode="&#x102;" horiz-adv-x="1309" 
d="M396 425l-91 -274q-10 -31 23.5 -45t115.5 -23v-83h-444v83q68 12 103 25t45 43l342 1046q55 46 126 75t131 45l420 -1166q10 -28 33.5 -44t87.5 -24v-83h-522v83q77 5 104.5 20t16.5 48l-98 274h-393zM743 555l-161 448l-143 -448h304zM1009 1690q-60 -161 -159 -235.5
t-204 -74.5q-113 0 -210 74.5t-157 235.5q12 18 39.5 43t43.5 32q50 -84 131.5 -128.5t148.5 -44.5q71 0 152 44t132 129q17 -7 44 -32t39 -43z" />
    <glyph glyph-name="abreve" unicode="&#x103;" horiz-adv-x="1050" 
d="M1046 122q-56 -39 -121.5 -73.5t-120.5 -56.5t-82 -22q-43 0 -71 52.5t-28 141.5v518q0 60 -25 99t-93 39q-42 0 -80.5 -33t-32.5 -93q1 -9 -38 -25t-93.5 -31t-100.5 -24.5t-58 -6.5l-24 59q33 84 114.5 150.5t192 105t229.5 38.5q147 0 213 -72.5t66 -175.5v-454
q0 -78 40 -78q14 0 31 5.5t57 21.5zM633 468q-110 -18 -158 -34.5t-73 -41.5q-26 -26 -42 -54t-16 -69q0 -64 31 -86.5t57 -22.5q32 0 77 18t124 88l8 -124q-94 -101 -187 -136.5t-161 -35.5q-58 0 -111.5 26.5t-87.5 79.5t-34 130q0 65 24 111.5t61 83.5q33 33 82 62.5
t144 57t262 52.5v-105zM891 1370q-60 -161 -159 -235.5t-204 -74.5q-113 0 -210 74.5t-157 235.5q12 18 39.5 43t43.5 32q50 -84 131.5 -128.5t148.5 -44.5q71 0 152 44t132 129q17 -7 44 -32t39 -43z" />
    <glyph glyph-name="Aogonek" unicode="&#x104;" horiz-adv-x="1309" 
d="M396 425l-91 -274q-10 -31 23.5 -45t115.5 -23v-83h-444v83q68 12 103 25t45 43l342 1046q55 46 126 75t131 45l420 -1166q10 -28 33.5 -44t87.5 -24v-83h-522v83q77 5 104.5 20t16.5 48l-98 274h-393zM743 555l-161 448l-143 -448h304zM1241 -299q-51 -52 -139.5 -98.5
t-183.5 -46.5q-36 0 -79.5 13t-75 45t-31.5 87q0 89 81 177.5t247 164.5l95 -19q-90 -85 -122 -138t-32 -100q0 -37 22.5 -54.5t53.5 -17.5q25 0 56.5 13t73.5 51z" />
    <glyph glyph-name="aogonek" unicode="&#x105;" horiz-adv-x="1050" 
d="M1046 122q-56 -39 -121.5 -73.5t-120.5 -56.5t-82 -22q-43 0 -71 52.5t-28 141.5v518q0 60 -25 99t-93 39q-42 0 -80.5 -33t-32.5 -93q1 -9 -38 -25t-93.5 -31t-100.5 -24.5t-58 -6.5l-24 59q33 84 114.5 150.5t192 105t229.5 38.5q147 0 213 -72.5t66 -175.5v-454
q0 -78 40 -78q14 0 31 5.5t57 21.5zM633 468q-110 -18 -158 -34.5t-73 -41.5q-26 -26 -42 -54t-16 -69q0 -64 31 -86.5t57 -22.5q32 0 77 18t124 88l8 -124q-94 -101 -187 -136.5t-161 -35.5q-58 0 -111.5 26.5t-87.5 79.5t-34 130q0 65 24 111.5t61 83.5q33 33 82 62.5
t144 57t262 52.5v-105zM1009 -299q-51 -52 -139.5 -98.5t-183.5 -46.5q-36 0 -79.5 13t-75 45t-31.5 87q0 89 81 177.5t247 164.5l95 -19q-90 -85 -122 -138t-32 -100q0 -37 22.5 -54.5t53.5 -17.5q25 0 56.5 13t73.5 51z" />
    <glyph glyph-name="Cacute" unicode="&#x106;" horiz-adv-x="1158" 
d="M1088 211q-127 -129 -252.5 -185t-244.5 -56q-138 0 -262 73.5t-201.5 211.5t-77.5 331q0 213 85 371t231.5 245.5t329.5 87.5q72 0 144.5 -13.5t133.5 -36t95 -50.5q6 -4 -6 -37.5t-32 -77t-40 -80t-32 -48.5l-75 16q-49 101 -114 144t-138 43q-51 0 -103.5 -24.5
t-96.5 -83.5t-70.5 -161t-26.5 -258q0 -167 54 -271.5t136.5 -153t167.5 -48.5q54 0 144.5 25.5t193.5 110.5q11 -8 32 -37.5t25 -37.5zM492 1355q-16 8 -41 37t-33 41l363 348q11 -4 43 -20.5t70 -36.5t69.5 -37.5t40.5 -24.5l11 -67z" />
    <glyph glyph-name="cacute" unicode="&#x107;" horiz-adv-x="945" 
d="M910 190q-87 -97 -160 -144t-137.5 -61.5t-127.5 -14.5q-112 0 -209 56.5t-156.5 163t-59.5 254.5q0 144 69.5 261t193.5 186t287 69q44 0 104.5 -10t114.5 -27.5t76 -41.5q2 -12 -7.5 -53.5t-24.5 -92t-30.5 -92.5t-24.5 -56l-77 10q-38 119 -83 176t-118 57
q-55 0 -103 -34.5t-77.5 -112t-29.5 -208.5q0 -155 71 -240t176 -85q38 0 74.5 7.5t83.5 31.5t116 72zM452 1037q-18 3 -52 21t-45 27l204 434q12 -1 48 -6.5t80 -12.5t80 -14t47 -10l33 -59z" />
    <glyph glyph-name="Ccircumflex" unicode="&#x108;" horiz-adv-x="1158" 
d="M1088 211q-127 -129 -252.5 -185t-244.5 -56q-138 0 -262 73.5t-201.5 211.5t-77.5 331q0 213 85 371t231.5 245.5t329.5 87.5q72 0 144.5 -13.5t133.5 -36t95 -50.5q6 -4 -6 -37.5t-32 -77t-40 -80t-32 -48.5l-75 16q-49 101 -114 144t-138 43q-51 0 -103.5 -24.5
t-96.5 -83.5t-70.5 -161t-26.5 -258q0 -167 54 -271.5t136.5 -153t167.5 -48.5q54 0 144.5 25.5t193.5 110.5q11 -8 32 -37.5t25 -37.5zM991 1432q-12 -19 -30.5 -43t-35.5 -32l-281 158l-281 -158q-16 8 -38.5 32t-36.5 43l284 339h147z" />
    <glyph glyph-name="ccircumflex" unicode="&#x109;" horiz-adv-x="945" 
d="M910 190q-87 -97 -160 -144t-137.5 -61.5t-127.5 -14.5q-112 0 -209 56.5t-156.5 163t-59.5 254.5q0 144 69.5 261t193.5 186t287 69q44 0 104.5 -10t114.5 -27.5t76 -41.5q2 -12 -7.5 -53.5t-24.5 -92t-30.5 -92.5t-24.5 -56l-77 10q-38 119 -83 176t-118 57
q-55 0 -103 -34.5t-77.5 -112t-29.5 -208.5q0 -155 71 -240t176 -85q38 0 74.5 7.5t83.5 31.5t116 72zM864 1112q-12 -19 -29 -43t-34 -32l-284 208l-281 -208q-16 8 -38.5 32t-36.5 43l284 389h147z" />
    <glyph glyph-name="Cdotaccent" unicode="&#x10a;" horiz-adv-x="1158" 
d="M1088 211q-127 -129 -252.5 -185t-244.5 -56q-138 0 -262 73.5t-201.5 211.5t-77.5 331q0 213 85 371t231.5 245.5t329.5 87.5q72 0 144.5 -13.5t133.5 -36t95 -50.5q6 -4 -6 -37.5t-32 -77t-40 -80t-32 -48.5l-75 16q-49 101 -114 144t-138 43q-51 0 -103.5 -24.5
t-96.5 -83.5t-70.5 -161t-26.5 -258q0 -167 54 -271.5t136.5 -153t167.5 -48.5q54 0 144.5 25.5t193.5 110.5q11 -8 32 -37.5t25 -37.5zM799 1550q0 -79 -50.5 -134.5t-119.5 -55.5q-130 0 -130 130q0 80 52 135t118 55q60 0 95 -32.5t35 -97.5z" />
    <glyph glyph-name="cdotaccent" unicode="&#x10b;" horiz-adv-x="945" 
d="M910 190q-87 -97 -160 -144t-137.5 -61.5t-127.5 -14.5q-112 0 -209 56.5t-156.5 163t-59.5 254.5q0 144 69.5 261t193.5 186t287 69q44 0 104.5 -10t114.5 -27.5t76 -41.5q2 -12 -7.5 -53.5t-24.5 -92t-30.5 -92.5t-24.5 -56l-77 10q-38 119 -83 176t-118 57
q-55 0 -103 -34.5t-77.5 -112t-29.5 -208.5q0 -155 71 -240t176 -85q38 0 74.5 7.5t83.5 31.5t116 72zM668 1270q0 -79 -50.5 -134.5t-119.5 -55.5q-130 0 -130 130q0 80 52 135t118 55q60 0 95 -32.5t35 -97.5z" />
    <glyph glyph-name="Ccaron" unicode="&#x10c;" horiz-adv-x="1158" 
d="M1088 211q-127 -129 -252.5 -185t-244.5 -56q-138 0 -262 73.5t-201.5 211.5t-77.5 331q0 213 85 371t231.5 245.5t329.5 87.5q72 0 144.5 -13.5t133.5 -36t95 -50.5q6 -4 -6 -37.5t-32 -77t-40 -80t-32 -48.5l-75 16q-49 101 -114 144t-138 43q-51 0 -103.5 -24.5
t-96.5 -83.5t-70.5 -161t-26.5 -258q0 -167 54 -271.5t136.5 -153t167.5 -48.5q54 0 144.5 25.5t193.5 110.5q11 -8 32 -37.5t25 -37.5zM720 1382h-147l-272 324q12 19 29 43.5t34 31.5l284 -143l281 143q17 -7 39 -31.5t36 -43.5z" />
    <glyph glyph-name="ccaron" unicode="&#x10d;" horiz-adv-x="945" 
d="M910 190q-87 -97 -160 -144t-137.5 -61.5t-127.5 -14.5q-112 0 -209 56.5t-156.5 163t-59.5 254.5q0 144 69.5 261t193.5 186t287 69q44 0 104.5 -10t114.5 -27.5t76 -41.5q2 -12 -7.5 -53.5t-24.5 -92t-30.5 -92.5t-24.5 -56l-77 10q-38 119 -83 176t-118 57
q-55 0 -103 -34.5t-77.5 -112t-29.5 -208.5q0 -155 71 -240t176 -85q38 0 74.5 7.5t83.5 31.5t116 72zM592 1049h-147l-284 389q14 19 36.5 43.5t38.5 31.5l281 -208l284 208q17 -7 34 -31.5t29 -43.5z" />
    <glyph glyph-name="Dcaron" unicode="&#x10e;" horiz-adv-x="1334" 
d="M40 0v83q68 14 101.5 31t33.5 30v1003q-39 -5 -73.5 -10t-61.5 -9l-14 102q69 17 169 30.5t207 21.5t196 8q316 0 485.5 -162t169.5 -452q0 -187 -55 -316.5t-145 -209t-198.5 -115t-215.5 -35.5h-89h-224h-244h-42zM597 114q54 0 115.5 29t116.5 91.5t89.5 162
t34.5 240.5q0 266 -109.5 402.5t-320.5 136.5q-16 0 -33 -0.5t-35 -1.5v-1000q0 -38 42 -49t100 -11zM678 1382h-147l-272 324q12 19 29 43.5t34 31.5l284 -143l281 143q17 -7 39 -31.5t36 -43.5z" />
    <glyph glyph-name="dcaron" unicode="&#x10f;" horiz-adv-x="1482" 
d="M1171 124q-61 -41 -129 -76t-121 -56.5t-72 -21.5q-55 0 -79.5 90.5t-24.5 251.5v922q0 74 -6.5 109t-34.5 47t-94 16v79q119 11 215.5 30t148.5 35l41 -40v-1196q0 -70 5.5 -96t17.5 -32t30 -4t70 25zM819 200q-87 -88 -147 -138t-113.5 -71t-122.5 -21q-94 0 -180 56.5
t-141 163t-55 254.5q0 140 62.5 257.5t173.5 188t255 70.5q60 0 121 -19.5t139 -90.5q0 -60 -13.5 -101.5t-45.5 -61.5q-38 63 -91 98t-121 35q-90 0 -150 -73t-60 -242q0 -154 67.5 -239.5t149.5 -85.5q56 0 105.5 25t119.5 92q9 -4 19 -26t18.5 -44t9.5 -27zM1465 1353
q0 -91 -62 -174t-159 -144l-59 56q42 38 63.5 73t21.5 81t-41.5 77.5t-127.5 32.5l-18 72q30 28 83.5 53t108.5 40t91 12q55 -23 77 -75.5t22 -103.5z" />
    <glyph glyph-name="Dcroat" unicode="&#x110;" horiz-adv-x="1334" 
d="M675 615h-625l-22 24q5 15 18 52.5t19 53.5h625l25 -23zM40 0v83q68 14 101.5 31t33.5 30v1003q-39 -5 -73.5 -10t-61.5 -9l-14 102q69 17 169 30.5t207 21.5t196 8q316 0 485.5 -162t169.5 -452q0 -187 -55 -316.5t-145 -209t-198.5 -115t-215.5 -35.5h-89h-224h-244
h-42zM597 114q54 0 115.5 29t116.5 91.5t89.5 162t34.5 240.5q0 266 -109.5 402.5t-320.5 136.5q-16 0 -33 -0.5t-35 -1.5v-1000q0 -38 42 -49t100 -11z" />
    <glyph glyph-name="dcroat" unicode="&#x111;" horiz-adv-x="1175" 
d="M1141 1105h-688l-23 22q5 16 18.5 54t21.5 54h688l22 -25zM1171 124q-61 -41 -129 -76t-121 -56.5t-72 -21.5q-55 0 -79.5 90.5t-24.5 251.5v942q0 64 -6.5 94.5t-34.5 41.5t-94 16v79q119 11 215.5 30t148.5 35l41 -40v-1196q0 -70 5.5 -96t17.5 -32t30 -4t70 25z
M819 200q-87 -88 -147 -138t-113.5 -71t-122.5 -21q-94 0 -180 56.5t-141 163t-55 254.5q0 140 62.5 257.5t173.5 188t255 70.5q60 0 121 -19.5t139 -90.5q0 -60 -13.5 -101.5t-45.5 -61.5q-38 63 -91 98t-121 35q-90 0 -150 -73t-60 -242q0 -154 67.5 -239.5t149.5 -85.5
q56 0 105.5 25t119.5 92q9 -4 18.5 -26t17.5 -44t11 -27z" />
    <glyph glyph-name="Emacron" unicode="&#x112;" horiz-adv-x="1096" 
d="M989 1225q-2 -34 -8.5 -94.5t-15.5 -117.5t-17 -83h-85q-4 92 -24.5 146t-57.5 54h-378l29 130h514zM886 697q-16 -28 -43 -71.5t-49 -59.5q-31 29 -72.5 42t-125.5 13h-207l22 114h439zM1054 324q-5 -57 -12.5 -125.5t-15 -123.5t-13.5 -75h-973v83q68 14 101.5 31
t33.5 30v971q0 12 -31.5 30t-103.5 32v83h560v-83q-67 -7 -106 -16.5t-39 -23.5v-943q0 -19 14.5 -33.5t58 -22.5t131.5 -8h89q92 0 136 52.5t87 169.5zM972 1575q-4 -14 -17 -43.5t-26 -57.5t-18 -39h-754l-35 34q4 15 16 43t25.5 56t19.5 41h754z" />
    <glyph glyph-name="emacron" unicode="&#x113;" horiz-adv-x="1006" 
d="M946 547q-18 -20 -68 -47t-82 -40h-614l2 120h460q23 0 30.5 7.5t7.5 28.5q0 41 -15.5 92.5t-52 89t-98.5 37.5q-105 0 -140.5 -93.5t-35.5 -254.5q0 -150 60.5 -243.5t175.5 -93.5q42 0 82 7.5t93 32.5t132 76q13 -7 33 -35t24 -36q-94 -92 -165 -141t-138.5 -66.5
t-151.5 -17.5q-117 0 -213.5 60t-154 166.5t-57.5 247.5q0 267 201 417q56 41 133 70t160 29q131 0 218 -55.5t130.5 -149t43.5 -208.5zM999 1315q-4 -14 -17 -43.5t-26 -57.5t-18 -39h-814l-35 34q4 15 16 43t25.5 56t19.5 41h814z" />
    <glyph glyph-name="Ebreve" unicode="&#x114;" horiz-adv-x="1096" 
d="M989 1225q-2 -34 -8.5 -94.5t-15.5 -117.5t-17 -83h-85q-4 92 -24.5 146t-57.5 54h-378l29 130h514zM886 697q-16 -28 -43 -71.5t-49 -59.5q-31 29 -72.5 42t-125.5 13h-207l22 114h439zM1054 324q-5 -57 -12.5 -125.5t-15 -123.5t-13.5 -75h-973v83q68 14 101.5 31
t33.5 30v971q0 12 -31.5 30t-103.5 32v83h560v-83q-67 -7 -106 -16.5t-39 -23.5v-943q0 -19 14.5 -33.5t58 -22.5t131.5 -8h89q92 0 136 52.5t87 169.5zM912 1690q-60 -161 -159 -235.5t-204 -74.5q-113 0 -210 74.5t-157 235.5q12 18 39.5 43t43.5 32q50 -84 131.5 -128.5
t148.5 -44.5q71 0 152 44t132 129q17 -7 44 -32t39 -43z" />
    <glyph glyph-name="ebreve" unicode="&#x115;" horiz-adv-x="1006" 
d="M946 547q-18 -20 -68 -47t-82 -40h-614l2 120h460q23 0 30.5 7.5t7.5 28.5q0 41 -15.5 92.5t-52 89t-98.5 37.5q-105 0 -140.5 -93.5t-35.5 -254.5q0 -150 60.5 -243.5t175.5 -93.5q42 0 82 7.5t93 32.5t132 76q13 -7 33 -35t24 -36q-94 -92 -165 -141t-138.5 -66.5
t-151.5 -17.5q-117 0 -213.5 60t-154 166.5t-57.5 247.5q0 267 201 417q56 41 133 70t160 29q131 0 218 -55.5t130.5 -149t43.5 -208.5zM909 1370q-60 -161 -159 -235.5t-204 -74.5q-113 0 -210 74.5t-157 235.5q12 18 39.5 43t43.5 32q50 -84 131.5 -128.5t148.5 -44.5
q71 0 152 44t132 129q17 -7 44 -32t39 -43z" />
    <glyph glyph-name="Edotaccent" unicode="&#x116;" horiz-adv-x="1096" 
d="M989 1225q-2 -34 -8.5 -94.5t-15.5 -117.5t-17 -83h-85q-4 92 -24.5 146t-57.5 54h-378l29 130h514zM886 697q-16 -28 -43 -71.5t-49 -59.5q-31 29 -72.5 42t-125.5 13h-207l22 114h439zM1054 324q-5 -57 -12.5 -125.5t-15 -123.5t-13.5 -75h-973v83q68 14 101.5 31
t33.5 30v971q0 12 -31.5 30t-103.5 32v83h560v-83q-67 -7 -106 -16.5t-39 -23.5v-943q0 -19 14.5 -33.5t58 -22.5t131.5 -8h89q92 0 136 52.5t87 169.5zM701 1550q0 -79 -50.5 -134.5t-119.5 -55.5q-130 0 -130 130q0 80 52 135t118 55q60 0 95 -32.5t35 -97.5z" />
    <glyph glyph-name="edotaccent" unicode="&#x117;" horiz-adv-x="1006" 
d="M946 547q-18 -20 -68 -47t-82 -40h-614l2 120h460q23 0 30.5 7.5t7.5 28.5q0 41 -15.5 92.5t-52 89t-98.5 37.5q-105 0 -140.5 -93.5t-35.5 -254.5q0 -150 60.5 -243.5t175.5 -93.5q42 0 82 7.5t93 32.5t132 76q13 -7 33 -35t24 -36q-94 -92 -165 -141t-138.5 -66.5
t-151.5 -17.5q-117 0 -213.5 60t-154 166.5t-57.5 247.5q0 267 201 417q56 41 133 70t160 29q131 0 218 -55.5t130.5 -149t43.5 -208.5zM694 1270q0 -79 -50.5 -134.5t-119.5 -55.5q-130 0 -130 130q0 80 52 135t118 55q60 0 95 -32.5t35 -97.5z" />
    <glyph glyph-name="Eogonek" unicode="&#x118;" horiz-adv-x="1096" 
d="M989 1225q-2 -34 -8.5 -94.5t-15.5 -117.5t-17 -83h-85q-4 92 -24.5 146t-57.5 54h-378l29 130h514zM886 697q-16 -28 -43 -71.5t-49 -59.5q-31 29 -72.5 42t-125.5 13h-207l22 114h439zM1054 324q-5 -57 -12.5 -125.5t-15 -123.5t-13.5 -75h-973v83q68 14 101.5 31
t33.5 30v971q0 12 -31.5 30t-103.5 32v83h560v-83q-67 -7 -106 -16.5t-39 -23.5v-943q0 -19 14.5 -33.5t58 -22.5t131.5 -8h89q92 0 136 52.5t87 169.5zM1034 -299q-51 -52 -139.5 -98.5t-183.5 -46.5q-36 0 -79.5 13t-75 45t-31.5 87q0 89 81 177.5t247 164.5l95 -19
q-90 -85 -122 -138t-32 -100q0 -37 22.5 -54.5t53.5 -17.5q25 0 56.5 13t73.5 51z" />
    <glyph glyph-name="eogonek" unicode="&#x119;" horiz-adv-x="1006" 
d="M885 -299q-51 -52 -139.5 -98.5t-183.5 -46.5q-36 0 -79.5 13t-75 45t-31.5 87q0 72 52 143.5t158 136.5q-49 -11 -101 -11q-117 0 -213.5 60t-154 166.5t-57.5 247.5q0 267 201 417q56 41 133 70t160 29q131 0 218 -55.5t130.5 -149t43.5 -208.5q-18 -20 -68 -47
t-82 -40h-456v-3q0 -137 63.5 -222t172.5 -85q42 0 82 7.5t93 32.5t132 76q13 -7 33 -35t24 -36q-74 -71 -141.5 -143.5t-110.5 -140.5t-43 -125q0 -37 22.5 -54.5t53.5 -17.5q25 0 56.5 13t73.5 51zM516 835q-89 0 -127.5 -68t-46.5 -187h302q23 0 30.5 7.5t7.5 28.5
q0 41 -15.5 92.5t-52 89t-98.5 37.5z" />
    <glyph glyph-name="Ecaron" unicode="&#x11a;" horiz-adv-x="1096" 
d="M989 1225q-2 -34 -8.5 -94.5t-15.5 -117.5t-17 -83h-85q-4 92 -24.5 146t-57.5 54h-378l29 130h514zM886 697q-16 -28 -43 -71.5t-49 -59.5q-31 29 -72.5 42t-125.5 13h-207l22 114h439zM1054 324q-5 -57 -12.5 -125.5t-15 -123.5t-13.5 -75h-973v83q68 14 101.5 31
t33.5 30v971q0 12 -31.5 30t-103.5 32v83h560v-83q-67 -7 -106 -16.5t-39 -23.5v-943q0 -19 14.5 -33.5t58 -22.5t131.5 -8h89q92 0 136 52.5t87 169.5zM622 1382h-147l-272 324q12 19 29 43.5t34 31.5l284 -143l281 143q17 -7 39 -31.5t36 -43.5z" />
    <glyph glyph-name="ecaron" unicode="&#x11b;" horiz-adv-x="1006" 
d="M946 547q-18 -20 -68 -47t-82 -40h-614l2 120h460q23 0 30.5 7.5t7.5 28.5q0 41 -15.5 92.5t-52 89t-98.5 37.5q-105 0 -140.5 -93.5t-35.5 -254.5q0 -150 60.5 -243.5t175.5 -93.5q42 0 82 7.5t93 32.5t132 76q13 -7 33 -35t24 -36q-94 -92 -165 -141t-138.5 -66.5
t-151.5 -17.5q-117 0 -213.5 60t-154 166.5t-57.5 247.5q0 267 201 417q56 41 133 70t160 29q131 0 218 -55.5t130.5 -149t43.5 -208.5zM618 1049h-147l-284 389q14 19 36.5 43.5t38.5 31.5l281 -208l284 208q17 -7 34 -31.5t29 -43.5z" />
    <glyph glyph-name="Gcircumflex" unicode="&#x11c;" horiz-adv-x="1244" 
d="M1205 547q-57 -13 -76 -36t-19 -46v-291l-27.5 -9.5t-67.5 -22.5t-80 -25t-67.5 -18t-27.5 -1v367q0 15 -6 28.5t-36.5 27t-103.5 26.5v83h511v-83zM1112 1188q7 -5 -5 -37.5t-33 -74.5t-43 -77.5t-35 -47.5l-73 16q-66 108 -134 150.5t-151 42.5q-37 0 -88.5 -23.5
t-100.5 -82t-81.5 -160t-32.5 -257.5q0 -175 49.5 -285t130 -161t171.5 -51q101 0 159.5 33t110.5 82q9 -4 45 -22t70.5 -36t38.5 -23q-148 -121 -264.5 -162.5t-207.5 -41.5q-111 0 -216 37.5t-189 113.5t-133.5 191.5t-49.5 269.5q0 222 92 380.5t252 243t363 84.5
q44 0 111 -12t134 -34.5t110 -55.5zM1008 1432q-12 -19 -30.5 -43t-35.5 -32l-281 158l-281 -158q-16 8 -38.5 32t-36.5 43l284 339h147z" />
    <glyph glyph-name="gcircumflex" unicode="&#x11d;" horiz-adv-x="1079" 
d="M1060 -100q0 -67 -47 -136t-125.5 -126.5t-175 -92.5t-195.5 -35q-81 0 -169.5 15t-165 47.5t-124.5 84t-48 124.5q0 37 26.5 76t97 88t200.5 116l31.5 -2t63.5 -8.5t35 -20.5q-87 -56 -126 -94.5t-48.5 -65.5t-9.5 -50q0 -61 88 -108t224 -47q113 0 160.5 50t47.5 108
q0 22 -16 45.5t-65.5 44t-150.5 33.5q-196 26 -311 72.5t-115 94.5q0 26 52 85.5t168 134.5l192 17q-82 -60 -100 -93t-18 -41q0 -11 10.5 -21t56 -20.5t149.5 -24.5q161 -21 249.5 -51.5t123.5 -78.5t35 -120zM1079 920q-4 -20 -22.5 -57.5t-34.5 -62.5q-54 -9 -114.5 -14
t-145.5 -2l-37 97q95 8 186.5 35t137.5 44zM920 641q0 -102 -57.5 -180t-153 -122t-210.5 -44q-118 0 -213 38t-150.5 107t-55.5 162q0 98 63 179.5t166.5 130t225.5 48.5q113 0 199.5 -43.5t136 -116t49.5 -159.5zM660 600q0 99 -47 169.5t-137 70.5q-49 0 -92.5 -44.5
t-43.5 -136.5q0 -99 44 -169t140 -70q59 0 97.5 44t38.5 136zM879 1112q-12 -19 -29 -43t-34 -32l-284 208l-281 -208q-16 8 -38.5 32t-36.5 43l284 389h147z" />
    <glyph glyph-name="Gbreve" unicode="&#x11e;" horiz-adv-x="1244" 
d="M1205 547q-57 -13 -76 -36t-19 -46v-291l-27.5 -9.5t-67.5 -22.5t-80 -25t-67.5 -18t-27.5 -1v367q0 15 -6 28.5t-36.5 27t-103.5 26.5v83h511v-83zM1112 1188q7 -5 -5 -37.5t-33 -74.5t-43 -77.5t-35 -47.5l-73 16q-66 108 -134 150.5t-151 42.5q-37 0 -88.5 -23.5
t-100.5 -82t-81.5 -160t-32.5 -257.5q0 -175 49.5 -285t130 -161t171.5 -51q101 0 159.5 33t110.5 82q9 -4 45 -22t70.5 -36t38.5 -23q-148 -121 -264.5 -162.5t-207.5 -41.5q-111 0 -216 37.5t-189 113.5t-133.5 191.5t-49.5 269.5q0 222 92 380.5t252 243t363 84.5
q44 0 111 -12t134 -34.5t110 -55.5zM1027 1690q-60 -161 -159 -235.5t-204 -74.5q-113 0 -210 74.5t-157 235.5q12 18 39.5 43t43.5 32q50 -84 131.5 -128.5t148.5 -44.5q71 0 152 44t132 129q17 -7 44 -32t39 -43z" />
    <glyph glyph-name="gbreve" unicode="&#x11f;" horiz-adv-x="1079" 
d="M1060 -100q0 -67 -47 -136t-125.5 -126.5t-175 -92.5t-195.5 -35q-81 0 -169.5 15t-165 47.5t-124.5 84t-48 124.5q0 37 26.5 76t97 88t200.5 116l31.5 -2t63.5 -8.5t35 -20.5q-87 -56 -126 -94.5t-48.5 -65.5t-9.5 -50q0 -61 88 -108t224 -47q113 0 160.5 50t47.5 108
q0 22 -16 45.5t-65.5 44t-150.5 33.5q-196 26 -311 72.5t-115 94.5q0 26 52 85.5t168 134.5l192 17q-82 -60 -100 -93t-18 -41q0 -11 10.5 -21t56 -20.5t149.5 -24.5q161 -21 249.5 -51.5t123.5 -78.5t35 -120zM1079 920q-4 -20 -22.5 -57.5t-34.5 -62.5q-54 -9 -114.5 -14
t-145.5 -2l-37 97q95 8 186.5 35t137.5 44zM920 641q0 -102 -57.5 -180t-153 -122t-210.5 -44q-118 0 -213 38t-150.5 107t-55.5 162q0 98 63 179.5t166.5 130t225.5 48.5q113 0 199.5 -43.5t136 -116t49.5 -159.5zM660 600q0 99 -47 169.5t-137 70.5q-49 0 -92.5 -44.5
t-43.5 -136.5q0 -99 44 -169t140 -70q59 0 97.5 44t38.5 136zM898 1370q-60 -161 -159 -235.5t-204 -74.5q-113 0 -210 74.5t-157 235.5q12 18 39.5 43t43.5 32q50 -84 131.5 -128.5t148.5 -44.5q71 0 152 44t132 129q17 -7 44 -32t39 -43z" />
    <glyph glyph-name="Gdotaccent" unicode="&#x120;" horiz-adv-x="1244" 
d="M1205 547q-57 -13 -76 -36t-19 -46v-291l-27.5 -9.5t-67.5 -22.5t-80 -25t-67.5 -18t-27.5 -1v367q0 15 -6 28.5t-36.5 27t-103.5 26.5v83h511v-83zM1112 1188q7 -5 -5 -37.5t-33 -74.5t-43 -77.5t-35 -47.5l-73 16q-66 108 -134 150.5t-151 42.5q-37 0 -88.5 -23.5
t-100.5 -82t-81.5 -160t-32.5 -257.5q0 -175 49.5 -285t130 -161t171.5 -51q101 0 159.5 33t110.5 82q9 -4 45 -22t70.5 -36t38.5 -23q-148 -121 -264.5 -162.5t-207.5 -41.5q-111 0 -216 37.5t-189 113.5t-133.5 191.5t-49.5 269.5q0 222 92 380.5t252 243t363 84.5
q44 0 111 -12t134 -34.5t110 -55.5zM816 1550q0 -79 -50.5 -134.5t-119.5 -55.5q-130 0 -130 130q0 80 52 135t118 55q60 0 95 -32.5t35 -97.5z" />
    <glyph glyph-name="gdotaccent" unicode="&#x121;" horiz-adv-x="1079" 
d="M1060 -100q0 -67 -47 -136t-125.5 -126.5t-175 -92.5t-195.5 -35q-81 0 -169.5 15t-165 47.5t-124.5 84t-48 124.5q0 37 26.5 76t97 88t200.5 116l31.5 -2t63.5 -8.5t35 -20.5q-87 -56 -126 -94.5t-48.5 -65.5t-9.5 -50q0 -61 88 -108t224 -47q113 0 160.5 50t47.5 108
q0 22 -16 45.5t-65.5 44t-150.5 33.5q-196 26 -311 72.5t-115 94.5q0 26 52 85.5t168 134.5l192 17q-82 -60 -100 -93t-18 -41q0 -11 10.5 -21t56 -20.5t149.5 -24.5q161 -21 249.5 -51.5t123.5 -78.5t35 -120zM1079 920q-4 -20 -22.5 -57.5t-34.5 -62.5q-54 -9 -114.5 -14
t-145.5 -2l-37 97q95 8 186.5 35t137.5 44zM920 641q0 -102 -57.5 -180t-153 -122t-210.5 -44q-118 0 -213 38t-150.5 107t-55.5 162q0 98 63 179.5t166.5 130t225.5 48.5q113 0 199.5 -43.5t136 -116t49.5 -159.5zM660 600q0 99 -47 169.5t-137 70.5q-49 0 -92.5 -44.5
t-43.5 -136.5q0 -99 44 -169t140 -70q59 0 97.5 44t38.5 136zM683 1270q0 -79 -50.5 -134.5t-119.5 -55.5q-130 0 -130 130q0 80 52 135t118 55q60 0 95 -32.5t35 -97.5z" />
    <glyph glyph-name="Gcommaaccent" unicode="&#x122;" horiz-adv-x="1244" 
d="M1205 547q-57 -13 -76 -36t-19 -46v-291l-27.5 -9.5t-67.5 -22.5t-80 -25t-67.5 -18t-27.5 -1v367q0 15 -6 28.5t-36.5 27t-103.5 26.5v83h511v-83zM1112 1188q7 -5 -5 -37.5t-33 -74.5t-43 -77.5t-35 -47.5l-73 16q-66 108 -134 150.5t-151 42.5q-37 0 -88.5 -23.5
t-100.5 -82t-81.5 -160t-32.5 -257.5q0 -175 49.5 -285t130 -161t171.5 -51q101 0 159.5 33t110.5 82q9 -4 45 -22t70.5 -36t38.5 -23q-148 -121 -264.5 -162.5t-207.5 -41.5q-111 0 -216 37.5t-189 113.5t-133.5 191.5t-49.5 269.5q0 222 92 380.5t252 243t363 84.5
q44 0 111 -12t134 -34.5t110 -55.5zM829 -270q0 -76 -63.5 -158t-167.5 -135l-59 56q42 38 68.5 78t26.5 86t-39.5 77.5t-119.5 32.5l-18 72q29 23 81 40.5t103.5 27t78.5 7.5q47 -23 78 -66.5t31 -117.5z" />
    <glyph glyph-name="gcommaaccent" unicode="&#x123;" horiz-adv-x="1079" 
d="M1060 -100q0 -67 -47 -136t-125.5 -126.5t-175 -92.5t-195.5 -35q-81 0 -169.5 15t-165 47.5t-124.5 84t-48 124.5q0 37 26.5 76t97 88t200.5 116l31.5 -2t63.5 -8.5t35 -20.5q-87 -56 -126 -94.5t-48.5 -65.5t-9.5 -50q0 -61 88 -108t224 -47q113 0 160.5 50t47.5 108
q0 22 -16 45.5t-65.5 44t-150.5 33.5q-196 26 -311 72.5t-115 94.5q0 26 52 85.5t168 134.5l192 17q-82 -60 -100 -93t-18 -41q0 -11 10.5 -21t56 -20.5t149.5 -24.5q161 -21 249.5 -51.5t123.5 -78.5t35 -120zM1079 920q-4 -20 -22.5 -57.5t-34.5 -62.5q-54 -9 -114.5 -14
t-145.5 -2l-37 97q95 8 186.5 35t137.5 44zM920 641q0 -102 -57.5 -180t-153 -122t-210.5 -44q-118 0 -213 38t-150.5 107t-55.5 162q0 98 63 179.5t166.5 130t225.5 48.5q113 0 199.5 -43.5t136 -116t49.5 -159.5zM660 600q0 99 -47 169.5t-137 70.5q-49 0 -92.5 -44.5
t-43.5 -136.5q0 -99 44 -169t140 -70q59 0 97.5 44t38.5 136zM342 1239q0 92 62 174.5t159 143.5l59 -56q-42 -38 -63.5 -73t-21.5 -81t41.5 -77.5t127.5 -32.5l18 -72q-30 -28 -83 -53t-108.5 -39.5t-91.5 -12.5q-55 23 -77 75.5t-22 103.5z" />
    <glyph glyph-name="Hcircumflex" unicode="&#x124;" horiz-adv-x="1419" 
d="M810 0v83q68 14 101.5 31t33.5 30v971q0 12 -31.5 30t-103.5 32v83h550v-83q-135 -28 -135 -62v-971q0 -12 31.5 -29.5t103.5 -31.5v-83h-550zM427 595v130h538v-130h-538zM40 0v83q68 14 101.5 31t33.5 30v971q0 12 -31.5 30t-103.5 32v83h550v-83q-135 -28 -135 -62
v-971q0 -12 31 -29.5t104 -31.5v-83h-550zM1046 1432q-12 -19 -30.5 -43t-35.5 -32l-281 158l-281 -158q-16 8 -38.5 32t-36.5 43l284 339h147z" />
    <glyph glyph-name="hcircumflex" unicode="&#x125;" horiz-adv-x="1210" 
d="M660 0v83q72 19 101 33.5t29 27.5v409q0 122 -24.5 164.5t-83.5 42.5q-54 0 -107.5 -24.5t-129.5 -66.5v-525q0 -34 130 -61v-83h-530v83q130 34 130 61v1114q0 56 -5.5 81t-32.5 34.5t-92 16.5v80q122 16 198 33.5t155 46.5l47 -44v-692q124 83 220 114.5t174 31.5
q58 0 108 -25.5t81.5 -84.5t31.5 -159v-547q0 -13 25.5 -27t104.5 -34v-83h-530zM653 1682q-12 -19 -30.5 -43t-35.5 -32l-281 158l-281 -158q-16 8 -38.5 32t-36.5 43l284 339h147z" />
    <glyph glyph-name="Hbar" unicode="&#x126;" horiz-adv-x="1419" 
d="M810 0v83q68 14 101.5 31t33.5 30v971q0 12 -31.5 30t-103.5 32v83h550v-83q-135 -28 -135 -62v-971q0 -12 31.5 -29.5t103.5 -31.5v-83h-550zM427 595v130h538v-130h-538zM40 0v83q68 14 101.5 31t33.5 30v971q0 12 -31.5 30t-103.5 32v83h550v-83q-135 -28 -135 -62
v-971q0 -12 31 -29.5t104 -31.5v-83h-550zM1375 874h-1367l-23 22q5 16 18.5 54t21.5 54h1367l22 -25z" />
    <glyph glyph-name="hbar" unicode="&#x127;" horiz-adv-x="1210" 
d="M696 1123h-688l-23 22q5 16 18.5 54t21.5 54h688l22 -25zM660 0v83q72 19 101 33.5t29 27.5v409q0 122 -24.5 164.5t-83.5 42.5q-54 0 -107.5 -24.5t-129.5 -66.5v-525q0 -34 130 -61v-83h-530v83q130 34 130 61v1114q0 56 -5.5 81t-32.5 34.5t-92 16.5v80
q122 16 198 33.5t155 46.5l47 -44v-692q124 83 220 114.5t174 31.5q58 0 108 -25.5t81.5 -84.5t31.5 -159v-547q0 -13 25.5 -27t104.5 -34v-83h-530z" />
    <glyph glyph-name="Itilde" unicode="&#x128;" horiz-adv-x="690" 
d="M60 0v83q68 14 101.5 31t33.5 30v971q0 12 -31.5 30t-103.5 32v83h550v-83q-135 -28 -135 -62v-971q0 -12 31.5 -29.5t103.5 -31.5v-83h-550zM745 1657q-18 -40 -44 -91t-60 -98t-76 -77.5t-90 -30.5q-61 0 -115 26t-105.5 51.5t-105.5 25.5q-47 0 -76.5 -28.5
t-66.5 -84.5l-83 30q18 41 44 92t60 98.5t75.5 78.5t89.5 31q66 0 121.5 -25.5t105.5 -51.5t97 -26q46 0 78.5 27.5t66.5 85.5z" />
    <glyph glyph-name="itilde" unicode="&#x129;" horiz-adv-x="635" 
d="M60 0v83q68 14 99 31t31 30v496q0 69 -3 103t-29.5 47.5t-97.5 19.5v80q93 12 173 28.5t153 41.5h74v-816q0 -12 28.5 -29.5t101.5 -31.5v-83h-530zM726 1356q-23 -54 -61.5 -120.5t-92.5 -115.5t-126 -49q-51 0 -94.5 26t-83 51.5t-78.5 25.5q-32 0 -65.5 -34t-68.5 -90
l-93 34q24 55 62 121.5t92 115t126 48.5q56 0 99 -25.5t80.5 -51.5t74.5 -26q31 0 66.5 35.5t69.5 93.5z" />
    <glyph glyph-name="Imacron" unicode="&#x12a;" horiz-adv-x="690" 
d="M60 0v83q68 14 101.5 31t33.5 30v971q0 12 -31.5 30t-103.5 32v83h550v-83q-135 -28 -135 -62v-971q0 -12 31.5 -29.5t103.5 -31.5v-83h-550zM687 1575q-4 -14 -17 -43.5t-26 -57.5t-18 -39h-599l-35 34q4 15 16 43t25.5 56t19.5 41h599z" />
    <glyph glyph-name="imacron" unicode="&#x12b;" horiz-adv-x="635" 
d="M60 0v83q68 14 99 31t31 30v496q0 69 -3 103t-29.5 47.5t-97.5 19.5v80q93 12 173 28.5t153 41.5h74v-816q0 -12 28.5 -29.5t101.5 -31.5v-83h-530zM677 1315q-4 -14 -17 -43.5t-26 -57.5t-18 -39h-599l-35 34q4 15 16 43t25.5 56t19.5 41h599z" />
    <glyph glyph-name="Ibreve" unicode="&#x12c;" horiz-adv-x="690" 
d="M60 0v83q68 14 101.5 31t33.5 30v971q0 12 -31.5 30t-103.5 32v83h550v-83q-135 -28 -135 -62v-971q0 -12 31.5 -29.5t103.5 -31.5v-83h-550zM700 1690q-60 -161 -159 -235.5t-204 -74.5q-113 0 -210 74.5t-157 235.5q12 18 39.5 43t43.5 32q50 -84 131.5 -128.5
t148.5 -44.5q71 0 152 44t132 129q17 -7 44 -32t39 -43z" />
    <glyph glyph-name="ibreve" unicode="&#x12d;" horiz-adv-x="635" 
d="M60 0v83q68 14 99 31t31 30v496q0 69 -3 103t-29.5 47.5t-97.5 19.5v80q93 12 173 28.5t153 41.5h74v-816q0 -12 28.5 -29.5t101.5 -31.5v-83h-530zM690 1370q-60 -161 -159 -235.5t-204 -74.5q-113 0 -210 74.5t-157 235.5q12 18 39.5 43t43.5 32q50 -84 131.5 -128.5
t148.5 -44.5q71 0 152 44t132 129q17 -7 44 -32t39 -43z" />
    <glyph glyph-name="Iogonek" unicode="&#x12e;" horiz-adv-x="690" 
d="M60 0v83q68 14 101.5 31t33.5 30v971q0 12 -31.5 30t-103.5 32v83h550v-83q-135 -28 -135 -62v-971q0 -12 31.5 -29.5t103.5 -31.5v-83h-550zM605 -299q-51 -52 -139.5 -98.5t-183.5 -46.5q-36 0 -79.5 13t-75 45t-31.5 87q0 89 81 177.5t247 164.5l95 -19
q-90 -85 -122 -138t-32 -100q0 -37 22.5 -54.5t53.5 -17.5q25 0 56.5 13t73.5 51z" />
    <glyph glyph-name="iogonek" unicode="&#x12f;" horiz-adv-x="635" 
d="M500 1261q0 -71 -52.5 -114t-132.5 -43q-59 0 -107 27.5t-48 88.5q0 72 54 114t131 42q58 0 106.5 -26.5t48.5 -88.5zM60 0v83q68 14 99 31t31 30v496q0 69 -5.5 103t-32.5 47.5t-92 19.5v80q93 12 173 28.5t153 41.5h74v-816q0 -12 28.5 -29.5t101.5 -31.5v-83h-530z
M595 -299q-51 -52 -139.5 -98.5t-183.5 -46.5q-36 0 -79.5 13t-75 45t-31.5 87q0 89 81 177.5t247 164.5l95 -19q-90 -85 -122 -138t-32 -100q0 -37 22.5 -54.5t53.5 -17.5q25 0 56.5 13t73.5 51z" />
    <glyph glyph-name="Idotaccent" unicode="&#x130;" horiz-adv-x="690" 
d="M60 0v83q68 14 101.5 31t33.5 30v971q0 12 -31.5 30t-103.5 32v83h550v-83q-135 -28 -135 -62v-971q0 -12 31.5 -29.5t103.5 -31.5v-83h-550zM489 1550q0 -79 -50.5 -134.5t-119.5 -55.5q-130 0 -130 130q0 80 52 135t118 55q60 0 95 -32.5t35 -97.5z" />
    <glyph glyph-name="dotlessi" unicode="&#x131;" horiz-adv-x="635" 
d="M60 0v83q68 14 99 31t31 30v496q0 69 -3 103t-29.5 47.5t-97.5 19.5v80q93 12 173 28.5t153 41.5h74v-816q0 -12 28.5 -29.5t101.5 -31.5v-83h-530z" />
    <glyph glyph-name="IJ" unicode="&#x132;" horiz-adv-x="1395" 
d="M60 0v83q68 14 101.5 31t33.5 30v971q0 12 -31.5 30t-103.5 32v83h550v-83q-135 -28 -135 -62v-971q0 -12 31.5 -29.5t103.5 -31.5v-83h-550zM1335 1177q-135 -28 -135 -62v-940q0 -143 -40.5 -236.5t-98 -153.5t-110.5 -103t-131 -77.5t-155 -34.5q-65 0 -126 18
t-100 42t-39 40q0 12 23 39t56 57.5t63 54.5t44 29q56 -52 108 -74.5t90 -22.5q35 0 66 22.5t50.5 97t19.5 230.5v1012q0 12 -32.5 28.5t-152.5 33.5v83h600v-83z" />
    <glyph glyph-name="ij" unicode="&#x133;" horiz-adv-x="1245" 
d="M500 1261q0 -71 -52.5 -114t-132.5 -43q-59 0 -107 27.5t-48 88.5q0 72 54 114t131 42q58 0 106.5 -26.5t48.5 -88.5zM60 0v83q68 14 99 31t31 30v496q0 69 -5.5 103t-32.5 47.5t-92 19.5v80q93 12 173 28.5t153 41.5h74v-816q0 -12 28.5 -29.5t101.5 -31.5v-83h-530z
M1135 1261q0 -71 -52.5 -114t-132.5 -43q-59 0 -107 27.5t-48 88.5q0 72 54 114t131 42q58 0 106.5 -26.5t48.5 -88.5zM1090 109q0 -153 -37.5 -246t-93 -147.5t-109.5 -95.5t-131 -75.5t-138 -34.5q-56 0 -115.5 18t-100 41.5t-40.5 39.5t23 43.5t56 56.5t63 51.5t45 29.5
q33 -43 92 -69t96 -26q34 0 61 26t43 101t16 221v597q0 69 -5.5 102.5t-32.5 47t-92 20.5v80q76 10 126.5 19.5t95 21.5t101.5 29h77v-851z" />
    <glyph glyph-name="Jcircumflex" unicode="&#x134;" horiz-adv-x="705" 
d="M645 1177q-135 -28 -135 -62v-940q0 -143 -40.5 -236.5t-98 -153.5t-110.5 -103t-131 -77.5t-155 -34.5q-65 0 -126 18t-100 42t-39 40q0 12 23 39t56 57.5t63 54.5t44 29q56 -52 108 -74.5t90 -22.5q35 0 66 22.5t50.5 97t19.5 230.5v1012q0 12 -32.5 28.5t-152.5 33.5
v83h600v-83zM708 1432q-12 -19 -30.5 -43t-35.5 -32l-281 158l-281 -158q-16 8 -38.5 32t-36.5 43l284 339h147z" />
    <glyph glyph-name="jcircumflex" unicode="&#x135;" horiz-adv-x="610" 
d="M455 109q0 -153 -37.5 -245t-93 -146.5t-109.5 -97.5q-53 -43 -130.5 -76.5t-138.5 -33.5q-56 0 -115.5 18t-100 41.5t-40.5 39.5t23 43.5t56 56.5t63 51.5t45 29.5q33 -43 92 -69t96 -26q34 0 61 26t43 101t16 221v597q0 69 -3.5 102.5t-30 47t-96.5 20.5v80
q76 10 126.5 19.5t95 21.5t101.5 29h77v-851zM666 1112q-12 -19 -29 -43t-34 -32l-284 208l-281 -208q-16 8 -38.5 32t-36.5 43l284 389h147z" />
    <glyph glyph-name="Kcommaaccent" unicode="&#x136;" horiz-adv-x="1294" 
d="M1230 1177q-64 -8 -91 -18.5t-59 -43.5l-459 -472h-184l377 445q46 54 40.5 68t-84.5 21v83h460v-83zM1294 57q-39 -12 -91.5 -29t-102.5 -29.5t-82 -12.5q-29 0 -51.5 9t-42.5 34l-487 614l176 78l522 -544q32 -33 66 -38t86 1zM40 0v83q68 14 101.5 31t33.5 30v971
q0 12 -31.5 30t-103.5 32v83h550v-83q-135 -28 -135 -62v-971q0 -12 31 -29.5t104 -31.5v-83h-550zM834 -270q0 -76 -63.5 -158t-167.5 -135l-59 56q42 38 68.5 78t26.5 86t-39.5 77.5t-119.5 32.5l-18 72q29 23 81 40.5t103.5 27t78.5 7.5q47 -23 78 -66.5t31 -117.5z" />
    <glyph glyph-name="kcommaaccent" unicode="&#x137;" horiz-adv-x="1164" 
d="M1139 847q-44 -4 -90 -22t-90 -50l-377 -279l-147 30l258 233q44 40 49 58.5t-16 24t-56 5.5v83h469v-83zM45 0v83q66 17 98 30t32 31v1112q0 60 -8.5 85.5t-36 34t-85.5 14.5v80q107 14 193.5 31.5t159.5 48.5l47 -44v-1362q0 -15 18 -26.5t92 -34.5v-83h-510zM1174 38
q-39 -9 -93.5 -20.5t-100.5 -19.5t-60 -8q-42 0 -72.5 12t-52.5 41l-358 483l194 76l393 -441q29 -32 57.5 -38t86.5 -2zM776 -270q0 -76 -63.5 -158t-167.5 -135l-59 56q42 38 68.5 78t26.5 86t-39.5 77.5t-119.5 32.5l-18 72q29 23 81 40.5t103.5 27t78.5 7.5
q47 -23 78 -66.5t31 -117.5z" />
    <glyph glyph-name="kgreenlandic" unicode="&#x138;" horiz-adv-x="1177" 
d="M1008 622q-11 82 -32 115t-50 33q-25 0 -47.5 -34.5t-47.5 -85t-57 -101t-76 -85t-105 -34.5h-153v130h140q34 0 61.5 39.5t56 97.5t65 116t88.5 97.5t126 39.5q33 0 78 -11t77 -24q7 -2 4 -52t-14.5 -117.5t-33.5 -123.5h-80zM45 0v83q130 30 130 61v292q0 92 42 146
t91 98l137 -34v-502q0 -15 18 -28t92 -33v-83h-510zM555 930v-83q-66 -13 -88 -28t-22 -33v-325q0 -61 -39.5 -101.5t-90 -64t-83.5 -35.5l-57 34v492q0 15 -28 29t-102 32v83h510zM907 -20q-69 0 -100 57l-226 423l185 79l257 -393q19 -28 50 -34t94 -2l10 -82
q-61 -16 -139.5 -32t-130.5 -16z" />
    <glyph glyph-name="Lacute" unicode="&#x139;" horiz-adv-x="1065" 
d="M1044 324q-5 -57 -13 -125.5t-15.5 -123.5t-12.5 -75h-963v83q68 14 101.5 31t33.5 30v971q0 12 -31.5 30t-103.5 32v83h550v-83q-135 -28 -135 -62v-911q0 -35 38.5 -54.5t147.5 -19.5h103q92 0 133 52.5t84 169.5zM355 1355q-16 8 -41 37t-33 41l363 348
q11 -4 43 -20.5t70 -36.5t69.5 -37.5t40.5 -24.5l11 -67z" />
    <glyph glyph-name="lacute" unicode="&#x13a;" horiz-adv-x="635" 
d="M50 0v83q86 15 113 30t27 31v1112q0 59 -9 85t-37 34.5t-84 14.5v80q110 14 190 31t164 49l46 -44v-1362q0 -15 29 -31t111 -30v-83h-550zM172 1675q-16 8 -41 37t-33 41l363 348q11 -4 43 -20.5t70 -36.5t69.5 -37.5t40.5 -24.5l11 -67z" />
    <glyph glyph-name="Lcommaaccent" unicode="&#x13b;" horiz-adv-x="1065" 
d="M1044 324q-5 -57 -13 -125.5t-15.5 -123.5t-12.5 -75h-963v83q68 14 101.5 31t33.5 30v971q0 12 -31.5 30t-103.5 32v83h550v-83q-135 -28 -135 -62v-911q0 -35 38.5 -54.5t147.5 -19.5h103q92 0 133 52.5t84 169.5zM709 -270q0 -76 -63.5 -158t-167.5 -135l-59 56
q42 38 68.5 78t26.5 86t-39.5 77.5t-119.5 32.5l-18 72q29 23 81 40.5t103.5 27t78.5 7.5q47 -23 78 -66.5t31 -117.5z" />
    <glyph glyph-name="lcommaaccent" unicode="&#x13c;" horiz-adv-x="635" 
d="M50 0v83q86 15 113 30t27 31v1112q0 59 -9 85t-37 34.5t-84 14.5v80q110 14 190 31t164 49l46 -44v-1362q0 -15 29 -31t111 -30v-83h-550zM492 -270q0 -76 -63.5 -158t-167.5 -135l-59 56q42 38 68.5 78t26.5 86t-39.5 77.5t-119.5 32.5l-18 72q29 23 81 40.5t103.5 27
t78.5 7.5q47 -23 78 -66.5t31 -117.5z" />
    <glyph glyph-name="Lcaron" unicode="&#x13d;" horiz-adv-x="1065" 
d="M1044 324q-5 -57 -13 -125.5t-15.5 -123.5t-12.5 -75h-963v83q68 14 101.5 31t33.5 30v971q0 12 -31.5 30t-103.5 32v83h550v-83q-135 -28 -135 -62v-911q0 -35 38.5 -54.5t147.5 -19.5h103q92 0 133 52.5t84 169.5zM990 1353q0 -91 -62 -174t-159 -144l-59 56
q42 38 63.5 73t21.5 81t-41.5 77.5t-127.5 32.5l-18 72q30 28 83.5 53t108.5 40t91 12q55 -23 77 -75.5t22 -103.5z" />
    <glyph glyph-name="lcaron" unicode="&#x13e;" horiz-adv-x="922" 
d="M50 0v83q86 15 113 30t27 31v1112q0 59 -9 85t-37 34.5t-84 14.5v80q110 14 190 31t164 49l46 -44v-1362q0 -15 29 -31t111 -30v-83h-550zM905 1353q0 -91 -62 -174t-159 -144l-59 56q42 38 63.5 73t21.5 81t-41.5 77.5t-127.5 32.5l-18 72q30 28 83.5 53t108.5 40t91 12
q55 -23 77 -75.5t22 -103.5z" />
    <glyph glyph-name="Ldot" unicode="&#x13f;" horiz-adv-x="1065" 
d="M1044 324q-5 -57 -13 -125.5t-15.5 -123.5t-12.5 -75h-963v83q68 14 101.5 31t33.5 30v971q0 12 -31.5 30t-103.5 32v83h550v-83q-135 -28 -135 -62v-911q0 -35 38.5 -54.5t147.5 -19.5h103q92 0 133 52.5t84 169.5zM1009 703q0 -84 -58.5 -128.5t-139.5 -44.5
q-61 0 -110.5 33t-49.5 109q0 83 60 128.5t139 45.5q57 0 108 -33t51 -110z" />
    <glyph glyph-name="ldot" unicode="&#x140;" horiz-adv-x="1054" 
d="M50 0v83q86 15 113 30t27 31v1112q0 59 -9 85t-37 34.5t-84 14.5v80q110 14 190 31t164 49l46 -44v-1362q0 -15 29 -31t111 -30v-83h-550zM1024 703q0 -84 -58.5 -128.5t-139.5 -44.5q-61 0 -110.5 33t-49.5 109q0 83 60 128.5t139 45.5q57 0 108 -33t51 -110z" />
    <glyph glyph-name="Lslash" unicode="&#x141;" horiz-adv-x="1065" 
d="M768 867q-4 -33 -17 -75t-26 -65l-678 -342l-27 22q3 34 17 78.5t24 63.5l681 343zM1044 324q-5 -57 -13 -125.5t-15.5 -123.5t-12.5 -75h-963v83q68 14 101.5 31t33.5 30v971q0 12 -31.5 30t-103.5 32v83h550v-83q-135 -28 -135 -62v-911q0 -35 38.5 -54.5t147.5 -19.5
h103q92 0 133 52.5t84 169.5z" />
    <glyph glyph-name="lslash" unicode="&#x142;" horiz-adv-x="675" 
d="M70 0v83q86 15 113 30t27 31v453l-153 -107l-27 22q2 23 11.5 58.5t21 68t18.5 45.5l129 90v492q0 61 -9 86.5t-37 33.5t-84 14v80q110 14 190 31t164 49l46 -44v-554l154 108l26 -25q-3 -22 -12.5 -56t-20.5 -66t-20 -48l-127 -89v-642q0 -15 29 -31t111 -30v-83h-550z
" />
    <glyph glyph-name="Nacute" unicode="&#x143;" horiz-adv-x="1369" 
d="M1330 1177q-72 -10 -103.5 -29t-31.5 -33v-1083l-160 39v1044q0 12 -27.5 31.5t-107.5 30.5v83h430v-83zM1195 -30q-110 8 -178.5 43t-100.5 78l-678 939q-41 58 -93 98.5t-105 48.5v83h302q29 0 44 -13t52 -65l619 -859q11 -15 33 -43t46.5 -58t41.5 -51l17 -21v-180z
M40 0v83q74 9 104.5 28.5t30.5 32.5v1012l160 65v-1077q0 -12 29 -31t106 -30v-83h-430zM532 1355q-16 8 -41 37t-33 41l363 348q11 -4 43 -20.5t70 -36.5t69.5 -37.5t40.5 -24.5l11 -67z" />
    <glyph glyph-name="nacute" unicode="&#x144;" horiz-adv-x="1210" 
d="M660 0v83q72 19 101 33.5t29 27.5v429q0 107 -21 147t-77 40q-43 0 -96.5 -16.5t-150.5 -74.5v-525q0 -34 130 -61v-83h-530v83q130 34 130 61v537q0 52 -5.5 77t-32.5 35t-92 17v80q105 11 183.5 26.5t156.5 43.5l45 -45l11 -109q125 89 222.5 121.5t175.5 32.5
q58 0 108 -25.5t81.5 -84.5t31.5 -159v-547q0 -13 25.5 -27t104.5 -34v-83h-530zM551 1037q-18 3 -52 21t-45 27l204 434q12 -1 48 -6.5t80 -12.5t80 -14t47 -10l33 -59z" />
    <glyph glyph-name="Ncommaaccent" unicode="&#x145;" horiz-adv-x="1369" 
d="M1330 1177q-72 -10 -103.5 -29t-31.5 -33v-1083l-160 39v1044q0 12 -27.5 31.5t-107.5 30.5v83h430v-83zM1195 -30q-110 8 -178.5 43t-100.5 78l-678 939q-41 58 -93 98.5t-105 48.5v83h302q29 0 44 -13t52 -65l619 -859q11 -15 33 -43t46.5 -58t41.5 -51l17 -21v-180z
M40 0v83q74 9 104.5 28.5t30.5 32.5v1012l160 65v-1077q0 -12 29 -31t106 -30v-83h-430zM852 -270q0 -76 -63.5 -158t-167.5 -135l-59 56q42 38 68.5 78t26.5 86t-39.5 77.5t-119.5 32.5l-18 72q29 23 81 40.5t103.5 27t78.5 7.5q47 -23 78 -66.5t31 -117.5z" />
    <glyph glyph-name="ncommaaccent" unicode="&#x146;" horiz-adv-x="1210" 
d="M660 0v83q72 19 101 33.5t29 27.5v429q0 107 -21 147t-77 40q-43 0 -96.5 -16.5t-150.5 -74.5v-525q0 -34 130 -61v-83h-530v83q130 34 130 61v537q0 52 -5.5 77t-32.5 35t-92 17v80q105 11 183.5 26.5t156.5 43.5l45 -45l11 -109q125 89 222.5 121.5t175.5 32.5
q58 0 108 -25.5t81.5 -84.5t31.5 -159v-547q0 -13 25.5 -27t104.5 -34v-83h-530zM784 -270q0 -76 -63.5 -158t-167.5 -135l-59 56q42 38 68.5 78t26.5 86t-39.5 77.5t-119.5 32.5l-18 72q29 23 81 40.5t103.5 27t78.5 7.5q47 -23 78 -66.5t31 -117.5z" />
    <glyph glyph-name="Ncaron" unicode="&#x147;" horiz-adv-x="1369" 
d="M1330 1177q-72 -10 -103.5 -29t-31.5 -33v-1083l-160 39v1044q0 12 -27.5 31.5t-107.5 30.5v83h430v-83zM1195 -30q-110 8 -178.5 43t-100.5 78l-678 939q-41 58 -93 98.5t-105 48.5v83h302q29 0 44 -13t52 -65l619 -859q11 -15 33 -43t46.5 -58t41.5 -51l17 -21v-180z
M40 0v83q74 9 104.5 28.5t30.5 32.5v1012l160 65v-1077q0 -12 29 -31t106 -30v-83h-430zM760 1382h-147l-272 324q12 19 29 43.5t34 31.5l284 -143l281 143q17 -7 39 -31.5t36 -43.5z" />
    <glyph glyph-name="ncaron" unicode="&#x148;" horiz-adv-x="1210" 
d="M660 0v83q72 19 101 33.5t29 27.5v429q0 107 -21 147t-77 40q-43 0 -96.5 -16.5t-150.5 -74.5v-525q0 -34 130 -61v-83h-530v83q130 34 130 61v537q0 52 -5.5 77t-32.5 35t-92 17v80q105 11 183.5 26.5t156.5 43.5l45 -45l11 -109q125 89 222.5 121.5t175.5 32.5
q58 0 108 -25.5t81.5 -84.5t31.5 -159v-547q0 -13 25.5 -27t104.5 -34v-83h-530zM691 1049h-147l-284 389q14 19 36.5 43.5t38.5 31.5l281 -208l284 208q17 -7 34 -31.5t29 -43.5z" />
    <glyph glyph-name="Eng" unicode="&#x14a;" horiz-adv-x="1364" 
d="M1225 277q0 -138 -30.5 -238.5t-90 -180t-148.5 -156.5q-52 -45 -142.5 -88.5t-205.5 -43.5q-43 0 -96 12t-101.5 31t-79.5 39t-31 36q0 9 27.5 38.5t66.5 65t73.5 63.5t49.5 34q56 -53 114 -98t133 -45q84 0 132.5 115.5t48.5 362.5v648q0 89 -11 133.5t-39 59.5t-78 15
q-52 0 -140.5 -42t-221.5 -170v-724q0 -12 36 -29.5t109 -31.5v-83h-561v83q136 27 136 61v846q0 53 -4.5 79.5t-31 38.5t-94.5 19v83q48 5 114.5 16.5t134 28.5t116.5 35l45 -45v-187q112 92 200 142.5t163 70t146 19.5q58 0 118 -25t101.5 -92t41.5 -192v-704z" />
    <glyph glyph-name="eng" unicode="&#x14b;" horiz-adv-x="1160" 
d="M1060 118q0 -131 -27 -218t-76.5 -147.5t-118.5 -113.5q-55 -43 -139 -86t-197 -43q-75 0 -143 21.5t-111 50t-43 47.5q0 12 26.5 42t64 64t73 61t53.5 34q43 -53 103.5 -99t106.5 -46q17 0 43.5 9t52.5 42t44 104t18 195v538q0 107 -21 147t-77 40q-43 0 -96.5 -16.5
t-150.5 -74.5v-525q0 -34 130 -61v-83h-530v83q130 34 130 61v537q0 57 -6.5 81.5t-34 32.5t-89.5 15v81q45 2 111 11.5t129 25t100 33.5l45 -45l10 -110q125 89 223 121.5t176 32.5q101 0 161 -68t60 -181v-593z" />
    <glyph glyph-name="Omacron" unicode="&#x14c;" horiz-adv-x="1289" 
d="M605 -30q-128 0 -230.5 52.5t-175 142.5t-111 205.5t-38.5 241.5q0 136 44 258.5t126 217t194.5 148.5t248.5 54q135 0 238.5 -54t174 -145.5t106.5 -206.5t36 -237q0 -136 -48.5 -258t-133.5 -216.5t-195.5 -148.5t-235.5 -54zM654 110q121 0 200 127t79 392
q0 138 -41 258t-115 194t-173 74q-133 0 -201 -134.5t-68 -379.5q0 -149 43.5 -269.5t116 -191t159.5 -70.5zM1071 1575q-4 -14 -17 -43.5t-26 -57.5t-18 -39h-754l-35 34q4 15 16 43t25.5 56t19.5 41h754z" />
    <glyph glyph-name="omacron" unicode="&#x14d;" horiz-adv-x="1090" 
d="M1030 485q0 -100 -40 -192t-110 -165t-161 -115.5t-193 -42.5q-141 0 -245.5 62t-162.5 169t-58 243q0 133 63.5 250.5t177.5 191.5t264 74q141 0 245.5 -62t162 -169t57.5 -244zM745 435q0 106 -23.5 195.5t-70 144.5t-115.5 55q-76 0 -117.5 -47t-57.5 -127.5
t-16 -182.5q0 -105 26.5 -189.5t74 -134t108.5 -49.5q112 0 151.5 86t39.5 249zM1022 1315q-4 -14 -17 -43.5t-26 -57.5t-18 -39h-814l-35 34q4 15 16 43t25.5 56t19.5 41h814z" />
    <glyph glyph-name="Obreve" unicode="&#x14e;" horiz-adv-x="1289" 
d="M605 -30q-128 0 -230.5 52.5t-175 142.5t-111 205.5t-38.5 241.5q0 136 44 258.5t126 217t194.5 148.5t248.5 54q135 0 238.5 -54t174 -145.5t106.5 -206.5t36 -237q0 -136 -48.5 -258t-133.5 -216.5t-195.5 -148.5t-235.5 -54zM654 110q121 0 200 127t79 392
q0 138 -41 258t-115 194t-173 74q-133 0 -201 -134.5t-68 -379.5q0 -149 43.5 -269.5t116 -191t159.5 -70.5zM1011 1690q-60 -161 -159 -235.5t-204 -74.5q-113 0 -210 74.5t-157 235.5q12 18 39.5 43t43.5 32q50 -84 131.5 -128.5t148.5 -44.5q71 0 152 44t132 129
q17 -7 44 -32t39 -43z" />
    <glyph glyph-name="obreve" unicode="&#x14f;" horiz-adv-x="1090" 
d="M1030 485q0 -100 -40 -192t-110 -165t-161 -115.5t-193 -42.5q-141 0 -245.5 62t-162.5 169t-58 243q0 133 63.5 250.5t177.5 191.5t264 74q141 0 245.5 -62t162 -169t57.5 -244zM745 435q0 106 -23.5 195.5t-70 144.5t-115.5 55q-76 0 -117.5 -47t-57.5 -127.5
t-16 -182.5q0 -105 26.5 -189.5t74 -134t108.5 -49.5q112 0 151.5 86t39.5 249zM932 1370q-60 -161 -159 -235.5t-204 -74.5q-113 0 -210 74.5t-157 235.5q12 18 39.5 43t43.5 32q50 -84 131.5 -128.5t148.5 -44.5q71 0 152 44t132 129q17 -7 44 -32t39 -43z" />
    <glyph glyph-name="Ohungarumlaut" unicode="&#x150;" horiz-adv-x="1289" 
d="M605 -30q-128 0 -230.5 52.5t-175 142.5t-111 205.5t-38.5 241.5q0 136 44 258.5t126 217t194.5 148.5t248.5 54q135 0 238.5 -54t174 -145.5t106.5 -206.5t36 -237q0 -136 -48.5 -258t-133.5 -216.5t-195.5 -148.5t-235.5 -54zM654 110q121 0 200 127t79 392
q0 138 -41 258t-115 194t-173 74q-133 0 -201 -134.5t-68 -379.5q0 -149 43.5 -269.5t116 -191t159.5 -70.5zM815 1357q-16 4 -46.5 19.5t-50.5 27.5l146 425q17 -2 57 -6t79.5 -9t52.5 -10l32 -61zM485 1357q-16 4 -46.5 19.5t-50.5 27.5l146 425q17 -2 57 -6t79.5 -9
t52.5 -10l32 -61z" />
    <glyph glyph-name="ohungarumlaut" unicode="&#x151;" horiz-adv-x="1090" 
d="M1030 485q0 -100 -40 -192t-110 -165t-161 -115.5t-193 -42.5q-141 0 -245.5 62t-162.5 169t-58 243q0 133 63.5 250.5t177.5 191.5t264 74q141 0 245.5 -62t162 -169t57.5 -244zM745 435q0 106 -23.5 195.5t-70 144.5t-115.5 55q-76 0 -117.5 -47t-57.5 -127.5
t-16 -182.5q0 -105 26.5 -189.5t74 -134t108.5 -49.5q112 0 151.5 86t39.5 249zM736 1037q-16 4 -46.5 19.5t-50.5 27.5l146 425q17 -2 57 -6t79.5 -9t52.5 -10l32 -61zM406 1037q-16 4 -46.5 19.5t-50.5 27.5l146 425q17 -2 57 -6t79.5 -9t52.5 -10l32 -61z" />
    <glyph glyph-name="OE" unicode="&#x152;" horiz-adv-x="1756" 
d="M1649 1225q-2 -34 -9 -94.5t-15.5 -117.5t-16.5 -83h-85q-4 92 -24.5 146t-57.5 54h-378l29 130h514zM1546 697q-16 -28 -43 -74.5t-49 -62.5q-31 29 -72.5 42t-125.5 13h-207l22 120h439zM1714 324q-5 -57 -12.5 -125.5t-15 -123.5t-13.5 -75h-973v83q68 14 101.5 31
t33.5 30v971q0 12 -31.5 30t-103.5 32v83h392h168v-83q-67 -14 -106 -20t-39 -20v-943q0 -19 14.5 -33.5t58 -22.5t131.5 -8h89q92 0 136 52.5t87 169.5zM873 1000q-38 78 -114 117t-155 39q-131 0 -200 -135t-69 -380q0 -149 42.5 -269.5t114.5 -191t162 -70.5q58 0 92 8.5
t61 26.5t61 45q34 -31 40 -76t0.5 -79.5l-5.5 -34.5q-80 0 -122 -7.5t-78 -15t-98 -7.5q-126 0 -228.5 52.5t-175.5 142.5t-112 205.5t-39 241.5q0 136 45.5 258.5t127.5 217t194.5 148.5t245.5 54q56 0 92.5 -7.5t69.5 -15t78 -7.5q-5 -15 -10.5 -56.5t-10 -88.5t-7 -81z
" />
    <glyph glyph-name="oe" unicode="&#x153;" horiz-adv-x="1659" 
d="M1599 547q-19 -20 -64.5 -47t-77.5 -40h-578l2 120h433q39 0 39 36t-11.5 88t-46.5 92t-106 40q-90 0 -139.5 -84t-49.5 -245q0 -100 25 -180.5t78.5 -127.5t140.5 -47q56 0 121 22t169 92q13 -7 33 -35t24 -36q-88 -97 -161 -145.5t-141 -64t-141 -15.5q-99 0 -194 62
t-156.5 171.5t-61.5 250.5q0 135 57.5 245t161.5 181q45 31 112 55.5t150 24.5q112 0 186 -40t117 -103t61 -134.5t18 -135.5zM1000 505q0 -104 -38 -200t-106 -171.5t-157.5 -119.5t-193.5 -44q-128 0 -229 62t-158.5 169t-57.5 243q0 99 36 191.5t102 166t157 116
t200 42.5q125 0 225.5 -57t160 -159t59.5 -239zM736 455q0 107 -25.5 191.5t-72.5 134t-113 49.5q-107 0 -149.5 -93.5t-42.5 -253.5q0 -105 29.5 -192t77.5 -139t105 -52q107 0 149 97.5t42 257.5z" />
    <glyph glyph-name="Racute" unicode="&#x154;" horiz-adv-x="1269" 
d="M1067 987q0 -128 -68.5 -219t-183.5 -139.5t-254 -48.5q-28 0 -57.5 3.5t-60.5 10.5l-6 120q35 -6 58.5 -8t48.5 -2q128 0 183 67.5t55 184.5q0 58 -22.5 108t-83 81t-174.5 31q-58 0 -140.5 -7.5t-167.5 -18.5t-154 -22l-14 102q109 23 242.5 41.5t280.5 18.5
q190 0 303.5 -40t164 -108.5t50.5 -154.5zM1279 57q-44 -14 -105.5 -31t-117 -28.5t-81.5 -11.5q-28 0 -56 16.5t-42 38.5l-298 571l164 66l365 -479q32 -42 60 -53.5t95 -5.5zM40 0v83q68 14 101.5 31t33.5 30v1047h280v-1047q0 -12 31 -29.5t104 -31.5v-83h-550zM419 1355
q-16 8 -41 37t-33 41l363 348q11 -4 43 -20.5t70 -36.5t69.5 -37.5t40.5 -24.5l11 -67z" />
    <glyph glyph-name="racute" unicode="&#x155;" horiz-adv-x="941" 
d="M910 913q9 -6 4 -52.5t-18.5 -109.5t-30 -120.5t-28.5 -84.5h-83q-4 81 -31 147.5t-80 66.5q-24 0 -54 -8.5t-66 -42.5t-78 -113v-452q0 -15 42.5 -31t136.5 -30v-83h-579v83q130 30 130 61v512q0 66 -7 92t-16 35q-13 14 -32 19t-75 8v80q83 11 135 20t97 20.5t108 29.5
l45 -45l13 -117q54 66 136 114t168 48q40 0 83.5 -13t79.5 -34zM454 1037q-18 3 -52 21t-45 27l204 434q12 -1 48 -6.5t80 -12.5t80 -14t47 -10l33 -59z" />
    <glyph glyph-name="Rcommaaccent" unicode="&#x156;" horiz-adv-x="1269" 
d="M1067 987q0 -128 -68.5 -219t-183.5 -139.5t-254 -48.5q-28 0 -57.5 3.5t-60.5 10.5l-6 120q35 -6 58.5 -8t48.5 -2q128 0 183 67.5t55 184.5q0 58 -22.5 108t-83 81t-174.5 31q-58 0 -140.5 -7.5t-167.5 -18.5t-154 -22l-14 102q109 23 242.5 41.5t280.5 18.5
q190 0 303.5 -40t164 -108.5t50.5 -154.5zM1279 57q-44 -14 -105.5 -31t-117 -28.5t-81.5 -11.5q-28 0 -56 16.5t-42 38.5l-298 571l164 66l365 -479q32 -42 60 -53.5t95 -5.5zM40 0v83q68 14 101.5 31t33.5 30v1047h280v-1047q0 -12 31 -29.5t104 -31.5v-83h-550zM739 -270
q0 -76 -63.5 -158t-167.5 -135l-59 56q42 38 68.5 78t26.5 86t-39.5 77.5t-119.5 32.5l-18 72q29 23 81 40.5t103.5 27t78.5 7.5q47 -23 78 -66.5t31 -117.5z" />
    <glyph glyph-name="rcommaaccent" unicode="&#x157;" horiz-adv-x="941" 
d="M910 913q9 -6 4 -52.5t-18.5 -109.5t-30 -120.5t-28.5 -84.5h-83q-4 81 -31 147.5t-80 66.5q-24 0 -54 -8.5t-66 -42.5t-78 -113v-452q0 -15 42.5 -31t136.5 -30v-83h-579v83q130 30 130 61v512q0 66 -7 92t-16 35q-13 14 -32 19t-75 8v80q83 11 135 20t97 20.5t108 29.5
l45 -45l13 -117q54 66 136 114t168 48q40 0 83.5 -13t79.5 -34zM470 -270q0 -76 -63.5 -158t-167.5 -135l-59 56q42 38 68.5 78t26.5 86t-39.5 77.5t-119.5 32.5l-18 72q29 23 81 40.5t103.5 27t78.5 7.5q47 -23 78 -66.5t31 -117.5z" />
    <glyph glyph-name="Rcaron" unicode="&#x158;" horiz-adv-x="1269" 
d="M1067 987q0 -128 -68.5 -219t-183.5 -139.5t-254 -48.5q-28 0 -57.5 3.5t-60.5 10.5l-6 120q35 -6 58.5 -8t48.5 -2q128 0 183 67.5t55 184.5q0 58 -22.5 108t-83 81t-174.5 31q-58 0 -140.5 -7.5t-167.5 -18.5t-154 -22l-14 102q109 23 242.5 41.5t280.5 18.5
q190 0 303.5 -40t164 -108.5t50.5 -154.5zM1279 57q-44 -14 -105.5 -31t-117 -28.5t-81.5 -11.5q-28 0 -56 16.5t-42 38.5l-298 571l164 66l365 -479q32 -42 60 -53.5t95 -5.5zM40 0v83q68 14 101.5 31t33.5 30v1047h280v-1047q0 -12 31 -29.5t104 -31.5v-83h-550zM647 1382
h-147l-272 324q12 19 29 43.5t34 31.5l284 -143l281 143q17 -7 39 -31.5t36 -43.5z" />
    <glyph glyph-name="rcaron" unicode="&#x159;" horiz-adv-x="941" 
d="M910 913q9 -6 4 -52.5t-18.5 -109.5t-30 -120.5t-28.5 -84.5h-83q-4 81 -31 147.5t-80 66.5q-24 0 -54 -8.5t-66 -42.5t-78 -113v-452q0 -15 42.5 -31t136.5 -30v-83h-579v83q130 30 130 61v512q0 66 -7 92t-16 35q-13 14 -32 19t-75 8v80q83 11 135 20t97 20.5t108 29.5
l45 -45l13 -117q54 66 136 114t168 48q40 0 83.5 -13t79.5 -34zM594 1049h-147l-284 389q14 19 36.5 43.5t38.5 31.5l281 -208l284 208q17 -7 34 -31.5t29 -43.5z" />
    <glyph glyph-name="Sacute" unicode="&#x15a;" horiz-adv-x="1075" 
d="M845 985l-76 6q-40 103 -107.5 141t-124.5 38q-96 0 -138 -44.5t-42 -101.5q0 -63 46 -108.5t118.5 -83.5t154.5 -77.5t154.5 -89.5t118.5 -119.5t46 -168.5q0 -67 -31 -138t-94.5 -132t-160.5 -99t-229 -38q-49 0 -117.5 12t-136.5 34t-115 52q-7 4 -10.5 40.5
t-2.5 89.5t6.5 108.5t16.5 97.5l81 -5q46 -118 129 -198.5t185 -80.5q90 0 157 44.5t67 139.5q0 81 -45.5 135t-118 93t-153 75t-153 80.5t-118 108.5t-45.5 161q0 47 28 104t86.5 109.5t149 86t215.5 33.5q113 0 211.5 -26t135.5 -66q7 -6 -1 -35t-23.5 -66.5t-33.5 -69
t-30 -42.5zM393 1355q-16 8 -41 37t-33 41l363 348q11 -4 43 -20.5t70 -36.5t69.5 -37.5t40.5 -24.5l11 -67z" />
    <glyph glyph-name="sacute" unicode="&#x15b;" horiz-adv-x="880" 
d="M809 283q0 -106 -45.5 -169t-113.5 -94t-137.5 -40.5t-117.5 -9.5q-70 0 -156.5 17.5t-153.5 55.5q-8 5 -12 59t0.5 125t18.5 126l93 -11q27 -114 93 -178t147 -64q134 0 134 97q0 54 -34 94t-88.5 73t-115.5 65q-55 29 -110 65.5t-91.5 84.5t-36.5 111q0 83 54.5 143.5
t141 93.5t181.5 33q93 0 179 -21t134 -56q6 -5 3 -35t-12.5 -70.5t-23 -78t-27.5 -56.5l-79 8q-17 94 -63 146.5t-117 52.5q-58 0 -89.5 -24.5t-31.5 -65.5q0 -61 56 -100.5t175 -100.5q58 -29 114.5 -64.5t93.5 -86t37 -125.5zM373 1037q-18 3 -52 21t-45 27l204 434
q12 -1 48 -6.5t80 -12.5t80 -14t47 -10l33 -59z" />
    <glyph glyph-name="Scircumflex" unicode="&#x15c;" horiz-adv-x="1075" 
d="M845 985l-76 6q-40 103 -107.5 141t-124.5 38q-96 0 -138 -44.5t-42 -101.5q0 -63 46 -108.5t118.5 -83.5t154.5 -77.5t154.5 -89.5t118.5 -119.5t46 -168.5q0 -67 -31 -138t-94.5 -132t-160.5 -99t-229 -38q-49 0 -117.5 12t-136.5 34t-115 52q-7 4 -10.5 40.5
t-2.5 89.5t6.5 108.5t16.5 97.5l81 -5q46 -118 129 -198.5t185 -80.5q90 0 157 44.5t67 139.5q0 81 -45.5 135t-118 93t-153 75t-153 80.5t-118 108.5t-45.5 161q0 47 28 104t86.5 109.5t149 86t215.5 33.5q113 0 211.5 -26t135.5 -66q7 -6 -1 -35t-23.5 -66.5t-33.5 -69
t-30 -42.5zM892 1432q-12 -19 -30.5 -43t-35.5 -32l-281 158l-281 -158q-16 8 -38.5 32t-36.5 43l284 339h147z" />
    <glyph glyph-name="scircumflex" unicode="&#x15d;" horiz-adv-x="880" 
d="M809 283q0 -106 -45.5 -169t-113.5 -94t-137.5 -40.5t-117.5 -9.5q-70 0 -156.5 17.5t-153.5 55.5q-8 5 -12 59t0.5 125t18.5 126l93 -11q27 -114 93 -178t147 -64q134 0 134 97q0 54 -34 94t-88.5 73t-115.5 65q-55 29 -110 65.5t-91.5 84.5t-36.5 111q0 83 54.5 143.5
t141 93.5t181.5 33q93 0 179 -21t134 -56q6 -5 3 -35t-12.5 -70.5t-23 -78t-27.5 -56.5l-79 8q-17 94 -63 146.5t-117 52.5q-58 0 -89.5 -24.5t-31.5 -65.5q0 -61 56 -100.5t175 -100.5q58 -29 114.5 -64.5t93.5 -86t37 -125.5zM785 1112q-12 -19 -29 -43t-34 -32l-284 208
l-281 -208q-16 8 -38.5 32t-36.5 43l284 389h147z" />
    <glyph glyph-name="Scedilla" unicode="&#x15e;" horiz-adv-x="1075" 
d="M845 985l-76 6q-40 103 -107.5 141t-124.5 38q-96 0 -138 -44.5t-42 -101.5q0 -63 46 -108.5t118.5 -83.5t154.5 -77.5t154.5 -89.5t118.5 -119.5t46 -168.5q0 -67 -31 -138t-94.5 -132t-160.5 -99t-229 -38q-49 0 -117.5 12t-136.5 34t-115 52q-7 4 -10.5 40.5
t-2.5 89.5t6.5 108.5t16.5 97.5l81 -5q46 -118 129 -198.5t185 -80.5q90 0 157 44.5t67 139.5q0 81 -45.5 135t-118 93t-153 75t-153 80.5t-118 108.5t-45.5 161q0 47 28 104t86.5 109.5t149 86t215.5 33.5q113 0 211.5 -26t135.5 -66q7 -6 -1 -35t-23.5 -66.5t-33.5 -69
t-30 -42.5zM752 -229q0 -49 -52 -95t-137.5 -78t-188.5 -42l-42 79q81 11 116.5 39t35.5 60q0 34 -23 49t-61 18l9 16.5t30.5 70t56.5 164.5l138 -2l-52 -134q170 -30 170 -145z" />
    <glyph glyph-name="scedilla" unicode="&#x15f;" horiz-adv-x="880" 
d="M809 283q0 -106 -45.5 -169t-113.5 -94t-137.5 -40.5t-117.5 -9.5q-70 0 -156.5 17.5t-153.5 55.5q-8 5 -12 59t0.5 125t18.5 126l93 -11q27 -114 93 -178t147 -64q134 0 134 97q0 54 -34 94t-88.5 73t-115.5 65q-55 29 -110 65.5t-91.5 84.5t-36.5 111q0 83 54.5 143.5
t141 93.5t181.5 33q93 0 179 -21t134 -56q6 -5 3 -35t-12.5 -70.5t-23 -78t-27.5 -56.5l-79 8q-17 94 -63 146.5t-117 52.5q-58 0 -89.5 -24.5t-31.5 -65.5q0 -61 56 -100.5t175 -100.5q58 -29 114.5 -64.5t93.5 -86t37 -125.5zM654 -229q0 -49 -52 -95t-137.5 -78
t-188.5 -42l-42 79q81 11 116.5 39t35.5 60q0 34 -23 49t-61 18l9 16.5t30.5 70t56.5 164.5l138 -2l-52 -134q170 -30 170 -145z" />
    <glyph glyph-name="Scaron" unicode="&#x160;" horiz-adv-x="1075" 
d="M845 985l-76 6q-40 103 -107.5 141t-124.5 38q-96 0 -138 -44.5t-42 -101.5q0 -63 46 -108.5t118.5 -83.5t154.5 -77.5t154.5 -89.5t118.5 -119.5t46 -168.5q0 -67 -31 -138t-94.5 -132t-160.5 -99t-229 -38q-49 0 -117.5 12t-136.5 34t-115 52q-7 4 -10.5 40.5
t-2.5 89.5t6.5 108.5t16.5 97.5l81 -5q46 -118 129 -198.5t185 -80.5q90 0 157 44.5t67 139.5q0 81 -45.5 135t-118 93t-153 75t-153 80.5t-118 108.5t-45.5 161q0 47 28 104t86.5 109.5t149 86t215.5 33.5q113 0 211.5 -26t135.5 -66q7 -6 -1 -35t-23.5 -66.5t-33.5 -69
t-30 -42.5zM621 1382h-147l-272 324q12 19 29 43.5t34 31.5l284 -143l281 143q17 -7 39 -31.5t36 -43.5z" />
    <glyph glyph-name="scaron" unicode="&#x161;" horiz-adv-x="880" 
d="M809 283q0 -106 -45.5 -169t-113.5 -94t-137.5 -40.5t-117.5 -9.5q-70 0 -156.5 17.5t-153.5 55.5q-8 5 -12 59t0.5 125t18.5 126l93 -11q27 -114 93 -178t147 -64q134 0 134 97q0 54 -34 94t-88.5 73t-115.5 65q-55 29 -110 65.5t-91.5 84.5t-36.5 111q0 83 54.5 143.5
t141 93.5t181.5 33q93 0 179 -21t134 -56q6 -5 3 -35t-12.5 -70.5t-23 -78t-27.5 -56.5l-79 8q-17 94 -63 146.5t-117 52.5q-58 0 -89.5 -24.5t-31.5 -65.5q0 -61 56 -100.5t175 -100.5q58 -29 114.5 -64.5t93.5 -86t37 -125.5zM513 1049h-147l-284 389q14 19 36.5 43.5
t38.5 31.5l281 -208l284 208q17 -7 34 -31.5t29 -43.5z" />
    <glyph glyph-name="uni0162" unicode="&#x162;" horiz-adv-x="1208" 
d="M1173 1225q-1 -34 -7.5 -90t-15.5 -114.5t-17 -100.5h-85q-19 93 -29.5 151.5t-53.5 58.5h-277l29 130h416zM212 1130q-31 0 -57.5 -51.5t-71.5 -168.5l-83 29q3 39 10.5 101.5t16.5 123.5t16 96h427l8 -130h-266zM297 0v83q92 19 123 38.5t31 33.5v982q0 12 -26.5 19
t-98.5 21v83h548v-83q-67 -14 -105 -20t-38 -20v-982q0 -13 31 -33t123 -39v-83h-588zM816 -229q0 -49 -52 -95t-137.5 -78t-188.5 -42l-42 79q81 11 116.5 39t35.5 60q0 34 -23 49t-61 18l9 16.5t30.5 70t56.5 164.5l138 -2l-52 -134q170 -30 170 -145z" />
    <glyph glyph-name="uni0163" unicode="&#x163;" horiz-adv-x="775" 
d="M756 167q-143 -103 -236.5 -150t-146.5 -47q-91 0 -157 71t-66 210v544h-119l-31 38l78 97h72v196l229 164l41 -35v-325h297l39 -39q-19 -35 -50 -74.5t-51 -56.5q-24 12 -71.5 23.5t-91.5 11.5h-72v-448q0 -97 23.5 -137t53.5 -40q35 0 80 15.5t130 62.5zM608 -229
q0 -49 -52 -95t-137.5 -78t-188.5 -42l-42 79q81 11 116.5 39t35.5 60q0 34 -23 49t-61 18l9 16.5t30.5 70t56.5 164.5l138 -2l-52 -134q170 -30 170 -145z" />
    <glyph glyph-name="Tcaron" unicode="&#x164;" horiz-adv-x="1208" 
d="M1173 1225q-1 -34 -7.5 -90t-15.5 -114.5t-17 -100.5h-85q-19 93 -29.5 151.5t-53.5 58.5h-277l29 130h416zM212 1130q-31 0 -57.5 -51.5t-71.5 -168.5l-83 29q3 39 10.5 101.5t16.5 123.5t16 96h427l8 -130h-266zM297 0v83q92 19 123 38.5t31 33.5v982q0 12 -26.5 19
t-98.5 21v83h548v-83q-67 -14 -105 -20t-38 -20v-982q0 -13 31 -33t123 -39v-83h-588zM661 1382h-147l-272 324q12 19 29 43.5t34 31.5l284 -143l281 143q17 -7 39 -31.5t36 -43.5z" />
    <glyph glyph-name="tcaron" unicode="&#x165;" horiz-adv-x="775" 
d="M756 167q-143 -103 -236.5 -150t-146.5 -47q-91 0 -157 71t-66 210v544h-119l-31 38l78 97h72v196l229 164l41 -35v-325h297l39 -39q-19 -35 -50 -74.5t-51 -56.5q-24 12 -71.5 23.5t-91.5 11.5h-72v-448q0 -97 23.5 -137t53.5 -40q35 0 80 15.5t130 62.5zM800 1353
q0 -91 -62 -174t-159 -144l-59 56q42 38 63.5 73t21.5 81t-41.5 77.5t-127.5 32.5l-18 72q30 28 83.5 53t108.5 40t91 12q55 -23 77 -75.5t22 -103.5z" />
    <glyph glyph-name="Tbar" unicode="&#x166;" horiz-adv-x="1208" 
d="M1173 1225q-1 -34 -7.5 -90t-15.5 -114.5t-17 -100.5h-85q-19 93 -29.5 151.5t-53.5 58.5h-277l29 130h416zM212 1130q-31 0 -57.5 -51.5t-71.5 -168.5l-83 29q3 39 10.5 101.5t16.5 123.5t16 96h427l8 -130h-266zM297 0v83q92 19 123 38.5t31 33.5v982q0 12 -26.5 19
t-98.5 21v83h548v-83q-67 -14 -105 -20t-38 -20v-982q0 -13 31 -33t123 -39v-83h-588zM1007 593h-849l-23 22q5 16 18.5 54t21.5 54h849l22 -25z" />
    <glyph glyph-name="tbar" unicode="&#x167;" horiz-adv-x="775" 
d="M756 167q-143 -103 -236.5 -150t-146.5 -47q-91 0 -157 71t-66 210v544h-119l-31 38l78 97h72v186l229 164l41 -35v-315h297l39 -39q-19 -35 -50 -74.5t-51 -56.5q-24 12 -71.5 23.5t-91.5 11.5h-72v-448q0 -97 23.5 -137t53.5 -40q35 0 80 15.5t130 62.5zM600 415h-565
l-22 24q5 15 18 52.5t19 53.5h565l25 -23z" />
    <glyph glyph-name="Utilde" unicode="&#x168;" horiz-adv-x="1379" 
d="M1325 1177q-135 -28 -135 -62v-591q0 -175 -66 -299t-180 -189.5t-258 -65.5q-137 0 -253.5 51t-187 156t-70.5 267v671q0 12 -31.5 30t-103.5 32v83h550v-83q-135 -28 -135 -62v-601q0 -192 64.5 -290.5t235.5 -98.5q95 0 148.5 53.5t75 139.5t21.5 185v612
q0 12 -31.5 30t-103.5 32v83h460v-83zM1107 1657q-18 -40 -44 -91t-60 -98t-76 -77.5t-90 -30.5q-61 0 -115 26t-105.5 51.5t-105.5 25.5q-47 0 -76.5 -28.5t-66.5 -84.5l-83 30q18 41 44 92t60 98.5t75.5 78.5t89.5 31q66 0 121.5 -25.5t105.5 -51.5t97 -26q46 0 78.5 27.5
t66.5 85.5z" />
    <glyph glyph-name="utilde" unicode="&#x169;" horiz-adv-x="1175" 
d="M1169 122q-49 -32 -115.5 -67.5t-121.5 -60t-72 -24.5q-35 0 -68 26.5t-47 129.5q-83 -68 -142.5 -101.5t-105.5 -44t-89 -10.5q-62 0 -121.5 25t-98 92t-38.5 192v402q0 64 -5 91.5t-30 36.5t-84 15v80q110 9 186.5 19.5t164.5 36.5l38 -49v-567q0 -118 27 -151t76 -33
q35 0 88.5 19t133.5 83v419q0 60 -7 89.5t-34 40t-89 13.5v80q110 9 196.5 23.5t163.5 32.5l40 -49v-617q0 -61 5 -80t18 -30q11 -9 30.5 -4t70.5 27zM989 1356q-23 -54 -61.5 -120.5t-92.5 -115.5t-126 -49q-51 0 -94.5 26t-83 51.5t-78.5 25.5q-32 0 -65.5 -34t-68.5 -90
l-93 34q24 55 62 121.5t92 115t126 48.5q56 0 99 -25.5t80.5 -51.5t74.5 -26q31 0 66.5 35.5t69.5 93.5z" />
    <glyph glyph-name="Umacron" unicode="&#x16a;" horiz-adv-x="1379" 
d="M1325 1177q-135 -28 -135 -62v-591q0 -175 -66 -299t-180 -189.5t-258 -65.5q-137 0 -253.5 51t-187 156t-70.5 267v671q0 12 -31.5 30t-103.5 32v83h550v-83q-135 -28 -135 -62v-601q0 -192 64.5 -290.5t235.5 -98.5q95 0 148.5 53.5t75 139.5t21.5 185v612
q0 12 -31.5 30t-103.5 32v83h460v-83zM1122 1575q-4 -14 -17 -43.5t-26 -57.5t-18 -39h-754l-35 34q4 15 16 43t25.5 56t19.5 41h754z" />
    <glyph glyph-name="umacron" unicode="&#x16b;" horiz-adv-x="1175" 
d="M1169 122q-49 -32 -115.5 -67.5t-121.5 -60t-72 -24.5q-35 0 -68 26.5t-47 129.5q-83 -68 -142.5 -101.5t-105.5 -44t-89 -10.5q-62 0 -121.5 25t-98 92t-38.5 192v402q0 64 -5 91.5t-30 36.5t-84 15v80q110 9 186.5 19.5t164.5 36.5l38 -49v-567q0 -118 27 -151t76 -33
q35 0 88.5 19t133.5 83v419q0 60 -7 89.5t-34 40t-89 13.5v80q110 9 196.5 23.5t163.5 32.5l40 -49v-617q0 -61 5 -80t18 -30q11 -9 30.5 -4t70.5 27zM1043 1315q-4 -14 -17 -43.5t-26 -57.5t-18 -39h-814l-35 34q4 15 16 43t25.5 56t19.5 41h814z" />
    <glyph glyph-name="Ubreve" unicode="&#x16c;" horiz-adv-x="1379" 
d="M1325 1177q-135 -28 -135 -62v-591q0 -175 -66 -299t-180 -189.5t-258 -65.5q-137 0 -253.5 51t-187 156t-70.5 267v671q0 12 -31.5 30t-103.5 32v83h550v-83q-135 -28 -135 -62v-601q0 -192 64.5 -290.5t235.5 -98.5q95 0 148.5 53.5t75 139.5t21.5 185v612
q0 12 -31.5 30t-103.5 32v83h460v-83zM1062 1690q-60 -161 -159 -235.5t-204 -74.5q-113 0 -210 74.5t-157 235.5q12 18 39.5 43t43.5 32q50 -84 131.5 -128.5t148.5 -44.5q71 0 152 44t132 129q17 -7 44 -32t39 -43z" />
    <glyph glyph-name="ubreve" unicode="&#x16d;" horiz-adv-x="1175" 
d="M1169 122q-49 -32 -115.5 -67.5t-121.5 -60t-72 -24.5q-35 0 -68 26.5t-47 129.5q-83 -68 -142.5 -101.5t-105.5 -44t-89 -10.5q-62 0 -121.5 25t-98 92t-38.5 192v402q0 64 -5 91.5t-30 36.5t-84 15v80q110 9 186.5 19.5t164.5 36.5l38 -49v-567q0 -118 27 -151t76 -33
q35 0 88.5 19t133.5 83v419q0 60 -7 89.5t-34 40t-89 13.5v80q110 9 196.5 23.5t163.5 32.5l40 -49v-617q0 -61 5 -80t18 -30q11 -9 30.5 -4t70.5 27zM953 1370q-60 -161 -159 -235.5t-204 -74.5q-113 0 -210 74.5t-157 235.5q12 18 39.5 43t43.5 32q50 -84 131.5 -128.5
t148.5 -44.5q71 0 152 44t132 129q17 -7 44 -32t39 -43z" />
    <glyph glyph-name="Uring" unicode="&#x16e;" horiz-adv-x="1379" 
d="M1325 1177q-135 -28 -135 -62v-591q0 -175 -66 -299t-180 -189.5t-258 -65.5q-137 0 -253.5 51t-187 156t-70.5 267v671q0 12 -31.5 30t-103.5 32v83h550v-83q-135 -28 -135 -62v-601q0 -192 64.5 -290.5t235.5 -98.5q95 0 148.5 53.5t75 139.5t21.5 185v612
q0 12 -31.5 30t-103.5 32v83h460v-83zM914 1634q0 -72 -34.5 -132t-90.5 -96t-122 -36q-82 0 -133.5 49.5t-51.5 134.5q0 73 34 133.5t90.5 96.5t122.5 36q87 0 135.5 -51.5t49.5 -134.5zM764 1593q0 48 -19.5 69.5t-36.5 21.5q-41 0 -58.5 -29t-17.5 -60q0 -46 19.5 -67.5
t36.5 -21.5q40 0 58 26.5t18 60.5z" />
    <glyph glyph-name="uring" unicode="&#x16f;" horiz-adv-x="1175" 
d="M1169 122q-49 -32 -115.5 -67.5t-121.5 -60t-72 -24.5q-35 0 -68 26.5t-47 129.5q-83 -68 -142.5 -101.5t-105.5 -44t-89 -10.5q-62 0 -121.5 25t-98 92t-38.5 192v402q0 64 -5 91.5t-30 36.5t-84 15v80q110 9 186.5 19.5t164.5 36.5l38 -49v-567q0 -118 27 -151t76 -33
q35 0 88.5 19t133.5 83v419q0 60 -7 89.5t-34 40t-89 13.5v80q110 9 196.5 23.5t163.5 32.5l40 -49v-617q0 -61 5 -80t18 -30q11 -9 30.5 -4t70.5 27zM805 1314q0 -72 -34.5 -132t-90.5 -96t-122 -36q-82 0 -133.5 49.5t-51.5 134.5q0 73 34 133.5t90.5 96.5t122.5 36
q87 0 135.5 -51.5t49.5 -134.5zM655 1273q0 48 -19.5 69.5t-36.5 21.5q-41 0 -58.5 -29t-17.5 -60q0 -46 19.5 -67.5t36.5 -21.5q40 0 58 26.5t18 60.5z" />
    <glyph glyph-name="Uhungarumlaut" unicode="&#x170;" horiz-adv-x="1379" 
d="M1325 1177q-135 -28 -135 -62v-591q0 -175 -66 -299t-180 -189.5t-258 -65.5q-137 0 -253.5 51t-187 156t-70.5 267v671q0 12 -31.5 30t-103.5 32v83h550v-83q-135 -28 -135 -62v-601q0 -192 64.5 -290.5t235.5 -98.5q95 0 148.5 53.5t75 139.5t21.5 185v612
q0 12 -31.5 30t-103.5 32v83h460v-83zM866 1357q-16 4 -46.5 19.5t-50.5 27.5l146 425q17 -2 57 -6t79.5 -9t52.5 -10l32 -61zM536 1357q-16 4 -46.5 19.5t-50.5 27.5l146 425q17 -2 57 -6t79.5 -9t52.5 -10l32 -61z" />
    <glyph glyph-name="uhungarumlaut" unicode="&#x171;" horiz-adv-x="1175" 
d="M1169 122q-49 -32 -115.5 -67.5t-121.5 -60t-72 -24.5q-35 0 -68 26.5t-47 129.5q-83 -68 -142.5 -101.5t-105.5 -44t-89 -10.5q-62 0 -121.5 25t-98 92t-38.5 192v402q0 64 -5 91.5t-30 36.5t-84 15v80q110 9 186.5 19.5t164.5 36.5l38 -49v-567q0 -118 27 -151t76 -33
q35 0 88.5 19t133.5 83v419q0 60 -7 89.5t-34 40t-89 13.5v80q110 9 196.5 23.5t163.5 32.5l40 -49v-617q0 -61 5 -80t18 -30q11 -9 30.5 -4t70.5 27zM757 1037q-16 4 -46.5 19.5t-50.5 27.5l146 425q17 -2 57 -6t79.5 -9t52.5 -10l32 -61zM427 1037q-16 4 -46.5 19.5
t-50.5 27.5l146 425q17 -2 57 -6t79.5 -9t52.5 -10l32 -61z" />
    <glyph glyph-name="Uogonek" unicode="&#x172;" horiz-adv-x="1379" 
d="M1325 1177q-135 -28 -135 -62v-591q0 -175 -66 -299t-180 -189.5t-258 -65.5q-137 0 -253.5 51t-187 156t-70.5 267v671q0 12 -31.5 30t-103.5 32v83h550v-83q-135 -28 -135 -62v-601q0 -192 64.5 -290.5t235.5 -98.5q95 0 148.5 53.5t75 139.5t21.5 185v612
q0 12 -31.5 30t-103.5 32v83h460v-83zM976 -299q-51 -52 -139.5 -98.5t-183.5 -46.5q-36 0 -79.5 13t-75 45t-31.5 87q0 89 81 177.5t247 164.5l95 -19q-90 -85 -122 -138t-32 -100q0 -37 22.5 -54.5t53.5 -17.5q25 0 56.5 13t73.5 51z" />
    <glyph glyph-name="uogonek" unicode="&#x173;" horiz-adv-x="1175" 
d="M1169 122q-49 -32 -115.5 -67.5t-121.5 -60t-72 -24.5q-35 0 -68 26.5t-47 129.5q-83 -68 -142.5 -101.5t-105.5 -44t-89 -10.5q-62 0 -121.5 25t-98 92t-38.5 192v402q0 64 -5 91.5t-30 36.5t-84 15v80q110 9 186.5 19.5t164.5 36.5l38 -49v-567q0 -118 27 -151t76 -33
q35 0 88.5 19t133.5 83v419q0 60 -7 89.5t-34 40t-89 13.5v80q110 9 196.5 23.5t163.5 32.5l40 -49v-617q0 -61 5 -80t18 -30q11 -9 30.5 -4t70.5 27zM1056 -299q-51 -52 -139.5 -98.5t-183.5 -46.5q-36 0 -79.5 13t-75 45t-31.5 87q0 89 81 177.5t247 164.5l95 -19
q-90 -85 -122 -138t-32 -100q0 -37 22.5 -54.5t53.5 -17.5q25 0 56.5 13t73.5 51z" />
    <glyph glyph-name="Wcircumflex" unicode="&#x174;" horiz-adv-x="1741" 
d="M1742 1177q-88 -18 -118.5 -32t-33.5 -30l-229 -1056q-6 -28 -34 -46.5t-61 -28t-54 -14.5l-346 884l-287 -795q-14 -43 -67 -61.5t-94 -27.5l-260 1137q-5 25 -36 41t-102 29v83h509v-83q-65 -6 -92.5 -17t-32 -24.5t-1.5 -28.5l162 -677l281 830h115l329 -830l152 685
q5 23 -40.5 37t-113.5 25v83h454v-83zM1227 1432q-12 -19 -30.5 -43t-35.5 -32l-281 158l-281 -158q-16 8 -38.5 32t-36.5 43l284 339h147z" />
    <glyph glyph-name="wcircumflex" unicode="&#x175;" horiz-adv-x="1476" 
d="M1465 847q-54 -14 -73 -26.5t-27 -35.5l-221 -726q-8 -29 -37 -47.5t-61 -28t-49 -13.5l-294 626l58 334h30.5h42.5l249 -563l134 418q8 23 0 37t-77 25v83h325v-83zM534 59q-10 -31 -37.5 -49t-57.5 -27t-48 -13l-272 815q-13 40 -109 62v83h476v-83q-82 -10 -97 -26.5
t-8 -35.5l137 -418l237 563h44.5h30.5l1 -185zM1111 1112q-12 -19 -29 -43t-34 -32l-284 208l-281 -208q-16 8 -38.5 32t-36.5 43l284 389h147z" />
    <glyph glyph-name="Ycircumflex" unicode="&#x176;" horiz-adv-x="1267" 
d="M1236 1177q-68 -13 -100 -26.5t-46 -39.5l-335 -632h-240q-47 111 -111.5 232t-130 227.5t-115.5 172.5q-17 23 -44 34t-110 11l-4 83q39 6 94 13t106.5 12.5t78.5 5.5q29 0 60 -13t48 -36q49 -66 103.5 -156t108.5 -190.5t100 -196.5l222 433q15 26 -9.5 41t-101.5 25
v83h426v-83zM340 0v83q91 19 122.5 38.5t31.5 33.5v482h280v-482q0 -13 31 -33t125 -39v-83h-590zM980 1432q-12 -19 -30.5 -43t-35.5 -32l-281 158l-281 -158q-16 8 -38.5 32t-36.5 43l284 339h147z" />
    <glyph glyph-name="ycircumflex" unicode="&#x177;" horiz-adv-x="1050" 
d="M1039 847q-60 -14 -79.5 -26.5t-30.5 -41.5l-334 -851q-86 -220 -198.5 -319t-249.5 -99q-51 0 -100 13t-81.5 30.5t-32.5 29.5q0 10 18 37.5t44.5 60t52.5 60t42 37.5q50 -34 101.5 -42.5t88.5 4.5q38 13 76 47.5t74 120.5l29 69l-338 802q-20 47 -111 68v83h476v-83
q-70 -9 -83 -22.5t0 -45.5l193 -457l184 457q12 30 3 44t-68 24v83h324v-83zM894 1112q-12 -19 -29 -43t-34 -32l-284 208l-281 -208q-16 8 -38.5 32t-36.5 43l284 389h147z" />
    <glyph glyph-name="Ydieresis" unicode="&#x178;" horiz-adv-x="1267" 
d="M1236 1177q-68 -13 -100 -26.5t-46 -39.5l-335 -632h-240q-47 111 -111.5 232t-130 227.5t-115.5 172.5q-17 23 -44 34t-110 11l-4 83q39 6 94 13t106.5 12.5t78.5 5.5q29 0 60 -13t48 -36q49 -66 103.5 -156t108.5 -190.5t100 -196.5l222 433q15 26 -9.5 41t-101.5 25
v83h426v-83zM340 0v83q91 19 122.5 38.5t31.5 33.5v482h280v-482q0 -13 31 -33t125 -39v-83h-590zM568 1550q0 -79 -50.5 -134.5t-119.5 -55.5q-130 0 -130 130q0 80 52 135t118 55q60 0 95 -32.5t35 -97.5zM998 1550q0 -79 -50.5 -134.5t-119.5 -55.5q-130 0 -130 130
q0 80 52 135t118 55q60 0 95 -32.5t35 -97.5z" />
    <glyph glyph-name="Zacute" unicode="&#x179;" horiz-adv-x="1131" 
d="M1061 373q-2 -43 -4.5 -116.5t-4.5 -145.5t-3 -111h-961l-39 55l661 1065h-369q-32 0 -76.5 -71.5t-66.5 -175.5l-97 22l39 381q55 -12 93.5 -14t96.5 -2h686l35 -53l-655 -1067h433q43 0 71 67t66 190zM434 1355q-16 8 -41 37t-33 41l363 348q11 -4 43 -20.5t70 -36.5
t69.5 -37.5t40.5 -24.5l11 -67z" />
    <glyph glyph-name="zacute" unicode="&#x17a;" horiz-adv-x="976" 
d="M899 358q0 -31 -0.5 -83.5t-2 -109t-4 -102t-5.5 -63.5h-805l-26 45l520 755h-231q-101 0 -157 -230l-79 22l28 354q44 -12 78 -14t98 -2h582l22 -43l-522 -757h317q40 0 60 67.5t50 180.5zM451 1037q-18 3 -52 21t-45 27l204 434q12 -1 48 -6.5t80 -12.5t80 -14t47 -10
l33 -59z" />
    <glyph glyph-name="Zdotaccent" unicode="&#x17b;" horiz-adv-x="1131" 
d="M1061 373q-2 -43 -4.5 -116.5t-4.5 -145.5t-3 -111h-961l-39 55l661 1065h-369q-32 0 -76.5 -71.5t-66.5 -175.5l-97 22l39 381q55 -12 93.5 -14t96.5 -2h686l35 -53l-655 -1067h433q43 0 71 67t66 190zM741 1550q0 -79 -50.5 -134.5t-119.5 -55.5q-130 0 -130 130
q0 80 52 135t118 55q60 0 95 -32.5t35 -97.5z" />
    <glyph glyph-name="zdotaccent" unicode="&#x17c;" horiz-adv-x="976" 
d="M899 358q0 -31 -0.5 -83.5t-2 -109t-4 -102t-5.5 -63.5h-805l-26 45l520 755h-231q-101 0 -157 -230l-79 22l28 354q44 -12 78 -14t98 -2h582l22 -43l-522 -757h317q40 0 60 67.5t50 180.5zM667 1270q0 -79 -50.5 -134.5t-119.5 -55.5q-130 0 -130 130q0 80 52 135
t118 55q60 0 95 -32.5t35 -97.5z" />
    <glyph glyph-name="Zcaron" unicode="&#x17d;" horiz-adv-x="1131" 
d="M1061 373q-2 -43 -4.5 -116.5t-4.5 -145.5t-3 -111h-961l-39 55l661 1065h-369q-32 0 -76.5 -71.5t-66.5 -175.5l-97 22l39 381q55 -12 93.5 -14t96.5 -2h686l35 -53l-655 -1067h433q43 0 71 67t66 190zM662 1382h-147l-272 324q12 19 29 43.5t34 31.5l284 -143l281 143
q17 -7 39 -31.5t36 -43.5z" />
    <glyph glyph-name="zcaron" unicode="&#x17e;" horiz-adv-x="976" 
d="M899 358q0 -31 -0.5 -83.5t-2 -109t-4 -102t-5.5 -63.5h-805l-26 45l520 755h-231q-101 0 -157 -230l-79 22l28 354q44 -12 78 -14t98 -2h582l22 -43l-522 -757h317q40 0 60 67.5t50 180.5zM591 1049h-147l-284 389q14 19 36.5 43.5t38.5 31.5l281 -208l284 208
q17 -7 34 -31.5t29 -43.5z" />
    <glyph glyph-name="longs" unicode="&#x17f;" horiz-adv-x="715" 
d="M915 1454q0 -19 -21.5 -48.5t-52.5 -59.5t-59.5 -53t-43.5 -30q-47 65 -91.5 93.5t-78.5 28.5t-61 -29.5t-42 -109.5t-15 -230v-874q0 -12 41 -24.5t158 -34.5v-83h-599v83q68 12 99 29.5t31 29.5v819q0 278 159 437q80 80 165 116t153 36q66 0 125 -19t96 -42t37 -35z
" />
    <glyph glyph-name="uni0180" unicode="&#x180;" horiz-adv-x="1146" 
d="M1076 512q0 -87 -49 -181.5t-129.5 -176.5t-175.5 -133t-187 -51q-40 0 -104 17t-138.5 45.5t-146.5 63.5v1160q0 62 -7.5 87.5t-32.5 33t-80 13.5v80q104 16 184 32.5t159 47.5q8 -7 27.5 -25.5l19.5 -18.5v-679q100 75 190 104t147 29q152 0 237.5 -122t85.5 -326z
M826 418q0 200 -62 278.5t-151 78.5q-35 0 -81.5 -16.5t-115.5 -58.5v-477q80 -37 134.5 -55t82.5 -18q99 0 146 76.5t47 191.5zM696 1123h-688l-23 22q5 16 18.5 54t21.5 54h688l22 -25z" />
    <glyph glyph-name="uni0181" unicode="&#x181;" horiz-adv-x="1566" 
d="M929 -14q-35 0 -98.5 1.5t-137 3.5t-139.5 4t-108.5 3.5l-42.5 1.5l342 138q31 -16 64 -27t78 -11q144 0 214.5 65t70.5 177q0 74 -24.5 139.5t-88 106.5t-179.5 41q-66 0 -118.5 -12t-100.5 -20l10 148h98q132 0 196 32.5t84 84.5t20 109q0 97 -65 155q-18 17 -47.5 28
t-86 16.5t-157.5 5.5q-178 0 -293.5 -40t-115.5 -130q0 -44 24 -83t55 -53q-3 -6 -36.5 -22.5t-79.5 -36t-88.5 -35.5t-63.5 -20q-37 16 -66 77t-29 130q0 102 77.5 175t244.5 112.5t437 39.5q171 0 284 -20t184 -67q45 -30 76.5 -78t31.5 -105q0 -107 -57.5 -181.5
t-182.5 -115.5q161 -31 256 -129.5t95 -237.5q0 -170 -140 -270t-397 -100zM340 83q68 14 101.5 31t33.5 30v1066l280 21v-1087q0 -12 36 -39.5t109 -41.5v-63h-560v83z" />
    <glyph glyph-name="uni0182" unicode="&#x182;" horiz-adv-x="1266" 
d="M1166 356q0 -114 -64 -197t-178.5 -128t-264.5 -45q-35 0 -99.5 1.5t-139.5 3.5t-142.5 4t-111 3.5l-43.5 1.5l322 138q31 -16 69 -27t83 -11q71 0 134 23t102 76t39 143q0 74 -24 140.5t-85 109t-173 42.5q-66 0 -118.5 -7.5t-100.5 -15.5l-80 94q57 20 149.5 27.5
t168.5 7.5q211 0 332.5 -55.5t173 -143t51.5 -185.5zM1003 1223q-2 -34 -14 -98.5t-27 -130.5t-25 -104h-88q-6 128 -18.5 184t-50.5 56h-377l29 130h525zM29 0v83q68 14 107 31t39 30v971q0 12 -37 30t-109 32v83h403h168v-83q-67 -14 -106 -20t-39 -20v-993q0 -13 38 -27
t158 -34v-83h-622z" />
    <glyph glyph-name="uni0183" unicode="&#x183;" horiz-adv-x="1120" 
d="M961 1481q-2 -34 -13.5 -98t-26 -129.5t-24.5 -103.5h-88q-6 128 -18.5 184t-50.5 56h-360q7 -55 8.5 -115t1.5 -122v-326q100 75 190 104t147 29q137 0 230 -114.5t93 -333.5q0 -79 -46.5 -172.5t-124.5 -178t-174.5 -138t-195.5 -53.5q-25 0 -90.5 15t-146 43
t-152.5 68v1051q0 116 -15.5 201.5t-24.5 101.5q49 16 95 34t85 36h662zM800 418q0 200 -58 278.5t-155 78.5q-35 0 -81.5 -16.5t-115.5 -58.5v-477q72 -33 127 -53t90 -20q99 0 146 76.5t47 191.5z" />
    <glyph glyph-name="uni0184" unicode="&#x184;" horiz-adv-x="1285" 
d="M658 -14q-68 0 -159 2.5t-180.5 5.5t-156.5 6l322 131q58 -31 172 -31q91 0 151.5 34.5t91 86t30.5 101.5q0 69 -28.5 132.5t-92 104.5t-169.5 41q-111 0 -169.5 -9.5t-99.5 -23.5l-10 128q35 10 90.5 20.5t116.5 17.5t111 7q176 0 293 -51t175.5 -138t58.5 -195
q0 -129 -76.5 -210.5t-201 -120.5t-269.5 -39zM89 0v83q68 14 106.5 31t38.5 30v341h270v-351q0 -12 36.5 -29.5t108.5 -31.5v-73h-560zM234 354v567l-65 -100q-24 -24 -71.5 -50.5t-73.5 -34.5q-10 7 -22.5 19t-19.5 21l288 444q30 22 90.5 44t99.5 26q23 -19 44 -44v-892
h-270z" />
    <glyph glyph-name="uni0185" unicode="&#x185;" horiz-adv-x="1176" 
d="M643 775q-35 0 -81.5 -16.5t-115.5 -58.5v-477q80 -37 134.5 -55t82.5 -18q99 0 146 76.5t47 191.5q0 200 -62 278.5t-151 78.5zM176 1154l-53 -81q-13 -20 -54.5 -40t-67.5 -25q-29 19 -49 45l252 387q13 13 51.5 36t80.5 45t63 29q6 -5 21 -18.5t26 -25.5v-679
q100 75 190 104t147 29q152 0 237.5 -122t85.5 -326q0 -87 -49 -181.5t-129.5 -176.5t-175.5 -133t-187 -51q-40 0 -104 17t-138.5 45.5t-146.5 63.5v1058z" />
    <glyph glyph-name="uni0186" unicode="&#x186;" horiz-adv-x="1149" 
d="M471 -30q-154 0 -249 49.5t-138 124t-43 150.5q0 42 13 96t47 92q30 16 81.5 37t101.5 40t73 27l39 -89q-57 -34 -74 -78t-17 -100q0 -76 62.5 -135t158.5 -59q73 0 136 43.5t102 155.5t39 317q0 177 -55 282t-141.5 151t-182.5 46q-53 0 -135.5 -23.5t-202.5 -100.5
q-7 3 -19 20t-23 34t-14 21q135 127 274 173t240 46q144 0 268 -72.5t200 -209t76 -330.5q0 -210 -79 -369.5t-218.5 -249t-319.5 -89.5z" />
    <glyph glyph-name="uni0187" unicode="&#x187;" horiz-adv-x="1151" 
d="M1088 211q-127 -129 -252.5 -185t-244.5 -56q-138 0 -262 73.5t-201.5 211.5t-77.5 331q0 213 85 371t231.5 245.5t329.5 87.5q72 0 145 -13.5t134 -36.5t96 -52q0 -15 -12.5 -48.5t-31.5 -73t-37.5 -72.5t-30.5 -47l-75 16q-49 101 -114 144t-138 43q-51 0 -103.5 -24.5
t-96.5 -83.5t-70.5 -161t-26.5 -258q0 -167 54 -271.5t136.5 -153t167.5 -48.5q54 0 144.5 25.5t193.5 110.5q14 -12 30.5 -37t26.5 -38zM1494 1447q0 -16 -34.5 -52.5t-84 -77t-96.5 -68.5q-12 80 -30.5 117t-39 48t-39.5 11q-57 0 -78 -63.5t-21 -173.5q-58 5 -115.5 11
t-115.5 11q10 76 45.5 138.5t88.5 114.5q53 51 115.5 89t138.5 38q69 0 130 -27t98.5 -61t37.5 -55z" />
    <glyph glyph-name="uni0188" unicode="&#x188;" horiz-adv-x="954" 
d="M1330 1407q0 -16 -33 -51t-81.5 -74.5t-95.5 -67.5q-12 77 -32 113.5t-41.5 47t-40.5 10.5q-63 0 -77 -73.5t-14 -195.5v-235q0 -21 -11.5 -63.5t-28 -90.5t-32.5 -87t-25 -53l-77 10q-38 119 -83 176t-118 57q-55 0 -103 -34.5t-77.5 -112t-29.5 -208.5q0 -155 71 -240
t176 -85q38 0 74.5 7.5t83.5 31.5t116 72l59 -71q-87 -97 -160 -144t-137.5 -61.5t-127.5 -14.5q-112 0 -209 56.5t-156.5 163t-59.5 254.5q0 144 69.5 261t193.5 186t287 69q32 0 55 -7v88q0 125 35.5 217t109.5 165q53 51 115.5 89t138.5 38q69 0 130 -27t98.5 -61
t37.5 -55z" />
    <glyph glyph-name="uni0189" unicode="&#x189;" horiz-adv-x="1334" 
d="M675 615h-625l-22 24q5 15 18 52.5t19 53.5h625l25 -23zM40 0v83q68 14 101.5 31t33.5 30v1003q-39 -5 -73.5 -10t-61.5 -9l-14 102q69 17 169 30.5t207 21.5t196 8q316 0 485.5 -162t169.5 -452q0 -187 -55 -316.5t-145 -209t-198.5 -115t-215.5 -35.5h-89h-224h-244
h-42zM597 114q54 0 115.5 29t116.5 91.5t89.5 162t34.5 240.5q0 266 -109.5 402.5t-320.5 136.5q-16 0 -33 -0.5t-35 -1.5v-1000q0 -38 42 -49t100 -11z" />
    <glyph glyph-name="uni018A" unicode="&#x18a;" horiz-adv-x="1634" 
d="M20 963q0 102 76 175t249 112.5t463 39.5q174 0 288 -20.5t190 -67.5q149 -91 208 -228t59 -298q0 -187 -55.5 -316.5t-145 -209t-193 -115t-200.5 -35.5h-587l383 190q0 -34 37 -55t105 -21q50 0 111 29t117 91.5t92 162t36 240.5q0 136 -25.5 229.5t-94.5 184.5
q-49 65 -146 95t-264 30q-211 0 -325 -44t-114 -126q0 -36 22 -72.5t77 -63.5q-14 -19 -57.5 -45.5t-95.5 -46.5t-95 -22q-53 31 -84 88t-31 119zM340 0v83q68 14 101.5 31t33.5 30v1095h280v-1045q0 -39 36 -59t109 -34v-101h-560z" />
    <glyph glyph-name="uni018B" unicode="&#x18b;" horiz-adv-x="1236" 
d="M100 346q0 103 57 192.5t175.5 145.5t304.5 56q76 0 146 -10t122 -25l-10 -108q-48 8 -100.5 15.5t-118.5 7.5q-116 0 -184.5 -39.5t-98 -97t-29.5 -111.5q0 -105 68 -183.5t197 -78.5q45 0 88 6t74 22l372 -138l-46.5 -1.5t-118.5 -3.5t-151.5 -4t-147 -3.5t-102.5 -1.5
q-232 0 -364.5 87.5t-132.5 272.5zM615 0l-30 83q120 20 158 34t38 27v993q0 14 -38.5 40t-106.5 40v43h168h403v-83q-72 -14 -109 -32t-37 -30v-971q0 -13 39.5 -30t106.5 -31v-83h-592zM434 1130q-31 0 -57.5 -64t-71.5 -181l-83 19q0 29 3 78t8 103t11 101.5t11 73.5h677
l28 -130h-526z" />
    <glyph glyph-name="uni018C" unicode="&#x18c;" horiz-adv-x="1175" 
d="M1151 124q-61 -41 -129 -76t-121 -56.5t-72 -21.5q-40 0 -72 67.5t-32 234.5v823q0 74 0.5 148t4.5 147h-358q-31 0 -57.5 -64t-71.5 -181l-83 17q0 29 2 78t6 104t9.5 102.5t10.5 73.5h500q38 0 98 3.5t116.5 8t81.5 8.5l35 -41q-16 -84 -20 -167.5t-4 -169.5v-828
q0 -70 3.5 -104.5t19.5 -43.5q8 -4 27 -4t73 25zM799 200q-58 -56 -113.5 -109t-120 -87t-149.5 -34q-89 0 -175.5 56.5t-143.5 163t-57 254.5q0 90 31.5 181t94 167t154 122t211.5 46q83 0 142.5 -21.5t137.5 -99.5q0 -60 -23.5 -96t-55.5 -56q-23 48 -79.5 90.5
t-132.5 42.5q-97 0 -153.5 -78.5t-56.5 -266.5q0 -88 31.5 -154.5t81 -103.5t104.5 -37q79 0 132 40t93 77q9 -4 18.5 -26t17.5 -44t11 -27z" />
    <glyph glyph-name="uni018D" unicode="&#x18d;" horiz-adv-x="1165" 
d="M155 -439q34 48 74 99t73 86t46 35q14 0 52 -24.5t89.5 -56t108.5 -56t109 -24.5q29 0 54.5 15t25.5 63q0 55 -51 98.5t-131.5 85.5t-171 92t-171 117t-131.5 160t-51 223q0 92 39 179t108.5 156.5t162 110t200.5 40.5q171 0 275.5 -66t152 -171.5t47.5 -224.5
q0 -135 -66.5 -242.5t-171 -184t-219.5 -121.5q-5 9 -23.5 21.5t-34.5 26t-16 22.5q0 8 2 16q137 56 195.5 153t58.5 254q0 115 -37 196t-95 124t-122 43q-34 0 -76 -36t-73.5 -95.5t-31.5 -131.5q0 -121 48 -202.5t123.5 -138t160 -101t160 -91.5t123.5 -109t48 -155
q0 -61 -39 -117.5t-108.5 -92.5t-159.5 -36t-157 11t-123 21.5t-114 10.5q-26 0 -60.5 -11.5t-55.5 -26.5q-7 5 -21.5 23.5t-24.5 32.5z" />
    <glyph glyph-name="uni018E" unicode="&#x18e;" horiz-adv-x="1113" 
d="M55 35q2 26 9 73.5t17 100.5t19.5 97.5t15.5 63.5h85q3 -61 8 -116t17.5 -89.5t36.5 -34.5h175q86 0 129 7t57.5 23.5t14.5 42.5v412h-200q-31 0 -75.5 -2.5t-86 -7t-63.5 -10.5l-26 28q11 19 34.5 53t48.5 66t39 42q31 -29 72.5 -37t125.5 -8h131v391h-213
q-61 0 -96.5 -13t-59.5 -52t-53 -117l-83 28q8 86 18.5 170.5t18.5 113.5h883v-83q-67 -13 -101 -30t-34 -31v-971q0 -12 31.5 -30t103.5 -32v-83h-956z" />
    <glyph glyph-name="uni018F" unicode="&#x18f;" horiz-adv-x="1182" 
d="M1132 678q0 -210 -78 -369.5t-219 -249t-330 -89.5q-155 0 -251 59t-140 148t-44 177q0 35 6.5 76t28.5 72q31 19 72.5 39.5t75.5 34.5t43 14h614v-130h-510q-28 0 -49 -32.5t-21 -88.5q0 -52 30 -101.5t81.5 -81t118.5 -31.5q77 0 142 48.5t105 161.5t40 306
q0 125 -34 218t-87.5 154t-114 91.5t-113.5 30.5q-50 0 -99.5 -8.5t-109 -36t-139.5 -84.5q-6 4 -19 20.5t-24 33t-13 21.5q90 90 177 134.5t163 59.5t134 15q109 0 210 -41t181 -120t126.5 -192.5t46.5 -258.5z" />
    <glyph glyph-name="uni0190" unicode="&#x190;" horiz-adv-x="1088" 
d="M1028 211q-119 -124 -244 -182.5t-277 -58.5q-163 0 -261.5 53t-142 128.5t-43.5 141.5q0 116 67 208.5t160 133.5q-194 69 -194 270q0 86 53.5 164.5t142.5 132.5q65 40 154.5 64t184.5 24q107 0 214.5 -25.5t171.5 -78.5q-9 -28 -30 -75t-43.5 -93t-36.5 -73l-83 18
q-32 73 -94.5 130t-151.5 57t-155.5 -53.5t-66.5 -148.5q0 -54 38 -104.5t121 -84t219 -39.5v-110q-136 -7 -222.5 -45t-127.5 -94t-41 -117q0 -79 66.5 -139t196.5 -60q84 0 174.5 27t192.5 106z" />
    <glyph glyph-name="uni0191" unicode="&#x191;" horiz-adv-x="1059" 
d="M455 225q0 -147 -41 -240.5t-99 -152t-109 -100.5q-54 -43 -131.5 -77.5t-154.5 -34.5q-65 0 -126 18t-100 42t-39 40q0 12 23 39t56 57.5t63 54.5t44 29q41 -37 93 -67t105 -30q39 0 70 25.5t48.5 100.5t17.5 224v962q0 12 -31.5 30t-103.5 32v83h916l41 -35
q-1 -34 -7.5 -94.5t-15 -117.5t-16.5 -83h-87q-3 92 -23.5 146t-58.5 54h-334v-395h364l39 -38q-11 -28 -42 -71.5t-52 -59.5q-29 29 -71.5 42t-125.5 13h-112v-396z" />
    <glyph glyph-name="florin" unicode="&#x192;" horiz-adv-x="660" 
d="M891 1454q0 -19 -21.5 -48.5t-51.5 -59.5t-58.5 -53t-43.5 -30q-49 65 -93.5 94.5t-76.5 29.5q-67 0 -94.5 -88t-27.5 -313v-56h250l38 -39q-12 -18 -30.5 -46.5t-37 -53t-32.5 -30.5q-23 12 -66.5 23.5t-121.5 11.5v-698q0 -141 -36 -231.5t-90.5 -147.5t-108.5 -99
q-55 -43 -128.5 -76.5t-141.5 -33.5q-60 0 -118.5 18.5t-97.5 42.5t-39 38q0 12 20.5 37.5t51 54.5t62 54t53.5 35q42 -49 96 -72t92 -23q37 0 62.5 25t39 100t13.5 225v751h-113l-31 38l78 96h66v31q0 161 44.5 263t116.5 174q74 74 161.5 113t155.5 39q66 0 125 -19
t96.5 -42t37.5 -35z" />
    <glyph glyph-name="uni0193" unicode="&#x193;" horiz-adv-x="1244" 
d="M1205 547q-57 -13 -76 -36t-19 -46v-291l-27.5 -9.5t-67.5 -22.5t-80 -25t-67.5 -18t-27.5 -1v367q0 15 -6 28.5t-36.5 27t-103.5 26.5v83h511v-83zM1114 1188q1 -23 -18 -68.5t-46.5 -92.5t-53.5 -76l-73 16q-66 108 -134 150.5t-151 42.5q-37 0 -88.5 -23.5t-100.5 -82
t-81.5 -160t-32.5 -257.5q0 -175 49.5 -285t130 -161t171.5 -51q101 0 159.5 33t110.5 82q9 -4 45 -22t70.5 -36t38.5 -23q-148 -121 -264.5 -162.5t-207.5 -41.5q-111 0 -216 37.5t-189 114t-133.5 191.5t-49.5 269q0 222 92 380.5t252 243t363 84.5q44 0 111.5 -12
t135 -34.5t110.5 -55.5zM1537 1447q0 -16 -34.5 -52.5t-84 -77t-96.5 -68.5q-12 80 -30.5 117t-39 48t-39.5 11q-57 0 -78 -63.5t-21 -173.5q-58 5 -115.5 11t-115.5 11q10 76 45.5 138.5t88.5 114.5q53 51 115.5 89t138.5 38q69 0 130 -27t98.5 -61t37.5 -55z" />
    <glyph glyph-name="uni0194" unicode="&#x194;" horiz-adv-x="1243" 
d="M1222 1177q-43 -7 -65.5 -15.5t-38.5 -28t-41 -60.5l-400 -635q-63 -90 -90.5 -150t-27.5 -86q0 -54 25.5 -78t59.5 -24q37 0 57.5 26t20.5 72q0 22 -5.5 41t-22.5 51t-51 91l-476 694q-31 54 -58 74.5t-88 27.5v83h516v-83q-77 -10 -87 -29t22 -73l401 -578
q58 -83 87.5 -139.5t29.5 -122.5q0 -126 -91 -195.5t-248 -69.5q-118 0 -191.5 54.5t-73.5 151.5q0 50 20 97.5t66 125.5l426 674q36 60 22.5 76.5t-87.5 27.5v83h389v-83z" />
    <glyph glyph-name="uni0195" unicode="&#x195;" horiz-adv-x="1781" 
d="M790 454v99q0 107 -21 157t-87 50q-54 0 -106 -24.5t-131 -66.5v-525q0 -34 130 -61v-83h-530v83q130 34 130 61v1114q0 56 -5.5 81t-32.5 34.5t-92 16.5v80q61 6 128.5 19.5t127 30t97.5 30.5l47 -44v-692q101 68 199.5 107t194.5 39q119 0 170 -78t51 -191v-237h-270z
M1726 544q0 -105 -36.5 -207t-107.5 -185t-174 -132.5t-235 -49.5q-184 0 -283.5 86t-99.5 273v192q0 48 26 60.5t67.5 12.5t88.5 6.5t88 40.5v-229q0 -153 55.5 -217.5t138.5 -64.5q72 0 121 44.5t74 117.5t25 159q0 155 -64 250t-177 99l-22 77q22 10 73 27t108 33t94 23
q55 -19 110 -66t92.5 -132t37.5 -218z" />
    <glyph glyph-name="uni0196" unicode="&#x196;" horiz-adv-x="713" 
d="M760 195q-146 -119 -232 -172t-155 -53q-97 0 -140 64t-43 199v737q0 77 -21.5 110t-64 43.5t-104.5 16.5v80q57 8 129 18t139 23t109 29h83v-902q0 -90 4.5 -134.5t18.5 -58.5t41 -14q33 0 79.5 27t110.5 73z" />
    <glyph glyph-name="uni0197" unicode="&#x197;" horiz-adv-x="690" 
d="M605 595h-130v-451q0 -12 31.5 -29.5t103.5 -31.5v-83h-550v83q68 14 101.5 31t33.5 30v451h-145l-22 24q5 15 18 52.5t19 53.5h130v390q0 12 -31.5 30t-103.5 32v83h550v-83q-135 -28 -135 -62v-390h145l25 -23z" />
    <glyph glyph-name="uni0198" unicode="&#x198;" horiz-adv-x="1333" 
d="M1072 786l-38 59q18 29 36 75.5t18 76.5q0 51 -15 66.5t-38 15.5q-24 0 -42 -13.5t-33 -31.5l-305 -358l480 -499q33 -37 66.5 -40t85.5 3l7 -83q-39 -12 -91.5 -29t-102.5 -29.5t-82 -12.5q-29 0 -51.5 9t-42.5 34l-487 614l350 460q64 83 140.5 125t172.5 42
q95 0 159 -62.5t64 -181.5q0 -26 -8 -68t-14 -65q-3 -8 -29.5 -23t-64 -32t-74.5 -31.5t-61 -20.5zM40 0v83q68 14 101.5 31t33.5 30v971q0 12 -31.5 30t-103.5 32v83h550v-83q-135 -28 -135 -62v-971q0 -12 31 -29.5t104 -31.5v-83h-550z" />
    <glyph glyph-name="uni0199" unicode="&#x199;" horiz-adv-x="1164" 
d="M1174 38q-39 -9 -91 -20.5t-95.5 -19.5t-57.5 -8q-42 0 -77.5 12t-57.5 41l-350 465v-364q0 -15 18 -26.5t92 -34.5v-83h-510v83q66 17 98 30t32 31v752q2 160 32 260.5t85.5 167.5t133.5 125q60 45 146.5 73t164.5 28q56 0 113.5 -17t105.5 -42t77.5 -48.5t29.5 -36.5
q0 -15 -22 -44.5t-53.5 -62t-61 -57.5t-44.5 -31q-25 40 -67.5 80t-89.5 67t-88 27q-51 0 -94 -31t-69.5 -121.5t-28.5 -268.5v-431l248 226q60 54 50 71t-63 17v83h459v-83q-44 -4 -91 -21t-89 -51l-291 -215l356 -399q28 -32 57 -38t87 -2z" />
    <glyph glyph-name="uni019A" unicode="&#x19a;" horiz-adv-x="730" 
d="M90 0v83q86 15 113 30t27 31v1112q0 61 -9 86.5t-37 33.5t-84 14v80q110 14 190 31t164 49l46 -44v-1362q0 -15 29 -31t111 -30v-83h-550zM641 715h-578l-23 22q5 16 23.5 54t26.5 54h578l22 -25z" />
    <glyph glyph-name="uni019B" unicode="&#x19b;" horiz-adv-x="1221" 
d="M1253 152q-90 -67 -180 -124.5t-176 -57.5q-40 0 -70 30.5t-62 113t-75 234.5t-108 395q-55 203 -99 314.5t-77.5 159.5t-58 58t-40.5 10q-20 0 -59.5 -14.5t-101.5 -56.5l-41 80q52 53 117.5 102.5t131 81.5t117.5 32q40 0 70 -12.5t57.5 -52t58 -120t70.5 -216
t95 -341.5q80 -296 140.5 -442t115.5 -146q32 0 64 13.5t81 43.5zM618 872q-51 -140 -94 -270t-86.5 -271t-98.5 -314q-26 -3 -71.5 -11.5t-90 -18.5t-68.5 -17l-49 42q80 102 153.5 239.5t136 286.5t110.5 288t77 244q11 -9 24 -38t25.5 -63t21 -61.5t10.5 -35.5zM947 1423
q-12 -68 -31 -129l-686 -450l-34 25q5 26 8.5 56.5t19.5 73.5l688 448z" />
    <glyph glyph-name="uni019C" unicode="&#x19c;" horiz-adv-x="2130" 
d="M610 1260v-83q-76 -16 -105.5 -32t-29.5 -30v-666q0 -105 15.5 -161t45.5 -77t73 -21q125 0 316 309v616q0 14 -34 31.5t-101 30.5v83h550v-83q-72 -15 -103.5 -31.5t-31.5 -30.5v-666q0 -110 17 -165.5t47 -74.5t70 -19q119 0 316 309v616q0 14 -33 31t-102 31v83h550
v-83q-72 -15 -103.5 -31.5t-31.5 -30.5v-851q0 -55 6 -82t33.5 -37t90.5 -15v-80q-101 -14 -195.5 -31t-167.5 -49l-47 44v241q-120 -163 -231 -224t-200 -61q-113 0 -175 48t-88 116.5t-30 128.5q-97 -138 -210 -215.5t-227 -77.5q-85 0 -152.5 35.5t-107 119.5t-39.5 229
v761q0 14 -31 30.5t-104 31.5v83h550z" />
    <glyph glyph-name="uni019D" unicode="&#x19d;" horiz-adv-x="1369" 
d="M1330 1177q-72 -10 -103.5 -29t-31.5 -33v-1083l-160 39v1044q0 12 -27.5 31.5t-107.5 30.5v83h430v-83zM1195 -30q-110 8 -178.5 43t-100.5 78l-678 939q-41 58 -93 98.5t-105 48.5v83h302q29 0 44 -13t52 -65l619 -859q11 -15 33 -43t46.5 -58t41.5 -51l17 -21v-180z
M335 1059v-952q0 -100 -15 -197.5t-84 -177.5q-30 -35 -77 -72.5t-105.5 -63.5t-125.5 -26q-66 0 -130 16t-106 39t-42 44q0 9 23 36t56 59.5t63 58.5t45 32q41 -55 96 -78.5t102 -23.5q77 0 108.5 82.5t31.5 218.5v1078z" />
    <glyph glyph-name="uni019E" unicode="&#x19e;" horiz-adv-x="1210" 
d="M660 -480v83q72 19 101 33.5t29 27.5v909q0 107 -21 147t-77 40q-43 0 -96.5 -16.5t-150.5 -74.5v-525q0 -34 130 -61v-83h-530v83q130 34 130 61v537q0 52 -4.5 77t-31 35t-94.5 17v80q105 11 183.5 26.5t156.5 43.5l45 -45l11 -109q125 89 222.5 121.5t175.5 32.5
q58 0 108 -25.5t81.5 -84.5t31.5 -159v-1027q0 -13 25.5 -27t104.5 -34v-83h-530z" />
    <glyph glyph-name="uni019F" unicode="&#x19f;" horiz-adv-x="1289" 
d="M1218 647q0 -136 -48.5 -258t-133.5 -216.5t-195.5 -148.5t-235.5 -54q-128 0 -230.5 52.5t-175 142.5t-111 205.5t-38.5 241.5q0 136 44 258.5t126 217t194.5 148.5t248.5 54q135 0 238.5 -54t174 -145.5t106.5 -206.5t36 -237zM336 595q7 -138 51.5 -248t114 -173.5
t152.5 -63.5q120 0 195 119t83 366h-596zM927 725q-13 118 -56.5 215.5t-111.5 156t-155 58.5q-121 0 -188.5 -112t-78.5 -318h590z" />
    <glyph glyph-name="Ohorn" unicode="&#x1a0;" horiz-adv-x="1317" 
d="M605 -30q-128 0 -230.5 52.5t-175 142.5t-111 205.5t-38.5 241.5q0 136 44 258.5t126 217t194.5 148.5t248.5 54q135 0 238.5 -54t174 -145.5t106.5 -206.5t36 -237q0 -136 -48.5 -258t-133.5 -216.5t-195.5 -148.5t-235.5 -54zM654 110q121 0 200 127t79 392
q0 138 -41 258t-115 194t-173 74q-133 0 -201 -134.5t-68 -379.5q0 -149 43.5 -269.5t116 -191t159.5 -70.5zM1317 1392q0 -86 -111 -187.5t-335 -184.5l-28 102q79 30 118 64.5t51.5 67.5t12.5 57q0 29 -20 55t-48 49l288 130q29 -21 50.5 -64.5t21.5 -88.5z" />
    <glyph glyph-name="ohorn" unicode="&#x1a1;" horiz-adv-x="1240" 
d="M1020 485q0 -100 -40 -192t-110 -165t-161 -115.5t-193 -42.5q-141 0 -245.5 62t-162.5 169t-58 243q0 133 63.5 250.5t177.5 191.5t264 74q141 0 245.5 -62t162 -169t57.5 -244zM735 435q0 106 -23.5 195.5t-70 144.5t-115.5 55q-76 0 -117.5 -47t-57.5 -127.5
t-16 -182.5q0 -105 26.5 -189.5t74 -134t108.5 -49.5q112 0 151.5 86t39.5 249zM1240 1042q0 -86 -111 -187.5t-335 -184.5l-28 102q79 30 118 64.5t51.5 67.5t12.5 57q0 29 -20 55t-48 49l288 130q29 -21 50.5 -64.5t21.5 -88.5z" />
    <glyph glyph-name="uni01A2" unicode="&#x1a2;" horiz-adv-x="1965" 
d="M1315 -350v83q68 14 106.5 31t38.5 30v1018q0 164 -33 231t-108 67q-52 0 -96 -17.5t-105 -64.5q50 -80 75 -182.5t25 -198.5q0 -136 -48 -258t-133 -216.5t-196 -148.5t-236 -54q-120 0 -221.5 52.5t-176.5 142.5t-116 205.5t-41 241.5q0 136 45 258.5t125 217
t186 148.5t227 54q137 0 228.5 -36.5t171.5 -114.5q89 74 171 112.5t172 38.5q199 0 281.5 -90.5t82.5 -278.5v-1127q0 -12 36.5 -29.5t108.5 -31.5v-83h-570zM933 629q0 138 -41 258t-115 194t-173 74q-133 0 -201 -134.5t-68 -379.5q0 -149 43.5 -269.5t116 -191
t159.5 -70.5q121 0 200 127t79 392z" />
    <glyph glyph-name="uni01A3" unicode="&#x1a3;" horiz-adv-x="1660" 
d="M1030 485q0 -100 -40 -192t-110 -165t-161 -115.5t-193 -42.5q-141 0 -245.5 62t-162.5 169t-58 243q0 133 63.5 250.5t177.5 191.5t264 74q141 0 245.5 -62t162 -169t57.5 -244zM745 435q0 106 -23.5 195.5t-70 144.5t-115.5 55q-76 0 -117.5 -47t-57.5 -127.5
t-16 -182.5q0 -105 26.5 -189.5t74 -134t108.5 -49.5q112 0 151.5 86t39.5 249zM1090 -480v83q140 36 140 61v869q0 122 -15 189.5t-93 67.5q-41 0 -94.5 -36t-103.5 -97t-82 -137l-34 167q88 134 195.5 203.5t215.5 69.5q68 0 132.5 -25t106.5 -92t42 -192v-987
q0 -13 30.5 -27t109.5 -34v-83h-550z" />
    <glyph glyph-name="uni01A4" unicode="&#x1a4;" horiz-adv-x="1491" 
d="M993 515q-46 0 -91.5 7.5t-79.5 22.5l-33 115q41 -19 70 -24.5t64 -5.5q92 0 153 66t61 199q0 75 -32 139t-98.5 103t-170.5 39h-61.5h-61.5q-193 0 -311 -44t-118 -126q0 -43 26.5 -78.5t72.5 -57.5q-13 -18 -56.5 -45t-96 -47.5t-95.5 -21.5q-52 31 -83.5 86.5
t-31.5 120.5q0 161 185 244t504 83q163 0 259.5 -5.5t163.5 -23.5q122 -32 206 -112.5t84 -212.5q0 -104 -40 -182.5t-104.5 -131.5t-139.5 -80t-145 -27zM340 0v83q68 14 101.5 31t33.5 30v1096h280v-1096q0 -12 30.5 -28t134.5 -33v-83h-580z" />
    <glyph glyph-name="uni01A5" unicode="&#x1a5;" horiz-adv-x="1120" 
d="M1060 502q0 -102 -38.5 -197t-99.5 -171t-128.5 -120t-125.5 -44t-116.5 23.5t-151.5 84.5v-413q0 -16 37.5 -32t131.5 -30v-83h-569v83q130 31 130 62v1156q0 161 17 264.5t56 175.5t106 137q56 54 156 103t213 49q80 0 153 -29t119.5 -64t46.5 -53q0 -16 -21.5 -44.5
t-52.5 -60t-59.5 -55.5t-43.5 -31q-27 35 -65 75t-82.5 68.5t-93.5 28.5q-43 0 -84 -35.5t-68 -134t-27 -289.5v-105q111 87 184.5 113t130.5 26q91 0 169.5 -47.5t127 -148.5t48.5 -262zM805 426q0 132 -34 208t-86 108.5t-107 32.5q-33 0 -68.5 -14.5t-109.5 -60.5v-467
q75 -40 119.5 -57.5t75 -21.5t61.5 -4q68 0 108.5 72t40.5 204z" />
    <glyph glyph-name="uni01A6" unicode="&#x1a6;" horiz-adv-x="1213" 
d="M349 1005q47 7 114 11t126 4q195 0 308 -43t161 -108.5t48 -131.5q0 -108 -67 -188.5t-185.5 -125.5t-272.5 -45q-28 0 -72.5 3.5t-75.5 10.5l-6 112q35 -6 73.5 -8t63.5 -2q105 0 166.5 31t87.5 79.5t24 101.5q-1 36 -22 83t-82.5 82t-185.5 35q-43 0 -101.5 -2.5
t-105.5 -7.5zM1313 -176q-81 -29 -161.5 -50t-142.5 -21q-28 0 -56 15t-42 40l-332 634l154 59l408 -535q31 -43 59 -54t95 -5zM60 0v83q68 14 106.5 31t38.5 30v971q0 12 -36.5 30t-108.5 32v83h560v-83q-67 -14 -106 -31t-39 -31v-971q0 -12 36.5 -29.5t108.5 -31.5v-83
h-560z" />
    <glyph glyph-name="uni01A7" unicode="&#x1a7;" horiz-adv-x="1075" 
d="M80 337q0 114 47 195.5t121 140t157.5 101.5t157.5 79.5t121 74.5t47 86q0 57 -41 99.5t-122 42.5q-83 0 -138 -30.5t-88.5 -75.5t-50.5 -89l-81 -6q-12 11 -28.5 44t-30 72.5t-20 70t0.5 36.5q59 47 167.5 79.5t259.5 32.5q125 0 206.5 -27.5t128 -72t65.5 -95.5t19 -98
q0 -107 -46.5 -178t-120 -119t-156 -85t-156 -75t-120 -89t-46.5 -127q0 -103 62 -153.5t144 -50.5q68 0 134 37t116.5 100.5t70.5 141.5l84 5q8 -27 13.5 -79t8.5 -107.5t2 -95.5t-8 -44q-70 -45 -174.5 -76.5t-260.5 -31.5q-165 0 -262.5 54.5t-140 139t-42.5 173.5z" />
    <glyph glyph-name="uni01A8" unicode="&#x1a8;" horiz-adv-x="876" 
d="M71 243q0 63 32 117t82 97.5t104 76.5t97 55q83 44 127 81.5t44 79.5q0 26 -22.5 58t-88.5 32q-87 0 -135.5 -55.5t-63.5 -143.5l-83 -8q-6 8 -18.5 40.5t-24.5 72t-18 70.5t0 37q27 24 85.5 48.5t126.5 41.5t125 17q158 0 257.5 -52t99.5 -178q0 -83 -46.5 -142
t-111 -99.5t-120.5 -69.5q-91 -48 -144.5 -91t-53.5 -101q0 -70 42 -98.5t92 -28.5q69 0 120 37t81.5 93t38.5 112l83 11q10 -34 16.5 -81t9.5 -93.5t1.5 -78.5t-8.5 -35q-67 -44 -161 -69.5t-201 -25.5q-165 0 -264.5 64t-99.5 209z" />
    <glyph glyph-name="uni01A9" unicode="&#x1a9;" horiz-adv-x="1140" 
d="M1070 405q-2 -40 -5.5 -97.5t-7.5 -118t-7.5 -111.5t-5.5 -78h-963l-41 53l407 552l-386 602v53h754q56 0 104.5 2t108.5 14l4 -361l-96 -22q-24 99 -48 147.5t-45.5 64t-41.5 15.5h-393l281 -446l-334 -464h470q42 0 66.5 18t43 65t42.5 134z" />
    <glyph glyph-name="uni01AA" unicode="&#x1aa;" horiz-adv-x="826" 
d="M10 1272q0 69 43 132.5t127.5 104.5t206.5 41q116 0 184.5 -49.5t98.5 -128t30 -165.5q0 -202 -16 -412.5t-32.5 -408.5t-16.5 -365q0 -160 12 -243t37 -113t63 -30q39 0 64.5 31t32.5 71.5t-11 68.5q-3 5 31.5 18t83.5 28t92.5 24.5t58.5 7.5l29 -59q4 -70 -50.5 -143
t-155.5 -122.5t-239 -49.5q-159 0 -243.5 118.5t-84.5 331.5q0 198 16 393t32.5 372t16.5 321q1 102 -4.5 190.5t-26 143.5t-66.5 55q-28 0 -58 -28.5t-30 -82.5q0 -111 84 -111q50 0 83.5 26.5t52 54t22.5 31.5l44 -112q-53 -97 -120.5 -138.5t-137.5 -42.5
q-116 0 -184.5 61t-68.5 179z" />
    <glyph glyph-name="uni01AB" unicode="&#x1ab;" horiz-adv-x="775" 
d="M756 167q-143 -103 -236.5 -150t-146.5 -47q-91 0 -157 71t-66 210v544h-119l-31 38l78 97h72v196l229 164l41 -35v-325h297l39 -39q-19 -35 -50 -74.5t-51 -56.5q-24 12 -71.5 23.5t-91.5 11.5h-72v-448q0 -97 23.5 -137t53.5 -40q35 0 80 15.5t130 62.5zM236 -280
q17 19 58.5 46.5t87 52t72.5 32.5q8 -8 21 -18t18 -20q-26 -54 -21.5 -94t24 -62t36.5 -22q50 0 72 41.5t22 147.5v319q32 6 65 12t65 12v-314q0 -111 -27.5 -180.5t-71 -107t-93.5 -51.5t-96 -14q-62 0 -117.5 30.5t-88 80.5t-26.5 109z" />
    <glyph glyph-name="uni01AC" unicode="&#x1ac;" horiz-adv-x="1340" 
d="M20 963q0 83 44.5 139.5t112.5 91.5t142 50.5t132 15.5h814l40 -35q-1 -34 -7.5 -90t-15.5 -114.5t-17 -100.5h-85q-12 57 -19.5 104.5t-20.5 76.5t-43 29h-234v-975q0 -13 31 -33t123 -39v-83h-588v83q92 19 123 38.5t31 33.5v975h-138q-161 0 -161 -124
q0 -58 36.5 -90.5t62.5 -45.5q-9 -14 -50.5 -40.5t-95.5 -49t-102 -24.5q-37 20 -76 75t-39 132z" />
    <glyph glyph-name="uni01AD" unicode="&#x1ad;" horiz-adv-x="803" 
d="M835 1407q0 -12 -20.5 -39t-51.5 -59t-64 -59.5t-59 -40.5q-11 69 -38.5 123.5t-70.5 54.5q-27 0 -50 -27.5t-37 -95t-14 -188.5v-146h297l39 -39q-19 -35 -50 -74.5t-51 -56.5q-24 12 -71.5 23.5t-91.5 11.5h-72v-448q0 -97 23.5 -137t53.5 -40q35 0 80 15.5t130 62.5
l49 -81q-143 -103 -236.5 -150t-146.5 -47q-91 0 -157 71t-66 210v544h-119l-31 38l78 97h72v91q0 140 41.5 234t113.5 168q51 53 128 90t146 37q58 0 114.5 -26.5t94 -60t37.5 -56.5z" />
    <glyph glyph-name="uni01AE" unicode="&#x1ae;" horiz-adv-x="1208" 
d="M1210 -117q0 -41 -31.5 -94t-91 -103t-143.5 -83t-190 -33q-159 0 -231 87.5t-72 225.5v1247h-239q-31 0 -57.5 -51.5t-71.5 -168.5l-83 29q3 39 10.5 101.5t16.5 123.5t16 96h1090l40 -35q-1 -34 -7.5 -90t-15.5 -114.5t-17 -100.5h-85q-20 119 -34.5 164.5t-48.5 45.5
h-234v-1176q0 -137 20 -198t77 -61q37 0 62 31t32 72t-9 70q-3 6 28.5 19t78 27t91.5 23t69 7z" />
    <glyph glyph-name="Uhorn" unicode="&#x1af;" horiz-adv-x="1530" 
d="M1325 1177q-135 -28 -135 -62v-591q0 -175 -66 -299t-180 -189.5t-258 -65.5q-137 0 -253.5 51t-187 156t-70.5 267v671q0 12 -31.5 30t-103.5 32v83h550v-83q-135 -28 -135 -62v-601q0 -192 64.5 -290.5t235.5 -98.5q95 0 148.5 53.5t75 139.5t21.5 185v612
q0 12 -31.5 30t-103.5 32v83h460v-83zM1530 1392q0 -86 -111 -187.5t-335 -184.5l-28 102q79 30 118 64.5t51.5 67.5t12.5 57q0 29 -20 55t-48 49l288 130q29 -21 50.5 -64.5t21.5 -88.5z" />
    <glyph glyph-name="uhorn" unicode="&#x1b0;" horiz-adv-x="1430" 
d="M1169 122q-49 -32 -115.5 -67.5t-121.5 -60t-72 -24.5q-35 0 -68 26.5t-47 129.5q-83 -68 -142.5 -101.5t-105.5 -44t-89 -10.5q-62 0 -121.5 25t-98 92t-38.5 192v402q0 64 -5 91.5t-30 36.5t-84 15v80q110 9 186.5 19.5t164.5 36.5l38 -49v-567q0 -118 27 -151t76 -33
q35 0 88.5 19t133.5 83v419q0 60 -7 89.5t-34 40t-89 13.5v80q110 9 196.5 23.5t163.5 32.5l40 -49v-617q0 -61 5 -80t18 -30q11 -9 30.5 -4t70.5 27zM1430 1042q0 -86 -111 -187.5t-335 -184.5l-28 102q79 30 118 64.5t51.5 67.5t12.5 57q0 29 -20 55t-48 49l288 130
q29 -21 50.5 -64.5t21.5 -88.5z" />
    <glyph glyph-name="uni01B1" unicode="&#x1b1;" horiz-adv-x="1302" 
d="M1212 1177l-24.5 -6t-58.5 -16t-64 -23.5t-43.5 -29t5.5 -31.5q104 -89 158 -196.5t54 -251.5q0 -102 -39.5 -215.5t-117.5 -213t-192.5 -162t-264.5 -62.5q-189 0 -322 84.5t-203 222.5t-70 299q0 137 53.5 267.5t169.5 227.5q19 16 6.5 31.5t-43 29t-64 23.5t-58 16
l-24.5 6v83h436l44 -119q-127 -94 -186 -228t-59 -298q0 -149 49.5 -263t129 -178t167.5 -64q143 0 228 125.5t85 359.5q0 110 -26.5 217.5t-78 194t-126.5 134.5l47 119h432v-83z" />
    <glyph glyph-name="uni01B2" unicode="&#x1b2;" horiz-adv-x="1379" 
d="M977 1290q105 -19 174 -103t103 -200.5t34 -232.5q0 -230 -82 -407t-229 -277t-341 -100q-122 0 -235 51t-184.5 156t-71.5 267v671q0 12 -31.5 30t-103.5 32v83h550v-83q-135 -28 -135 -62v-601q0 -192 62 -290.5t218 -98.5q135 0 224 136.5t89 404.5q0 73 -19 153.5
t-58.5 150.5t-100.5 114.5t-146 46.5l-21 74z" />
    <glyph glyph-name="uni01B3.RtHook" unicode="&#x1b3;" horiz-adv-x="1477" 
d="M344 0v83q91 19 122.5 38.5t31.5 33.5v363q-48 108 -109.5 220t-122.5 210.5t-108 162.5q-19 22 -45 33.5t-109 11.5l-4 83q39 6 94 13t106.5 12.5t78.5 5.5q37 0 64.5 -14.5t43.5 -34.5q50 -64 105.5 -154t110.5 -190.5t101 -196.5l210 420q47 95 120 157.5t192 62.5
t180 -65.5t61 -153.5q0 -34 -8.5 -80t-13.5 -58q-5 -13 -35 -32.5t-69.5 -39.5t-74.5 -35.5t-50 -19.5l-28 69q14 27 34 66.5t20 75.5q0 45 -21.5 69.5t-57.5 24.5q-38 0 -65 -31.5t-49 -74.5l-271 -512v-368q0 -13 31 -33t125 -39v-83h-590z" />
    <glyph glyph-name="uni01B4.RtHook" unicode="&#x1b4;" horiz-adv-x="1259" 
d="M486 847q-77 -10 -86.5 -23t3.5 -45l188 -457l157 452q66 182 148 276t164 127.5t147 33.5q41 0 89.5 -13t84 -30t35.5 -29q0 -14 -26.5 -54.5t-62 -82t-63.5 -59.5q-34 25 -74.5 36t-63.5 11q-143 0 -219 -208l-323 -885q-58 -159 -137.5 -245t-161.5 -119t-147 -33
q-40 0 -90 11.5t-86.5 28.5t-36.5 34q0 7 16.5 33t42 58.5t52 61.5t45.5 41q39 -25 75.5 -36.5t58.5 -11.5q41 0 78.5 11.5t71 50t63.5 117.5l30 77l-337 803q-9 28 -35 42.5t-76 25.5v83h476v-83z" />
    <glyph glyph-name="uni01B5" unicode="&#x1b5;" horiz-adv-x="1131" 
d="M1061 373q-2 -43 -4.5 -116.5t-4.5 -145.5t-3 -111h-961l-39 55l661 1065h-369q-32 0 -76.5 -71.5t-66.5 -175.5l-97 22l39 381q55 -12 93.5 -14t96.5 -2h686l35 -53l-655 -1067h433q43 0 71 67t66 190zM942 580h-778l-23 22q5 16 18.5 54t21.5 54h778l22 -25z" />
    <glyph glyph-name="uni01B6" unicode="&#x1b6;" horiz-adv-x="976" 
d="M899 358q0 -31 -0.5 -83.5t-2 -109t-4 -102t-5.5 -63.5h-805l-26 45l520 755h-231q-101 0 -157 -230l-79 22l28 354q44 -12 78 -14t98 -2h582l22 -43l-522 -757h317q40 0 60 67.5t50 180.5zM800 408h-638l-23 22q5 16 16.5 49t19.5 49h638l22 -25z" />
    <glyph glyph-name="uni01B7" unicode="&#x1b7;" horiz-adv-x="1120" 
d="M643 775l-305 -190l-57 69l380 466h-309q-24 0 -51.5 -36t-51 -92.5t-37.5 -118.5l-97 22l40 381q43 -12 92.5 -14t113.5 -2h599l35 -53zM1040 437q0 -106 -49 -191.5t-129.5 -146.5t-177.5 -93.5t-192 -32.5q-115 0 -206.5 29t-144.5 67.5t-53 66.5q0 13 24.5 55
t61.5 86t73 61q51 -101 126 -158t158 -57q127 0 193 71.5t66 191.5t-71 194.5t-171 74.5q-55 0 -95 -11t-115 -58q-7 5 -29.5 33t-27.5 36q49 30 129 65t162.5 60.5t139.5 25.5q146 0 237 -96.5t91 -272.5z" />
    <glyph glyph-name="uni01B8" unicode="&#x1b8;" horiz-adv-x="1120" 
d="M126 1207l35 53h599q65 0 114 2t92 14l40 -381l-97 -22q-13 62 -37 118.5t-51.5 92.5t-51.5 36h-309l330 -416l-67 -89l-255 160zM41 357q0 137 74 235.5t200.5 151t283.5 52.5q38 -15 78 -31t113 -60q-3 -5 -17.5 -25.5t-29.5 -40t-20 -23.5q-43 23 -78 29.5t-82 6.5
q-122 0 -187 -74t-65 -172q0 -135 77.5 -204t201.5 -69q95 0 158 56t47 142q27 18 73 34.5t94.5 28.5t81.5 16q8 -17 22 -41.5t14 -29.5q0 -61 -43.5 -125.5t-119.5 -119t-175.5 -88t-212.5 -33.5q-177 0 -284 56t-155.5 144t-48.5 184z" />
    <glyph glyph-name="uni01B9" unicode="&#x1b9;" horiz-adv-x="1037" 
d="M50 -96q0 138 61 236.5t158.5 158.5t206.5 81l-389 507l23 43h594q66 0 114.5 2t91.5 14l26 -354l-79 -22q-22 92 -60 161t-97 69h-285l349 -445q-3 -11 -20.5 -39t-34.5 -53t-22 -29q-36 16 -59 22.5t-70 6.5q-64 0 -125.5 -36t-102 -105t-40.5 -169t40.5 -167.5
t100 -101.5t117.5 -34q78 0 127 38.5t64 96.5t-11 115q27 18 77.5 32t103.5 24t86 14l27 -30q0 -74 -34.5 -151.5t-102 -143t-165.5 -105.5t-226 -40q-118 0 -202 37t-137.5 97t-79 131t-25.5 139z" />
    <glyph glyph-name="uni01BA" unicode="&#x1ba;" horiz-adv-x="922" 
d="M566 464l-348 -201l-55 64l397 473h-286q-57 0 -96.5 -69t-59.5 -161l-79 22l26 354q43 -12 82.5 -14t103.5 -2h614l24 -43zM850 288q0 -125 -92 -194.5t-266 -114.5q-139 -36 -190.5 -76t-51.5 -96q0 -66 52 -111.5t146 -45.5q92 0 136.5 35t53 88.5t-9.5 106.5
q29 18 78 32t100.5 23t88.5 13l27 -30q-8 -102 -68 -197.5t-170 -157t-270 -63.5q-108 -1 -195 33t-138 96t-51 143q0 119 100 191t267 118q102 28 147 60t55.5 62.5t10.5 51.5q0 30 -27.5 58t-95.5 28q-46 0 -110.5 -11.5t-158.5 -66.5q-7 5 -28.5 30.5t-26.5 33.5
q49 35 110.5 73t143.5 65t194 27q57 0 112 -21t91 -66t36 -117z" />
    <glyph glyph-name="uni01BB" unicode="&#x1bb;" horiz-adv-x="1061" 
d="M941 0h-834l-29 74q175 206 288 345.5t177 232t89.5 156t25.5 116.5q0 83 -33 137t-108 54q-82 0 -112.5 -62.5t-14.5 -138.5q-22 -12 -69.5 -27t-97.5 -27t-81 -15l-37 80q0 52 37.5 106t103.5 100.5t153 75t186 28.5q166 0 262 -62.5t96 -180.5q0 -68 -29 -136.5
t-94.5 -155.5t-176 -210t-272.5 -299h393q34 0 54 31.5t30.5 72.5t14 72.5l3.5 31.5l90 -22zM888 500h-688l-23 22q5 16 18.5 54t21.5 54h688l22 -25z" />
    <glyph glyph-name="uni01BC" unicode="&#x1bc;" horiz-adv-x="1112" 
d="M1027 404q0 -124 -62 -222.5t-178 -155t-278 -56.5q-109 0 -186 26t-126 63.5t-72 72t-23 51.5q0 13 26 39.5t64.5 55t77 49.5t62.5 24q9 -39 35.5 -93.5t75.5 -96t125 -41.5q89 0 142 77t53 186q0 116 -71.5 182t-181.5 66q-60 0 -125.5 -16.5t-131.5 -56.5
q-4 4 -19 19.5t-29.5 32.5t-18.5 22v483q0 12 -37 30t-109 32v83h898l39 -40q-2 -34 -12.5 -98t-23.5 -129t-23 -103h-86q-6 128 -18.5 184t-50.5 56h-307v-376q19 5 44.5 9.5t73.5 4.5q131 0 233.5 -38.5t161 -119t58.5 -206.5z" />
    <glyph glyph-name="uni01BD" unicode="&#x1bd;" horiz-adv-x="985" 
d="M900 293q0 -88 -51.5 -161.5t-153 -117.5t-250.5 -44q-122 0 -202 29.5t-118.5 64.5t-38.5 52q0 12 21.5 39t53.5 57t66 52.5t59 24.5q13 -40 35 -87t60.5 -80t100.5 -33q74 0 111.5 50t37.5 116q0 95 -61 151.5t-150 56.5q-55 0 -106 -15.5t-110 -49.5q-6 5 -27.5 21
t-26.5 22v360q0 24 -140 46v83h829l39 -38q-1 -25 -11.5 -79t-23.5 -108.5t-22 -82.5h-85q-6 95 -17.5 136.5t-47.5 41.5h-271v-240q16 4 42 7t57 3q179 0 290 -68.5t111 -208.5z" />
    <glyph glyph-name="uni01BE" unicode="&#x1be;" horiz-adv-x="857" 
d="M836 283q0 -106 -45.5 -169t-113.5 -94t-137.5 -40.5t-117.5 -9.5q-70 0 -156.5 18t-153.5 55q-7 3 -10.5 39.5t-3 88.5t5.5 102t15 80l93 -11q13 -56 43 -112t79 -93t118 -37q72 0 103 21t31 76q0 54 -34 94t-88.5 73t-115.5 65q-55 29 -110 65.5t-91.5 87t-36.5 118.5
q0 33 38 53t87 27t87 -0.5t38 -29.5q0 -43 34.5 -75t88 -59t108.5 -57q58 -29 114.5 -64.5t93.5 -86t37 -125.5zM110 701v94h-119l-31 38l78 97h72v246l209 104l41 -35v-315h317l39 -39q-15 -28 -48 -71.5t-53 -59.5q-24 12 -69.5 23.5t-111.5 11.5h-74v-58z" />
    <glyph glyph-name="uni01BF" unicode="&#x1bf;" horiz-adv-x="1165" 
d="M1105 662q0 -94 -30 -185.5t-103 -185t-199 -195.5t-318 -218v-213q0 -16 37.5 -32t131.5 -30v-83h-579v83q66 16 103 30.5t37 31.5v1006q0 50 -6 77t-33 38t-91 14v80q46 10 111 21.5t127.5 26t101.5 32.5l45 -45l9 -158q85 90 176 146.5t193 56.5q71 0 137 -25.5
t108 -90t42 -182.5zM840 596q0 77 -21.5 115t-51 51t-54.5 13q-66 0 -129.5 -45.5t-128.5 -129.5v-587q155 96 238 200t115 203.5t32 179.5z" />
    <glyph glyph-name="uni01C0" unicode="&#x1c0;" horiz-adv-x="490" 
d="M335 -438q-18 -16 -64 -35t-71 -27l-45 33v1958q28 17 66.5 34.5t67.5 24.5l46 -32v-1956z" />
    <glyph glyph-name="uni01C1" unicode="&#x1c1;" horiz-adv-x="835" 
d="M672 -438q-18 -16 -64 -35t-71 -27l-45 33v1958q28 17 66.5 34.5t67.5 24.5l46 -32v-1956zM341 -438q-18 -16 -64 -35t-71 -27l-45 33v1958q28 17 66.5 34.5t67.5 24.5l46 -32v-1956z" />
    <glyph glyph-name="uni01C2" unicode="&#x1c2;" horiz-adv-x="792" 
d="M349 -500l-45 33v1958q28 17 66.5 34.5t67.5 24.5l46 -32v-1956q-18 -16 -64 -35t-71 -27zM55 349l-35 34q5 22 19.5 54.5t23.5 51.5h674l35 -34q-6 -22 -20.5 -55.5t-22.5 -50.5h-674zM55 619l-35 34q5 22 19.5 54.5t23.5 51.5h674l35 -34q-6 -22 -20.5 -55.5
t-22.5 -50.5h-674z" />
    <glyph glyph-name="uni01C3" unicode="&#x1c3;" horiz-adv-x="557" 
d="M228 380l-29 21l-95 1027q31 17 85 42t108 48t81 32l60 -34l-96 -1097q-19 -13 -54 -23.5t-60 -15.5zM254 -40q-61 0 -110.5 33t-49.5 109q0 83 60 128.5t139 45.5q57 0 108 -33t51 -110q0 -84 -58.5 -128.5t-139.5 -44.5z" />
    <glyph glyph-name="uni01C4" unicode="&#x1c4;" horiz-adv-x="2465" 
d="M40 0v83q68 14 101.5 31t33.5 30v1003q-39 -5 -73.5 -10t-61.5 -9l-14 102q69 17 169 30.5t207 21.5t196 8q316 0 485.5 -162t169.5 -452q0 -187 -55 -316.5t-145 -209t-198.5 -115t-215.5 -35.5h-89h-224h-244h-42zM597 114q54 0 115.5 29t116.5 91.5t89.5 162
t34.5 240.5q0 266 -109.5 402.5t-320.5 136.5q-16 0 -33 -0.5t-35 -1.5v-1000q0 -38 42 -49t100 -11zM2395 373q-2 -43 -4.5 -116.5t-4.5 -145.5t-3 -111h-961l-39 55l661 1065h-369q-32 0 -76.5 -71.5t-66.5 -175.5l-97 22l39 381q55 -12 93.5 -14t96.5 -2h686l35 -53
l-655 -1067h433q43 0 71 67t66 190zM1996 1382h-147l-272 324q12 19 29 43.5t34 31.5l284 -143l281 143q17 -7 39 -31.5t36 -43.5z" />
    <glyph glyph-name="uni01C5" unicode="&#x1c5;" horiz-adv-x="2310" 
d="M40 0v83q68 14 101.5 31t33.5 30v1003q-39 -5 -73.5 -10t-61.5 -9l-14 102q69 17 169 30.5t207 21.5t196 8q316 0 485.5 -162t169.5 -452q0 -187 -55 -316.5t-145 -209t-198.5 -115t-215.5 -35.5h-89h-224h-244h-42zM597 114q54 0 115.5 29t116.5 91.5t89.5 162
t34.5 240.5q0 266 -109.5 402.5t-320.5 136.5q-16 0 -33 -0.5t-35 -1.5v-1000q0 -38 42 -49t100 -11zM2233 358q0 -31 -0.5 -83.5t-2 -109t-4 -102t-5.5 -63.5h-805l-26 45l520 755h-231q-101 0 -157 -230l-79 22l28 354q44 -12 78 -14t98 -2h582l22 -43l-522 -757h317
q40 0 60 67.5t50 180.5zM1925 1049h-147l-284 389q14 19 36.5 43.5t38.5 31.5l281 -208l284 208q17 -7 34 -31.5t29 -43.5z" />
    <glyph glyph-name="uni01C6" unicode="&#x1c6;" horiz-adv-x="2151" 
d="M1171 124q-61 -41 -129 -76t-121 -56.5t-72 -21.5q-55 0 -79.5 90.5t-24.5 251.5v922q0 74 -6.5 109t-34.5 47t-94 16v79q119 11 215.5 30t148.5 35l41 -40v-1196q0 -70 5.5 -96t17.5 -32t30 -4t70 25zM819 200q-87 -88 -147 -138t-113.5 -71t-122.5 -21q-94 0 -180 56.5
t-141 163t-55 254.5q0 140 62.5 257.5t173.5 188t255 70.5q60 0 121 -19.5t139 -90.5q0 -60 -13.5 -101.5t-45.5 -61.5q-38 63 -91 98t-121 35q-90 0 -150 -73t-60 -242q0 -154 67.5 -239.5t149.5 -85.5q56 0 105.5 25t119.5 92q9 -4 19 -26t18.5 -44t9.5 -27zM2074 358
q0 -31 -0.5 -83.5t-2 -109t-4 -102t-5.5 -63.5h-805l-26 45l520 755h-231q-101 0 -157 -230l-79 22l28 354q44 -12 78 -14t98 -2h582l22 -43l-522 -757h317q40 0 60 67.5t50 180.5zM1766 1049h-147l-284 389q14 19 36.5 43.5t38.5 31.5l281 -208l284 208q17 -7 34 -31.5
t29 -43.5z" />
    <glyph glyph-name="uni01C7" unicode="&#x1c7;" horiz-adv-x="1770" 
d="M1044 324q-5 -57 -13 -125.5t-15.5 -123.5t-12.5 -75h-963v83q68 14 101.5 31t33.5 30v971q0 12 -31.5 30t-103.5 32v83h550v-83q-135 -28 -135 -62v-911q0 -35 38.5 -54.5t147.5 -19.5h103q92 0 133 52.5t84 169.5zM1710 1177q-135 -28 -135 -62v-940
q0 -143 -40.5 -236.5t-98 -153.5t-110.5 -103t-131 -77.5t-155 -34.5q-65 0 -126 18t-100 42t-39 40q0 12 23 39t56 57.5t63 54.5t44 29q56 -52 108 -74.5t90 -22.5q35 0 66 22.5t50.5 97t19.5 230.5v1012q0 12 -32.5 28.5t-152.5 33.5v83h600v-83z" />
    <glyph glyph-name="uni01C8" unicode="&#x1c8;" horiz-adv-x="1675" 
d="M1044 324q-5 -57 -13 -125.5t-15.5 -123.5t-12.5 -75h-963v83q68 14 101.5 31t33.5 30v971q0 12 -31.5 30t-103.5 32v83h550v-83q-135 -28 -135 -62v-911q0 -35 38.5 -54.5t147.5 -19.5h103q92 0 133 52.5t84 169.5zM1565 1261q0 -71 -52.5 -114t-132.5 -43
q-59 0 -107 27.5t-48 88.5q0 72 54 114t131 42q58 0 106.5 -26.5t48.5 -88.5zM1520 109q0 -153 -37.5 -246t-93 -147.5t-109.5 -95.5t-131 -75.5t-138 -34.5q-56 0 -115.5 18t-100 41.5t-40.5 39.5t23 43.5t56 56.5t63 51.5t45 29.5q33 -43 92 -69t96 -26q34 0 61 26t43 101
t16 221v597q0 69 -5.5 102.5t-32.5 47t-92 20.5v80q76 10 126.5 19.5t95 21.5t101.5 29h77v-851z" />
    <glyph glyph-name="uni01C9" unicode="&#x1c9;" horiz-adv-x="1245" 
d="M50 0v83q86 15 113 30t27 31v1112q0 59 -9 85t-37 34.5t-84 14.5v80q110 14 190 31t164 49l46 -44v-1362q0 -15 29 -31t111 -30v-83h-550zM1135 1261q0 -71 -52.5 -114t-132.5 -43q-59 0 -107 27.5t-48 88.5q0 72 54 114t131 42q58 0 106.5 -26.5t48.5 -88.5zM1090 109
q0 -153 -37.5 -246t-93 -147.5t-109.5 -95.5t-131 -75.5t-138 -34.5q-56 0 -115.5 18t-100 41.5t-40.5 39.5t23 43.5t56 56.5t63 51.5t45 29.5q33 -43 92 -69t96 -26q34 0 61 26t43 101t16 221v597q0 69 -5.5 102.5t-32.5 47t-92 20.5v80q76 10 126.5 19.5t95 21.5t101.5 29
h77v-851z" />
    <glyph glyph-name="uni01CA" unicode="&#x1ca;" horiz-adv-x="2074" 
d="M1330 1177q-72 -10 -103.5 -29t-31.5 -33v-1083l-160 39v1044q0 12 -27.5 31.5t-107.5 30.5v83h430v-83zM1195 -30q-110 8 -178.5 43t-100.5 78l-678 939q-41 58 -93 98.5t-105 48.5v83h302q29 0 44 -13t52 -65l619 -859q11 -15 33 -43t46.5 -58t41.5 -51l17 -21v-180z
M40 0v83q74 9 104.5 28.5t30.5 32.5v1012l160 65v-1077q0 -12 29 -31t106 -30v-83h-430zM2014 1177q-135 -28 -135 -62v-940q0 -143 -40.5 -236.5t-98 -153.5t-110.5 -103t-131 -77.5t-155 -34.5q-65 0 -126 18t-100 42t-39 40q0 12 23 39t56 57.5t63 54.5t44 29
q56 -52 108 -74.5t90 -22.5q35 0 66 22.5t50.5 97t19.5 230.5v1012q0 12 -32.5 28.5t-152.5 33.5v83h600v-83z" />
    <glyph glyph-name="uni01CB" unicode="&#x1cb;" horiz-adv-x="1979" 
d="M1330 1177q-72 -10 -103.5 -29t-31.5 -33v-1083l-160 39v1044q0 12 -27.5 31.5t-107.5 30.5v83h430v-83zM1195 -30q-110 8 -178.5 43t-100.5 78l-678 939q-41 58 -93 98.5t-105 48.5v83h302q29 0 44 -13t52 -65l619 -859q11 -15 33 -43t46.5 -58t41.5 -51l17 -21v-180z
M40 0v83q74 9 104.5 28.5t30.5 32.5v1012l160 65v-1077q0 -12 29 -31t106 -30v-83h-430zM1869 1261q0 -71 -52.5 -114t-132.5 -43q-59 0 -107 27.5t-48 88.5q0 72 54 114t131 42q58 0 106.5 -26.5t48.5 -88.5zM1824 109q0 -153 -37.5 -246t-93 -147.5t-109.5 -95.5
t-131 -75.5t-138 -34.5q-56 0 -115.5 18t-100 41.5t-40.5 39.5t23 43.5t56 56.5t63 51.5t45 29.5q33 -43 92 -69t96 -26q34 0 61 26t43 101t16 221v597q0 69 -5.5 102.5t-32.5 47t-92 20.5v80q76 10 126.5 19.5t95 21.5t101.5 29h77v-851z" />
    <glyph glyph-name="uni01CC" unicode="&#x1cc;" horiz-adv-x="1820" 
d="M660 0v83q72 19 101 33.5t29 27.5v429q0 107 -21 147t-77 40q-43 0 -96.5 -16.5t-150.5 -74.5v-525q0 -34 130 -61v-83h-530v83q130 34 130 61v537q0 52 -5.5 77t-32.5 35t-92 17v80q105 11 183.5 26.5t156.5 43.5l45 -45l11 -109q125 89 222.5 121.5t175.5 32.5
q58 0 108 -25.5t81.5 -84.5t31.5 -159v-547q0 -13 25.5 -27t104.5 -34v-83h-530zM1710 1261q0 -71 -52.5 -114t-132.5 -43q-59 0 -107 27.5t-48 88.5q0 72 54 114t131 42q58 0 106.5 -26.5t48.5 -88.5zM1665 109q0 -153 -37.5 -246t-93 -147.5t-109.5 -95.5t-131 -75.5
t-138 -34.5q-56 0 -115.5 18t-100 41.5t-40.5 39.5t23 43.5t56 56.5t63 51.5t45 29.5q33 -43 92 -69t96 -26q34 0 61 26t43 101t16 221v597q0 69 -5.5 102.5t-32.5 47t-92 20.5v80q76 10 126.5 19.5t95 21.5t101.5 29h77v-851z" />
    <glyph glyph-name="uni01CD" unicode="&#x1cd;" horiz-adv-x="1309" 
d="M396 425l-91 -274q-10 -31 23.5 -45t115.5 -23v-83h-444v83q68 12 103 25t45 43l342 1046q55 46 126 75t131 45l420 -1166q10 -28 33.5 -44t87.5 -24v-83h-522v83q77 5 104.5 20t16.5 48l-98 274h-393zM743 555l-161 448l-143 -448h304zM719 1382h-147l-272 324
q12 19 29 43.5t34 31.5l284 -143l281 143q17 -7 39 -31.5t36 -43.5z" />
    <glyph glyph-name="uni01CE" unicode="&#x1ce;" horiz-adv-x="1050" 
d="M1046 122q-56 -39 -121.5 -73.5t-120.5 -56.5t-82 -22q-43 0 -71 52.5t-28 141.5v518q0 60 -25 99t-93 39q-42 0 -80.5 -33t-32.5 -93q1 -9 -38 -25t-93.5 -31t-100.5 -24.5t-58 -6.5l-24 59q33 84 114.5 150.5t192 105t229.5 38.5q147 0 213 -72.5t66 -175.5v-454
q0 -78 40 -78q14 0 31 5.5t57 21.5zM633 468q-110 -18 -158 -34.5t-73 -41.5q-26 -26 -42 -54t-16 -69q0 -64 31 -86.5t57 -22.5q32 0 77 18t124 88l8 -124q-94 -101 -187 -136.5t-161 -35.5q-58 0 -111.5 26.5t-87.5 79.5t-34 130q0 65 24 111.5t61 83.5q33 33 82 62.5
t144 57t262 52.5v-105zM600 1049h-147l-284 389q14 19 36.5 43.5t38.5 31.5l281 -208l284 208q17 -7 34 -31.5t29 -43.5z" />
    <glyph glyph-name="uni01CF" unicode="&#x1cf;" horiz-adv-x="690" 
d="M60 0v83q68 14 101.5 31t33.5 30v971q0 12 -31.5 30t-103.5 32v83h550v-83q-135 -28 -135 -62v-971q0 -12 31.5 -29.5t103.5 -31.5v-83h-550zM410 1382h-147l-272 324q12 19 29 43.5t34 31.5l284 -143l281 143q17 -7 39 -31.5t36 -43.5z" />
    <glyph glyph-name="uni01D0" unicode="&#x1d0;" horiz-adv-x="635" 
d="M60 0v83q68 14 99 31t31 30v496q0 69 -3 103t-29.5 47.5t-97.5 19.5v80q93 12 173 28.5t153 41.5h74v-816q0 -12 28.5 -29.5t101.5 -31.5v-83h-530zM399 1049h-147l-284 389q14 19 36.5 43.5t38.5 31.5l281 -208l284 208q17 -7 34 -31.5t29 -43.5z" />
    </font>
</defs>
</svg>
