<?xml version="1.0" standalone="no"?>
<!DOCTYPE svg PUBLIC "-//W3C//DTD SVG 1.1//EN" "http://www.w3.org/Graphics/SVG/1.1/DTD/svg11.dtd" >
<svg xmlns="http://www.w3.org/2000/svg" xmlns:xlink="http://www.w3.org/1999/xlink" version="1.1">
<metadata>
Created by FontForge 20170731 at Thu May 19 09:59:29 2022
 By Aleksey,,,
Copyright (c) 2003-2022 SIL International
</metadata>
<defs>
<font id="GentiumBookPlus-Italic" horiz-adv-x="0" >
  <font-face 
    font-family="Gentium Book Plus"
    font-weight="400"
    font-style="italic"
    font-stretch="normal"
    units-per-em="2048"
    panose-1="2 0 5 3 8 0 0 2 0 4"
    ascent="1638"
    descent="-410"
    x-height="936"
    cap-height="1260"
    bbox="-1168 -950 4316 2600"
    underline-thickness="100"
    underline-position="-400"
    slope="-8"
    unicode-range="U+0020-1DF1E"
  />
<missing-glyph horiz-adv-x="1400" 
d="M100 0v1800h1200v-1800h-1200zM150 1750v-1700h1100v1700h-1100z" />
    <glyph glyph-name="f_i" unicode="fi" horiz-adv-x="1120" 
d="M947 1401q-29 -21 -66.5 -49t-70.5 -48.5t-49 -20.5q-19 0 -38 28.5t-44 57t-62 28.5q-52 0 -87 -44.5t-57.5 -114t-35 -146t-19.5 -140.5l-6 -47h321q66 0 132 15.5t89 15.5q27 0 40 -19t13 -65q0 -35 -10.5 -105t-25.5 -156t-30 -172.5t-25 -156t-10 -104.5
q0 -59 30 -59t57.5 7.5t68.5 25.5l16 -47q-93 -56 -164.5 -91t-119.5 -35q-34 0 -55.5 31.5t-21.5 85.5q0 36 10 105.5t25 154.5t29.5 169t24.5 150t10 95q0 10 -1 15q-12 24 -45.5 32t-104.5 8h-264l-71 -612q-17 -146 -73 -278.5t-139 -236t-182 -163.5l-31 71
q67 37 116.5 126.5t81 203.5t43.5 223l77 666h-148l-18 34l111 66h66q20 161 67 294.5t174 227.5q53 39 106 66t114 27q60 0 109 -27t85.5 -56t57.5 -36zM1104 1262q0 -55 -37 -108t-103 -53q-39 0 -58.5 20.5t-19.5 54.5q0 36 17 73.5t48.5 63t75.5 25.5q38 0 57.5 -21
t19.5 -55z" />
    <glyph glyph-name="f_l" unicode="fl" horiz-adv-x="1100" 
d="M1060 85q-99 -62 -169 -94t-125 -32q-27 0 -49.5 30.5t-22.5 88.5q0 29 11 112.5t28.5 200t38 245.5t39.5 251t32 217q9 64 7 114t-18 85q-22 46 -72 72.5t-104 26.5q-66 0 -109.5 -45.5t-69 -116t-39 -147.5t-20.5 -141l-6 -47h296l20 -28q-13 -18 -38.5 -43t-51 -46
t-38.5 -28q-11 28 -64.5 36.5t-128.5 8.5h-6l-71 -612q-17 -146 -73 -278.5t-139 -236t-182 -163.5l-31 71q67 37 116.5 126.5t81 203.5t43.5 223l77 666h-148l-17 34l111 66h65q20 161 71.5 293t177.5 227q54 39 119.5 67t141.5 28q46 0 93.5 -12.5t94.5 -41.5
q35 -22 57.5 -44.5t41.5 -53.5q12 -20 10.5 -72.5t-8.5 -106.5q-12 -98 -30.5 -218t-39 -244t-38.5 -237t-29 -200.5t-11 -131.5q0 -34 9.5 -46.5t25.5 -12.5q42 0 126 33z" />
    <glyph glyph-name="f_f_i" unicode="ffi" horiz-adv-x="1708" 
d="M1691 1262q0 -57 -38 -109t-102 -52q-31 0 -54.5 18t-23.5 57q0 36 17 73.5t49 63t75 25.5q77 0 77 -76zM1666 85q-94 -56 -165.5 -91t-119.5 -35q-34 0 -55.5 31.5t-21.5 85.5q0 36 10 105.5t25 154.5t29.5 169t25 150t10.5 95q0 46 -11.5 56.5t-29.5 10.5
q-11 0 -33.5 -1t-41 -2l-18.5 -1l-14 17q56 26 115 50t105.5 40t64.5 16q27 0 40 -19t13 -65q0 -35 -10 -105t-25 -156t-30.5 -172.5t-25.5 -156t-10 -104.5q0 -59 30 -59q31 0 58 7.5t68 25.5zM933 1381q-28 -21 -65.5 -49t-70.5 -48.5t-50 -20.5q-18 0 -37 28.5t-44 57
t-62 28.5q-51 0 -85 -41.5t-55 -107t-32.5 -139t-18.5 -137.5l-88 -759q-17 -146 -73 -278.5t-139 -236t-182 -163.5l-31 71q67 37 116.5 126.5t81 203.5t43.5 223l88 755q13 109 34.5 201.5t67.5 170.5t131 141q53 39 105.5 66t114.5 27q61 0 110 -27t85 -56t56 -36z
M1561 908q-13 -18 -45.5 -51t-64.5 -61.5t-45 -35.5q-11 28 -41 36.5t-105 8.5h-1190l-18 34l112 66h1174q66 0 111.5 12.5t91.5 18.5zM1532 1401q-28 -21 -65.5 -49t-70.5 -48.5t-50 -20.5q-18 0 -37 28.5t-44 57t-62 28.5q-52 0 -87 -44.5t-57 -114t-34.5 -146
t-19.5 -140.5l-87 -747q-26 -220 -128.5 -386t-250.5 -256l-31 71q67 37 112.5 117.5t73.5 185.5t40 214l87 748q13 109 36.5 205.5t71 178t132.5 144.5q53 39 105.5 66t114.5 27q61 0 110 -27t85 -56t56 -36z" />
    <glyph glyph-name="f_f_l" unicode="ffl" horiz-adv-x="1686" 
d="M1645 85q-99 -62 -169 -94t-125 -32q-27 0 -49 30.5t-22 88.5q0 29 11 113t29 200.5t38 246t39 252t32 216.5q9 59 7.5 109.5t-16.5 83.5q-21 45 -71.5 71.5t-103.5 26.5q-66 0 -109.5 -44.5t-70 -114t-40.5 -146t-21 -140.5l-6 -47h283l23 -30q-13 -19 -39.5 -43
t-53 -44.5t-39.5 -27.5q-11 28 -59 36.5t-119 8.5h-7l-70 -600q-26 -220 -128.5 -387t-249.5 -257l-31 71q66 37 112 118t73.5 186t39.5 215l75 654h-740l-17 34l111 66h658q17 159 74 293.5t183 226.5q58 41 121.5 68t131.5 27q39 0 83.5 -8t91.5 -32q74 -37 113 -98
q13 -21 11 -72.5t-9 -105.5q-13 -98 -31.5 -219.5t-39 -247.5t-38.5 -241.5t-29.5 -204.5t-11.5 -133q0 -34 9.5 -46.5t25.5 -12.5q42 0 126 33zM934 1381q-28 -21 -65.5 -49t-71 -48.5t-49.5 -20.5q-19 0 -38 28.5t-44 57t-62 28.5q-51 0 -85 -42.5t-55 -109t-32.5 -140.5
t-18.5 -138l-87 -754q-17 -146 -73.5 -278.5t-139 -236t-181.5 -163.5l-31 71q67 37 116.5 126.5t81 203.5t43.5 223l87 755q13 109 35 201.5t67.5 170.5t130.5 141q54 39 106.5 66t113.5 27t110.5 -27t85.5 -56t56 -36z" />
    <glyph glyph-name="f_f" unicode="ff" horiz-adv-x="1183" 
d="M933 1381q-28 -21 -65.5 -49t-70.5 -48.5t-50 -20.5q-18 0 -37 28.5t-44 57t-62 28.5q-51 0 -85 -41.5t-55 -107t-32.5 -139t-18.5 -137.5l-88 -764q-18 -146 -74 -278.5t-139 -236t-181 -163.5l-31 71q66 37 115.5 126.5t81.5 203.5t44 223l88 760q13 109 35 201.5
t67.5 170.5t130.5 141q53 39 105.5 66t114.5 27q61 0 110 -27t85 -56t56 -36zM1275 875q-13 -19 -39.5 -43t-53 -44.5t-39.5 -27.5q-11 28 -44.5 36.5t-108.5 8.5h-920l-18 34l111 66h1089zM1532 1401q-28 -21 -65.5 -49t-70.5 -48.5t-50 -20.5q-19 0 -38 28.5t-44 57
t-61 28.5q-52 0 -87 -44.5t-57 -114t-35 -146t-19 -140.5l-88 -759q-27 -220 -129.5 -386t-249.5 -256l-31 71q66 37 112 117.5t74 185.5t40 214l88 760q13 109 36.5 205.5t71 178t132.5 144.5q53 39 105.5 66t114.5 27q61 0 110 -27t85 -56t56 -36z" />
    <glyph glyph-name=".notdef" horiz-adv-x="1400" 
d="M100 0v1800h1200v-1800h-1200zM150 1750v-1700h1100v1700h-1100z" />
    <glyph glyph-name=".null" 
 />
    <glyph glyph-name="nonmarkingreturn" horiz-adv-x="1024" 
 />
    <glyph glyph-name="space" unicode=" " horiz-adv-x="410" 
 />
    <glyph glyph-name="exclam" unicode="!" horiz-adv-x="433" 
d="M467 1409l-200 -1012q-40 -28 -84 -42l-24 21l75 958q22 15 57.5 35.5t72.5 39.5t65 27zM306 157q0 -42 -19.5 -85.5t-55.5 -73t-86 -29.5q-47 0 -71.5 28.5t-24.5 75.5q0 40 21 82.5t57.5 71.5t83.5 29q44 0 69.5 -28t25.5 -71z" />
    <glyph glyph-name="quotedbl" unicode="&#x22;" horiz-adv-x="824" 
d="M783 1407l-127 -539q-16 -9 -39 -13t-45 -4l21 521q15 9 46 21t61.5 23t43.5 14zM442 1407l-128 -539q-16 -9 -39 -13t-45 -4l21 521q15 9 46 21t61.5 23t43.5 14z" />
    <glyph glyph-name="numbersign" unicode="#" horiz-adv-x="859" 
d="M955 941q-8 -22 -23 -52.5t-24 -47.5h-701l-19 24q8 22 22 51.5t25 49.5h700zM909 1270l-417 -1100q-18 -13 -45.5 -23.5t-53.5 -19.5l-21 20l417 1104q21 16 48.5 24t48.5 17zM625 1270l-416 -1100q-19 -13 -46.5 -23.5t-52.5 -19.5l-23 20l419 1104q21 16 48 24t49 17z
M817 568q-8 -19 -22 -50t-23 -48h-703l-18 25q8 20 22 50t25 50h700z" />
    <glyph glyph-name="dollar" unicode="$" horiz-adv-x="859" 
d="M587 1349l-209 -1484q-30 -25 -71 -35l-23 23l210 1485q26 16 34 21.5t34 14.5zM831 1144q6 -4 -5 -27t-30 -52t-37.5 -52.5t-27.5 -28.5l-38 6q-28 54 -82 95t-124 41q-98 0 -158 -56.5t-60 -119.5q0 -47 39 -95t166 -108q154 -74 227 -145t73 -184q0 -119 -65 -221.5
t-177 -165t-255 -62.5q-39 0 -89 13t-96 34.5t-75.5 47.5t-29.5 52q0 17 20 55t46.5 70.5t45.5 32.5q12 0 30 -27t46 -61.5t70.5 -61t105.5 -26.5q115 0 194 69.5t79 175.5q0 78 -59.5 136.5t-204.5 124.5q-126 57 -180 127.5t-54 151.5q0 84 52.5 164t152.5 132t241 52
q76 0 143.5 -26.5t115.5 -60.5z" />
    <glyph glyph-name="percent" unicode="%" horiz-adv-x="1339" 
d="M659 973q0 -69 -23.5 -142t-68 -135.5t-107.5 -100.5t-142 -38q-100 0 -158.5 77.5t-58.5 187.5q0 69 24 141.5t69 134.5t108 100t142 38q98 0 156.5 -74.5t58.5 -188.5zM1241 1205l-981 -1192q-21 -13 -66 -26t-70 -21l-19 34l980 1192q25 14 65.5 26t66.5 19zM1244 385
q0 -70 -24 -142.5t-68.5 -135t-107.5 -100.5t-141 -38q-100 0 -159 77.5t-59 188.5q0 69 24 141.5t69 134t108 99.5t142 38q99 0 157.5 -74.5t58.5 -188.5zM506 985q0 89 -28.5 130t-70.5 41q-45 0 -75 -41t-46.5 -101t-23 -120t-6.5 -97q0 -82 27 -121t72 -39q41 0 70 37.5
t47 94t26 115.5t8 101zM1089 397q0 89 -28 130.5t-68 41.5q-46 0 -75.5 -41.5t-46.5 -101.5t-23.5 -120t-6.5 -97q0 -82 26 -121t72 -39q42 0 70.5 37.5t46 94.5t25.5 115.5t8 100.5z" />
    <glyph glyph-name="ampersand" unicode="&#x26;" horiz-adv-x="1224" 
d="M1306 748q-56 -65 -107 -101q-32 17 -74 29.5t-73 13.5q14 -33 16 -69t-6 -94q-12 -86 -67.5 -183t-143.5 -182t-200.5 -139t-237.5 -54q-177 0 -274 102t-71 289q18 135 144.5 270t346.5 260q117 66 166.5 137.5t59.5 136.5q13 73 -10.5 122.5t-88.5 49.5
q-66 0 -102.5 -63.5t-47.5 -142.5q-13 -95 12 -204t76 -221t116 -217t133.5 -193t127.5 -148q66 -70 171 -44l3 -53q-85 -38 -152 -59.5t-87 -21.5q-24 0 -78 49t-122 134.5t-136.5 195.5t-123.5 234t-82 250t-12 241q15 108 70 193t134 134.5t166 49.5q82 0 128 -36
t61.5 -93.5t6.5 -123.5q-15 -102 -101.5 -198t-202.5 -170q-139 -88 -222 -160t-123.5 -141.5t-51.5 -146.5q-13 -94 17 -157.5t85 -96.5t117 -33q92 0 172 37t141.5 96t100.5 127.5t48 131.5q13 93 -25 152.5t-91 59.5l-19 30q12 13 36 32t44 27h414z" />
    <glyph glyph-name="quotesingle" unicode="'" horiz-adv-x="433" 
d="M442 1407l-128 -539q-16 -9 -39 -13t-45 -4l21 521q15 9 45.5 21t61 23t44.5 14z" />
    <glyph glyph-name="parenleft" unicode="(" horiz-adv-x="613" 
d="M719 1549q-90 -67 -172.5 -191t-144.5 -296.5t-93 -386.5q-27 -195 -18 -374.5t53 -324.5t122 -236l-45 -55q-127 71 -205 216.5t-103 338t6 404.5q31 219 111 412t198.5 336t262.5 212z" />
    <glyph glyph-name="parenright" unicode=")" horiz-adv-x="613" 
d="M515 630q-31 -220 -111.5 -409t-198.5 -328t-262 -208l-30 55q136 101 251 320t161 540q27 194 18 377t-53 332t-122 240l45 55q127 -71 204.5 -220.5t102.5 -345.5t-5 -408z" />
    <glyph glyph-name="asterisk" unicode="*" horiz-adv-x="730" 
d="M283 709l-32 23l88 337l-256 -192q-19 13 -48.5 38.5t-40.5 41.5l10 47l310 129l-255 118q6 24 15.5 68t18.5 64l42 22l219 -207l5 310q21 11 60.5 29.5t61.5 23.5l34 -26l-90 -336l256 192q17 -14 47.5 -39t40.5 -41l-7 -46l-311 -130l253 -118q-5 -24 -14.5 -67.5
t-18.5 -65.5l-42 -22l-220 208l-4 -309q-22 -13 -62 -30.5t-60 -21.5z" />
    <glyph glyph-name="plus" unicode="+" horiz-adv-x="786" 
d="M516 879l-88 -623q-20 -9 -52.5 -19.5t-54.5 -14.5l-24 26l87 625q19 6 53 16.5t54 15.5zM736 599q-6 -20 -20.5 -51t-24.5 -47h-601l-21 26q7 21 21 50t26 49h600z" />
    <glyph glyph-name="comma" unicode="," horiz-adv-x="433" 
d="M327 107q0 -46 -27 -107t-71.5 -124.5t-97.5 -117.5t-105 -85l-42 40q153 162 153 280q0 36 -24.5 66t-84.5 22l-8 56q17 16 65.5 40.5t99.5 43.5t75 18q35 -19 51 -44.5t16 -87.5z" />
    <glyph glyph-name="hyphen" unicode="-" horiz-adv-x="654" 
d="M598 544q-9 -22 -23 -49.5t-23 -44.5h-493l-21 27q8 21 22 47.5t26 45.5h490z" />
    <glyph glyph-name="period" unicode="." horiz-adv-x="433" 
d="M306 157q0 -42 -19.5 -85.5t-55.5 -73t-86 -29.5q-47 0 -71.5 28.5t-24.5 75.5q0 40 21 82.5t57.5 71.5t83.5 29q44 0 69.5 -28t25.5 -71z" />
    <glyph glyph-name="slash" unicode="/" horiz-adv-x="842" 
d="M962 1575l-899 -1855q-21 -13 -69.5 -30.5t-72.5 -25.5l-32 28l902 1853q27 17 67.5 32t69.5 22z" />
    <glyph glyph-name="zero" unicode="0" horiz-adv-x="859" 
d="M842 784q0 -129 -28 -274t-104 -274q-66 -111 -156.5 -189t-212.5 -78q-96 0 -160.5 60.5t-97.5 163.5t-33 229q0 130 28 268t98 271q63 115 156 194.5t218 79.5q140 0 216 -126t76 -325zM660 794q0 163 -47.5 242t-113.5 79t-113 -52.5t-77 -136t-47.5 -178t-24 -181
t-6.5 -142.5q0 -167 43 -250.5t121 -83.5q64 0 110 51.5t76 134t47 178t24.5 185.5t7.5 154z" />
    <glyph glyph-name="one" unicode="1" horiz-adv-x="859" 
d="M710 63l-9 -63h-636l8 63q146 19 201 44t58 46l105 777q6 40 6.5 62.5t-8.5 35.5t-62 13.5t-175 -27.5l-14 61q39 11 97 32t121 46.5t118 49.5t89 42l30 -37l-143 -1055q-3 -19 38.5 -45t175.5 -45z" />
    <glyph glyph-name="two" unicode="2" horiz-adv-x="859" 
d="M818 1011q0 -62 -28 -136.5t-97 -174.5t-190.5 -238t-307.5 -328h370q30 0 52.5 28.5t37 66.5t22 66.5l7.5 28.5l53 -14l-55 -310h-670l-14 74q241 242 382 412.5t202 288.5t61 202q0 72 -41 114.5t-117 42.5q-49 0 -84 -31.5t-55.5 -79t-23.5 -94.5q-33 -19 -72 -34
t-80 -20l-22 43q7 51 44 106.5t95 103.5t129 77.5t146 29.5q103 0 179.5 -52.5t76.5 -171.5z" />
    <glyph glyph-name="three" unicode="3" horiz-adv-x="859" 
d="M768 1001q0 -109 -66 -185.5t-163 -117.5q95 -12 150 -91t55 -179q0 -125 -57.5 -229.5t-159.5 -167t-237 -62.5q-70 0 -147 38t-150 117l44 77q76 -68 132 -92t125 -24q86 0 146.5 43t92.5 115t32 158q0 112 -59 163.5t-131 51.5q-24 0 -30.5 -1t-33.5 -6l-6 70
q121 33 205 101.5t84 196.5q0 63 -31.5 110t-102.5 47q-65 0 -104.5 -48.5t-37.5 -117.5q-35 -19 -76.5 -32.5t-81.5 -16.5l-22 41q8 56 63.5 120t139 109.5t175.5 45.5q134 0 193 -71.5t59 -162.5z" />
    <glyph glyph-name="four" unicode="4" horiz-adv-x="859" 
d="M795 432q-25 -31 -47 -50.5t-44 -36.5h-62l-31 -231q-3 -15 21 -28.5t97 -32.5l-7 -53h-472l7 53q120 22 159 38.5t42 33.5l28 220h-441l-29 36l552 791q44 17 87 37t75 36l29 -37l-101 -745h115zM581 1020l-396 -558h319z" />
    <glyph glyph-name="five" unicode="5" horiz-adv-x="859" 
d="M836 1192q-24 -33 -62.5 -73.5t-61.5 -58.5h-364q-8 -39 -24 -100t-32 -118.5t-25 -87.5q82 31 189 31q99 0 166 -44t101.5 -114.5t34.5 -149.5q0 -90 -29 -179.5t-85.5 -164t-138.5 -119.5t-187 -45q-85 0 -166.5 37.5t-151.5 116.5l46 74q90 -70 151 -92.5t115 -22.5
q91 0 151 52.5t89.5 134.5t29.5 170q0 98 -53.5 161t-149.5 63q-59 0 -113 -21.5t-108 -61.5l-38 33q16 54 38.5 132.5t45.5 164.5t42.5 163.5t29.5 130.5h425q50 0 80 9.5l30 9.5z" />
    <glyph glyph-name="six" unicode="6" horiz-adv-x="859" 
d="M824 1180q-151 -31 -261 -108.5t-181 -188t-105.5 -241.5t-34.5 -269q0 -149 50.5 -219t133.5 -70q56 0 94.5 35t61 89t32.5 113.5t10 108.5q0 90 -24.5 138.5t-61 67t-73.5 18.5q-63 0 -128 -42.5t-133 -134.5l2 106q85 106 169.5 149t152.5 43q129 0 198.5 -79
t69.5 -213q0 -81 -29 -170.5t-84 -167.5t-132.5 -127t-174.5 -49q-89 0 -160 49t-111.5 137t-40.5 205q0 162 51 311.5t148 271.5t236.5 202.5t315.5 103.5z" />
    <glyph glyph-name="seven" unicode="7" horiz-adv-x="859" 
d="M901 1167q-85 -161 -169.5 -325.5t-159.5 -316.5t-134.5 -275.5t-93.5 -203.5q-35 -25 -83 -44.5t-93 -32.5l-35 36q132 204 233.5 380.5t188.5 341t178 334.5h-414q-17 0 -37 -6t-46 -38t-63 -109l-44 20q8 31 22.5 85t30 108t26.5 83h668z" />
    <glyph glyph-name="eight" unicode="8" horiz-adv-x="859" 
d="M817 1001q0 -80 -41.5 -141.5t-103.5 -108.5t-124 -85l-69 43q71 46 121.5 108.5t50.5 157.5q0 77 -43 118t-116 41q-74 0 -123 -60.5t-49 -133.5q0 -56 33 -94.5t85.5 -69t111 -62t111 -72t86 -99.5t33.5 -146q0 -113 -62.5 -211t-163.5 -157.5t-218 -59.5
q-102 0 -169 39.5t-100.5 103.5t-33.5 138q0 93 46 169t117.5 134t149.5 98l71 -37q-94 -67 -150 -144t-56 -196q0 -85 48.5 -140.5t128.5 -55.5q68 0 115.5 39.5t72 100.5t24.5 124q0 75 -31.5 124t-81 83t-105 63t-105 63.5t-81 85t-31.5 128.5q0 98 54.5 176.5t142.5 124
t189 45.5q135 0 200.5 -66t65.5 -168z" />
    <glyph glyph-name="nine" unicode="9" horiz-adv-x="859" 
d="M838 862q0 -171 -49.5 -324.5t-145.5 -276t-236.5 -202t-324.5 -102.5l-9 69q209 49 337.5 161.5t187 279t59.5 374.5q0 158 -49 220t-109 62q-64 0 -107.5 -34t-69.5 -87.5t-37 -114.5t-11 -117q0 -83 26 -128.5t63 -63.5t71 -18q90 0 155.5 62t111.5 147l-2 -115
q-56 -89 -141 -153t-187 -64q-128 0 -198 83.5t-70 204.5q0 86 33.5 175.5t94 165.5t141.5 122.5t177 46.5q121 0 205 -91t84 -282z" />
    <glyph glyph-name="colon" unicode=":" horiz-adv-x="433" 
d="M243 677q-48 0 -72 28.5t-24 74.5q0 39 20.5 81.5t57.5 71.5t84 29q44 0 69 -27.5t25 -71.5q0 -42 -19 -85t-55 -72t-86 -29zM145 -31q-47 0 -71.5 28.5t-24.5 75.5q0 40 21 82.5t57.5 71.5t83.5 29q44 0 69.5 -28t25.5 -71q0 -42 -19.5 -85.5t-55.5 -73t-86 -29.5z" />
    <glyph glyph-name="semicolon" unicode=";" horiz-adv-x="433" 
d="M26 -327l-42 40q153 162 153 280q0 36 -24.5 66t-84.5 22l-8 56q17 16 65.5 40.5t99.5 43.5t75 18q35 -19 51 -44.5t16 -87.5q0 -46 -27 -107t-71.5 -124.5t-97.5 -117.5t-105 -85zM244 676q-48 0 -72 28.5t-24 75.5q0 39 20.5 81t57 71.5t83.5 29.5q45 0 70 -27.5
t25 -72.5q0 -41 -19 -84t-55 -72.5t-86 -29.5z" />
    <glyph glyph-name="less" unicode="&#x3c;" horiz-adv-x="855" 
d="M649 251l-574 247l-22 31q6 23 19.5 54t22.5 49l704 274l22 -27q-9 -20 -21 -56.5t-21 -54.5l-528 -203l476 -204l13 -39q-23 -20 -41.5 -36t-49.5 -35z" />
    <glyph glyph-name="equal" unicode="=" horiz-adv-x="855" 
d="M776 449q-7 -21 -21.5 -51.5t-23.5 -47.5h-663l-20 27q7 20 21 49.5t25 48.5h662zM816 749q-6 -21 -21 -51.5t-24 -47.5h-662l-21 27q7 20 21.5 49.5t24.5 48.5h662z" />
    <glyph glyph-name="greater" unicode="&#x3e;" horiz-adv-x="855" 
d="M774 659l23 -31q-8 -23 -20 -53t-23 -50l-704 -274l-21 28q8 19 20 55.5t21 55.5l528 202l-476 204l-13 39q23 20 41.5 36t49.5 35z" />
    <glyph glyph-name="question" unicode="?" horiz-adv-x="835" 
d="M837 1186q0 -104 -36.5 -179.5t-91 -135t-111.5 -115t-100.5 -119t-55.5 -147.5l-12 -93q-18 -14 -38.5 -25t-45.5 -19l-23 21l5 119q2 78 35 143t80 123t93.5 115t78.5 119t32 135q0 93 -40.5 147.5t-118.5 54.5q-77 0 -115.5 -69.5t-19.5 -164.5q-43 -21 -86.5 -31.5
t-86.5 -15.5l-23 34q0 85 52 164.5t146 131t221 51.5q131 0 196 -71.5t65 -172.5zM467 157q0 -42 -19.5 -85.5t-55.5 -73t-86 -29.5q-46 0 -71 28.5t-25 75.5q0 40 20.5 82.5t57 71.5t83.5 29q46 0 71 -28t25 -71z" />
    <glyph glyph-name="at" unicode="@" horiz-adv-x="1627" 
d="M1541 549q-18 -130 -75 -238t-133 -187t-153.5 -122t-136.5 -43q-24 0 -50 25t-44 94.5t-18 202.5q0 29 9 96.5t22.5 147.5t25.5 148t18 97q6 31 41 61t83 57t93 48l24 -45q-34 -28 -48.5 -50.5t-27.5 -90.5q-21 -95 -36 -191t-23.5 -169.5t-8.5 -102.5q0 -101 18 -135.5
t42 -34.5q34 0 81 51t89 140t59 202q25 169 -3.5 298.5t-97 217.5t-165 133t-207.5 45q-134 0 -247 -58t-200 -157t-143 -224.5t-75 -260.5q-26 -181 9.5 -320.5t117 -234.5t195 -143.5t244.5 -48.5q102 0 200.5 31t177.5 73.5t121 76.5l21 -67q-51 -51 -138 -108
t-201.5 -97.5t-249.5 -40.5q-168 0 -304 59t-228.5 169t-130.5 265t-11 347q23 169 102.5 324.5t201.5 278t275 194t325 71.5q180 0 320 -92t208 -267t32 -425zM1186 843q-29 -19 -44.5 -55t-27 -65t-27.5 -29q-19 0 -51 31t-74.5 62.5t-94.5 31.5q-65 0 -116 -45.5
t-85.5 -115.5t-52 -145t-17.5 -134q0 -123 36.5 -193t84.5 -70q31 0 73 47.5t87 121.5t86 155l-23 -183q-33 -61 -81 -130.5t-103 -118.5t-109 -49q-45 0 -96 34.5t-86.5 110.5t-35.5 201q0 158 67 299t208 238q54 37 129.5 65.5t138.5 28.5q45 0 84.5 -22t72.5 -45t57 -26z
" />
    <glyph glyph-name="A" unicode="A" horiz-adv-x="1163" 
d="M415 540h317l-92 520zM751 439h-380l-138 -318q-13 -31 16.5 -44.5t105.5 -23.5l-7 -53h-388l7 53q64 12 101 25.5t50 42.5l481 1100q34 29 82.5 55t82.5 41l219 -1196q5 -27 25.5 -43t83.5 -25l-6 -53h-410l6 53q71 5 101 20.5t24 47.5z" />
    <glyph glyph-name="B" unicode="B" horiz-adv-x="1039" 
d="M964 410q0 -130 -67.5 -229.5t-179.5 -155.5t-246 -56q-43 0 -119.5 5.5t-156.5 13t-134 12.5l246 108q35 -26 91 -35.5t104 -9.5q85 0 147 44.5t95.5 115.5t33.5 152q0 67 -24.5 128.5t-79 101t-146.5 39.5q-60 0 -105 -6t-83 -16l3 108h91q86 0 163.5 22t126 78
t48.5 157q0 79 -34.5 125.5t-85 66.5t-96.5 20q-107 0 -181.5 -5.5t-130 -15t-105.5 -20.5v69q92 26 201.5 44.5t247.5 18.5q176 0 273 -66.5t97 -183.5q0 -104 -63.5 -190.5t-167.5 -126.5q105 -21 171 -107.5t66 -205.5zM474 1255l-157 -1141q-1 -12 29.5 -29.5
t93.5 -31.5l-6 -53h-436l6 53q63 14 100 30.5t38 30.5l157 1141h175z" />
    <glyph glyph-name="C" unicode="C" horiz-adv-x="1010" 
d="M1036 1190q6 -5 -15.5 -38.5t-50.5 -70t-46 -51.5l-40 10q-36 51 -93 87.5t-139 36.5q-39 0 -85 -16.5t-86 -47.5q-63 -49 -107 -122t-70.5 -156t-39 -163t-12.5 -143q0 -145 49 -235t119.5 -131t137.5 -41q54 0 133 32.5t195 122.5q7 -7 17.5 -24.5t13.5 -28.5
q-135 -136 -247 -187t-205 -51q-106 0 -195.5 57t-144 166t-54.5 263q0 126 34 255.5t105.5 246.5t184.5 206q72 57 162 90t184 33q98 0 174.5 -29.5t120.5 -70.5z" />
    <glyph glyph-name="D" unicode="D" horiz-adv-x="1148" 
d="M1112 748q0 -132 -41 -264.5t-120.5 -242t-195 -175.5t-264.5 -66h-493l7 53q63 14 100 31t38 30l147 1068l-149 -18v73q114 27 233 40t222 13q252 0 384 -147.5t132 -394.5zM527 1199q-15 0 -30 -1t-30 -1l-143 -1050q-4 -30 25.5 -42.5t120.5 -12.5q108 0 192 58.5
t141.5 153.5t87 206.5t29.5 216.5q0 214 -98.5 343t-294.5 129z" />
    <glyph glyph-name="E" unicode="E" horiz-adv-x="967" 
d="M962 1233q-6 -34 -18.5 -81.5t-26.5 -91.5t-25 -70h-52q9 92 -4.5 130.5t-48.5 38.5h-373l40 101h481zM797 705q-19 -28 -48.5 -63t-51.5 -52q-30 33 -74 44t-148 11h-142l32 90h410zM886 264q-20 -86 -41.5 -160.5t-32.5 -103.5h-814l7 53q63 14 100.5 31t38.5 30
l143 1031q1 12 -29 30t-94 32l7 53h438l-7 -53q-64 -7 -101 -16.5t-40 -24.5l-136 -1002q-3 -20 8.5 -34.5t50.5 -22t120 -7.5h111q56 0 91.5 13.5t65.5 53.5t67 118z" />
    <glyph glyph-name="F" unicode="F" horiz-adv-x="912" 
d="M970 1233q-6 -34 -18.5 -81.5t-26 -91.5t-24.5 -70h-51q8 92 -5.5 130.5t-49.5 38.5h-381l40 101h490zM754 705q-22 -30 -50.5 -64t-49.5 -51q-31 33 -74 44t-112 11h-170l61 90h370zM609 1260l-7 -53q-64 -7 -101.5 -17t-39.5 -24l-144 -1052q-1 -12 31.5 -27t119.5 -34
l-7 -53h-463l7 53q63 14 100.5 31t38.5 30l143 1031q1 12 -29 30t-94 32l7 53h438z" />
    <glyph glyph-name="G" unicode="G" horiz-adv-x="1089" 
d="M1084 595l-6 -53q-54 -16 -79 -38t-28 -44q-5 -36 -13 -97.5t-15.5 -119.5t-10.5 -84q-101 -81 -176 -121.5t-133.5 -54.5t-112.5 -14q-115 0 -215 60.5t-162 174.5t-62 274q0 127 38 252t106.5 231.5t158.5 179.5q84 68 189 108.5t233 40.5q63 0 145.5 -26.5
t133.5 -75.5q8 -7 -13.5 -40t-52 -68t-48.5 -50l-38 8q-47 67 -109.5 99t-156.5 32q-40 0 -93 -25.5t-105 -70.5q-63 -53 -110 -147.5t-73 -203t-26 -201.5q0 -142 52 -233.5t130 -135.5t156 -44q47 0 94.5 14t83.5 39l40 299q2 14 -10 26.5t-58 26t-146 29.5l6 53h486z" />
    <glyph glyph-name="H" unicode="H" horiz-adv-x="1259" 
d="M1312 1260l-7 -53q-64 -14 -101 -31t-39 -31l-143 -1031q-1 -12 29 -29.5t95 -31.5l-8 -53h-435l8 53q63 14 99.5 31t38.5 30l142 1031q1 12 -28.5 30t-93.5 32l6 53h437zM948 710l-13 -101h-577l15 101h575zM606 1260l-7 -53q-134 -30 -140 -62l-141 -1031
q-2 -12 28 -29.5t94 -31.5l-7 -53h-436l8 53q63 14 100 31t39 30l143 1031q1 12 -29 30t-94 32l7 53h435z" />
    <glyph glyph-name="I" unicode="I" horiz-adv-x="593" 
d="M626 1260l-7 -53q-63 -14 -100 -31t-39 -31l-143 -1031q-1 -12 28.5 -29.5t94.5 -31.5l-7 -53h-435l8 53q63 14 99.5 30.5t39.5 30.5l140 1031q2 12 -28 30t-93 32l8 53h434z" />
    <glyph glyph-name="J" unicode="J" horiz-adv-x="598" 
d="M652 1260l-8 -53q-63 -14 -100.5 -31t-39.5 -31l-129 -940q-21 -155 -62.5 -248t-93.5 -148.5t-106 -97.5t-126.5 -69.5t-116.5 -27.5q-41 0 -77.5 16t-59 36t-22.5 33q0 14 28 42.5t61 53t50 24.5q13 0 30.5 -16.5t44.5 -33.5t68 -17q31 0 69.5 30t73.5 112.5t56 238.5
l139 1012q2 12 -29.5 28.5t-138.5 33.5l6 53h483z" />
    <glyph glyph-name="K" unicode="K" horiz-adv-x="1136" 
d="M1188 1260l-7 -53q-62 -8 -95 -19t-65 -43l-508 -502h-130l451 475q50 53 36 67.5t-83 21.5l7 53h394zM1114 116q-72 -56 -150.5 -93t-118.5 -37q-30 0 -50 12t-43 48l-369 597l126 78l385 -549q28 -40 72.5 -41t126.5 33zM607 1260l-8 -53q-134 -30 -140 -62l-140 -1031
q-3 -12 27 -29.5t94 -31.5l-7 -53h-435l7 53q63 14 100.5 31t38.5 30l143 1031q1 12 -29 30t-94 32l7 53h436z" />
    <glyph glyph-name="L" unicode="L" horiz-adv-x="943" 
d="M878 264q-20 -86 -42 -160.5t-34 -103.5h-804l7 53q63 14 100.5 31t38.5 30l143 1031q1 12 -29 30t-94 32l7 53h436l-8 -53q-134 -30 -140 -62l-134 -978q-4 -36 29 -51.5t133 -15.5h120q56 0 91.5 13.5t65 53.5t67.5 118z" />
    <glyph glyph-name="M" unicode="M" horiz-adv-x="1543" 
d="M1441 53l-7 -53h-434l7 53q63 14 103.5 31t42.5 30l120 1033l166 57l-126 -1090q-2 -12 30.5 -29.5t97.5 -31.5zM1571 1260l-6 -53q-41 0 -102 -22t-115.5 -58.5t-76.5 -79.5l-547 -1047h-2q-6 126 -2 178t21 84l480 914q29 54 42 69t30 15h278zM773 264
q8 -31 -2.5 -84.5t-48.5 -179.5h-54l-282 1054q-16 60 -52 93.5t-78 46.5t-75 13l7 53h284q17 0 25 -15.5t23 -68.5zM425 1211l-160 -1097q-1 -12 28 -29.5t94 -31.5l-7 -53h-375l7 53q133 28 138 61l157 1072z" />
    <glyph glyph-name="N" unicode="N" horiz-adv-x="1248" 
d="M1313 1260l-7 -53q-67 -10 -100 -27.5t-35 -34.5l-163 -1176q-57 7 -91.5 25t-57.5 63l-481 920l-118 -863q-1 -13 25.5 -31.5t94.5 -29.5l-7 -53h-374l8 53q68 9 101 28.5t35 32.5l142 1027q-25 30 -56 44.5t-71 21.5l7 53h204q39 0 51.5 -11.5t41.5 -66.5l474 -900
l118 863q2 12 -24 31.5t-97 30.5l7 53h373z" />
    <glyph glyph-name="O" unicode="O" horiz-adv-x="1135" 
d="M1109 774q0 -141 -49 -288t-139 -261q-85 -107 -195.5 -181.5t-244.5 -74.5q-130 0 -218.5 70.5t-133 188t-44.5 257.5q0 134 45 279.5t126 253.5q84 112 198 192t261 80q135 0 222 -70.5t129.5 -187.5t42.5 -258zM930 756q0 113 -31 205t-90 147t-144 55
q-107 0 -182.5 -62t-123 -159t-70 -206t-22.5 -204q0 -124 32.5 -221t91.5 -152.5t140 -55.5q109 0 185 64.5t123.5 166.5t69 214.5t21.5 207.5z" />
    <glyph glyph-name="P" unicode="P" horiz-adv-x="998" 
d="M1013 942q0 -113 -59 -207t-158 -149.5t-218 -55.5q-82 0 -143 34l-13 84q34 -14 65.5 -23.5t64.5 -9.5q128 0 206 80t78 210q0 112 -45 176t-118.5 91t-158.5 27q-89 0 -177.5 -9t-197.5 -35v70q88 30 196 47.5t237 17.5q205 0 323 -88t118 -260zM475 1250l-156 -1136
q-1 -12 28 -28t123 -33l-7 -53h-465l7 53q63 14 99.5 30.5t38.5 30.5l156 1136h176z" />
    <glyph glyph-name="Q" unicode="Q" horiz-adv-x="1157" 
d="M1109 774q0 -141 -48.5 -288t-139.5 -261q-85 -107 -195.5 -181.5t-244.5 -74.5q-130 0 -218.5 70.5t-133 188t-44.5 257.5q0 134 45.5 279t125.5 254q83 112 197.5 192t261.5 80q135 0 222 -70.5t129.5 -187.5t42.5 -258zM1154 -119q-57 -87 -113.5 -137t-85.5 -50
q-73 0 -139 44.5t-129.5 105t-129 112t-137.5 64.5l23.5 5.5t56.5 12.5t62 10.5t40 0.5q55 -15 105 -47.5t96.5 -67.5t91.5 -59.5t89 -24.5q23 0 52.5 15.5t90.5 60.5zM930 756q0 113 -31 205t-90 147t-144 55q-107 0 -182.5 -62t-123 -159t-70 -206t-22.5 -204
q0 -124 32.5 -221t91.5 -152.5t140 -55.5q109 0 185 64.5t123.5 166.5t69 214.5t21.5 207.5z" />
    <glyph glyph-name="R" unicode="R" horiz-adv-x="1100" 
d="M983 971q0 -49 -25.5 -114.5t-80 -127.5t-140.5 -102.5t-207 -40.5q-35 0 -80.5 5t-77.5 15l11 86q61 -20 122 -20q79 0 148 30.5t112 90.5t43 149q0 99 -44 154.5t-108 79t-126 23.5q-204 0 -392 -42l1 70q90 26 195.5 44.5t242.5 18.5q187 0 296.5 -82t109.5 -237z
M1105 112q-78 -53 -156 -89.5t-105 -36.5q-34 0 -64.5 24t-67.5 107l-222 495l143 21l248 -439q23 -40 45 -55t58 -8.5t100 29.5zM475 1253l-156 -1139q-3 -12 28.5 -29.5t94.5 -31.5l-7 -53h-437l7 53q63 14 100 31t38 30l156 1139h176z" />
    <glyph glyph-name="S" unicode="S" horiz-adv-x="924" 
d="M902 1198q6 -5 -5 -27.5t-30.5 -51t-39 -51.5t-29.5 -29l-39 6q-31 59 -82.5 97.5t-111.5 38.5q-107 0 -162 -60t-55 -126q0 -29 15 -61.5t59 -70t132 -83.5q158 -82 225 -156t67 -186q0 -125 -68 -232t-181.5 -172t-250.5 -65q-43 0 -95.5 13t-100.5 34.5t-79 47.5
t-31 54q0 17 22 54.5t50 69.5t47 32q13 0 32.5 -26t48.5 -60.5t71.5 -60.5t103.5 -26q113 0 191.5 71t78.5 181q0 83 -56.5 146.5t-208.5 136.5q-132 63 -176.5 138.5t-44.5 153.5q0 88 55 171t154 137t234 54q79 0 146 -27t114 -65z" />
    <glyph glyph-name="T" unicode="T" horiz-adv-x="1081" 
d="M1143 1233q-8 -49 -26.5 -125t-35.5 -129h-51q-5 99 -14.5 139.5t-50.5 40.5h-278l25 101h407zM573 1159h-286q-18 0 -34.5 -13.5t-39.5 -53.5t-60 -118l-46 21q5 36 16.5 85t25 98t25.5 82h406zM716 53l-7 -53h-471l7 53q86 19 120.5 38t36.5 34l145 1041q3 28 -123 41
l7 53h435l-7 -53q-64 -7 -101 -17t-39 -24l-142 -1041q-1 -13 28 -33t111 -39z" />
    <glyph glyph-name="U" unicode="U" horiz-adv-x="1241" 
d="M1302 1260l-7 -53q-127 -29 -132 -62l-89 -633q-37 -262 -173.5 -402.5t-334.5 -140.5q-110 0 -196.5 44t-137 128.5t-50.5 206.5q0 54 9 115l97 682q2 12 -28 30t-94 32l7 53h434l-8 -53q-63 -14 -100 -31t-39 -31l-88 -635q-4 -29 -5.5 -58t-1.5 -55q0 -139 65.5 -220
t193.5 -81q87 0 152 52t105.5 137t54.5 184l92 676q1 12 -25.5 30t-91.5 32l7 53h384z" />
    <glyph glyph-name="V" unicode="V" horiz-adv-x="1225" 
d="M1321 1260l-8 -53q-64 -13 -101.5 -25.5t-50.5 -40.5l-497 -1074q-13 -30 -44.5 -49.5t-66 -31t-55.5 -17.5l-248 1172q-5 26 -31.5 42t-84.5 24l7 53h423l-7 -53q-72 -5 -101 -20t-22 -45l188 -917l423 916q14 29 -15.5 42.5t-101.5 23.5l7 53h386z" />
    <glyph glyph-name="W" unicode="W" horiz-adv-x="1579" 
d="M1682 1260l-6 -53q-65 -15 -104.5 -27t-46.5 -35l-359 -1086q-10 -29 -37.5 -47.5t-57 -28.5t-46.5 -14l-174 954l-382 -864q-13 -30 -42 -48t-60 -27.5t-49 -14.5l-77 1168q-1 25 -27 41t-90 29l7 53h412l-7 -53q-89 -10 -112 -29t-21 -41l58 -839l422 962h68l183 -962
l278 847q8 23 -31 37t-100 25l7 53h394z" />
    <glyph glyph-name="X" unicode="X" horiz-adv-x="1185" 
d="M1216 1260l-8 -53q-66 -8 -107 -24.5t-72 -59.5l-344 -483l-45 122l255 361q33 46 6 61.5t-107 22.5l8 53h414zM1104 53l-8 -53h-438l7 53q81 9 104.5 26.5t3.5 57.5l-487 986q-24 44 -49.5 59t-85.5 25l7 53h441l-7 -53q-79 -8 -105.5 -24t-4.5 -60l489 -986
q21 -43 50.5 -59.5t82.5 -24.5zM591 553l-296 -416q-32 -44 -7.5 -61t107.5 -23l-7 -53h-413l7 53q60 5 105 24t74 60l380 538z" />
    <glyph glyph-name="Y" unicode="Y" horiz-adv-x="1153" 
d="M1223 1260l-7 -53q-64 -13 -98.5 -26.5t-50.5 -39.5l-418 -654h-128q-16 75 -45.5 166t-66 183t-75.5 173t-74 135q-19 28 -46.5 37t-99.5 2l-5 53q36 8 82.5 17t89 15.5t68.5 6.5q36 0 62 -42q31 -50 66 -121.5t68 -150.5t59 -153.5t40 -129.5l299 463q16 27 -6 41.5
t-90 24.5l7 53h369zM763 53l-7 -53h-472l8 53q86 19 121 38.5t37 33.5l70 512h174l-70 -512q-2 -13 27 -33t112 -39z" />
    <glyph glyph-name="Z" unicode="Z" horiz-adv-x="1036" 
d="M1043 1212l-775 -1102h464q40 0 74.5 49t86.5 178l58 -16q-8 -44 -18.5 -104.5t-20.5 -119t-16 -97.5h-849l-21 48l783 1107h-403q-29 0 -76.5 -52.5t-82.5 -161.5l-61 14l76 329q48 -18 84 -21t89 -3h588z" />
    <glyph glyph-name="bracketleft" unicode="[" horiz-adv-x="653" 
d="M773 1571q-6 -25 -20.5 -53.5t-21.5 -40.5h-262l-236 -1688h256l32 -31q-6 -20 -19 -48.5t-23 -45.5h-420l272 1935h412z" />
    <glyph glyph-name="backslash" unicode="\" horiz-adv-x="832" 
d="M697 -308l-37 -28q-15 5 -41.5 15t-51.5 21t-35 20l-389 1855l39 24q28 -7 66 -22t63 -32z" />
    <glyph glyph-name="bracketright" unicode="]" horiz-adv-x="637" 
d="M633 1599l-270 -1935h-413l-31 32q7 23 20 51.5t21 41.5h262l237 1688h-254l-31 29q6 21 18.5 49t21.5 44h419z" />
    <glyph glyph-name="asciicircum" unicode="^" horiz-adv-x="938" 
d="M854 635q-49 -41 -111 -70l-30 27l-160 723l-330 -680q-22 -20 -56 -40t-54 -30l-19 27l422 870q26 23 67.5 49t69.5 39z" />
    <glyph glyph-name="underscore" unicode="_" horiz-adv-x="744" 
d="M710 -158q-6 -21 -20 -50t-24 -48h-749l-18 30q6 19 19.5 47t26.5 48h745z" />
    <glyph glyph-name="grave" unicode="`" horiz-adv-x="606" 
d="M569 1050q-39 -24 -69 -26l-263 378l35 41q16 3 48 7.5t65 8t50 3.5z" />
    <glyph glyph-name="a" unicode="a" horiz-adv-x="943" 
d="M927 81q-85 -58 -146.5 -90t-92.5 -32q-24 0 -49 25t-41.5 93t-16.5 197q0 28 9.5 97t23.5 150.5t26.5 150.5t17.5 98q6 31 40.5 61t81.5 57t92 48l24 -45q-34 -28 -48 -50.5t-27 -90.5q-21 -95 -36.5 -191t-24.5 -169.5t-9 -102.5q0 -99 13.5 -143.5t37.5 -44.5
q20 0 46 5.5t66 22.5zM835 838q-29 -20 -45.5 -54.5t-29 -62t-30.5 -27.5q-17 0 -50.5 31t-78 62.5t-96.5 31.5q-67 -1 -120.5 -46.5t-91.5 -115t-58 -144.5t-20 -134q0 -123 37.5 -193t89.5 -70q30 0 77 47.5t98.5 122t93.5 154.5l-23 -183q-36 -61 -90 -130.5
t-114.5 -118.5t-117.5 -49q-45 0 -96 34.5t-86.5 110.5t-35.5 201q0 158 75.5 299t216.5 238q54 37 127.5 65.5t142.5 28.5q47 0 89.5 -23.5t77 -47.5t58.5 -27z" />
    <glyph glyph-name="b" unicode="b" horiz-adv-x="977" 
d="M911 610q-1 -106 -35.5 -214t-107.5 -208q-68 -90 -168.5 -159.5t-226.5 -69.5q-32 0 -75 23t-83.5 61.5t-67.5 85.5t-27 96q0 35 10.5 117.5t27 193t35 231t35.5 233t27.5 199t10.5 127.5q0 46 -18 56.5t-35 10.5q-12 0 -35.5 -6.5t-43 -13.5l-19.5 -7l-14 49
q58 26 121.5 50t114.5 39.5t70 15.5q29 0 40 -18t11 -64q0 -47 -11 -138.5t-28.5 -208.5t-37.5 -241.5t-37.5 -240t-28.5 -205t-11 -133.5q0 -35 26 -73t65.5 -65t79.5 -27q65 -1 112 39t77 87q44 68 58.5 149.5t14.5 148.5q0 127 -39.5 192.5t-87.5 65.5q-25 0 -79.5 -44.5
t-118 -125.5t-116.5 -191l-16 106q76 156 158.5 243.5t155 123.5t119.5 36q85 0 142.5 -84t55.5 -242z" />
    <glyph glyph-name="c" unicode="c" horiz-adv-x="821" 
d="M844 818q-28 -23 -62.5 -50t-66 -45.5t-50.5 -18.5q-16 0 -40 28.5t-56 57.5t-73 29q-64 0 -112.5 -43.5t-81.5 -112t-50 -147t-17 -148.5q0 -129 50.5 -204t128.5 -75q42 0 116.5 32t181.5 120q8 -9 20.5 -26t16.5 -25q-104 -95 -182 -145t-138.5 -68t-112.5 -18
q-49 0 -109 32t-104 111.5t-44 219.5q0 90 25.5 184t84 180t156.5 151q56 37 136.5 68t149.5 31q59 0 101.5 -26t74 -55t57.5 -37z" />
    <glyph glyph-name="d" unicode="d" horiz-adv-x="985" 
d="M945 80q-84 -57 -146 -89t-98 -32q-38 0 -70.5 70t-32.5 258q0 30 10.5 105t26.5 176.5t34.5 213.5t35 219t27 192.5t10.5 132.5q0 46 -13.5 56.5t-31.5 10.5q-13 0 -46 -9t-59 -18l-13 49q60 28 120.5 51.5t107.5 38.5t66 15q30 0 45 -18t15 -64q0 -52 -12 -142.5
t-30.5 -203t-39 -231.5t-39 -229.5t-30.5 -196.5t-12 -131q0 -105 12 -154t36 -49q25 0 51.5 5.5t61.5 20.5zM831 806l-86 -159q-18 0 -42.5 25.5t-55.5 60t-68.5 60.5t-81.5 26q-67 0 -119 -45.5t-88.5 -115.5t-55.5 -145t-19 -134q0 -123 43 -193t96 -70q49 0 122.5 90.5
t153.5 239.5l-28 -186q-72 -125 -159 -213t-169 -88q-48 0 -100.5 37t-89 116t-36.5 203q0 158 71 295.5t213 231.5q55 36 128.5 65t139.5 29q38 0 76.5 -32.5l77 -65t77.5 -32.5z" />
    <glyph glyph-name="e" unicode="e" horiz-adv-x="825" 
d="M775 760q0 -44 -19.5 -95t-81 -108.5t-184.5 -122t-330 -134.5l-7 84q148 55 235 100t129 83t55 73t13 73q0 57 -26.5 82.5t-57.5 25.5q-16 0 -48 -13t-59 -41q-65 -63 -114.5 -167.5t-49.5 -214.5q0 -87 25 -154t63 -104.5t77 -37.5q42 0 121 29t200 126q11 -6 22 -25
t14 -26q-109 -96 -188 -146t-138 -69t-111 -19q-48 0 -108 33.5t-104.5 109t-44.5 201.5q0 157 73.5 295t203.5 241q46 36 116.5 66.5t138.5 30.5q94 0 139.5 -55.5t45.5 -120.5z" />
    <glyph glyph-name="f" unicode="f" horiz-adv-x="592" 
d="M683 875q-13 -19 -39.5 -43t-52.5 -44.5t-40 -27.5q-10 28 -43.5 36.5t-104.5 8.5h-332l-18 34l111 66h497zM941 1401q-29 -21 -66.5 -49t-70.5 -48.5t-49 -20.5q-19 0 -38 28.5t-44 57t-62 28.5q-52 0 -86.5 -44.5t-56.5 -114t-35 -146t-20 -140.5l-88 -759
q-17 -146 -73 -278.5t-139 -236t-182 -163.5l-31 71q67 37 116.5 126.5t81 203.5t43.5 223l88 760q19 163 66 298t174 230q53 39 106 66t114 27t110.5 -27t85 -56t56.5 -36z" />
    <glyph glyph-name="g" unicode="g" horiz-adv-x="928" 
d="M834 835q-29 -20 -47 -53t-32 -60t-30 -27q-19 0 -51 31t-75 62t-94 31q-67 0 -121 -45.5t-92.5 -115.5t-58.5 -145t-20 -134q0 -123 39 -193t94 -70q24 0 73 50t106.5 137.5t108.5 199.5l-18 -192q-46 -84 -105.5 -165t-123.5 -134t-123 -53q-44 0 -95.5 34.5t-88 110.5
t-36.5 201q0 158 73.5 298.5t221.5 238.5q56 37 128 65.5t143 28.5q45 0 87 -24t77.5 -49t59.5 -28zM901 891q-34 -28 -53.5 -69t-28.5 -113q-21 -158 -27 -279t-11.5 -223.5t-23.5 -205.5q-25 -138 -101 -252t-178 -181.5t-207 -67.5q-60 0 -125 20t-110.5 47.5t-45.5 51.5
q0 22 24.5 54.5t52 58t36.5 25.5q11 0 27 -19t42.5 -44t69.5 -44t110 -19q89 0 144 77.5t85 243.5q18 99 23.5 181t7.5 161t8.5 170t25.5 208q16 104 86 167t142 97z" />
    <glyph glyph-name="h" unicode="h" horiz-adv-x="1033" 
d="M995 85q-92 -54 -166.5 -90t-120.5 -36q-29 0 -51.5 31.5t-22.5 85.5q0 21 8 80t21 137t25.5 156.5t21 141t8.5 89.5q0 72 -13 98.5t-51 26.5q-17 0 -62.5 -23.5t-101 -72.5t-102.5 -127q-28 -47 -46.5 -119.5t-31.5 -161.5q-16 -110 -19.5 -167t-3.5 -96
q-17 -8 -51.5 -23.5t-68.5 -31t-50 -24.5l-36 34q12 71 31 184.5t40.5 249.5t43 276t39 266t28.5 220.5t11 136.5q0 46 -12.5 56.5t-28.5 10.5q-17 0 -55 -10.5t-58 -16.5l-13 49q56 25 117.5 49t111.5 40t70 16q27 0 44 -18t17 -64q0 -28 -8 -98.5t-21 -162.5t-27.5 -187
t-27 -174t-19.5 -123q117 135 224 189t197 54q63 0 92 -37t29 -134q0 -52 -13 -136.5t-30 -177.5t-29.5 -172.5t-12.5 -120.5q0 -34 11 -46.5t25 -12.5q27 0 55.5 8.5t64.5 24.5z" />
    <glyph glyph-name="i" unicode="i" horiz-adv-x="525" 
d="M508 1262q0 -55 -37 -108t-103 -53q-38 0 -58 20.5t-20 54.5q0 36 17 73.5t49 63t75 25.5q38 0 57.5 -21t19.5 -55zM483 85q-94 -56 -165.5 -91t-119.5 -35q-34 0 -55.5 31.5t-21.5 85.5q0 36 10 104.5t24.5 152t29 166t24.5 147.5t10 94q0 46 -11 56.5t-30 10.5
q-12 0 -42.5 -8t-55.5 -16l-15 47q56 26 116 50t108.5 40t68.5 16q28 0 40.5 -19t12.5 -65q0 -35 -10 -105t-25 -156t-30.5 -172.5t-25.5 -156t-10 -104.5q0 -59 30 -59q31 0 58 7.5t68 25.5z" />
    <glyph glyph-name="j" unicode="j" horiz-adv-x="523" 
d="M484 1262q0 -55 -38 -108t-104 -53q-38 0 -57.5 20.5t-19.5 54.5q0 36 17 73.5t48.5 63t75.5 25.5q38 0 58 -21t20 -55zM401 870q0 -16 -5 -67t-12 -115.5t-13.5 -123.5t-9.5 -91q-7 -65 -19 -172t-29 -227q-21 -138 -64.5 -231t-99.5 -155t-113 -107q-55 -43 -122.5 -62
t-110.5 -19t-87 15.5t-74 35t-30 33.5q0 17 24 50t53 60.5t42 27.5t34 -22t57 -43.5t90 -21.5q84 0 132 94.5t79 281.5q25 148 37.5 265.5t18.5 174.5q2 24 6.5 66t9 88t7.5 83t3 52q0 46 -12 56.5t-29 10.5q-13 0 -43.5 -8t-54.5 -16l-16 47q57 26 117.5 50t108.5 40t67 16
q28 0 43 -12t15 -54z" />
    <glyph glyph-name="k" unicode="k" horiz-adv-x="934" 
d="M939 866q0 -30 -84.5 -105t-234.5 -166l-207 -126l-89 35l214 161q81 61 126 99.5t45 59.5q0 27 -103 24l-5 49q66 9 129 21t126 12q51 0 67 -15.5t16 -48.5zM465 1417q0 -64 -15 -180.5t-37.5 -260t-47 -293.5t-44 -283.5t-28 -229.5t1.5 -130q-18 -9 -54 -25t-71 -32
t-51 -24l-38 34q5 38 21 136.5t37.5 231.5t45 279t43.5 283.5t33 243.5t13 156t-12.5 60t-35.5 10q-16 0 -51.5 -10t-54.5 -17l-15 49q56 25 118.5 49t113 40t69.5 16q28 0 43.5 -16t15.5 -87zM927 83q-66 -55 -126 -88.5t-100 -33.5q-43 0 -84 47.5t-80 120.5t-75 150.5
t-70.5 139.5t-67.5 85l132 59q35 -21 70.5 -74t70.5 -119t68 -128t63.5 -102.5t57.5 -40.5q72 0 119 28z" />
    <glyph glyph-name="l" unicode="l" horiz-adv-x="503" 
d="M463 85q-98 -62 -168 -94t-125 -32q-28 0 -50 30.5t-22 88.5q0 33 12 124t31.5 216.5t41 263.5t41 267.5t31.5 229.5t12 147q0 46 -16 56.5t-35 10.5q-12 0 -44 -9t-57 -18l-16 49q56 25 118 49t112 40t70 16q28 0 44.5 -18t16.5 -64q0 -52 -12.5 -153t-32 -230
t-41.5 -266.5t-41.5 -264.5t-32 -224t-12.5 -142q0 -34 10 -46.5t25 -12.5q42 0 127 33z" />
    <glyph glyph-name="m" unicode="m" horiz-adv-x="1506" 
d="M1447 85q-92 -54 -166 -90t-121 -36q-29 0 -50.5 31.5t-21.5 85.5q0 21 9 78t22.5 133t27 156t22.5 148t9 108q0 56 -12 80.5t-30 24.5q-32 0 -99 -47t-138 -157q-42 -64 -59 -133.5t-33 -171.5q-14 -91 -17.5 -153t-0.5 -104q-19 -10 -54 -25t-69.5 -30t-52.5 -24
l-34 34q22 102 42 208t35.5 203t24.5 170.5t9 110.5q0 66 -14 92.5t-40 26.5q-22 0 -90 -46t-139 -156q-39 -60 -59 -132.5t-37 -174.5q-15 -91 -19.5 -153.5t-3.5 -103.5q-17 -10 -51.5 -25t-68.5 -30t-50 -24l-36 34q21 105 40.5 218t35.5 217.5t25.5 186.5t9.5 125
q0 46 -11.5 57.5t-27.5 11.5q-13 0 -38 -6.5t-46 -13l-21 -6.5l-13 49q57 25 117.5 48.5t108.5 39.5t67 16q31 0 39 -22t8 -93q0 -19 -3.5 -57t-6.5 -71q118 135 208 189t171 54q75 0 102.5 -53.5t27.5 -119.5q0 -15 -1 -28.5t-2 -31.5q116 128 198 180.5t157 52.5
q58 0 95.5 -39.5t37.5 -136.5q0 -57 -13 -141.5t-30 -175t-30 -167.5t-13 -118q0 -34 10 -45.5t27 -11.5q29 0 56 7.5t69 23.5z" />
    <glyph glyph-name="n" unicode="n" horiz-adv-x="1035" 
d="M1001 85q-91 -54 -167 -90t-118 -36q-35 0 -55.5 31.5t-20.5 85.5q0 21 8.5 80t21.5 137t26 156.5t22 141t9 89.5q0 70 -14.5 98t-53.5 28q-18 0 -62.5 -24t-98.5 -74t-100 -128q-29 -48 -46 -115t-34 -164q-16 -89 -20.5 -148.5t-2.5 -114.5q-18 -8 -52.5 -23.5
t-68 -31.5t-50.5 -24l-35 34q20 99 40 214.5t35.5 224.5t25 192t9.5 118q0 46 -9.5 56.5t-27.5 10.5q-15 0 -50.5 -10t-53.5 -16l-16 49q57 25 119 48.5t111 39.5t67 16q28 0 35 -21t7 -92q0 -21 -3 -63t-6 -67q109 127 216 185t197 58q63 0 96.5 -36t33.5 -133
q0 -52 -13.5 -137t-31 -178.5t-31 -173t-13.5 -120.5q0 -34 9 -46.5t27 -12.5q43 0 120 33z" />
    <glyph glyph-name="o" unicode="o" horiz-adv-x="879" 
d="M831 559q0 -133 -61 -268.5t-173 -227.5q-52 -43 -117 -73.5t-125 -30.5q-97 0 -165.5 50.5t-105 138t-36.5 196.5q0 143 53 267.5t186 228.5q51 40 115.5 68t128.5 28q157 0 228.5 -105.5t71.5 -271.5zM658 496q0 153 -53.5 234.5t-142.5 81.5q-68 0 -114 -39
t-74 -100.5t-40 -132t-12 -134.5q0 -89 27 -163t73 -118.5t101 -44.5q64 0 109 41t72.5 105.5t40.5 136.5t13 133z" />
    <glyph glyph-name="p" unicode="p" horiz-adv-x="985" 
d="M910 627q0 -106 -31.5 -223t-92.5 -223q-30 -53 -72 -104t-92.5 -84.5t-106.5 -33.5q-47 0 -95 39t-93.5 98.5t-83.5 122.5l41 98q18 -38 58.5 -83t91.5 -77.5t100 -32.5q50 0 88 28t61 77q33 70 42 152.5t9 148.5q0 129 -37.5 194.5t-81.5 65.5q-32 0 -86.5 -39.5
t-113 -112t-101.5 -170.5l-6 144q93 144 167.5 213t133 90t102.5 21q81 0 140 -79.5t59 -229.5zM373 870q0 -43 -14.5 -140t-44 -272t-74.5 -452q-33 -206 -41 -309.5t2 -130.5q-19 -5 -54.5 -18t-70.5 -26.5t-52 -21.5l-35 32q5 38 21 129t38 213t45.5 255t43.5 256.5
t33 218t13 136.5q0 46 -15 56.5t-32 10.5q-14 0 -47.5 -9t-50.5 -15l-15 47q57 26 119.5 50.5t112.5 40t69 15.5q22 0 35.5 -13.5t13.5 -52.5z" />
    <glyph glyph-name="q" unicode="q" horiz-adv-x="932" 
d="M848 838q-29 -19 -45 -53.5t-27.5 -62.5t-27.5 -28q-17 0 -51 31t-80.5 62.5t-101.5 31.5q-67 0 -123 -45.5t-97.5 -115.5t-64.5 -145t-23 -134q0 -123 48 -193t101 -70q31 0 76 44.5t96 117t101 156.5l-35 -197q-78 -117 -161 -197.5t-159 -80.5q-46 0 -98.5 34.5
t-90 110.5t-37.5 201q0 158 80 301.5t221 235.5q56 37 130.5 65.5t137.5 28.5q48 0 92 -23.5t80 -47.5t59 -27zM914 891q-35 -28 -50.5 -51.5t-26.5 -89.5q-28 -166 -55 -332.5t-49.5 -316.5t-36 -268t-13.5 -186q0 -60 10 -81q-18 -6 -54 -18.5t-71.5 -26t-51.5 -21.5
l-38 32q6 45 21 141t35.5 225t44.5 277t49 300t48 293q5 30 38.5 61t80.5 58.5t92 48.5z" />
    <glyph glyph-name="r" unicode="r" horiz-adv-x="763" 
d="M809 850q-16 -21 -39 -59.5t-44.5 -69.5t-34.5 -31q-25 0 -43.5 18t-35 36t-36.5 18q-35 0 -81.5 -55t-90 -141.5t-71.5 -182.5q-21 -75 -34.5 -170.5t-10.5 -174.5q-17 -8 -51.5 -24t-68.5 -31.5t-50 -23.5l-36 34q22 106 42 218.5t35.5 216t24.5 185.5t9 127
q0 46 -12.5 56.5t-28.5 10.5t-50.5 -9.5t-50.5 -14.5l-15 47q57 26 118.5 50t110.5 40t68 16q28 0 34.5 -21.5t6.5 -88.5q0 -14 -4 -49.5t-9.5 -74.5t-9.5 -64q65 123 119 187t101 87.5t90 23.5q36 0 70 -34t78 -52z" />
    <glyph glyph-name="s" unicode="s" horiz-adv-x="736" 
d="M728 844q-38 -45 -78 -82.5t-56 -37.5q-19 0 -42 29.5t-55 59t-77 29.5q-55 0 -97 -36t-42 -94q0 -39 36 -76.5t117 -76.5q54 -26 106 -62t86 -86.5t34 -121.5q0 -69 -37 -129t-96.5 -105t-129.5 -70.5t-135 -25.5q-70 0 -132 24t-100.5 58t-38.5 62q0 16 21 51
t46.5 64.5t39.5 29.5q11 0 25.5 -27.5t40 -64t67 -64t106.5 -27.5q69 0 115.5 45t46.5 111q0 74 -60 124t-135 86q-106 51 -146 104.5t-40 117.5q0 84 55.5 148t137.5 99.5t162 35.5q69 0 113.5 -19.5t77 -42t64.5 -30.5z" />
    <glyph glyph-name="t" unicode="t" horiz-adv-x="650" 
d="M671 875q-13 -19 -39.5 -43t-52.5 -44.5t-38 -27.5q-12 28 -46 36.5t-105 8.5h-318l-18 34l107 66h488zM608 130q-102 -80 -199.5 -125.5t-145.5 -45.5q-53 0 -96.5 56.5t-43.5 144.5q0 38 2.5 77.5t11.5 94.5l97 608q13 80 27.5 109.5t41.5 47.5l131 79l28 -25
q-7 -7 -21.5 -52.5t-29.5 -135.5l-91 -584q-6 -39 -9 -82t-3 -63q0 -62 21.5 -90.5t49.5 -28.5q35 0 84 15t124 49z" />
    <glyph glyph-name="u" unicode="u" horiz-adv-x="1048" 
d="M1006 81q-80 -54 -144 -88t-105 -34q-30 0 -58 38t-41 123t2 225q7 68 20 142t24 140.5t11 112.5t-9.5 56.5t-27.5 10.5q-12 0 -40.5 -8t-50.5 -16l-16 47q56 26 115.5 50t106.5 40t67 16q28 0 37 -19t9 -65q0 -44 -12 -120.5t-27.5 -164.5t-27.5 -167t-12 -128
q0 -91 13.5 -132t38.5 -41q45 0 112 28zM676 443l-16 -167q-81 -138 -181.5 -227.5t-204.5 -89.5q-30 0 -66.5 27.5t-63.5 82.5t-27 136q0 45 11 119t25 156.5t25 152.5t11 107q0 46 -11.5 56.5t-29.5 10.5q-13 0 -44.5 -8t-56.5 -16l-13 47q57 26 118.5 50t110.5 40t68 16
q30 0 39.5 -19t9.5 -65q0 -44 -12 -123.5t-28 -170t-28 -170.5t-12 -123q0 -83 19.5 -121.5t50.5 -38.5q39 0 122 76.5t184 261.5z" />
    <glyph glyph-name="v" unicode="v" horiz-adv-x="934" 
d="M919 852q0 -43 -41 -139t-137 -265.5t-259 -432.5q-17 -9 -57.5 -28.5t-61.5 -27.5l-34 34q-11 84 -27.5 190.5t-36 213t-37 193.5t-30.5 133q-16 54 -35.5 68t-36.5 14q-14 0 -45.5 -9l-52.5 -15l-17 47q84 39 162 73.5t105 34.5q29 0 45 -28t37 -99q9 -31 23 -99
t29.5 -152t29 -165.5t22.5 -140.5t9 -74q145 233 208.5 392t63.5 202q0 44 -59 44q-17 0 -36.5 -3.5t-41.5 -11.5l-19 45q39 20 89 41t95 35t70 14q35 0 55.5 -18.5t20.5 -65.5z" />
    <glyph glyph-name="w" unicode="w" horiz-adv-x="1323" 
d="M1316 860q0 -40 -14 -99.5t-52 -154t-108 -238.5t-183 -352q-17 -9 -57 -28.5t-59 -28.5l-36 34q-11 84 -24 179t-27 187.5t-28 168.5t-27 122q-4 -33 -27 -102.5t-60 -159t-82.5 -184.5t-94.5 -179q-12 -6 -37 -19.5t-50.5 -27t-39.5 -19.5l-34 34q-11 84 -22 191
t-22.5 214t-23 194t-22.5 131q-12 54 -32.5 68t-38.5 14q-12 0 -36 -6.5t-43.5 -12l-19.5 -5.5l-17 47q85 40 161 74t104 34t42.5 -32.5t30.5 -104.5q7 -31 16 -91.5t19 -135.5t18.5 -150t14.5 -135t8 -90q53 103 104 223.5t86 233.5t40 195q33 30 79.5 58.5t71.5 28.5
q6 0 16 -34.5t22 -88t23 -111t19 -102.5q15 -94 34.5 -210t28.5 -210q135 246 184 387.5t49 211.5q0 45 -55 45q-31 0 -79 -15l-20 47q70 42 131.5 61t84.5 19q33 0 58.5 -13t25.5 -63z" />
    <glyph glyph-name="x" unicode="x" horiz-adv-x="916" 
d="M913 883q0 -40 -101.5 -152.5t-295.5 -320.5l-48 86q59 69 113.5 141t89.5 125t35 64q0 16 -11 25.5t-46 9.5q-18 0 -45 -3l-3 51q66 14 127 20.5t92 6.5q51 0 72 -16t21 -37zM895 82q-87 -60 -145 -91.5t-101 -31.5q-44 0 -87 61t-85.5 158t-83 205t-79.5 205t-76 158
t-71 61q-14 0 -57 -9.5t-69 -16.5l-16 49q41 20 95 44.5t100.5 43t63.5 18.5q37 0 76.5 -60.5t80.5 -156.5t82 -203t81 -203t77 -156.5t71 -60.5q23 0 54.5 7t68.5 26zM456 369q-42 -59 -116.5 -156.5t-154.5 -217.5q-37 -4 -97 -14.5t-96 -21.5l-26 38q66 57 146 137.5
t158.5 166t138.5 158.5z" />
    <glyph glyph-name="y" unicode="y" horiz-adv-x="944" 
d="M532 50l-121 -153l-33 29q-15 86 -40.5 202.5t-55 235.5t-59 216t-51.5 145q-23 51 -38.5 66.5t-33.5 15.5q-13 0 -43.5 -8t-54.5 -16l-14 47q80 40 157 73t105 33t46 -29t42 -98q30 -84 66 -211t70.5 -270.5t57.5 -277.5zM916 860q0 -45 -37.5 -137.5t-115.5 -249
t-201 -391.5q-90 -173 -180 -304t-187.5 -204.5t-212.5 -73.5q-66 0 -117 22.5t-51 41.5q0 16 19.5 51.5t45.5 68.5t44 43q48 -37 83.5 -47.5t72.5 -10.5q89 0 178.5 106.5t189.5 298.5q52 98 105.5 207t98.5 209.5t73 175.5t28 105q0 53 -53 53q-36 0 -89 -23l-20 47
q72 41 137 64.5t104 23.5q34 0 59.5 -13t25.5 -63z" />
    <glyph glyph-name="z" unicode="z" horiz-adv-x="776" 
d="M779 881q-110 -118 -189.5 -229.5t-158 -229t-183.5 -252.5l25.5 8t56.5 8q27 0 74 -15t99.5 -29.5t96.5 -14.5q19 0 49 16.5t70 92.5l43 -25q-37 -84 -66.5 -134.5t-68.5 -73.5t-105 -23q-63 0 -119.5 17t-104.5 33.5t-88 16.5q-32 0 -74 -20t-118 -58l-26 39
q74 90 153 200t154.5 220t139 201.5t107.5 143.5h-278q-47 0 -71.5 -24t-54.5 -108l-47 11q19 89 39.5 165t28.5 119q18 -4 44 -12.5t61 -8.5h488z" />
    <glyph glyph-name="braceleft" unicode="{" horiz-adv-x="657" 
d="M757 1542q-80 -48 -138 -120t-72 -166q-10 -75 -7 -121l6 -92t-8 -121q-12 -83 -68.5 -157.5t-140.5 -111.5q91 -18 120 -88t14 -180q-11 -77 -28 -131t-33 -103t-25 -113q-14 -101 8.5 -162t111.5 -120l-34 -71q-152 68 -218 152.5t-46 229.5q11 76 27 125t32.5 99.5
t28.5 130.5q21 159 -116 159q-25 0 -29.5 -0.5t-31.5 -5.5l-8 63q112 31 174 90t72 134q9 59 8.5 97.5t-3.5 70.5t-3.5 71t8.5 98q19 135 121 234t257 166z" />
    <glyph glyph-name="bar" unicode="|" horiz-adv-x="506" 
d="M486 1575l-277 -1979q-19 -14 -57 -30.5t-62 -24.5l-32 28l277 1978q28 17 58.5 31t59.5 22z" />
    <glyph glyph-name="braceright" unicode="}" horiz-adv-x="656" 
d="M572 646q-111 -31 -173 -89.5t-73 -134.5q-8 -59 -7.5 -97t3.5 -70t3.5 -70.5t-7.5 -98.5q-20 -135 -123 -234.5t-255 -166.5l-22 58q80 49 138 120.5t70 165.5q11 75 8.5 121t-5.5 92t7 122q12 83 68.5 156.5t141.5 110.5q-91 19 -120 88.5t-14 181.5q11 76 27.5 130
t32.5 103t24 112q16 103 -7 164t-113 118l37 71q152 -66 217 -151.5t46 -228.5q-11 -76 -27.5 -125.5t-32.5 -100t-27 -129.5q-12 -81 18.5 -120t96.5 -39h29t33 6z" />
    <glyph glyph-name="asciitilde" unicode="~" horiz-adv-x="989" 
d="M973 776q-37 -68 -91.5 -138.5t-116 -118t-120.5 -47.5q-41 0 -82 24t-81.5 56t-81 56t-79.5 24q-85 0 -184 -162l-51 31q36 68 90.5 138t116.5 117.5t120 47.5q44 0 86.5 -24t82.5 -56t78.5 -56t74.5 -24q45 0 89.5 38t96.5 122z" />
    <glyph glyph-name="uni00A0" unicode="&#xa0;" horiz-adv-x="410" 
 />
    <glyph glyph-name="exclamdown" unicode="&#xa1;" horiz-adv-x="433" 
d="M254 523l-74 -958q-23 -14 -59 -35t-72.5 -40t-63.5 -27l-39 28l199 1012q42 27 84 41zM107 744q0 41 19.5 84t56 72.5t84.5 29.5q47 0 72.5 -28.5t25.5 -74.5q0 -40 -20.5 -83t-57 -72t-84.5 -29q-46 0 -71 28t-25 73z" />
    <glyph glyph-name="cent" unicode="&#xa2;" horiz-adv-x="859" 
d="M894 936q-27 -20 -58 -51t-59 -55t-46 -24q-12 0 -25.5 20.5t-33 47.5t-49.5 47.5t-74 20.5q-65 0 -116 -41t-87 -106t-54.5 -140.5t-18.5 -144.5q0 -130 61.5 -201t140.5 -71q46 0 110 33.5t171 122.5q8 -12 20.5 -28t16.5 -25q-104 -95 -176 -144.5t-127.5 -67.5
t-112.5 -18q-37 0 -84.5 17t-91.5 57.5t-73 110.5t-29 175q0 135 64.5 269.5t212.5 232.5q55 35 129.5 58.5t145.5 23.5q60 0 106 -27t80 -56t57 -36zM622 1194l-165 -1204q-18 -16 -34 -23.5t-39 -15.5l-19 22l165 1206l36 24t36 14z" />
    <glyph glyph-name="sterling" unicode="&#xa3;" horiz-adv-x="859" 
d="M865 1165q-6 -34 -19.5 -91t-29 -111.5t-25.5 -79.5h-53q9 246 -172 246q-33 0 -70.5 -15t-71.5 -67t-58 -159.5t-30 -292.5q-6 -151 -52.5 -275t-111.5 -206q84 7 130.5 5.5t88 -4.5t108.5 -1q56 1 93.5 13t68.5 49.5t68 115.5l46 -20q-19 -87 -43 -165t-34 -107
q-53 -30 -124.5 -30t-152 12.5t-162.5 24t-157 6.5t-134 -43l-17 57q49 39 82.5 74t55 88t35.5 144.5t24 244.5q14 200 74.5 347.5t164 228.5t247.5 81q48 0 100.5 -11.5t130.5 -58.5zM597 607l-39 -75h-517l-18 27q6 15 16.5 36t17.5 37h517z" />
    <glyph glyph-name="currency" unicode="&#xa4;" horiz-adv-x="859" 
d="M471 787q-75 0 -129.5 -55t-63.5 -131q-8 -68 30 -126t112 -58q75 0 127.5 55.5t63.5 129.5q9 68 -29 126t-111 59zM184 600q11 93 60 158.5t115 100t127 34.5q75 0 127.5 -43.5t76.5 -111t15 -138.5q-11 -77 -53 -142.5t-106 -105t-140 -39.5q-78 0 -131 41t-77 107
t-14 139zM288 482l21 -72l-169 -162l-32 3q-6 14 -12 32t-10 36l168 161zM353 764l-70 -34l-124 161l7 37q14 8 35 14.5t37 13.5l118 -155zM725 274l-76 -26l-118 155l7 37q14 9 32.5 18t33.5 17l125 -163zM779 955l20 -73l-167 -161l-33 2q-13 32 -22 68l169 163z" />
    <glyph glyph-name="yen" unicode="&#xa5;" horiz-adv-x="859" 
d="M1012 1217l-6 -52q-58 -13 -89 -26t-46 -39l-339 -580l-1 -11h219l18 -23l-34 -76h-215l-36 -288q-2 -12 24 -32t101 -38l-6 -52h-428l7 52q78 18 109 37t33 33l36 288h-228l-15 24q6 16 15.5 37.5t15.5 37.5h225l2 20q-23 97 -59.5 205.5t-78 206.5t-79.5 162
q-16 27 -41 36t-90 2l-4 53q49 11 117 24t102 13q33 0 56 -40q38 -65 79 -160.5t75 -194t51 -170.5l257 434q16 26 -4.5 40.5t-81.5 24.5l6 52h333z" />
    <glyph glyph-name="brokenbar" unicode="&#xa6;" horiz-adv-x="525" 
d="M490 1575l-116 -843q-20 -16 -59 -31t-64 -23l-33 25l119 845q61 36 121 52zM331 428l-119 -833q-18 -14 -57.5 -30t-62.5 -24l-31 28l117 832q27 17 58 31t60 24z" />
    <glyph glyph-name="section" unicode="&#xa7;" horiz-adv-x="884" 
d="M358 -30q-48 0 -110.5 22t-116.5 59q-6 3 -4.5 32.5t8 71.5t16.5 84t21 69l49 -11q-4 -91 50 -156t142 -65q65 0 107 31t52 98q7 53 -22 89t-77.5 65.5t-98.5 62.5q-100 65 -161 144.5t-43 209.5q11 78 61 143t114 102.5t115 31.5q2 -3 -1.5 -24.5t-6.5 -43t0 -25.5
q-33 11 -62 -11.5t-48 -58.5t-23 -66q-8 -60 12.5 -103.5t71 -85t129.5 -96.5q49 -29 97 -63.5t77 -83.5t19 -124q-15 -106 -62 -166.5t-106.5 -88.5t-114 -35.5t-84.5 -7.5zM597 361q-6 5 -23.5 24t-34 38t-18.5 23q59 1 105.5 46t54.5 105q13 95 -43 157.5t-182 144.5
q-78 51 -130.5 122.5t-38.5 171.5q12 83 60.5 137.5t118 82t141.5 27.5q63 0 133 -24.5t103 -59.5q6 -8 -7 -44.5t-32.5 -75.5t-31.5 -53l-43 8q-51 154 -155 154q-57 0 -93.5 -27.5t-43.5 -77.5q-9 -68 39 -115t139 -108q66 -46 120.5 -92t82 -108t15.5 -157
q-13 -90 -54.5 -155t-91.5 -102t-90 -42z" />
    <glyph glyph-name="dieresis" unicode="&#xa8;" horiz-adv-x="1042" 
d="M899 1265q0 -58 -37.5 -112t-100.5 -54q-36 0 -55.5 22t-19.5 58t16.5 75t47 65.5t72.5 26.5q36 0 56.5 -23t20.5 -58zM521 1265q0 -58 -36.5 -112t-99.5 -54q-38 0 -57.5 22t-19.5 58t17.5 75t48 65.5t72.5 26.5q36 0 55.5 -23t19.5 -58z" />
    <glyph glyph-name="copyright" unicode="&#xa9;" horiz-adv-x="1360" 
d="M1285 752q0 -143 -49 -283t-140.5 -254t-218.5 -182.5t-283 -68.5q-155 0 -268.5 75.5t-175 203t-61.5 283.5q0 140 51 276.5t143 248t218.5 178t277.5 66.5q153 0 267 -72t176.5 -194.5t62.5 -276.5zM1195 719q0 135 -52.5 243.5t-148.5 172.5t-226 64
q-127 0 -234.5 -56t-187.5 -150.5t-124.5 -211t-44.5 -236.5q0 -135 52.5 -245t149 -175t228.5 -65q127 0 234 56.5t186.5 151.5t123.5 212.5t44 238.5zM1024 942q-36 -25 -77.5 -53.5t-63.5 -28.5q-15 0 -35.5 24.5t-50 49t-72.5 24.5q-60 0 -107 -39.5t-79 -101.5
t-48.5 -130.5t-16.5 -127.5q0 -110 61 -170.5t142 -60.5q37 0 95 28t154 103q7 -10 17.5 -23t15.5 -20q-94 -81 -159 -122.5t-115.5 -56t-99.5 -14.5q-46 0 -106.5 27t-105 93t-44.5 183q0 109 46.5 222.5t175.5 211.5q47 37 120 60.5t138 23.5q57 0 98 -23t69 -48t48 -31z
" />
    <glyph glyph-name="ordfeminine" unicode="&#xaa;" horiz-adv-x="596" 
d="M578 778q-94 -60 -131 -60q-19 0 -38 31.5t-19 128.5q0 15 5 52t12 81t13.5 81t9.5 54q6 24 44 51.5t76 44.5l12 -25q-18 -14 -26.5 -26.5t-16.5 -47.5q-17 -77 -26 -154t-9 -101q0 -99 25 -99q11 0 24 2.5t35 11.5zM531 1186q-23 -16 -30 -47t-19 -31q-10 0 -29.5 18
t-45.5 36t-56 18q-49 0 -84 -41.5t-54 -97.5t-19 -98q0 -67 19.5 -105.5t47.5 -38.5q26 0 68.5 55t77.5 120l-15 -103q-20 -34 -48 -69.5t-58.5 -59.5t-59.5 -24q-39 0 -81.5 42t-42.5 142q0 179 160 289q29 20 67.5 35.5t76.5 15.5q39 0 73 -26.5t52 -29.5zM564 638
q-4 -16 -12.5 -27t-12.5 -25h-465l-20 23q5 15 12.5 27.5t13.5 27.5h463z" />
    <glyph glyph-name="guillemotleft" unicode="&#xab;" horiz-adv-x="911" 
d="M679 5l-280 413q1 5 5.5 35t6.5 37l389 410l38 -34q-6 -11 -31.5 -52.5t-60.5 -98t-70 -112.5t-60 -97.5t-30 -51.5l141 -415zM335 5l-279 413q0 5 4.5 35t7.5 37l388 410l39 -34q-6 -11 -31.5 -52.5t-60.5 -98t-70 -112.5t-60.5 -97.5t-30.5 -51.5l141 -415z" />
    <glyph glyph-name="logicalnot" unicode="&#xac;" horiz-adv-x="859" 
d="M790 599l-41 -298q-20 -15 -49 -31.5t-53 -24.5l-22 27l33 229h-589l-21 27q7 20 21 48t25 47h349h200.5h93.5h26.5h1.5z" />
    <glyph glyph-name="uni00AD" unicode="&#xad;" horiz-adv-x="654" 
d="M598 544q-9 -22 -23 -49.5t-23 -44.5h-493l-21 27q8 21 22 47.5t26 45.5h490z" />
    <glyph glyph-name="registered" unicode="&#xae;" horiz-adv-x="704" 
d="M742 1084q-13 -98 -63 -177.5t-125 -126.5t-164 -47t-151 47t-90 126.5t-14 177.5q13 98 63 177.5t125.5 126.5t163.5 47q89 0 151 -47t90 -126.5t14 -177.5zM683 1084q11 79 -11.5 145t-73 106t-124.5 40q-73 0 -132.5 -40t-98 -106t-49.5 -145t11 -145.5t72.5 -106
t123.5 -39.5q74 0 134 39.5t98.5 106t49.5 145.5zM579 1186q-8 -60 -55 -88.5t-106 -28.5q-13 0 -33 5l3 38q17 -4 32 -4q43 0 67 15t30 54q3 29 -14 53.5t-67 24.5q-25 0 -54.5 -4t-57.5 -8l2 31q27 7 57.5 12.5t67.5 5.5q71 0 102 -32.5t26 -73.5zM594 913l-3 -2
q-16 -9 -40.5 -20t-34.5 -11q-18 0 -25 18l-74 181l44 19l85 -161q10 -20 45 -6zM406 886h-132l2 20q39 9 41 19l47 345h57l-48 -345q-2 -10 35 -19z" />
    <glyph glyph-name="macron" unicode="&#xaf;" horiz-adv-x="836" 
d="M877 1266q-7 -22 -26.5 -57t-28.5 -52h-602l-18 27q7 20 24.5 54.5t29.5 54.5h599z" />
    <glyph glyph-name="degree" unicode="&#xb0;" horiz-adv-x="642" 
d="M632 1073q0 -71 -30.5 -130t-77 -102t-97 -66t-92.5 -23q-74 0 -114 49.5t-40 116.5q0 89 48 162.5t117 118t131 44.5q69 0 112 -50.5t43 -119.5zM377 859q43 0 73.5 26.5t47 65t16.5 75.5q0 44 -20.5 76.5t-58.5 32.5q-49 0 -92.5 -49t-43.5 -117q0 -47 21 -78.5
t57 -31.5z" />
    <glyph glyph-name="plusminus" unicode="&#xb1;" horiz-adv-x="786" 
d="M528 987l-87 -618q-18 -10 -51 -19.5t-54 -14.5l-23 25l87 621q17 6 50.5 16t53.5 16zM685 249q-7 -21 -21.5 -51.5t-23.5 -47.5h-599l-21 27q8 20 22 49.5t25 48.5h598zM749 710q-6 -21 -21 -51.5t-24 -47.5h-600l-20 27q7 20 21 49.5t25 48.5h599z" />
    <glyph glyph-name="twosuperior" unicode="&#xb2;" horiz-adv-x="601" 
d="M626 1215q0 -50 -37 -112.5t-131.5 -158.5t-268.5 -248h251q29 0 47.5 26.5t27.5 53l9 26.5l45 -8l-39 -186h-476l-11 52q169 145 266 245t138 169.5t41 119.5q0 87 -100 87q-51 0 -78.5 -36.5t-31.5 -79.5q-23 -11 -58 -20t-63 -12l-16 26q6 41 49 84.5t108.5 74
t139.5 31.5q78 1 133 -31t55 -103z" />
    <glyph glyph-name="threesuperior" unicode="&#xb3;" horiz-adv-x="601" 
d="M590 1209q0 -65 -44.5 -111.5t-111.5 -70.5q65 -7 102 -54.5t37 -107.5q0 -75 -40 -138t-111.5 -100.5t-165.5 -37.5q-50 0 -107 23t-108 70l30 55q53 -41 95 -56t85 -15q84 0 133 52.5t49 130.5q0 67 -37.5 96t-88.5 29q-17 0 -21 -0.5t-24 -3.5l-4 49q85 21 140 59.5
t55 116.5q0 37 -21 61.5t-65 24.5q-40 0 -67 -25t-25 -67q-25 -12 -61 -20t-65 -10l-16 25q6 34 45.5 72t99.5 65.5t128 27.5q100 0 142 -43t42 -97z" />
    <glyph glyph-name="acute" unicode="&#xb4;" horiz-adv-x="606" 
d="M566 1422l18 -50l-363 -348q-16 3 -27 12.5t-25 27.5l259 398q14 -3 42.5 -10.5t56.5 -16t39 -13.5z" />
    <glyph glyph-name="mu" unicode="&#xb5;" horiz-adv-x="1071" 
d="M1047 215q-85 -153 -147.5 -204.5t-123.5 -51.5q-48 0 -74.5 78.5t-26.5 215.5q0 32 10.5 99t24.5 145t24.5 147t10.5 106q0 32 -3.5 65t-13.5 52q35 14 98.5 36.5t105.5 32.5q16 -21 23 -41q-9 -44 -26 -128.5t-35 -182t-30 -184.5t-12 -136q0 -81 11 -104t26 -23
q20 0 45 18.5t78 98.5zM768 572l-8 -169q-57 -129 -118.5 -229.5t-126.5 -157.5t-134 -57q-66 0 -118 55t-82 148t-30 207q0 59 9.5 126.5t19 131.5t9.5 113q0 46 -11 56.5t-28 10.5q-12 0 -36 -6t-44 -12l-20 -6l-14 47q57 26 120 50t112.5 40t66.5 16q27 0 37 -19t10 -65
q0 -44 -9.5 -110t-22 -138.5t-22 -137t-9.5 -104.5q0 -101 30.5 -162t77.5 -61q64 0 149.5 98.5t191.5 334.5zM239 442q-12 -60 -19.5 -107.5t-14.5 -100.5t-19 -130q-18 -137 -5 -246.5t34.5 -179.5t28.5 -88q-19 -7 -62.5 -25.5t-85.5 -37t-58 -27.5l-36 32
q10 81 28.5 191.5t40 234t42.5 244t38 223.5t25 171l15.5 -27.5t31.5 -64t16 -62.5z" />
    <glyph glyph-name="paragraph" unicode="&#xb6;" horiz-adv-x="1050" 
d="M1075 1260l-7 -53q-65 -14 -102 -31t-38 -31l-179 -1280q-1 -13 29 -30.5t95 -31.5l-8 -53h-558l8 53q133 30 141 62l93 665q-35 -6 -83 -6q-120 0 -212 42.5t-138 127t-29 209.5q16 114 83 201t172 136.5t234 49.5q41 0 112.5 -4.5t146 -10.5t126 -10.5l51.5 -4.5h63z
M519 618h42l80 573q-48 5 -83 5q-70 0 -130.5 -33.5t-101.5 -91.5t-51 -133q-11 -72 8.5 -146.5t76.5 -124t159 -49.5zM819 1154q-32 11 -71 20l-181 -1309q-2 -11 9.5 -19.5t20.5 -11.5q11 3 25.5 11.5t15.5 19.5z" />
    <glyph glyph-name="periodcentered" unicode="&#xb7;" horiz-adv-x="433" 
d="M356 678q0 -41 -19 -84t-54.5 -72.5t-85.5 -29.5q-48 0 -72.5 28.5t-24.5 75.5q0 39 21 81t57.5 71t83.5 29q45 0 69.5 -28t24.5 -71z" />
    <glyph glyph-name="cedilla" unicode="&#xb8;" horiz-adv-x="324" 
d="M225 -221q0 -53 -32 -96.5t-84.5 -69t-116.5 -25t-129 36.5l-2 49q65 -29 112 -24t72 30t25 55q0 53 -85 50q29 71 48.5 141t30.5 126l78 -2q-7 -37 -18 -87t-18 -71q55 -1 87 -32.5t32 -80.5z" />
    <glyph glyph-name="onesuperior" unicode="&#xb9;" horiz-adv-x="601" 
d="M544 654l-8 -46h-445l7 46q101 11 136 26t37 28l72 451q7 47 -2 59q-6 7 -39.5 7.5t-119.5 -16.5l-8 44q36 9 96 28t118.5 39.5t90.5 34.5l21 -22l-99 -625q-2 -12 23 -27.5t120 -26.5z" />
    <glyph glyph-name="ordmasculine" unicode="&#xba;" horiz-adv-x="508" 
d="M528 1039q0 -72 -32.5 -143t-92.5 -120q-31 -25 -65 -41.5t-70 -16.5q-79 0 -123 59t-44 148q0 77 28 142.5t100 121.5q29 22 64 37.5t69 15.5q90 0 128 -57t38 -146zM483 638q-5 -16 -12 -27t-12 -25h-393l-19 23q5 15 11.5 27.5t12.5 27.5h391zM430 1009
q0 79 -29.5 122t-76.5 43q-49 0 -77 -35.5t-39.5 -86t-11.5 -96.5q0 -69 32.5 -120t77.5 -51q46 0 73 37.5t39 90t12 96.5z" />
    <glyph glyph-name="guillemotright" unicode="&#xbb;" horiz-adv-x="911" 
d="M494 489q0 -6 -4 -36.5t-5 -35.5l-392 -412l-38 34l254 414q-2 10 -16 51.5t-34 98l-40 113t-34.5 98t-16.5 52.5l47 34zM838 489q0 -6 -4 -36.5t-5 -35.5l-392 -412l-38 34l254 414q-2 10 -16.5 51.5t-34 98t-39.5 113t-34.5 98t-17.5 52.5l48 34z" />
    <glyph glyph-name="onequarter" unicode="&#xbc;" horiz-adv-x="1135" 
d="M1126 1207l-898 -1204q-23 -11 -49.5 -18.5t-52.5 -14.5l-18 30l902 1203q18 8 47 18t50 14zM1015 212q-13 -16 -26.5 -28.5t-25.5 -20.5h-29l-15 -102q-1 -8 9.5 -14t52.5 -15l-5 -32h-267l5 32q68 10 87 18t20 16l15 97h-251l-16 17l309 382q23 9 51.5 18.5t48.5 17.5
l17 -18l-52 -353h60zM845 227l38 257l-212 -257h174zM478 637h-359l6 37q81 9 109 20.5t30 22.5l52 360q6 39 -2 47q-5 6 -32 6.5t-96 -13.5l-7 36q30 7 78 22t94.5 32t71.5 28l18 -18l-73 -500q-2 -10 19 -22t97 -21z" />
    <glyph glyph-name="onehalf" unicode="&#xbd;" horiz-adv-x="1135" 
d="M1126 1207l-898 -1204q-23 -11 -49.5 -18.5t-52.5 -14.5l-18 30l902 1203q18 8 47 18t50 14zM490 637h-359l6 37q81 9 109 20.5t30 22.5l52 360q6 39 -2 47q-5 6 -32 6.5t-96 -13.5l-7 36q30 7 78 22t94.5 32t71.5 28l18 -18l-73 -500q-2 -10 19 -22t97 -21zM1027 149
l-30 -149h-385l-11 35q139 129 214.5 206t106 124t33.5 85q5 41 -12 64.5t-64 23.5q-40 0 -65 -29t-28 -63q-18 -10 -45.5 -17t-50.5 -9l-13 20q5 34 41.5 69t90.5 59.5t114 24.5q66 0 107.5 -30t34.5 -97q-5 -42 -36 -88.5t-103 -117.5t-198 -188h198q24 0 38 21t20.5 41.5
l6.5 20.5z" />
    <glyph glyph-name="threequarters" unicode="&#xbe;" horiz-adv-x="1135" 
d="M1126 1207l-898 -1204q-23 -11 -49.5 -18.5t-52.5 -14.5l-18 30l902 1203q18 8 47 18t50 14zM546 826q-9 -83 -79 -143t-172 -60q-45 0 -93 19.5t-87 60.5l25 37q41 -32 77 -44t74 -12q57 0 96.5 33t46.5 94q7 66 -26 92.5t-76 26.5q-14 0 -17.5 -0.5t-19.5 -3.5l-2 40
q89 22 119.5 57t34.5 72q3 32 -12 56t-55 24q-36 0 -57.5 -20t-19.5 -53q-20 -9 -49 -15.5t-52 -8.5l-12 21q4 26 36.5 56.5t82 52.5t106.5 22q83 0 114.5 -40t26.5 -88q-4 -40 -38.5 -76t-87.5 -53q58 -7 90 -49t26 -98zM1022 212q-14 -16 -27 -28.5t-25 -20.5h-29
l-15 -102q-2 -8 9 -14t53 -15l-5 -32h-267l5 32q67 10 86.5 18t20.5 16l15 97h-251l-16 17l308 382q24 9 52.5 18.5t48.5 17.5l16 -18l-51 -353h60zM852 227l38 257l-212 -257h174z" />
    <glyph glyph-name="questiondown" unicode="&#xbf;" horiz-adv-x="835" 
d="M659 -183q0 -85 -52 -164.5t-146 -131t-222 -51.5q-130 0 -195 71.5t-65 173.5q0 104 36 179.5t91 135t112 115t100 118t56 146.5l13 94q19 14 38.5 25.5t45.5 19.5l21 -23l-3 -118q-3 -79 -36 -144t-80.5 -123t-94.5 -115t-78.5 -119t-31.5 -135q0 -93 40.5 -146.5
t118.5 -53.5q79 0 116.5 69t20.5 164q42 20 85 31t86 15zM349 744q0 41 19.5 84t55.5 72.5t86 29.5q47 0 71.5 -28.5t24.5 -75.5q0 -39 -21 -81t-57.5 -71t-83.5 -29q-45 0 -70 27t-25 72z" />
    <glyph glyph-name="Agrave" unicode="&#xc0;" horiz-adv-x="1163" 
d="M415 540h317l-92 520zM751 439h-380l-138 -318q-13 -31 16.5 -44.5t105.5 -23.5l-7 -53h-388l7 53q64 12 101 25.5t50 42.5l481 1100q34 29 82.5 55t82.5 41l219 -1196q5 -27 25.5 -43t83.5 -25l-6 -53h-410l6 53q71 5 101 20.5t24 47.5zM856 1395q-25 -36 -53 -53
l-406 247l13 51q13 9 40.5 25.5t56 32t43.5 22.5z" />
    <glyph glyph-name="Aacute" unicode="&#xc1;" horiz-adv-x="1163" 
d="M415 540h317l-92 520zM751 439h-380l-138 -318q-13 -31 16.5 -44.5t105.5 -23.5l-7 -53h-388l7 53q64 12 101 25.5t50 42.5l481 1100q34 29 82.5 55t82.5 41l219 -1196q5 -27 25.5 -43t83.5 -25l-6 -53h-410l6 53q71 5 101 20.5t24 47.5zM1048 1638v-53l-465 -244
q-14 9 -22 21.5t-16 33.5l385 319q13 -7 37.5 -22t48 -30t32.5 -25z" />
    <glyph glyph-name="Acircumflex" unicode="&#xc2;" horiz-adv-x="1163" 
d="M415 540h317l-92 520zM751 439h-380l-138 -318q-13 -31 16.5 -44.5t105.5 -23.5l-7 -53h-388l7 53q64 12 101 25.5t50 42.5l481 1100q34 29 82.5 55t82.5 41l219 -1196q5 -27 25.5 -43t83.5 -25l-6 -53h-410l6 53q71 5 101 20.5t24 47.5zM1001 1394q-25 -37 -53 -50
l-219 192l-272 -192q-9 6 -20 17.5t-20 32.5l282 306h107z" />
    <glyph glyph-name="Atilde" unicode="&#xc3;" horiz-adv-x="1163" 
d="M415 540h317l-92 520zM751 439h-380l-138 -318q-13 -31 16.5 -44.5t105.5 -23.5l-7 -53h-388l7 53q64 12 101 25.5t50 42.5l481 1100q34 29 82.5 55t82.5 41l219 -1196q5 -27 25.5 -43t83.5 -25l-6 -53h-410l6 53q71 5 101 20.5t24 47.5zM1069 1614q-29 -54 -68.5 -109.5
t-87.5 -93.5t-102 -38q-45 0 -81.5 27t-70 54t-72.5 27q-38 0 -73 -31t-76 -87l-50 24q27 53 67 108.5t88.5 93.5t102.5 38q48 0 86 -26.5t70.5 -53.5t64.5 -27q37 0 74 30.5t76 86.5z" />
    <glyph glyph-name="Adieresis" unicode="&#xc4;" horiz-adv-x="1163" 
d="M415 540h317l-92 520zM751 439h-380l-138 -318q-13 -31 16.5 -44.5t105.5 -23.5l-7 -53h-388l7 53q64 12 101 25.5t50 42.5l481 1100q34 29 82.5 55t82.5 41l219 -1196q5 -27 25.5 -43t83.5 -25l-6 -53h-410l6 53q71 5 101 20.5t24 47.5zM1022 1550q0 -58 -37 -112
t-101 -54q-36 0 -55.5 22t-19.5 58q0 37 16.5 75.5t47.5 65t72 26.5q37 0 57 -23t20 -58zM645 1550q0 -58 -37 -112t-100 -54q-37 0 -56.5 22t-19.5 58q0 37 17 75.5t48 65t72 26.5q36 0 56 -23t20 -58z" />
    <glyph glyph-name="Aring" unicode="&#xc5;" horiz-adv-x="1163" 
d="M415 540h317l-92 520zM751 439h-380l-138 -318q-13 -31 16.5 -44.5t105.5 -23.5l-7 -53h-388l7 53q64 12 101 25.5t50 42.5l481 1100q34 29 82.5 55t82.5 41l219 -1196q5 -27 25.5 -43t83.5 -25l-6 -53h-410l6 53q71 5 101 20.5t24 47.5zM912 1608q0 -56 -31.5 -117
t-84 -103t-117.5 -42q-58 0 -92.5 39.5t-34.5 91.5q0 60 31 122t84 103.5t118 41.5q58 0 92.5 -39.5t34.5 -96.5zM812 1571q0 33 -15 57.5t-43 24.5q-50 0 -77 -43t-27 -90q0 -35 16 -60t44 -25q47 0 74.5 44t27.5 92z" />
    <glyph glyph-name="AE" unicode="&#xc6;" horiz-adv-x="1488" 
d="M1416 264q-20 -86 -41 -160.5t-33 -103.5h-808l8 53q133 28 137 61l71 531h-239l-264 -524q-16 -29 8 -44t93 -24l-6 -53h-378l7 53q60 11 96.5 25t51.5 43l506 1002q16 34 -24.5 49.5t-126.5 34.5l7 53h981l25 -27q-6 -34 -18 -81.5t-25.5 -91.5t-24.5 -70h-51
q8 92 -4.5 130.5t-48.5 38.5h-321l-58 -424h365l23 -30q-20 -28 -49.5 -63.5t-50.5 -51.5q-23 29 -59 42t-102 13h-139l-67 -481q-2 -19 9.5 -33.5t50 -22.5t119.5 -8h105q56 0 93 13.5t68 53.5t68 118zM763 735l54 402q3 22 -24.5 20.5t-44.5 -37.5l-192 -385h207z" />
    <glyph glyph-name="Ccedilla" unicode="&#xc7;" horiz-adv-x="1010" 
d="M1036 1190q6 -5 -15.5 -38.5t-50.5 -70t-46 -51.5l-40 10q-36 51 -93 87.5t-139 36.5q-39 0 -85 -16.5t-86 -47.5q-63 -49 -107 -122t-70.5 -156t-39 -163t-12.5 -143q0 -145 49 -235t119.5 -131t137.5 -41q54 0 133 32.5t195 122.5q7 -7 17.5 -24.5t13.5 -28.5
q-135 -136 -247 -187t-205 -51q-106 0 -195.5 57t-144 166t-54.5 263q0 126 34 255.5t105.5 246.5t184.5 206q72 57 162 90t184 33q98 0 174.5 -29.5t120.5 -70.5zM607 -221q0 -53 -31.5 -96.5t-84 -69t-116.5 -25t-129 36.5l-2 49q64 -29 111 -24t72.5 30t25.5 55
q0 53 -86 50q30 71 49.5 140.5t29.5 126.5l78 -2q-7 -37 -18 -87t-17 -71q55 -1 86.5 -32.5t31.5 -80.5z" />
    <glyph glyph-name="Egrave" unicode="&#xc8;" horiz-adv-x="967" 
d="M962 1233q-6 -34 -18.5 -81.5t-26.5 -91.5t-25 -70h-52q9 92 -4.5 130.5t-48.5 38.5h-373l40 101h481zM797 705q-19 -28 -48.5 -63t-51.5 -52q-30 33 -74 44t-148 11h-142l32 90h410zM886 264q-20 -86 -41.5 -160.5t-32.5 -103.5h-814l7 53q63 14 100.5 31t38.5 30
l143 1031q1 12 -29 30t-94 32l7 53h438l-7 -53q-64 -7 -101 -16.5t-40 -24.5l-136 -1002q-3 -20 8.5 -34.5t50.5 -22t120 -7.5h111q56 0 91.5 13.5t65.5 53.5t67 118zM755 1395q-25 -36 -53 -53l-406 247l13 51q13 9 40.5 25.5t56 32t43.5 22.5z" />
    <glyph glyph-name="Eacute" unicode="&#xc9;" horiz-adv-x="967" 
d="M962 1233q-6 -34 -18.5 -81.5t-26.5 -91.5t-25 -70h-52q9 92 -4.5 130.5t-48.5 38.5h-373l40 101h481zM797 705q-19 -28 -48.5 -63t-51.5 -52q-30 33 -74 44t-148 11h-142l32 90h410zM886 264q-20 -86 -41.5 -160.5t-32.5 -103.5h-814l7 53q63 14 100.5 31t38.5 30
l143 1031q1 12 -29 30t-94 32l7 53h438l-7 -53q-64 -7 -101 -16.5t-40 -24.5l-136 -1002q-3 -20 8.5 -34.5t50.5 -22t120 -7.5h111q56 0 91.5 13.5t65.5 53.5t67 118zM947 1638v-53l-465 -244q-14 9 -22 21.5t-16 33.5l385 319q13 -7 37.5 -22t48 -30t32.5 -25z" />
    <glyph glyph-name="Ecircumflex" unicode="&#xca;" horiz-adv-x="967" 
d="M962 1233q-6 -34 -18.5 -81.5t-26.5 -91.5t-25 -70h-52q9 92 -4.5 130.5t-48.5 38.5h-373l40 101h481zM797 705q-19 -28 -48.5 -63t-51.5 -52q-30 33 -74 44t-148 11h-142l32 90h410zM886 264q-20 -86 -41.5 -160.5t-32.5 -103.5h-814l7 53q63 14 100.5 31t38.5 30
l143 1031q1 12 -29 30t-94 32l7 53h438l-7 -53q-64 -7 -101 -16.5t-40 -24.5l-136 -1002q-3 -20 8.5 -34.5t50.5 -22t120 -7.5h111q56 0 91.5 13.5t65.5 53.5t67 118zM900 1394q-25 -37 -53 -50l-219 192l-272 -192q-9 6 -20 17.5t-20 32.5l282 306h107z" />
    <glyph glyph-name="Edieresis" unicode="&#xcb;" horiz-adv-x="967" 
d="M962 1233q-6 -34 -18.5 -81.5t-26.5 -91.5t-25 -70h-52q9 92 -4.5 130.5t-48.5 38.5h-373l40 101h481zM797 705q-19 -28 -48.5 -63t-51.5 -52q-30 33 -74 44t-148 11h-142l32 90h410zM886 264q-20 -86 -41.5 -160.5t-32.5 -103.5h-814l7 53q63 14 100.5 31t38.5 30
l143 1031q1 12 -29 30t-94 32l7 53h438l-7 -53q-64 -7 -101 -16.5t-40 -24.5l-136 -1002q-3 -20 8.5 -34.5t50.5 -22t120 -7.5h111q56 0 91.5 13.5t65.5 53.5t67 118zM921 1550q0 -58 -37 -112t-101 -54q-36 0 -55.5 22t-19.5 58q0 37 16.5 75.5t47.5 65t72 26.5
q37 0 57 -23t20 -58zM544 1550q0 -58 -37 -112t-100 -54q-37 0 -56.5 22t-19.5 58q0 37 17 75.5t48 65t72 26.5q36 0 56 -23t20 -58z" />
    <glyph glyph-name="Igrave" unicode="&#xcc;" horiz-adv-x="593" 
d="M626 1260l-7 -53q-63 -14 -100 -31t-39 -31l-143 -1031q-1 -12 28.5 -29.5t94.5 -31.5l-7 -53h-435l8 53q63 14 99.5 30.5t39.5 30.5l140 1031q2 12 -28 30t-93 32l8 53h434zM568 1395q-25 -36 -53 -53l-406 247l13 51q13 9 40.5 25.5t56 32t43.5 22.5z" />
    <glyph glyph-name="Iacute" unicode="&#xcd;" horiz-adv-x="593" 
d="M626 1260l-7 -53q-63 -14 -100 -31t-39 -31l-143 -1031q-1 -12 28.5 -29.5t94.5 -31.5l-7 -53h-435l8 53q63 14 99.5 30.5t39.5 30.5l140 1031q2 12 -28 30t-93 32l8 53h434zM760 1638v-53l-465 -244q-14 9 -22 21.5t-16 33.5l385 319q13 -7 37.5 -22t48 -30t32.5 -25z
" />
    <glyph glyph-name="Icircumflex" unicode="&#xce;" horiz-adv-x="593" 
d="M626 1260l-7 -53q-63 -14 -100 -31t-39 -31l-143 -1031q-1 -12 28.5 -29.5t94.5 -31.5l-7 -53h-435l8 53q63 14 99.5 30.5t39.5 30.5l140 1031q2 12 -28 30t-93 32l8 53h434zM713 1394q-25 -37 -53 -50l-219 192l-272 -192q-9 6 -20 17.5t-20 32.5l282 306h107z" />
    <glyph glyph-name="Idieresis" unicode="&#xcf;" horiz-adv-x="593" 
d="M626 1260l-7 -53q-63 -14 -100 -31t-39 -31l-143 -1031q-1 -12 28.5 -29.5t94.5 -31.5l-7 -53h-435l8 53q63 14 99.5 30.5t39.5 30.5l140 1031q2 12 -28 30t-93 32l8 53h434zM734 1550q0 -58 -37 -112t-101 -54q-36 0 -55.5 22t-19.5 58q0 37 16.5 75.5t47.5 65t72 26.5
q37 0 57 -23t20 -58zM357 1550q0 -58 -37 -112t-100 -54q-37 0 -56.5 22t-19.5 58q0 37 17 75.5t48 65t72 26.5q36 0 56 -23t20 -58z" />
    <glyph glyph-name="Eth" unicode="&#xd0;" horiz-adv-x="1148" 
d="M656 684l-36 -75h-533l-20 27q6 15 16.5 36.5t18.5 37.5h532zM1112 748q0 -132 -41 -264.5t-120.5 -242t-195 -175.5t-264.5 -66h-493l7 53q63 14 100 31t38 30l147 1068l-149 -18v73q114 27 233 40t222 13q252 0 384 -147.5t132 -394.5zM527 1199q-15 0 -30 -1t-30 -1
l-143 -1050q-4 -30 25.5 -42.5t120.5 -12.5q108 0 192 58.5t141.5 153.5t87 206.5t29.5 216.5q0 214 -98.5 343t-294.5 129z" />
    <glyph glyph-name="Ntilde" unicode="&#xd1;" horiz-adv-x="1248" 
d="M1313 1260l-7 -53q-67 -10 -100 -27.5t-35 -34.5l-163 -1176q-57 7 -91.5 25t-57.5 63l-481 920l-118 -863q-1 -13 25.5 -31.5t94.5 -29.5l-7 -53h-374l8 53q68 9 101 28.5t35 32.5l142 1027q-25 30 -56 44.5t-71 21.5l7 53h204q39 0 51.5 -11.5t41.5 -66.5l474 -900
l118 863q2 12 -24 31.5t-97 30.5l7 53h373zM1112 1614q-29 -54 -68.5 -109.5t-87.5 -93.5t-102 -38q-45 0 -81.5 27t-70 54t-72.5 27q-38 0 -73 -31t-76 -87l-50 24q27 53 67 108.5t88.5 93.5t102.5 38q48 0 86 -26.5t70.5 -53.5t64.5 -27q37 0 74 30.5t76 86.5z" />
    <glyph glyph-name="Ograve" unicode="&#xd2;" horiz-adv-x="1135" 
d="M1109 774q0 -141 -49 -288t-139 -261q-85 -107 -195.5 -181.5t-244.5 -74.5q-130 0 -218.5 70.5t-133 188t-44.5 257.5q0 134 45 279.5t126 253.5q84 112 198 192t261 80q135 0 222 -70.5t129.5 -187.5t42.5 -258zM930 756q0 113 -31 205t-90 147t-144 55
q-107 0 -182.5 -62t-123 -159t-70 -206t-22.5 -204q0 -124 32.5 -221t91.5 -152.5t140 -55.5q109 0 185 64.5t123.5 166.5t69 214.5t21.5 207.5zM862 1395q-25 -36 -53 -53l-406 247l13 51q13 9 40.5 25.5t56 32t43.5 22.5z" />
    <glyph glyph-name="Oacute" unicode="&#xd3;" horiz-adv-x="1135" 
d="M1109 774q0 -141 -49 -288t-139 -261q-85 -107 -195.5 -181.5t-244.5 -74.5q-130 0 -218.5 70.5t-133 188t-44.5 257.5q0 134 45 279.5t126 253.5q84 112 198 192t261 80q135 0 222 -70.5t129.5 -187.5t42.5 -258zM930 756q0 113 -31 205t-90 147t-144 55
q-107 0 -182.5 -62t-123 -159t-70 -206t-22.5 -204q0 -124 32.5 -221t91.5 -152.5t140 -55.5q109 0 185 64.5t123.5 166.5t69 214.5t21.5 207.5zM1054 1638v-53l-465 -244q-14 9 -22 21.5t-16 33.5l385 319q13 -7 37.5 -22t48 -30t32.5 -25z" />
    <glyph glyph-name="Ocircumflex" unicode="&#xd4;" horiz-adv-x="1135" 
d="M1109 774q0 -141 -49 -288t-139 -261q-85 -107 -195.5 -181.5t-244.5 -74.5q-130 0 -218.5 70.5t-133 188t-44.5 257.5q0 134 45 279.5t126 253.5q84 112 198 192t261 80q135 0 222 -70.5t129.5 -187.5t42.5 -258zM930 756q0 113 -31 205t-90 147t-144 55
q-107 0 -182.5 -62t-123 -159t-70 -206t-22.5 -204q0 -124 32.5 -221t91.5 -152.5t140 -55.5q109 0 185 64.5t123.5 166.5t69 214.5t21.5 207.5zM1007 1394q-25 -37 -53 -50l-219 192l-272 -192q-9 6 -20 17.5t-20 32.5l282 306h107z" />
    <glyph glyph-name="Otilde" unicode="&#xd5;" horiz-adv-x="1135" 
d="M1109 774q0 -141 -49 -288t-139 -261q-85 -107 -195.5 -181.5t-244.5 -74.5q-130 0 -218.5 70.5t-133 188t-44.5 257.5q0 134 45 279.5t126 253.5q84 112 198 192t261 80q135 0 222 -70.5t129.5 -187.5t42.5 -258zM930 756q0 113 -31 205t-90 147t-144 55
q-107 0 -182.5 -62t-123 -159t-70 -206t-22.5 -204q0 -124 32.5 -221t91.5 -152.5t140 -55.5q109 0 185 64.5t123.5 166.5t69 214.5t21.5 207.5zM1075 1614q-29 -54 -68.5 -109.5t-87.5 -93.5t-102 -38q-45 0 -81.5 27t-70 54t-72.5 27q-38 0 -73 -31t-76 -87l-50 24
q27 53 67 108.5t88.5 93.5t102.5 38q48 0 86 -26.5t70.5 -53.5t64.5 -27q37 0 74 30.5t76 86.5z" />
    <glyph glyph-name="Odieresis" unicode="&#xd6;" horiz-adv-x="1135" 
d="M1109 774q0 -141 -49 -288t-139 -261q-85 -107 -195.5 -181.5t-244.5 -74.5q-130 0 -218.5 70.5t-133 188t-44.5 257.5q0 134 45 279.5t126 253.5q84 112 198 192t261 80q135 0 222 -70.5t129.5 -187.5t42.5 -258zM930 756q0 113 -31 205t-90 147t-144 55
q-107 0 -182.5 -62t-123 -159t-70 -206t-22.5 -204q0 -124 32.5 -221t91.5 -152.5t140 -55.5q109 0 185 64.5t123.5 166.5t69 214.5t21.5 207.5zM1028 1550q0 -58 -37 -112t-101 -54q-36 0 -55.5 22t-19.5 58q0 37 16.5 75.5t47.5 65t72 26.5q37 0 57 -23t20 -58zM651 1550
q0 -58 -37 -112t-100 -54q-37 0 -56.5 22t-19.5 58q0 37 17 75.5t48 65t72 26.5q36 0 56 -23t20 -58z" />
    <glyph glyph-name="multiply" unicode="&#xd7;" horiz-adv-x="770" 
d="M652 277q-19 -9 -47.5 -19t-45.5 -15l-431 566l5 37q18 9 46.5 19t48.5 15l429 -565zM52 277l5 38l586 565q18 -5 45 -15.5t45 -19.5l-5 -38l-586 -565q-16 4 -44 15t-46 20z" />
    <glyph glyph-name="Oslash" unicode="&#xd8;" horiz-adv-x="1134" 
d="M1180 1279l-1000 -1281q-20 -16 -66 -30.5t-70 -20.5l-21 34l1000 1283q28 17 67 30t66 19zM1109 774q0 -141 -48.5 -288t-139.5 -261q-85 -107 -195.5 -181.5t-244.5 -74.5q-130 0 -218.5 70.5t-133 188t-44.5 257.5q0 134 45.5 279t125.5 254q83 112 197.5 192
t261.5 80q135 0 222 -70.5t129.5 -187.5t42.5 -258zM930 756q0 113 -31 205t-90 147t-144 55q-107 0 -182.5 -62t-123 -159t-70 -206t-22.5 -204q0 -124 32.5 -221t91.5 -152.5t140 -55.5q109 0 185 64.5t123.5 166.5t69 214.5t21.5 207.5z" />
    <glyph glyph-name="Ugrave" unicode="&#xd9;" horiz-adv-x="1241" 
d="M1302 1260l-7 -53q-127 -29 -132 -62l-89 -633q-37 -262 -173.5 -402.5t-334.5 -140.5q-110 0 -196.5 44t-137 128.5t-50.5 206.5q0 54 9 115l97 682q2 12 -28 30t-94 32l7 53h434l-8 -53q-63 -14 -100 -31t-39 -31l-88 -635q-4 -29 -5.5 -58t-1.5 -55q0 -139 65.5 -220
t193.5 -81q87 0 152 52t105.5 137t54.5 184l92 676q1 12 -25.5 30t-91.5 32l7 53h384zM916 1395q-25 -36 -53 -53l-406 247l13 51q13 9 40.5 25.5t56 32t43.5 22.5z" />
    <glyph glyph-name="Uacute" unicode="&#xda;" horiz-adv-x="1241" 
d="M1302 1260l-7 -53q-127 -29 -132 -62l-89 -633q-37 -262 -173.5 -402.5t-334.5 -140.5q-110 0 -196.5 44t-137 128.5t-50.5 206.5q0 54 9 115l97 682q2 12 -28 30t-94 32l7 53h434l-8 -53q-63 -14 -100 -31t-39 -31l-88 -635q-4 -29 -5.5 -58t-1.5 -55q0 -139 65.5 -220
t193.5 -81q87 0 152 52t105.5 137t54.5 184l92 676q1 12 -25.5 30t-91.5 32l7 53h384zM1108 1638v-53l-465 -244q-14 9 -22 21.5t-16 33.5l385 319q13 -7 37.5 -22t48 -30t32.5 -25z" />
    <glyph glyph-name="Ucircumflex" unicode="&#xdb;" horiz-adv-x="1241" 
d="M1302 1260l-7 -53q-127 -29 -132 -62l-89 -633q-37 -262 -173.5 -402.5t-334.5 -140.5q-110 0 -196.5 44t-137 128.5t-50.5 206.5q0 54 9 115l97 682q2 12 -28 30t-94 32l7 53h434l-8 -53q-63 -14 -100 -31t-39 -31l-88 -635q-4 -29 -5.5 -58t-1.5 -55q0 -139 65.5 -220
t193.5 -81q87 0 152 52t105.5 137t54.5 184l92 676q1 12 -25.5 30t-91.5 32l7 53h384zM1061 1394q-25 -37 -53 -50l-219 192l-272 -192q-9 6 -20 17.5t-20 32.5l282 306h107z" />
    <glyph glyph-name="Udieresis" unicode="&#xdc;" horiz-adv-x="1241" 
d="M1302 1260l-7 -53q-127 -29 -132 -62l-89 -633q-37 -262 -173.5 -402.5t-334.5 -140.5q-110 0 -196.5 44t-137 128.5t-50.5 206.5q0 54 9 115l97 682q2 12 -28 30t-94 32l7 53h434l-8 -53q-63 -14 -100 -31t-39 -31l-88 -635q-4 -29 -5.5 -58t-1.5 -55q0 -139 65.5 -220
t193.5 -81q87 0 152 52t105.5 137t54.5 184l92 676q1 12 -25.5 30t-91.5 32l7 53h384zM1082 1550q0 -58 -37 -112t-101 -54q-36 0 -55.5 22t-19.5 58q0 37 16.5 75.5t47.5 65t72 26.5q37 0 57 -23t20 -58zM705 1550q0 -58 -37 -112t-100 -54q-37 0 -56.5 22t-19.5 58
q0 37 17 75.5t48 65t72 26.5q36 0 56 -23t20 -58z" />
    <glyph glyph-name="Yacute" unicode="&#xdd;" horiz-adv-x="1153" 
d="M1223 1260l-7 -53q-64 -13 -98.5 -26.5t-50.5 -39.5l-418 -654h-128q-16 75 -45.5 166t-66 183t-75.5 173t-74 135q-19 28 -46.5 37t-99.5 2l-5 53q36 8 82.5 17t89 15.5t68.5 6.5q36 0 62 -42q31 -50 66 -121.5t68 -150.5t59 -153.5t40 -129.5l299 463q16 27 -6 41.5
t-90 24.5l7 53h369zM763 53l-7 -53h-472l8 53q86 19 121 38.5t37 33.5l70 512h174l-70 -512q-2 -13 27 -33t112 -39zM1043 1638v-53l-465 -244q-14 9 -22 21.5t-16 33.5l385 319q13 -7 37.5 -22t48 -30t32.5 -25z" />
    <glyph glyph-name="Thorn" unicode="&#xde;" horiz-adv-x="999" 
d="M975 690q0 -116 -58 -213.5t-157 -156t-224 -58.5q-88 0 -141 33l-11 84q36 -19 70 -24t66 -5q125 0 203 85.5t78 215.5q0 139 -81.5 209.5t-199.5 70.5q-48 0 -96 -11t-95 -22l2 82q92 43 250 43q183 0 288.5 -91t105.5 -242zM633 1260l-7 -53q-94 -17 -129 -32.5
t-37 -29.5l-140 -1031q-3 -12 27 -28t120 -33l-7 -53h-459l7 53q132 28 137 61l142 1031q2 12 -27.5 30t-92.5 32l7 53h459z" />
    <glyph glyph-name="germandbls" unicode="&#xdf;" horiz-adv-x="1040" 
d="M985 1225q0 -105 -34.5 -169t-86 -103.5t-103 -69t-86 -64t-34.5 -88.5q0 -43 33.5 -76.5t83.5 -64.5t99.5 -68t83 -87.5t33.5 -123.5q0 -82 -46 -163t-129.5 -135t-195.5 -54q-56 0 -111 24.5t-91 59t-36 64.5q0 13 20 47.5t45 64t40 29.5q9 0 21 -27.5t32 -63t50.5 -63
t77.5 -27.5q70 0 113.5 41t43.5 125q0 72 -33 117.5t-82 78t-98 63t-82 71.5t-33 105q0 89 33.5 140t83.5 83.5t100 62.5t83.5 75.5t33.5 123.5q0 60 -21.5 114t-63.5 88.5t-102 34.5q-77 0 -132.5 -63.5t-89.5 -163.5t-46 -211l-88 -759q-18 -147 -73.5 -279.5t-139 -235.5
t-181.5 -163l-32 71q67 37 117 126.5t81.5 203.5t43.5 223l88 760q20 164 88 298.5t195 227.5q54 43 118.5 68t118.5 25q92 0 157 -44.5t99 -111.5t34 -137z" />
    <glyph glyph-name="agrave" unicode="&#xe0;" horiz-adv-x="943" 
d="M927 81q-85 -58 -146.5 -90t-92.5 -32q-24 0 -49 25t-41.5 93t-16.5 197q0 28 9.5 97t23.5 150.5t26.5 150.5t17.5 98q6 31 40.5 61t81.5 57t92 48l24 -45q-34 -28 -48 -50.5t-27 -90.5q-21 -95 -36.5 -191t-24.5 -169.5t-9 -102.5q0 -99 13.5 -143.5t37.5 -44.5
q20 0 46 5.5t66 22.5zM835 838q-29 -20 -45.5 -54.5t-29 -62t-30.5 -27.5q-17 0 -50.5 31t-78 62.5t-96.5 31.5q-67 -1 -120.5 -46.5t-91.5 -115t-58 -144.5t-20 -134q0 -123 37.5 -193t89.5 -70q30 0 77 47.5t98.5 122t93.5 154.5l-23 -183q-36 -61 -90 -130.5
t-114.5 -118.5t-117.5 -49q-45 0 -96 34.5t-86.5 110.5t-35.5 201q0 158 75.5 299t216.5 238q54 37 127.5 65.5t142.5 28.5q47 0 89.5 -23.5t77 -47.5t58.5 -27zM635 1049q-38 -24 -70 -25l-265 383l35 41q16 3 49 6.5t66.5 6.5t50.5 3z" />
    <glyph glyph-name="aacute" unicode="&#xe1;" horiz-adv-x="943" 
d="M927 81q-85 -58 -146.5 -90t-92.5 -32q-24 0 -49 25t-41.5 93t-16.5 197q0 28 9.5 97t23.5 150.5t26.5 150.5t17.5 98q6 31 40.5 61t81.5 57t92 48l24 -45q-34 -28 -48 -50.5t-27 -90.5q-21 -95 -36.5 -191t-24.5 -169.5t-9 -102.5q0 -99 13.5 -143.5t37.5 -44.5
q20 0 46 5.5t66 22.5zM835 838q-29 -20 -45.5 -54.5t-29 -62t-30.5 -27.5q-17 0 -50.5 31t-78 62.5t-96.5 31.5q-67 -1 -120.5 -46.5t-91.5 -115t-58 -144.5t-20 -134q0 -123 37.5 -193t89.5 -70q30 0 77 47.5t98.5 122t93.5 154.5l-23 -183q-36 -61 -90 -130.5
t-114.5 -118.5t-117.5 -49q-45 0 -96 34.5t-86.5 110.5t-35.5 201q0 158 75.5 299t216.5 238q54 37 127.5 65.5t142.5 28.5q47 0 89.5 -23.5t77 -47.5t58.5 -27zM901 1422l17 -50l-362 -348q-28 6 -53 40l260 398q14 -3 42.5 -10.5t56.5 -15.5t39 -14z" />
    <glyph glyph-name="acircumflex" unicode="&#xe2;" horiz-adv-x="943" 
d="M927 81q-85 -58 -146.5 -90t-92.5 -32q-24 0 -49 25t-41.5 93t-16.5 197q0 28 9.5 97t23.5 150.5t26.5 150.5t17.5 98q6 31 40.5 61t81.5 57t92 48l24 -45q-34 -28 -48 -50.5t-27 -90.5q-21 -95 -36.5 -191t-24.5 -169.5t-9 -102.5q0 -99 13.5 -143.5t37.5 -44.5
q20 0 46 5.5t66 22.5zM835 838q-29 -20 -45.5 -54.5t-29 -62t-30.5 -27.5q-17 0 -50.5 31t-78 62.5t-96.5 31.5q-67 -1 -120.5 -46.5t-91.5 -115t-58 -144.5t-20 -134q0 -123 37.5 -193t89.5 -70q30 0 77 47.5t98.5 122t93.5 154.5l-23 -183q-36 -61 -90 -130.5
t-114.5 -118.5t-117.5 -49q-45 0 -96 34.5t-86.5 110.5t-35.5 201q0 158 75.5 299t216.5 238q54 37 127.5 65.5t142.5 28.5q47 0 89.5 -23.5t77 -47.5t58.5 -27zM865 1074q-25 -37 -53 -50l-213 252l-278 -252q-9 6 -19.5 17.5t-20.5 32.5l289 373h107z" />
    <glyph glyph-name="atilde" unicode="&#xe3;" horiz-adv-x="943" 
d="M927 81q-85 -58 -146.5 -90t-92.5 -32q-24 0 -49 25t-41.5 93t-16.5 197q0 28 9.5 97t23.5 150.5t26.5 150.5t17.5 98q6 31 40.5 61t81.5 57t92 48l24 -45q-34 -28 -48 -50.5t-27 -90.5q-21 -95 -36.5 -191t-24.5 -169.5t-9 -102.5q0 -99 13.5 -143.5t37.5 -44.5
q20 0 46 5.5t66 22.5zM835 838q-29 -20 -45.5 -54.5t-29 -62t-30.5 -27.5q-17 0 -50.5 31t-78 62.5t-96.5 31.5q-67 -1 -120.5 -46.5t-91.5 -115t-58 -144.5t-20 -134q0 -123 37.5 -193t89.5 -70q30 0 77 47.5t98.5 122t93.5 154.5l-23 -183q-36 -61 -90 -130.5
t-114.5 -118.5t-117.5 -49q-45 0 -96 34.5t-86.5 110.5t-35.5 201q0 158 75.5 299t216.5 238q54 37 127.5 65.5t142.5 28.5q47 0 89.5 -23.5t77 -47.5t58.5 -27zM933 1334q-29 -54 -68.5 -109.5t-87.5 -93.5t-102 -38q-45 0 -81.5 27t-70 54t-72.5 27q-38 0 -73 -31t-76 -87
l-50 24q27 53 67 108.5t88.5 93.5t102.5 38q48 0 86 -26.5t70.5 -53.5t64.5 -27q37 0 74 30.5t76 86.5z" />
    <glyph glyph-name="adieresis" unicode="&#xe4;" horiz-adv-x="943" 
d="M927 81q-85 -58 -146.5 -90t-92.5 -32q-24 0 -49 25t-41.5 93t-16.5 197q0 28 9.5 97t23.5 150.5t26.5 150.5t17.5 98q6 31 40.5 61t81.5 57t92 48l24 -45q-34 -28 -48 -50.5t-27 -90.5q-21 -95 -36.5 -191t-24.5 -169.5t-9 -102.5q0 -99 13.5 -143.5t37.5 -44.5
q20 0 46 5.5t66 22.5zM835 838q-29 -20 -45.5 -54.5t-29 -62t-30.5 -27.5q-17 0 -50.5 31t-78 62.5t-96.5 31.5q-67 -1 -120.5 -46.5t-91.5 -115t-58 -144.5t-20 -134q0 -123 37.5 -193t89.5 -70q30 0 77 47.5t98.5 122t93.5 154.5l-23 -183q-36 -61 -90 -130.5
t-114.5 -118.5t-117.5 -49q-45 0 -96 34.5t-86.5 110.5t-35.5 201q0 158 75.5 299t216.5 238q54 37 127.5 65.5t142.5 28.5q47 0 89.5 -23.5t77 -47.5t58.5 -27zM886 1265q0 -58 -37 -112t-101 -54q-36 0 -55.5 22t-19.5 58t16.5 75t47.5 65.5t72 26.5q37 0 57 -23t20 -58z
M509 1265q0 -58 -37 -112t-100 -54q-37 0 -56.5 22t-19.5 58t17 75t48 65.5t72 26.5q36 0 56 -23t20 -58z" />
    <glyph glyph-name="aring" unicode="&#xe5;" horiz-adv-x="943" 
d="M927 81q-85 -58 -146.5 -90t-92.5 -32q-24 0 -49 25t-41.5 93t-16.5 197q0 28 9.5 97t23.5 150.5t26.5 150.5t17.5 98q6 31 40.5 61t81.5 57t92 48l24 -45q-34 -28 -48 -50.5t-27 -90.5q-21 -95 -36.5 -191t-24.5 -169.5t-9 -102.5q0 -99 13.5 -143.5t37.5 -44.5
q20 0 46 5.5t66 22.5zM835 838q-29 -20 -45.5 -54.5t-29 -62t-30.5 -27.5q-17 0 -50.5 31t-78 62.5t-96.5 31.5q-67 -1 -120.5 -46.5t-91.5 -115t-58 -144.5t-20 -134q0 -123 37.5 -193t89.5 -70q30 0 77 47.5t98.5 122t93.5 154.5l-23 -183q-36 -61 -90 -130.5
t-114.5 -118.5t-117.5 -49q-45 0 -96 34.5t-86.5 110.5t-35.5 201q0 158 75.5 299t216.5 238q54 37 127.5 65.5t142.5 28.5q47 0 89.5 -23.5t77 -47.5t58.5 -27zM771 1288q0 -56 -31.5 -117t-84 -103t-117.5 -42q-58 0 -92.5 39.5t-34.5 91.5q0 60 31 122t84 103.5t118 41.5
q58 0 92.5 -39.5t34.5 -96.5zM671 1251q0 33 -15 57.5t-43 24.5q-50 0 -77 -43t-27 -90q0 -35 16 -60t44 -25q47 0 74.5 44t27.5 92z" />
    <glyph glyph-name="ae" unicode="&#xe6;" horiz-adv-x="1325" 
d="M1285 760q0 -44 -19 -94t-78.5 -106.5t-179 -120.5t-320.5 -134l-7 15.5t-9.5 36t10.5 34.5q141 53 224.5 96.5t124.5 81.5t54 73.5t13 72.5q0 56 -27 81t-59 25q-17 0 -48 -13.5t-59 -40.5q-68 -65 -116.5 -172.5t-48.5 -217.5q0 -87 26 -152t64 -100.5t75 -35.5
q42 0 121.5 29t200.5 126q11 -6 21 -25t14 -26q-110 -96 -189.5 -146t-138.5 -69t-109 -19q-45 0 -104 33.5t-103 109t-44 201.5q0 157 74.5 298.5t206.5 244.5q48 37 117 63.5t130 26.5q92 0 137.5 -55.5t45.5 -120.5zM865 899q-23 -19 -36.5 -33.5t-22.5 -37.5t-20 -68
q-14 -72 -49.5 -154.5t-75 -156.5t-68 -121l-28.5 -47l6 41t16 104.5t20 131.5t19 123.5t13 78.5q10 46 64 94t134 82zM811 842q-28 -19 -43 -54.5t-26 -64.5t-27 -29q-19 0 -53 31t-79 62.5t-96 31.5q-67 0 -119.5 -45.5t-89.5 -115.5t-56 -145t-19 -134q0 -125 36.5 -194
t87.5 -69q30 0 77 48t98.5 122.5t96.5 155.5l-14 -178q-38 -65 -95 -136t-119.5 -120t-118.5 -49q-45 0 -94.5 34.5t-84.5 110.5t-35 201q0 158 73 299t216 238q54 37 125 65.5t140 28.5q48 0 89 -22t74 -45.5t56 -26.5z" />
    <glyph glyph-name="ccedilla" unicode="&#xe7;" horiz-adv-x="821" 
d="M844 818q-28 -23 -62.5 -50t-66 -45.5t-50.5 -18.5q-16 0 -40 28.5t-56 57.5t-73 29q-64 0 -112.5 -43.5t-81.5 -112t-50 -147t-17 -148.5q0 -129 50.5 -204t128.5 -75q42 0 116.5 32t181.5 120q8 -9 20.5 -26t16.5 -25q-104 -95 -182 -145t-138.5 -68t-112.5 -18
q-49 0 -109 32t-104 111.5t-44 219.5q0 90 25.5 184t84 180t156.5 151q56 37 136.5 68t149.5 31q59 0 101.5 -26t74 -55t57.5 -37zM506 -221q0 -53 -31.5 -96.5t-84 -69t-116.5 -25t-129 36.5l-2 49q64 -29 111 -24t72.5 30t25.5 55q0 53 -86 50q30 71 49.5 140.5
t29.5 126.5l78 -2q-7 -37 -18 -87t-17 -71q55 -1 86.5 -32.5t31.5 -80.5z" />
    <glyph glyph-name="egrave" unicode="&#xe8;" horiz-adv-x="825" 
d="M775 760q0 -44 -19.5 -95t-81 -108.5t-184.5 -122t-330 -134.5l-7 84q148 55 235 100t129 83t55 73t13 73q0 57 -26.5 82.5t-57.5 25.5q-16 0 -48 -13t-59 -41q-65 -63 -114.5 -167.5t-49.5 -214.5q0 -87 25 -154t63 -104.5t77 -37.5q42 0 121 29t200 126q11 -6 22 -25
t14 -26q-109 -96 -188 -146t-138 -69t-111 -19q-48 0 -108 33.5t-104.5 109t-44.5 201.5q0 157 73.5 295t203.5 241q46 36 116.5 66.5t138.5 30.5q94 0 139.5 -55.5t45.5 -120.5zM594 1049q-38 -24 -70 -25l-265 383l35 41q16 3 49 6.5t66.5 6.5t50.5 3z" />
    <glyph glyph-name="eacute" unicode="&#xe9;" horiz-adv-x="825" 
d="M775 760q0 -44 -19.5 -95t-81 -108.5t-184.5 -122t-330 -134.5l-7 84q148 55 235 100t129 83t55 73t13 73q0 57 -26.5 82.5t-57.5 25.5q-16 0 -48 -13t-59 -41q-65 -63 -114.5 -167.5t-49.5 -214.5q0 -87 25 -154t63 -104.5t77 -37.5q42 0 121 29t200 126q11 -6 22 -25
t14 -26q-109 -96 -188 -146t-138 -69t-111 -19q-48 0 -108 33.5t-104.5 109t-44.5 201.5q0 157 73.5 295t203.5 241q46 36 116.5 66.5t138.5 30.5q94 0 139.5 -55.5t45.5 -120.5zM860 1422l17 -50l-362 -348q-28 6 -53 40l260 398q14 -3 42.5 -10.5t56.5 -15.5t39 -14z" />
    <glyph glyph-name="ecircumflex" unicode="&#xea;" horiz-adv-x="825" 
d="M775 760q0 -44 -19.5 -95t-81 -108.5t-184.5 -122t-330 -134.5l-7 84q148 55 235 100t129 83t55 73t13 73q0 57 -26.5 82.5t-57.5 25.5q-16 0 -48 -13t-59 -41q-65 -63 -114.5 -167.5t-49.5 -214.5q0 -87 25 -154t63 -104.5t77 -37.5q42 0 121 29t200 126q11 -6 22 -25
t14 -26q-109 -96 -188 -146t-138 -69t-111 -19q-48 0 -108 33.5t-104.5 109t-44.5 201.5q0 157 73.5 295t203.5 241q46 36 116.5 66.5t138.5 30.5q94 0 139.5 -55.5t45.5 -120.5zM824 1074q-25 -37 -53 -50l-213 252l-278 -252q-9 6 -19.5 17.5t-20.5 32.5l289 373h107z" />
    <glyph glyph-name="edieresis" unicode="&#xeb;" horiz-adv-x="825" 
d="M775 760q0 -44 -19.5 -95t-81 -108.5t-184.5 -122t-330 -134.5l-7 84q148 55 235 100t129 83t55 73t13 73q0 57 -26.5 82.5t-57.5 25.5q-16 0 -48 -13t-59 -41q-65 -63 -114.5 -167.5t-49.5 -214.5q0 -87 25 -154t63 -104.5t77 -37.5q42 0 121 29t200 126q11 -6 22 -25
t14 -26q-109 -96 -188 -146t-138 -69t-111 -19q-48 0 -108 33.5t-104.5 109t-44.5 201.5q0 157 73.5 295t203.5 241q46 36 116.5 66.5t138.5 30.5q94 0 139.5 -55.5t45.5 -120.5zM845 1265q0 -58 -37 -112t-101 -54q-36 0 -55.5 22t-19.5 58t16.5 75t47.5 65.5t72 26.5
q37 0 57 -23t20 -58zM468 1265q0 -58 -37 -112t-100 -54q-37 0 -56.5 22t-19.5 58t17 75t48 65.5t72 26.5q36 0 56 -23t20 -58z" />
    <glyph glyph-name="igrave" unicode="&#xec;" horiz-adv-x="525" 
d="M483 85q-94 -56 -165.5 -91t-119.5 -35q-34 0 -55.5 31.5t-21.5 85.5q0 36 10 104.5t24.5 152t29 166t24.5 147.5t10 94q0 46 -11 56.5t-30 10.5q-12 0 -42.5 -8t-55.5 -16l-15 47q56 26 116 50t108.5 40t68.5 16q28 0 40.5 -19t12.5 -65q0 -35 -10 -105t-25 -156
t-30.5 -172.5t-25.5 -156t-10 -104.5q0 -59 30 -59q31 0 58 7.5t68 25.5zM424 1049q-38 -24 -70 -25l-265 383l35 41q16 3 49 6.5t66.5 6.5t50.5 3z" />
    <glyph glyph-name="iacute" unicode="&#xed;" horiz-adv-x="525" 
d="M483 85q-94 -56 -165.5 -91t-119.5 -35q-34 0 -55.5 31.5t-21.5 85.5q0 36 10 104.5t24.5 152t29 166t24.5 147.5t10 94q0 46 -11 56.5t-30 10.5q-12 0 -42.5 -8t-55.5 -16l-15 47q56 26 116 50t108.5 40t68.5 16q28 0 40.5 -19t12.5 -65q0 -35 -10 -105t-25 -156
t-30.5 -172.5t-25.5 -156t-10 -104.5q0 -59 30 -59q31 0 58 7.5t68 25.5zM691 1422l17 -50l-362 -348q-28 6 -53 40l260 398q14 -3 42.5 -10.5t56.5 -15.5t39 -14z" />
    <glyph glyph-name="icircumflex" unicode="&#xee;" horiz-adv-x="525" 
d="M483 85q-94 -56 -165.5 -91t-119.5 -35q-34 0 -55.5 31.5t-21.5 85.5q0 36 10 104.5t24.5 152t29 166t24.5 147.5t10 94q0 46 -11 56.5t-30 10.5q-12 0 -42.5 -8t-55.5 -16l-15 47q56 26 116 50t108.5 40t68.5 16q28 0 40.5 -19t12.5 -65q0 -35 -10 -105t-25 -156
t-30.5 -172.5t-25.5 -156t-10 -104.5q0 -59 30 -59q31 0 58 7.5t68 25.5zM655 1074q-25 -37 -53 -50l-213 252l-278 -252q-9 6 -19.5 17.5t-20.5 32.5l289 373h107z" />
    <glyph glyph-name="idieresis" unicode="&#xef;" horiz-adv-x="525" 
d="M483 85q-94 -56 -165.5 -91t-119.5 -35q-34 0 -55.5 31.5t-21.5 85.5q0 36 10 104.5t24.5 152t29 166t24.5 147.5t10 94q0 46 -11 56.5t-30 10.5q-12 0 -42.5 -8t-55.5 -16l-15 47q56 26 116 50t108.5 40t68.5 16q28 0 40.5 -19t12.5 -65q0 -35 -10 -105t-25 -156
t-30.5 -172.5t-25.5 -156t-10 -104.5q0 -59 30 -59q31 0 58 7.5t68 25.5zM676 1265q0 -58 -37 -112t-101 -54q-36 0 -55.5 22t-19.5 58t16.5 75t47.5 65.5t72 26.5q37 0 57 -23t20 -58zM299 1265q0 -58 -37 -112t-100 -54q-37 0 -56.5 22t-19.5 58t17 75t48 65.5t72 26.5
q36 0 56 -23t20 -58z" />
    <glyph glyph-name="eth" unicode="&#xf0;" horiz-adv-x="910" 
d="M943 1290l-585 -265q-32 5 -47 9t-42 14l-5 38l588 267q39 -8 53.5 -12t35.5 -13zM864 707q0 -158 -41.5 -294t-113 -238t-160.5 -159t-184 -57q-155 0 -236 104.5t-81 263.5q0 119 36.5 228.5t100.5 195t147 135.5t177 50q61 0 118 -45.5t93 -110.5t33 -126l-53 -202
q13 103 -21 185.5t-92.5 131.5t-118.5 49q-64 0 -111 -40.5t-78 -104.5t-46 -136.5t-15 -136.5q0 -91 27 -164.5t71 -116.5t94 -43q83 0 140 61.5t91 158.5t49.5 204t15.5 197q0 137 -39 247t-109 196q-56 66 -117.5 106.5t-159.5 24.5v54l215 84q205 -157 286.5 -336.5
t81.5 -365.5z" />
    <glyph glyph-name="ntilde" unicode="&#xf1;" horiz-adv-x="1035" 
d="M1001 85q-91 -54 -167 -90t-118 -36q-35 0 -55.5 31.5t-20.5 85.5q0 21 8.5 80t21.5 137t26 156.5t22 141t9 89.5q0 70 -14.5 98t-53.5 28q-18 0 -62.5 -24t-98.5 -74t-100 -128q-29 -48 -46 -115t-34 -164q-16 -89 -20.5 -148.5t-2.5 -114.5q-18 -8 -52.5 -23.5
t-68 -31.5t-50.5 -24l-35 34q20 99 40 214.5t35.5 224.5t25 192t9.5 118q0 46 -9.5 56.5t-27.5 10.5q-15 0 -50.5 -10t-53.5 -16l-16 49q57 25 119 48.5t111 39.5t67 16q28 0 35 -21t7 -92q0 -21 -3 -63t-6 -67q109 127 216 185t197 58q63 0 96.5 -36t33.5 -133
q0 -52 -13.5 -137t-31 -178.5t-31 -173t-13.5 -120.5q0 -34 9 -46.5t27 -12.5q43 0 120 33zM968 1334q-29 -54 -68.5 -109.5t-87.5 -93.5t-102 -38q-45 0 -81.5 27t-70 54t-72.5 27q-38 0 -73 -31t-76 -87l-50 24q27 53 67 108.5t88.5 93.5t102.5 38q48 0 86 -26.5
t70.5 -53.5t64.5 -27q37 0 74 30.5t76 86.5z" />
    <glyph glyph-name="ograve" unicode="&#xf2;" horiz-adv-x="879" 
d="M831 559q0 -133 -61 -268.5t-173 -227.5q-52 -43 -117 -73.5t-125 -30.5q-97 0 -165.5 50.5t-105 138t-36.5 196.5q0 143 53 267.5t186 228.5q51 40 115.5 68t128.5 28q157 0 228.5 -105.5t71.5 -271.5zM658 496q0 153 -53.5 234.5t-142.5 81.5q-68 0 -114 -39
t-74 -100.5t-40 -132t-12 -134.5q0 -89 27 -163t73 -118.5t101 -44.5q64 0 109 41t72.5 105.5t40.5 136.5t13 133zM587 1049q-38 -24 -70 -25l-265 383l35 41q16 3 49 6.5t66.5 6.5t50.5 3z" />
    <glyph glyph-name="oacute" unicode="&#xf3;" horiz-adv-x="879" 
d="M831 559q0 -133 -61 -268.5t-173 -227.5q-52 -43 -117 -73.5t-125 -30.5q-97 0 -165.5 50.5t-105 138t-36.5 196.5q0 143 53 267.5t186 228.5q51 40 115.5 68t128.5 28q157 0 228.5 -105.5t71.5 -271.5zM658 496q0 153 -53.5 234.5t-142.5 81.5q-68 0 -114 -39
t-74 -100.5t-40 -132t-12 -134.5q0 -89 27 -163t73 -118.5t101 -44.5q64 0 109 41t72.5 105.5t40.5 136.5t13 133zM853 1422l17 -50l-362 -348q-28 6 -53 40l260 398q14 -3 42.5 -10.5t56.5 -15.5t39 -14z" />
    <glyph glyph-name="ocircumflex" unicode="&#xf4;" horiz-adv-x="879" 
d="M831 559q0 -133 -61 -268.5t-173 -227.5q-52 -43 -117 -73.5t-125 -30.5q-97 0 -165.5 50.5t-105 138t-36.5 196.5q0 143 53 267.5t186 228.5q51 40 115.5 68t128.5 28q157 0 228.5 -105.5t71.5 -271.5zM658 496q0 153 -53.5 234.5t-142.5 81.5q-68 0 -114 -39
t-74 -100.5t-40 -132t-12 -134.5q0 -89 27 -163t73 -118.5t101 -44.5q64 0 109 41t72.5 105.5t40.5 136.5t13 133zM817 1074q-25 -37 -53 -50l-213 252l-278 -252q-9 6 -19.5 17.5t-20.5 32.5l289 373h107z" />
    <glyph glyph-name="otilde" unicode="&#xf5;" horiz-adv-x="879" 
d="M831 559q0 -133 -61 -268.5t-173 -227.5q-52 -43 -117 -73.5t-125 -30.5q-97 0 -165.5 50.5t-105 138t-36.5 196.5q0 143 53 267.5t186 228.5q51 40 115.5 68t128.5 28q157 0 228.5 -105.5t71.5 -271.5zM658 496q0 153 -53.5 234.5t-142.5 81.5q-68 0 -114 -39
t-74 -100.5t-40 -132t-12 -134.5q0 -89 27 -163t73 -118.5t101 -44.5q64 0 109 41t72.5 105.5t40.5 136.5t13 133zM885 1334q-29 -54 -68.5 -109.5t-87.5 -93.5t-102 -38q-45 0 -81.5 27t-70 54t-72.5 27q-38 0 -73 -31t-76 -87l-50 24q27 53 67 108.5t88.5 93.5t102.5 38
q48 0 86 -26.5t70.5 -53.5t64.5 -27q37 0 74 30.5t76 86.5z" />
    <glyph glyph-name="odieresis" unicode="&#xf6;" horiz-adv-x="879" 
d="M831 559q0 -133 -61 -268.5t-173 -227.5q-52 -43 -117 -73.5t-125 -30.5q-97 0 -165.5 50.5t-105 138t-36.5 196.5q0 143 53 267.5t186 228.5q51 40 115.5 68t128.5 28q157 0 228.5 -105.5t71.5 -271.5zM658 496q0 153 -53.5 234.5t-142.5 81.5q-68 0 -114 -39
t-74 -100.5t-40 -132t-12 -134.5q0 -89 27 -163t73 -118.5t101 -44.5q64 0 109 41t72.5 105.5t40.5 136.5t13 133zM838 1265q0 -58 -37 -112t-101 -54q-36 0 -55.5 22t-19.5 58t16.5 75t47.5 65.5t72 26.5q37 0 57 -23t20 -58zM461 1265q0 -58 -37 -112t-100 -54
q-37 0 -56.5 22t-19.5 58t17 75t48 65.5t72 26.5q36 0 56 -23t20 -58z" />
    <glyph glyph-name="divide" unicode="&#xf7;" horiz-adv-x="786" 
d="M514 828q-7 -49 -38.5 -84.5t-69.5 -35.5q-66 0 -54 84q7 50 38 84.5t69 34.5q67 0 55 -83zM446 334q-7 -49 -38 -84.5t-70 -35.5q-66 0 -55 85q7 49 38.5 84t69.5 35q67 0 55 -84zM731 599q-6 -21 -21 -51.5t-24 -47.5h-600l-21 27q8 20 22 49.5t24 48.5h600z" />
    <glyph glyph-name="oslash" unicode="&#xf8;" horiz-adv-x="879" 
d="M892 924l-752 -918q-19 -14 -63.5 -37.5t-67.5 -29.5l-23 33l752 920q26 15 64 37t65 29zM831 559q0 -133 -61 -268.5t-173 -227.5q-52 -43 -117 -73.5t-125 -30.5q-97 0 -165.5 50.5t-105 138t-36.5 196.5q0 143 53 267.5t186 228.5q51 40 115.5 68t128.5 28
q157 0 228.5 -105.5t71.5 -271.5zM658 496q0 153 -53.5 234.5t-142.5 81.5q-68 0 -114 -39t-74 -100.5t-40 -132t-12 -134.5q0 -89 27 -163t73 -118.5t101 -44.5q64 0 109 41t72.5 105.5t40.5 136.5t13 133z" />
    <glyph glyph-name="ugrave" unicode="&#xf9;" horiz-adv-x="1048" 
d="M1006 81q-80 -54 -144 -88t-105 -34q-30 0 -58 38t-41 123t2 225q7 68 20 142t24 140.5t11 112.5t-9.5 56.5t-27.5 10.5q-12 0 -40.5 -8t-50.5 -16l-16 47q56 26 115.5 50t106.5 40t67 16q28 0 37 -19t9 -65q0 -44 -12 -120.5t-27.5 -164.5t-27.5 -167t-12 -128
q0 -91 13.5 -132t38.5 -41q45 0 112 28zM676 443l-16 -167q-81 -138 -181.5 -227.5t-204.5 -89.5q-30 0 -66.5 27.5t-63.5 82.5t-27 136q0 45 11 119t25 156.5t25 152.5t11 107q0 46 -11.5 56.5t-29.5 10.5q-13 0 -44.5 -8t-56.5 -16l-13 47q57 26 118.5 50t110.5 40t68 16
q30 0 39.5 -19t9.5 -65q0 -44 -12 -123.5t-28 -170t-28 -170.5t-12 -123q0 -83 19.5 -121.5t50.5 -38.5q39 0 122 76.5t184 261.5zM668 1049q-38 -24 -70 -25l-265 383l35 41q16 3 49 6.5t66.5 6.5t50.5 3z" />
    <glyph glyph-name="uacute" unicode="&#xfa;" horiz-adv-x="1048" 
d="M1006 81q-80 -54 -144 -88t-105 -34q-30 0 -58 38t-41 123t2 225q7 68 20 142t24 140.5t11 112.5t-9.5 56.5t-27.5 10.5q-12 0 -40.5 -8t-50.5 -16l-16 47q56 26 115.5 50t106.5 40t67 16q28 0 37 -19t9 -65q0 -44 -12 -120.5t-27.5 -164.5t-27.5 -167t-12 -128
q0 -91 13.5 -132t38.5 -41q45 0 112 28zM676 443l-16 -167q-81 -138 -181.5 -227.5t-204.5 -89.5q-30 0 -66.5 27.5t-63.5 82.5t-27 136q0 45 11 119t25 156.5t25 152.5t11 107q0 46 -11.5 56.5t-29.5 10.5q-13 0 -44.5 -8t-56.5 -16l-13 47q57 26 118.5 50t110.5 40t68 16
q30 0 39.5 -19t9.5 -65q0 -44 -12 -123.5t-28 -170t-28 -170.5t-12 -123q0 -83 19.5 -121.5t50.5 -38.5q39 0 122 76.5t184 261.5zM934 1422l17 -50l-362 -348q-28 6 -53 40l260 398q14 -3 42.5 -10.5t56.5 -15.5t39 -14z" />
    <glyph glyph-name="ucircumflex" unicode="&#xfb;" horiz-adv-x="1048" 
d="M1006 81q-80 -54 -144 -88t-105 -34q-30 0 -58 38t-41 123t2 225q7 68 20 142t24 140.5t11 112.5t-9.5 56.5t-27.5 10.5q-12 0 -40.5 -8t-50.5 -16l-16 47q56 26 115.5 50t106.5 40t67 16q28 0 37 -19t9 -65q0 -44 -12 -120.5t-27.5 -164.5t-27.5 -167t-12 -128
q0 -91 13.5 -132t38.5 -41q45 0 112 28zM676 443l-16 -167q-81 -138 -181.5 -227.5t-204.5 -89.5q-30 0 -66.5 27.5t-63.5 82.5t-27 136q0 45 11 119t25 156.5t25 152.5t11 107q0 46 -11.5 56.5t-29.5 10.5q-13 0 -44.5 -8t-56.5 -16l-13 47q57 26 118.5 50t110.5 40t68 16
q30 0 39.5 -19t9.5 -65q0 -44 -12 -123.5t-28 -170t-28 -170.5t-12 -123q0 -83 19.5 -121.5t50.5 -38.5q39 0 122 76.5t184 261.5zM898 1074q-25 -37 -53 -50l-213 252l-278 -252q-9 6 -19.5 17.5t-20.5 32.5l289 373h107z" />
    <glyph glyph-name="udieresis" unicode="&#xfc;" horiz-adv-x="1048" 
d="M1006 81q-80 -54 -144 -88t-105 -34q-30 0 -58 38t-41 123t2 225q7 68 20 142t24 140.5t11 112.5t-9.5 56.5t-27.5 10.5q-12 0 -40.5 -8t-50.5 -16l-16 47q56 26 115.5 50t106.5 40t67 16q28 0 37 -19t9 -65q0 -44 -12 -120.5t-27.5 -164.5t-27.5 -167t-12 -128
q0 -91 13.5 -132t38.5 -41q45 0 112 28zM676 443l-16 -167q-81 -138 -181.5 -227.5t-204.5 -89.5q-30 0 -66.5 27.5t-63.5 82.5t-27 136q0 45 11 119t25 156.5t25 152.5t11 107q0 46 -11.5 56.5t-29.5 10.5q-13 0 -44.5 -8t-56.5 -16l-13 47q57 26 118.5 50t110.5 40t68 16
q30 0 39.5 -19t9.5 -65q0 -44 -12 -123.5t-28 -170t-28 -170.5t-12 -123q0 -83 19.5 -121.5t50.5 -38.5q39 0 122 76.5t184 261.5zM919 1265q0 -58 -37 -112t-101 -54q-36 0 -55.5 22t-19.5 58t16.5 75t47.5 65.5t72 26.5q37 0 57 -23t20 -58zM542 1265q0 -58 -37 -112
t-100 -54q-37 0 -56.5 22t-19.5 58t17 75t48 65.5t72 26.5q36 0 56 -23t20 -58z" />
    <glyph glyph-name="yacute" unicode="&#xfd;" horiz-adv-x="944" 
d="M532 50l-121 -153l-33 29q-15 86 -40.5 202.5t-55 235.5t-59 216t-51.5 145q-23 51 -38.5 66.5t-33.5 15.5q-13 0 -43.5 -8t-54.5 -16l-14 47q80 40 157 73t105 33t46 -29t42 -98q30 -84 66 -211t70.5 -270.5t57.5 -277.5zM916 860q0 -45 -37.5 -137.5t-115.5 -249
t-201 -391.5q-90 -173 -180 -304t-187.5 -204.5t-212.5 -73.5q-66 0 -117 22.5t-51 41.5q0 16 19.5 51.5t45.5 68.5t44 43q48 -37 83.5 -47.5t72.5 -10.5q89 0 178.5 106.5t189.5 298.5q52 98 105.5 207t98.5 209.5t73 175.5t28 105q0 53 -53 53q-36 0 -89 -23l-20 47
q72 41 137 64.5t104 23.5q34 0 59.5 -13t25.5 -63zM914 1422l17 -50l-362 -348q-28 6 -53 40l260 398q14 -3 42.5 -10.5t56.5 -15.5t39 -14z" />
    <glyph glyph-name="thorn" unicode="&#xfe;" horiz-adv-x="986" 
d="M911 627q0 -100 -29.5 -216t-94.5 -230q-31 -53 -75 -104t-98 -84.5t-114 -33.5q-45 0 -90 36t-87 93t-79 119l42 110q16 -37 57 -86t92.5 -85.5t101.5 -36.5q49 0 87 34t61 86q34 75 42 157.5t8 143.5q0 134 -38.5 197t-80.5 63q-31 0 -85.5 -39t-112.5 -111t-103 -172
l-6 144q94 147 169 215.5t133 88.5t101 20q81 0 140 -79.5t59 -229.5zM458 1427q0 -40 -24.5 -227.5t-72 -493t-117.5 -700.5q-35 -206 -42.5 -309.5t3.5 -130.5q-20 -5 -55.5 -18t-70.5 -26.5t-52 -21.5l-35 32q21 119 49 283.5t59 350.5t60.5 371.5t53.5 347t38 278
t14 163.5q0 46 -15.5 56.5t-37.5 10.5q-12 0 -35.5 -6.5t-42.5 -13.5l-19 -7l-15 49q57 25 120 49t114.5 40t71.5 16q34 0 42.5 -21.5t8.5 -71.5z" />
    <glyph glyph-name="ydieresis" unicode="&#xff;" horiz-adv-x="944" 
d="M532 50l-121 -153l-33 29q-15 86 -40.5 202.5t-55 235.5t-59 216t-51.5 145q-23 51 -38.5 66.5t-33.5 15.5q-13 0 -43.5 -8t-54.5 -16l-14 47q80 40 157 73t105 33t46 -29t42 -98q30 -84 66 -211t70.5 -270.5t57.5 -277.5zM916 860q0 -45 -37.5 -137.5t-115.5 -249
t-201 -391.5q-90 -173 -180 -304t-187.5 -204.5t-212.5 -73.5q-66 0 -117 22.5t-51 41.5q0 16 19.5 51.5t45.5 68.5t44 43q48 -37 83.5 -47.5t72.5 -10.5q89 0 178.5 106.5t189.5 298.5q52 98 105.5 207t98.5 209.5t73 175.5t28 105q0 53 -53 53q-36 0 -89 -23l-20 47
q72 41 137 64.5t104 23.5q34 0 59.5 -13t25.5 -63zM899 1265q0 -58 -37 -112t-101 -54q-36 0 -55.5 22t-19.5 58t16.5 75t47.5 65.5t72 26.5q37 0 57 -23t20 -58zM522 1265q0 -58 -37 -112t-100 -54q-37 0 -56.5 22t-19.5 58t17 75t48 65.5t72 26.5q36 0 56 -23t20 -58z" />
    <glyph glyph-name="Amacron" unicode="&#x100;" horiz-adv-x="1163" 
d="M415 540h317l-92 520zM751 439h-380l-138 -318q-13 -31 16.5 -44.5t105.5 -23.5l-7 -53h-388l7 53q64 12 101 25.5t50 42.5l481 1100q34 29 82.5 55t82.5 41l219 -1196q5 -27 25.5 -43t83.5 -25l-6 -53h-410l6 53q71 5 101 20.5t24 47.5zM1060 1548q-7 -22 -26.5 -57
t-28.5 -52h-574l-19 27q8 20 25.5 54.5t28.5 54.5h572z" />
    <glyph glyph-name="amacron" unicode="&#x101;" horiz-adv-x="943" 
d="M927 81q-85 -58 -146.5 -90t-92.5 -32q-24 0 -49 25t-41.5 93t-16.5 197q0 28 9.5 97t23.5 150.5t26.5 150.5t17.5 98q6 31 40.5 61t81.5 57t92 48l24 -45q-34 -28 -48 -50.5t-27 -90.5q-21 -95 -36.5 -191t-24.5 -169.5t-9 -102.5q0 -99 13.5 -143.5t37.5 -44.5
q20 0 46 5.5t66 22.5zM835 838q-29 -20 -45.5 -54.5t-29 -62t-30.5 -27.5q-17 0 -50.5 31t-78 62.5t-96.5 31.5q-67 -1 -120.5 -46.5t-91.5 -115t-58 -144.5t-20 -134q0 -123 37.5 -193t89.5 -70q30 0 77 47.5t98.5 122t93.5 154.5l-23 -183q-36 -61 -90 -130.5
t-114.5 -118.5t-117.5 -49q-45 0 -96 34.5t-86.5 110.5t-35.5 201q0 158 75.5 299t216.5 238q54 37 127.5 65.5t142.5 28.5q47 0 89.5 -23.5t77 -47.5t58.5 -27zM925 1261q-6 -22 -25.5 -57t-29.5 -52h-574l-18 27q7 20 24.5 54.5t29.5 54.5h572z" />
    <glyph glyph-name="Abreve" unicode="&#x102;" horiz-adv-x="1163" 
d="M415 540h317l-92 520zM751 439h-380l-138 -318q-13 -31 16.5 -44.5t105.5 -23.5l-7 -53h-388l7 53q64 12 101 25.5t50 42.5l481 1100q34 29 82.5 55t82.5 41l219 -1196q5 -27 25.5 -43t83.5 -25l-6 -53h-410l6 53q71 5 101 20.5t24 47.5zM1048 1655q-74 -161 -166.5 -224
t-171.5 -63q-88 0 -159.5 63.5t-105.5 223.5q14 17 31 31t32 22q28 -106 92.5 -148.5t121.5 -42.5q63 0 141 42.5t135 148.5q13 -8 27 -21t23 -32z" />
    <glyph glyph-name="abreve" unicode="&#x103;" horiz-adv-x="943" 
d="M927 81q-85 -58 -146.5 -90t-92.5 -32q-24 0 -49 25t-41.5 93t-16.5 197q0 28 9.5 97t23.5 150.5t26.5 150.5t17.5 98q6 31 40.5 61t81.5 57t92 48l24 -45q-34 -28 -48 -50.5t-27 -90.5q-21 -95 -36.5 -191t-24.5 -169.5t-9 -102.5q0 -99 13.5 -143.5t37.5 -44.5
q20 0 46 5.5t66 22.5zM835 838q-29 -20 -45.5 -54.5t-29 -62t-30.5 -27.5q-17 0 -50.5 31t-78 62.5t-96.5 31.5q-67 -1 -120.5 -46.5t-91.5 -115t-58 -144.5t-20 -134q0 -123 37.5 -193t89.5 -70q30 0 77 47.5t98.5 122t93.5 154.5l-23 -183q-36 -61 -90 -130.5
t-114.5 -118.5t-117.5 -49q-45 0 -96 34.5t-86.5 110.5t-35.5 201q0 158 75.5 299t216.5 238q54 37 127.5 65.5t142.5 28.5q47 0 89.5 -23.5t77 -47.5t58.5 -27zM907 1335q-74 -161 -166.5 -224t-171.5 -63q-88 0 -159.5 63.5t-105.5 223.5q14 17 31 31t32 22
q28 -106 92.5 -148.5t121.5 -42.5q63 0 141 42.5t135 148.5q13 -8 27 -21t23 -32z" />
    <glyph glyph-name="Aogonek" unicode="&#x104;" horiz-adv-x="1163" 
d="M415 540h317l-92 520zM751 439h-380l-138 -318q-13 -31 16.5 -44.5t105.5 -23.5l-7 -53h-388l7 53q64 12 101 25.5t50 42.5l481 1100q34 29 82.5 55t82.5 41l219 -1196q5 -27 25.5 -43t83.5 -25l-6 -53h-410l6 53q71 5 101 20.5t24 47.5zM951 -298q-46 -54 -113 -101
t-126 -47q-47 0 -89.5 24t-42.5 95q0 75 47 140.5t118 119.5t142 92l67 -6q-55 -36 -106 -83.5t-83.5 -100t-32.5 -103.5q0 -28 18.5 -43t48.5 -15q21 0 56.5 17t76.5 56z" />
    <glyph glyph-name="aogonek" unicode="&#x105;" horiz-adv-x="943" 
d="M927 81q-85 -58 -146.5 -90t-92.5 -32q-24 0 -49 25t-41.5 93t-16.5 197q0 28 9.5 97t23.5 150.5t26.5 150.5t17.5 98q6 31 40.5 61t81.5 57t92 48l24 -45q-34 -28 -48 -50.5t-27 -90.5q-21 -95 -36.5 -191t-24.5 -169.5t-9 -102.5q0 -99 13.5 -143.5t37.5 -44.5
q20 0 46 5.5t66 22.5zM835 838q-29 -20 -45.5 -54.5t-29 -62t-30.5 -27.5q-17 0 -50.5 31t-78 62.5t-96.5 31.5q-67 -1 -120.5 -46.5t-91.5 -115t-58 -144.5t-20 -134q0 -123 37.5 -193t89.5 -70q30 0 77 47.5t98.5 122t93.5 154.5l-23 -183q-36 -61 -90 -130.5
t-114.5 -118.5t-117.5 -49q-45 0 -96 34.5t-86.5 110.5t-35.5 201q0 158 75.5 299t216.5 238q54 37 127.5 65.5t142.5 28.5q47 0 89.5 -23.5t77 -47.5t58.5 -27zM828 -298q-46 -54 -113 -101t-126 -47q-47 0 -89.5 24t-42.5 95q0 75 47 140.5t118 119.5t142 92l67 -6
q-55 -36 -106 -83.5t-83.5 -100t-32.5 -103.5q0 -28 18.5 -43t48.5 -15q21 0 56.5 17t76.5 56z" />
    <glyph glyph-name="Cacute" unicode="&#x106;" horiz-adv-x="1010" 
d="M1036 1190q6 -5 -15.5 -38.5t-50.5 -70t-46 -51.5l-40 10q-36 51 -93 87.5t-139 36.5q-39 0 -85 -16.5t-86 -47.5q-63 -49 -107 -122t-70.5 -156t-39 -163t-12.5 -143q0 -145 49 -235t119.5 -131t137.5 -41q54 0 133 32.5t195 122.5q7 -7 17.5 -24.5t13.5 -28.5
q-135 -136 -247 -187t-205 -51q-106 0 -195.5 57t-144 166t-54.5 263q0 126 34 255.5t105.5 246.5t184.5 206q72 57 162 90t184 33q98 0 174.5 -29.5t120.5 -70.5zM1037 1638v-53l-465 -244q-14 9 -22 21.5t-16 33.5l385 319q13 -7 37.5 -22t48 -30t32.5 -25z" />
    <glyph glyph-name="cacute" unicode="&#x107;" horiz-adv-x="821" 
d="M844 818q-28 -23 -62.5 -50t-66 -45.5t-50.5 -18.5q-16 0 -40 28.5t-56 57.5t-73 29q-64 0 -112.5 -43.5t-81.5 -112t-50 -147t-17 -148.5q0 -129 50.5 -204t128.5 -75q42 0 116.5 32t181.5 120q8 -9 20.5 -26t16.5 -25q-104 -95 -182 -145t-138.5 -68t-112.5 -18
q-49 0 -109 32t-104 111.5t-44 219.5q0 90 25.5 184t84 180t156.5 151q56 37 136.5 68t149.5 31q59 0 101.5 -26t74 -55t57.5 -37zM889 1422l17 -50l-362 -348q-28 6 -53 40l260 398q14 -3 42.5 -10.5t56.5 -15.5t39 -14z" />
    <glyph glyph-name="Ccircumflex" unicode="&#x108;" horiz-adv-x="1010" 
d="M1036 1190q6 -5 -15.5 -38.5t-50.5 -70t-46 -51.5l-40 10q-36 51 -93 87.5t-139 36.5q-39 0 -85 -16.5t-86 -47.5q-63 -49 -107 -122t-70.5 -156t-39 -163t-12.5 -143q0 -145 49 -235t119.5 -131t137.5 -41q54 0 133 32.5t195 122.5q7 -7 17.5 -24.5t13.5 -28.5
q-135 -136 -247 -187t-205 -51q-106 0 -195.5 57t-144 166t-54.5 263q0 126 34 255.5t105.5 246.5t184.5 206q72 57 162 90t184 33q98 0 174.5 -29.5t120.5 -70.5zM990 1394q-25 -37 -53 -50l-219 192l-272 -192q-9 6 -20 17.5t-20 32.5l282 306h107z" />
    <glyph glyph-name="ccircumflex" unicode="&#x109;" horiz-adv-x="821" 
d="M844 818q-28 -23 -62.5 -50t-66 -45.5t-50.5 -18.5q-16 0 -40 28.5t-56 57.5t-73 29q-64 0 -112.5 -43.5t-81.5 -112t-50 -147t-17 -148.5q0 -129 50.5 -204t128.5 -75q42 0 116.5 32t181.5 120q8 -9 20.5 -26t16.5 -25q-104 -95 -182 -145t-138.5 -68t-112.5 -18
q-49 0 -109 32t-104 111.5t-44 219.5q0 90 25.5 184t84 180t156.5 151q56 37 136.5 68t149.5 31q59 0 101.5 -26t74 -55t57.5 -37zM853 1074q-25 -37 -53 -50l-213 252l-278 -252q-9 6 -19.5 17.5t-20.5 32.5l289 373h107z" />
    <glyph glyph-name="Cdotaccent" unicode="&#x10a;" horiz-adv-x="1010" 
d="M1036 1190q6 -5 -15.5 -38.5t-50.5 -70t-46 -51.5l-40 10q-36 51 -93 87.5t-139 36.5q-39 0 -85 -16.5t-86 -47.5q-63 -49 -107 -122t-70.5 -156t-39 -163t-12.5 -143q0 -145 49 -235t119.5 -131t137.5 -41q54 0 133 32.5t195 122.5q7 -7 17.5 -24.5t13.5 -28.5
q-135 -136 -247 -187t-205 -51q-106 0 -195.5 57t-144 166t-54.5 263q0 126 34 255.5t105.5 246.5t184.5 206q72 57 162 90t184 33q98 0 174.5 -29.5t120.5 -70.5zM821 1549q0 -58 -36 -112t-99 -54q-37 0 -55.5 22t-18.5 58q0 37 16.5 75.5t46.5 65t71 26.5q36 0 55.5 -23
t19.5 -58z" />
    <glyph glyph-name="cdotaccent" unicode="&#x10b;" horiz-adv-x="821" 
d="M844 818q-28 -23 -62.5 -50t-66 -45.5t-50.5 -18.5q-16 0 -40 28.5t-56 57.5t-73 29q-64 0 -112.5 -43.5t-81.5 -112t-50 -147t-17 -148.5q0 -129 50.5 -204t128.5 -75q42 0 116.5 32t181.5 120q8 -9 20.5 -26t16.5 -25q-104 -95 -182 -145t-138.5 -68t-112.5 -18
q-49 0 -109 32t-104 111.5t-44 219.5q0 90 25.5 184t84 180t156.5 151q56 37 136.5 68t149.5 31q59 0 101.5 -26t74 -55t57.5 -37zM691 1260q0 -58 -36.5 -112t-98.5 -54q-37 0 -56 22t-19 58t16.5 75t47 65.5t71.5 26.5q36 0 55.5 -23t19.5 -58z" />
    <glyph glyph-name="Ccaron" unicode="&#x10c;" horiz-adv-x="1010" 
d="M1036 1190q6 -5 -15.5 -38.5t-50.5 -70t-46 -51.5l-40 10q-36 51 -93 87.5t-139 36.5q-39 0 -85 -16.5t-86 -47.5q-63 -49 -107 -122t-70.5 -156t-39 -163t-12.5 -143q0 -145 49 -235t119.5 -131t137.5 -41q54 0 133 32.5t195 122.5q7 -7 17.5 -24.5t13.5 -28.5
q-135 -136 -247 -187t-205 -51q-106 0 -195.5 57t-144 166t-54.5 263q0 126 34 255.5t105.5 246.5t184.5 206q72 57 162 90t184 33q98 0 174.5 -29.5t120.5 -70.5zM1029 1674l-278 -306h-107l-196 306q14 18 25.5 28t26.5 22l219 -192l271 192q12 -11 21 -21.5t18 -28.5z
" />
    <glyph glyph-name="ccaron" unicode="&#x10d;" horiz-adv-x="821" 
d="M844 818q-28 -23 -62.5 -50t-66 -45.5t-50.5 -18.5q-16 0 -40 28.5t-56 57.5t-73 29q-64 0 -112.5 -43.5t-81.5 -112t-50 -147t-17 -148.5q0 -129 50.5 -204t128.5 -75q42 0 116.5 32t181.5 120q8 -9 20.5 -26t16.5 -25q-104 -95 -182 -145t-138.5 -68t-112.5 -18
q-49 0 -109 32t-104 111.5t-44 219.5q0 90 25.5 184t84 180t156.5 151q56 37 136.5 68t149.5 31q59 0 101.5 -26t74 -55t57.5 -37zM896 1406l-285 -358h-107l-192 358q15 18 26 28t27 22l214 -236l278 236q12 -10 21 -20.5t18 -29.5z" />
    <glyph glyph-name="Dcaron" unicode="&#x10e;" horiz-adv-x="1148" 
d="M1112 748q0 -132 -41 -264.5t-120.5 -242t-195 -175.5t-264.5 -66h-493l7 53q63 14 100 31t38 30l147 1068l-149 -18v73q114 27 233 40t222 13q252 0 384 -147.5t132 -394.5zM527 1199q-15 0 -30 -1t-30 -1l-143 -1050q-4 -30 25.5 -42.5t120.5 -12.5q108 0 192 58.5
t141.5 153.5t87 206.5t29.5 216.5q0 214 -98.5 343t-294.5 129zM1011 1674l-278 -306h-107l-196 306q14 18 25.5 28t26.5 22l219 -192l271 192q12 -11 21 -21.5t18 -28.5z" />
    <glyph glyph-name="dcaron" unicode="&#x10f;" horiz-adv-x="1249" 
d="M945 80q-84 -57 -146 -89t-98 -32q-38 0 -70.5 70t-32.5 258q0 30 10.5 105t26.5 176.5t34.5 213.5t35 219t27 192.5t10.5 132.5q0 46 -13.5 56.5t-31.5 10.5q-13 0 -46 -9t-59 -18l-13 49q60 28 120.5 51.5t107.5 38.5t66 15q30 0 45 -18t15 -64q0 -52 -12 -142.5
t-30.5 -203t-39 -231.5t-39 -229.5t-30.5 -196.5t-12 -131q0 -105 12 -154t36 -49q25 0 51.5 5.5t61.5 20.5zM831 806l-86 -159q-18 0 -42.5 25.5t-55.5 60t-68.5 60.5t-81.5 26q-67 0 -119 -45.5t-88.5 -115.5t-55.5 -145t-19 -134q0 -123 43 -193t96 -70q49 0 122.5 90.5
t153.5 239.5l-28 -186q-72 -125 -159 -213t-169 -88q-48 0 -100.5 37t-89 116t-36.5 203q0 158 71 295.5t213 231.5q55 36 128.5 65t139.5 29q38 0 76.5 -32.5l77 -65t77.5 -32.5zM1276 1288q-16 -68 -74 -143t-153 -128l-36 39q90 75 106 159q9 52 -16.5 88.5t-94.5 36.5
l-6 45q13 14 57.5 32t91.5 31t67 11q47 -27 57.5 -74t0.5 -97z" />
    <glyph glyph-name="Dcroat" unicode="&#x110;" horiz-adv-x="1148" 
d="M656 684l-36 -75h-533l-20 27q6 15 16.5 36.5t18.5 37.5h532zM1112 748q0 -132 -41 -264.5t-120.5 -242t-195 -175.5t-264.5 -66h-493l7 53q63 14 100 31t38 30l147 1068l-149 -18v73q114 27 233 40t222 13q252 0 384 -147.5t132 -394.5zM527 1199q-15 0 -30 -1t-30 -1
l-143 -1050q-4 -30 25.5 -42.5t120.5 -12.5q108 0 192 58.5t141.5 153.5t87 206.5t29.5 216.5q0 214 -98.5 343t-294.5 129z" />
    <glyph glyph-name="dcroat" unicode="&#x111;" horiz-adv-x="985" 
d="M1067 1176l-37 -74h-582l-22 26q6 15 17 37t20 37h583zM945 80q-84 -57 -146 -89t-98 -32q-38 0 -70.5 70t-32.5 258q0 30 10.5 105t26.5 176.5t34.5 213.5t35 219t27 192.5t10.5 132.5q0 46 -13.5 56.5t-31.5 10.5q-12 0 -37 -6.5t-46.5 -13.5l-21.5 -7l-13 49
q60 28 120.5 51.5t107.5 38.5t66 15q30 0 45 -18t15 -64q0 -52 -12 -142.5t-30.5 -203t-39 -231.5t-39 -229.5t-30.5 -196.5t-12 -131q0 -105 12 -154t36 -49q25 0 51.5 5.5t61.5 20.5zM831 806q-29 -19 -40.5 -57.5t-19.5 -70t-26 -31.5t-42.5 25.5t-55.5 60t-68.5 60.5
t-81.5 26q-67 0 -119 -45.5t-88.5 -115.5t-55.5 -145t-19 -134q0 -123 43 -193t96 -70q49 0 122.5 90.5t153.5 239.5l-28 -186q-72 -125 -159 -213t-169 -88q-48 0 -100.5 37t-89 116t-36.5 203q0 158 71 295.5t213 231.5q56 35 129 64t139 29q28 0 59.5 -20.5t62.5 -47
t59 -45.5t50 -16z" />
    <glyph glyph-name="Emacron" unicode="&#x112;" horiz-adv-x="967" 
d="M962 1233q-6 -34 -18.5 -81.5t-26.5 -91.5t-25 -70h-52q9 92 -4.5 130.5t-48.5 38.5h-373l40 101h481zM797 705q-19 -28 -48.5 -63t-51.5 -52q-30 33 -74 44t-148 11h-142l32 90h410zM886 264q-20 -86 -41.5 -160.5t-32.5 -103.5h-814l7 53q63 14 100.5 31t38.5 30
l143 1031q1 12 -29 30t-94 32l7 53h438l-7 -53q-64 -7 -101 -16.5t-40 -24.5l-136 -1002q-3 -20 8.5 -34.5t50.5 -22t120 -7.5h111q56 0 91.5 13.5t65.5 53.5t67 118zM959 1548q-7 -22 -26.5 -57t-28.5 -52h-574l-19 27q8 20 25.5 54.5t28.5 54.5h572z" />
    <glyph glyph-name="emacron" unicode="&#x113;" horiz-adv-x="825" 
d="M775 760q0 -44 -19.5 -95t-81 -108.5t-184.5 -122t-330 -134.5l-7 84q148 55 235 100t129 83t55 73t13 73q0 57 -26.5 82.5t-57.5 25.5q-16 0 -48 -13t-59 -41q-65 -63 -114.5 -167.5t-49.5 -214.5q0 -87 25 -154t63 -104.5t77 -37.5q42 0 121 29t200 126q11 -6 22 -25
t14 -26q-109 -96 -188 -146t-138 -69t-111 -19q-48 0 -108 33.5t-104.5 109t-44.5 201.5q0 157 73.5 295t203.5 241q46 36 116.5 66.5t138.5 30.5q94 0 139.5 -55.5t45.5 -120.5zM884 1261q-6 -22 -25.5 -57t-29.5 -52h-574l-18 27q7 20 24.5 54.5t29.5 54.5h572z" />
    <glyph glyph-name="Ebreve" unicode="&#x114;" horiz-adv-x="967" 
d="M962 1233q-6 -34 -18.5 -81.5t-26.5 -91.5t-25 -70h-52q9 92 -4.5 130.5t-48.5 38.5h-373l40 101h481zM797 705q-19 -28 -48.5 -63t-51.5 -52q-30 33 -74 44t-148 11h-142l32 90h410zM886 264q-20 -86 -41.5 -160.5t-32.5 -103.5h-814l7 53q63 14 100.5 31t38.5 30
l143 1031q1 12 -29 30t-94 32l7 53h438l-7 -53q-64 -7 -101 -16.5t-40 -24.5l-136 -1002q-3 -20 8.5 -34.5t50.5 -22t120 -7.5h111q56 0 91.5 13.5t65.5 53.5t67 118zM947 1655q-74 -161 -166.5 -224t-171.5 -63q-88 0 -159.5 63.5t-105.5 223.5q14 17 31 31t32 22
q28 -106 92.5 -148.5t121.5 -42.5q63 0 141 42.5t135 148.5q13 -8 27 -21t23 -32z" />
    <glyph glyph-name="ebreve" unicode="&#x115;" horiz-adv-x="825" 
d="M775 760q0 -44 -19.5 -95t-81 -108.5t-184.5 -122t-330 -134.5l-7 84q148 55 235 100t129 83t55 73t13 73q0 57 -26.5 82.5t-57.5 25.5q-16 0 -48 -13t-59 -41q-65 -63 -114.5 -167.5t-49.5 -214.5q0 -87 25 -154t63 -104.5t77 -37.5q42 0 121 29t200 126q11 -6 22 -25
t14 -26q-109 -96 -188 -146t-138 -69t-111 -19q-48 0 -108 33.5t-104.5 109t-44.5 201.5q0 157 73.5 295t203.5 241q46 36 116.5 66.5t138.5 30.5q94 0 139.5 -55.5t45.5 -120.5zM866 1335q-74 -161 -166.5 -224t-171.5 -63q-88 0 -159.5 63.5t-105.5 223.5q14 17 31 31
t32 22q28 -106 92.5 -148.5t121.5 -42.5q63 0 141 42.5t135 148.5q13 -8 27 -21t23 -32z" />
    <glyph glyph-name="Edotaccent" unicode="&#x116;" horiz-adv-x="967" 
d="M962 1233q-6 -34 -18.5 -81.5t-26.5 -91.5t-25 -70h-52q9 92 -4.5 130.5t-48.5 38.5h-373l40 101h481zM797 705q-19 -28 -48.5 -63t-51.5 -52q-30 33 -74 44t-148 11h-142l32 90h410zM886 264q-20 -86 -41.5 -160.5t-32.5 -103.5h-814l7 53q63 14 100.5 31t38.5 30
l143 1031q1 12 -29 30t-94 32l7 53h438l-7 -53q-64 -7 -101 -16.5t-40 -24.5l-136 -1002q-3 -20 8.5 -34.5t50.5 -22t120 -7.5h111q56 0 91.5 13.5t65.5 53.5t67 118zM731 1549q0 -58 -36 -112t-99 -54q-37 0 -55.5 22t-18.5 58q0 37 16.5 75.5t46.5 65t71 26.5
q36 0 55.5 -23t19.5 -58z" />
    <glyph glyph-name="edotaccent" unicode="&#x117;" horiz-adv-x="825" 
d="M775 760q0 -44 -19.5 -95t-81 -108.5t-184.5 -122t-330 -134.5l-7 84q148 55 235 100t129 83t55 73t13 73q0 57 -26.5 82.5t-57.5 25.5q-16 0 -48 -13t-59 -41q-65 -63 -114.5 -167.5t-49.5 -214.5q0 -87 25 -154t63 -104.5t77 -37.5q42 0 121 29t200 126q11 -6 22 -25
t14 -26q-109 -96 -188 -146t-138 -69t-111 -19q-48 0 -108 33.5t-104.5 109t-44.5 201.5q0 157 73.5 295t203.5 241q46 36 116.5 66.5t138.5 30.5q94 0 139.5 -55.5t45.5 -120.5zM663 1260q0 -58 -36.5 -112t-98.5 -54q-37 0 -56 22t-19 58t16.5 75t47 65.5t71.5 26.5
q36 0 55.5 -23t19.5 -58z" />
    <glyph glyph-name="Eogonek" unicode="&#x118;" horiz-adv-x="967" 
d="M962 1233q-6 -34 -18.5 -81.5t-26.5 -91.5t-25 -70h-52q9 92 -4.5 130.5t-48.5 38.5h-373l40 101h481zM797 705q-19 -28 -48.5 -63t-51.5 -52q-30 33 -74 44t-148 11h-142l32 90h410zM886 264q-20 -86 -41.5 -160.5t-32.5 -103.5h-814l7 53q63 14 100.5 31t38.5 30
l143 1031q1 12 -29 30t-94 32l7 53h438l-7 -53q-64 -7 -101 -16.5t-40 -24.5l-136 -1002q-3 -20 8.5 -34.5t50.5 -22t120 -7.5h111q56 0 91.5 13.5t65.5 53.5t67 118zM730 -298q-46 -54 -113 -101t-126 -47q-47 0 -89.5 24t-42.5 95q0 75 47 140.5t118 119.5t142 92l67 -6
q-55 -36 -106 -83.5t-83.5 -100t-32.5 -103.5q0 -28 18.5 -43t48.5 -15q21 0 56.5 17t76.5 56z" />
    <glyph glyph-name="eogonek" unicode="&#x119;" horiz-adv-x="825" 
d="M621 -272q-72 -80 -142 -127t-130 -47q-49 0 -82.5 28t-32.5 92q0 62 45.5 139.5t151.5 164.5q-21 -8 -55.5 -13.5t-60.5 -5.5q-48 0 -108 33.5t-104.5 109t-44.5 201.5q0 157 74 295t203 241q45 36 116 66.5t139 30.5q94 0 139.5 -55.5t45.5 -120.5q0 -42 -18 -90.5
t-73 -103t-163 -115t-288 -126.5q12 -107 61 -171.5t101 -64.5q42 0 121 29t200 126q11 -6 22 -25t14 -26q-19 -18 -40 -35.5t-48 -38.5q-143 -112 -214.5 -211t-71.5 -171q0 -62 55 -62q65 0 166 96zM394 767q-60 -58 -108 -154t-55 -198q160 63 235 113.5t97 94.5t22 90
q0 57 -26.5 82.5t-57.5 25.5q-16 0 -48 -13.5t-59 -40.5z" />
    <glyph glyph-name="Ecaron" unicode="&#x11a;" horiz-adv-x="967" 
d="M962 1233q-6 -34 -18.5 -81.5t-26.5 -91.5t-25 -70h-52q9 92 -4.5 130.5t-48.5 38.5h-373l40 101h481zM797 705q-19 -28 -48.5 -63t-51.5 -52q-30 33 -74 44t-148 11h-142l32 90h410zM886 264q-20 -86 -41.5 -160.5t-32.5 -103.5h-814l7 53q63 14 100.5 31t38.5 30
l143 1031q1 12 -29 30t-94 32l7 53h438l-7 -53q-64 -7 -101 -16.5t-40 -24.5l-136 -1002q-3 -20 8.5 -34.5t50.5 -22t120 -7.5h111q56 0 91.5 13.5t65.5 53.5t67 118zM939 1674l-278 -306h-107l-196 306q14 18 25.5 28t26.5 22l219 -192l271 192q12 -11 21 -21.5t18 -28.5z
" />
    <glyph glyph-name="ecaron" unicode="&#x11b;" horiz-adv-x="825" 
d="M775 760q0 -44 -19.5 -95t-81 -108.5t-184.5 -122t-330 -134.5l-7 84q148 55 235 100t129 83t55 73t13 73q0 57 -26.5 82.5t-57.5 25.5q-16 0 -48 -13t-59 -41q-65 -63 -114.5 -167.5t-49.5 -214.5q0 -87 25 -154t63 -104.5t77 -37.5q42 0 121 29t200 126q11 -6 22 -25
t14 -26q-109 -96 -188 -146t-138 -69t-111 -19q-48 0 -108 33.5t-104.5 109t-44.5 201.5q0 157 73.5 295t203.5 241q46 36 116.5 66.5t138.5 30.5q94 0 139.5 -55.5t45.5 -120.5zM867 1406l-285 -358h-107l-192 358q15 18 26 28t27 22l214 -236l278 236q12 -10 21 -20.5
t18 -29.5z" />
    <glyph glyph-name="Gcircumflex" unicode="&#x11c;" horiz-adv-x="1089" 
d="M1084 595l-6 -53q-54 -16 -79 -38t-28 -44q-5 -36 -13 -97.5t-15.5 -119.5t-10.5 -84q-101 -81 -176 -121.5t-133.5 -54.5t-112.5 -14q-115 0 -215 60.5t-162 174.5t-62 274q0 127 38 252t106.5 231.5t158.5 179.5q84 68 189 108.5t233 40.5q63 0 145.5 -26.5
t133.5 -75.5q8 -7 -13.5 -40t-52 -68t-48.5 -50l-38 8q-47 67 -109.5 99t-156.5 32q-40 0 -93 -25.5t-105 -70.5q-63 -53 -110 -147.5t-73 -203t-26 -201.5q0 -142 52 -233.5t130 -135.5t156 -44q47 0 94.5 14t83.5 39l40 299q2 14 -10 26.5t-58 26t-146 29.5l6 53h486z
M1025 1394q-25 -37 -53 -50l-219 192l-272 -192q-9 6 -20 17.5t-20 32.5l282 306h107z" />
    <glyph glyph-name="gcircumflex" unicode="&#x11d;" horiz-adv-x="928" 
d="M834 835q-29 -20 -47 -53t-32 -60t-30 -27q-19 0 -51 31t-75 62t-94 31q-67 0 -121 -45.5t-92.5 -115.5t-58.5 -145t-20 -134q0 -123 39 -193t94 -70q24 0 73 50t106.5 137.5t108.5 199.5l-18 -192q-46 -84 -105.5 -165t-123.5 -134t-123 -53q-44 0 -95.5 34.5t-88 110.5
t-36.5 201q0 158 73.5 298.5t221.5 238.5q56 37 128 65.5t143 28.5q45 0 87 -24t77.5 -49t59.5 -28zM901 891q-34 -28 -53.5 -69t-28.5 -113q-21 -158 -27 -279t-11.5 -223.5t-23.5 -205.5q-25 -138 -101 -252t-178 -181.5t-207 -67.5q-60 0 -125 20t-110.5 47.5t-45.5 51.5
q0 22 24.5 54.5t52 58t36.5 25.5q11 0 27 -19t42.5 -44t69.5 -44t110 -19q89 0 144 77.5t85 243.5q18 99 23.5 181t7.5 161t8.5 170t25.5 208q16 104 86 167t142 97zM828 1074q-25 -37 -53 -50l-213 252l-278 -252q-9 6 -19.5 17.5t-20.5 32.5l289 373h107z" />
    <glyph glyph-name="Gbreve" unicode="&#x11e;" horiz-adv-x="1089" 
d="M1084 595l-6 -53q-54 -16 -79 -38t-28 -44q-5 -36 -13 -97.5t-15.5 -119.5t-10.5 -84q-101 -81 -176 -121.5t-133.5 -54.5t-112.5 -14q-115 0 -215 60.5t-162 174.5t-62 274q0 127 38 252t106.5 231.5t158.5 179.5q84 68 189 108.5t233 40.5q63 0 145.5 -26.5
t133.5 -75.5q8 -7 -13.5 -40t-52 -68t-48.5 -50l-38 8q-47 67 -109.5 99t-156.5 32q-40 0 -93 -25.5t-105 -70.5q-63 -53 -110 -147.5t-73 -203t-26 -201.5q0 -142 52 -233.5t130 -135.5t156 -44q47 0 94.5 14t83.5 39l40 299q2 14 -10 26.5t-58 26t-146 29.5l6 53h486z
M1072 1655q-74 -161 -166.5 -224t-171.5 -63q-88 0 -159.5 63.5t-105.5 223.5q14 17 31 31t32 22q28 -106 92.5 -148.5t121.5 -42.5q63 0 141 42.5t135 148.5q13 -8 27 -21t23 -32z" />
    <glyph glyph-name="gbreve" unicode="&#x11f;" horiz-adv-x="928" 
d="M834 835q-29 -20 -47 -53t-32 -60t-30 -27q-19 0 -51 31t-75 62t-94 31q-67 0 -121 -45.5t-92.5 -115.5t-58.5 -145t-20 -134q0 -123 39 -193t94 -70q24 0 73 50t106.5 137.5t108.5 199.5l-18 -192q-46 -84 -105.5 -165t-123.5 -134t-123 -53q-44 0 -95.5 34.5t-88 110.5
t-36.5 201q0 158 73.5 298.5t221.5 238.5q56 37 128 65.5t143 28.5q45 0 87 -24t77.5 -49t59.5 -28zM901 891q-34 -28 -53.5 -69t-28.5 -113q-21 -158 -27 -279t-11.5 -223.5t-23.5 -205.5q-25 -138 -101 -252t-178 -181.5t-207 -67.5q-60 0 -125 20t-110.5 47.5t-45.5 51.5
q0 22 24.5 54.5t52 58t36.5 25.5q11 0 27 -19t42.5 -44t69.5 -44t110 -19q89 0 144 77.5t85 243.5q18 99 23.5 181t7.5 161t8.5 170t25.5 208q16 104 86 167t142 97zM870 1335q-74 -161 -166.5 -224t-171.5 -63q-88 0 -159.5 63.5t-105.5 223.5q14 17 31 31t32 22
q28 -106 92.5 -148.5t121.5 -42.5q63 0 141 42.5t135 148.5q13 -8 27 -21t23 -32z" />
    <glyph glyph-name="Gdotaccent" unicode="&#x120;" horiz-adv-x="1089" 
d="M1084 595l-6 -53q-54 -16 -79 -38t-28 -44q-5 -36 -13 -97.5t-15.5 -119.5t-10.5 -84q-101 -81 -176 -121.5t-133.5 -54.5t-112.5 -14q-115 0 -215 60.5t-162 174.5t-62 274q0 127 38 252t106.5 231.5t158.5 179.5q84 68 189 108.5t233 40.5q63 0 145.5 -26.5
t133.5 -75.5q8 -7 -13.5 -40t-52 -68t-48.5 -50l-38 8q-47 67 -109.5 99t-156.5 32q-40 0 -93 -25.5t-105 -70.5q-63 -53 -110 -147.5t-73 -203t-26 -201.5q0 -142 52 -233.5t130 -135.5t156 -44q47 0 94.5 14t83.5 39l40 299q2 14 -10 26.5t-58 26t-146 29.5l6 53h486z
M856 1549q0 -58 -36 -112t-99 -54q-37 0 -55.5 22t-18.5 58q0 37 16.5 75.5t46.5 65t71 26.5q36 0 55.5 -23t19.5 -58z" />
    <glyph glyph-name="gdotaccent" unicode="&#x121;" horiz-adv-x="928" 
d="M834 835q-29 -20 -47 -53t-32 -60t-30 -27q-19 0 -51 31t-75 62t-94 31q-67 0 -121 -45.5t-92.5 -115.5t-58.5 -145t-20 -134q0 -123 39 -193t94 -70q24 0 73 50t106.5 137.5t108.5 199.5l-18 -192q-46 -84 -105.5 -165t-123.5 -134t-123 -53q-44 0 -95.5 34.5t-88 110.5
t-36.5 201q0 158 73.5 298.5t221.5 238.5q56 37 128 65.5t143 28.5q45 0 87 -24t77.5 -49t59.5 -28zM901 891q-34 -28 -53.5 -69t-28.5 -113q-21 -158 -27 -279t-11.5 -223.5t-23.5 -205.5q-25 -138 -101 -252t-178 -181.5t-207 -67.5q-60 0 -125 20t-110.5 47.5t-45.5 51.5
q0 22 24.5 54.5t52 58t36.5 25.5q11 0 27 -19t42.5 -44t69.5 -44t110 -19q89 0 144 77.5t85 243.5q18 99 23.5 181t7.5 161t8.5 170t25.5 208q16 104 86 167t142 97zM666 1260q0 -58 -36.5 -112t-98.5 -54q-37 0 -56 22t-19 58t16.5 75t47 65.5t71.5 26.5q36 0 55.5 -23
t19.5 -58z" />
    <glyph glyph-name="Gcommaaccent" unicode="&#x122;" horiz-adv-x="1089" 
d="M1084 595l-6 -53q-54 -16 -79 -38t-28 -44q-5 -36 -13 -97.5t-15.5 -119.5t-10.5 -84q-101 -81 -176 -121.5t-133.5 -54.5t-112.5 -14q-115 0 -215 60.5t-162 174.5t-62 274q0 127 38 252t106.5 231.5t158.5 179.5q84 68 189 108.5t233 40.5q63 0 145.5 -26.5
t133.5 -75.5q8 -7 -13.5 -40t-52 -68t-48.5 -50l-38 8q-47 67 -109.5 99t-156.5 32q-40 0 -93 -25.5t-105 -70.5q-63 -53 -110 -147.5t-73 -203t-26 -201.5q0 -142 52 -233.5t130 -135.5t156 -44q47 0 94.5 14t83.5 39l40 299q2 14 -10 26.5t-58 26t-146 29.5l6 53h486z
M626 -274q-14 -69 -77 -137.5t-152 -119.5l-38 38q46 39 73.5 76t37.5 81q10 51 -14.5 81t-91.5 30l-6 48q12 14 56 31.5t89.5 29.5t64.5 9q47 -28 57 -72.5t1 -94.5z" />
    <glyph glyph-name="gcommaaccent" unicode="&#x123;" horiz-adv-x="928" 
d="M834 835q-29 -20 -47 -53t-32 -60t-30 -27q-19 0 -51 31t-75 62t-94 31q-67 0 -121 -45.5t-92.5 -115.5t-58.5 -145t-20 -134q0 -123 39 -193t94 -70q24 0 73 50t106.5 137.5t108.5 199.5l-18 -192q-46 -84 -105.5 -165t-123.5 -134t-123 -53q-44 0 -95.5 34.5t-88 110.5
t-36.5 201q0 158 73.5 298.5t221.5 238.5q56 37 128 65.5t143 28.5q45 0 87 -24t77.5 -49t59.5 -28zM901 891q-34 -28 -53.5 -69t-28.5 -113q-21 -158 -27 -279t-11.5 -223.5t-23.5 -205.5q-25 -138 -101 -252t-178 -181.5t-207 -67.5q-60 0 -125 20t-110.5 47.5t-45.5 51.5
q0 22 24.5 54.5t52 58t36.5 25.5q11 0 27 -19t42.5 -44t69.5 -44t110 -19q89 0 144 77.5t85 243.5q18 99 23.5 181t7.5 161t8.5 170t25.5 208q16 104 86 167t142 97zM445 1218q16 66 74 138.5t145 120.5l37 -37q-86 -76 -104 -157q-11 -50 13.5 -89.5t98.5 -39.5l5 -50
q-15 -13 -58.5 -30t-89 -29.5t-68.5 -10.5q-45 23 -56 75.5t3 108.5z" />
    <glyph glyph-name="Hcircumflex" unicode="&#x124;" horiz-adv-x="1259" 
d="M1312 1260l-7 -53q-64 -14 -101 -31t-39 -31l-143 -1031q-1 -12 29 -29.5t95 -31.5l-8 -53h-435l8 53q63 14 99.5 31t38.5 30l142 1031q1 12 -28.5 30t-93.5 32l6 53h437zM948 710l-13 -101h-577l15 101h575zM606 1260l-7 -53q-134 -30 -140 -62l-141 -1031
q-2 -12 28 -29.5t94 -31.5l-7 -53h-436l8 53q63 14 100 31t39 30l143 1031q1 12 -29 30t-94 32l7 53h435zM1049 1394q-25 -37 -53 -50l-219 192l-272 -192q-9 6 -20 17.5t-20 32.5l282 306h107z" />
    <glyph glyph-name="hcircumflex" unicode="&#x125;" horiz-adv-x="1033" 
d="M995 85q-92 -54 -166.5 -90t-120.5 -36q-29 0 -51.5 31.5t-22.5 85.5q0 21 8 80t21 137t25.5 156.5t21 141t8.5 89.5q0 72 -13 98.5t-51 26.5q-17 0 -62.5 -23.5t-101 -72.5t-102.5 -127q-28 -47 -46.5 -119.5t-31.5 -161.5q-16 -110 -19.5 -167t-3.5 -96
q-17 -8 -51.5 -23.5t-68.5 -31t-50 -24.5l-36 34q12 71 31 184.5t40.5 249.5t43 276t39 266t28.5 220.5t11 136.5q0 46 -12.5 56.5t-28.5 10.5q-17 0 -55 -10.5t-58 -16.5l-13 49q56 25 117.5 49t111.5 40t70 16q27 0 44 -18t17 -64q0 -28 -8 -98.5t-21 -162.5t-27.5 -187
t-27 -174t-19.5 -123q117 135 224 189t197 54q63 0 92 -37t29 -134q0 -52 -13 -136.5t-30 -177.5t-29.5 -172.5t-12.5 -120.5q0 -34 11 -46.5t25 -12.5q27 0 55.5 8.5t64.5 24.5zM687 1654q-25 -37 -53 -50l-219 192l-272 -192q-9 6 -20 17.5t-20 32.5l282 306h107z" />
    <glyph glyph-name="Hbar" unicode="&#x126;" horiz-adv-x="1261" 
d="M1307 1260l-7 -53q-64 -14 -101 -31t-39 -31l-142 -1031q-2 -12 28 -29.5t95 -31.5l-7 -53h-436l8 53q63 14 99.5 31t38.5 30l142 1031q1 12 -28.5 30t-93.5 32l6 53h437zM943 710l-13 -100h-577l15 100h575zM602 1260l-8 -53q-134 -30 -140 -62l-140 -1031
q-3 -12 27 -29.5t94 -31.5l-7 -53h-435l7 53q63 14 100.5 31t38.5 30l143 1031q1 12 -29 30t-94 32l7 53h436zM1273 963l-31 -77h-1109l-18 24q5 15 14 37.5t17 38.5h1108z" />
    <glyph glyph-name="hbar" unicode="&#x127;" horiz-adv-x="1033" 
d="M713 1176l-37 -74h-585l-19 26q5 15 15.5 37t19.5 37h587zM995 85q-92 -54 -166.5 -90t-120.5 -36q-29 0 -51.5 31.5t-22.5 85.5q0 21 8 80t21 137t25.5 156.5t21 141t8.5 89.5q0 72 -13 98.5t-51 26.5q-17 0 -62.5 -23.5t-101 -72.5t-102.5 -127q-28 -47 -46.5 -119.5
t-31.5 -161.5q-16 -110 -19.5 -167t-3.5 -96q-17 -8 -51.5 -23.5t-68.5 -31t-50 -24.5l-36 34q12 71 31 184.5t40.5 249.5t43 276t39 266t28.5 220.5t11 136.5q0 46 -12.5 56.5t-28.5 10.5t-53.5 -10t-59.5 -17l-13 49q56 25 117.5 49t111.5 40t70 16q27 0 44 -18t17 -64
q0 -28 -8 -98.5t-21 -162.5t-27.5 -187t-27 -174t-19.5 -123q117 135 224 189t197 54q63 0 92 -37t29 -134q0 -52 -13 -136.5t-30 -177.5t-29.5 -172.5t-12.5 -120.5q0 -34 11 -46.5t25 -12.5q27 0 55.5 8.5t64.5 24.5z" />
    <glyph glyph-name="Itilde" unicode="&#x128;" horiz-adv-x="593" 
d="M626 1260l-7 -53q-63 -14 -100 -31t-39 -31l-143 -1031q-1 -12 28.5 -29.5t94.5 -31.5l-7 -53h-435l8 53q63 14 99.5 30.5t39.5 30.5l140 1031q2 12 -28 30t-93 32l8 53h434zM781 1614q-29 -54 -68.5 -109.5t-87.5 -93.5t-102 -38q-45 0 -81.5 27t-70 54t-72.5 27
q-38 0 -73 -31t-76 -87l-50 24q27 53 67 108.5t88.5 93.5t102.5 38q48 0 86 -26.5t70.5 -53.5t64.5 -27q37 0 74 30.5t76 86.5z" />
    <glyph glyph-name="itilde" unicode="&#x129;" horiz-adv-x="525" 
d="M483 85q-94 -56 -165.5 -91t-119.5 -35q-34 0 -55.5 31.5t-21.5 85.5q0 36 10 104.5t24.5 152t29 166t24.5 147.5t10 94q0 46 -11 56.5t-30 10.5q-12 0 -42.5 -8t-55.5 -16l-15 47q56 26 116 50t108.5 40t68.5 16q28 0 40.5 -19t12.5 -65q0 -35 -10 -105t-25 -156
t-30.5 -172.5t-25.5 -156t-10 -104.5q0 -59 30 -59q31 0 58 7.5t68 25.5zM723 1334q-29 -54 -68.5 -109.5t-87.5 -93.5t-102 -38q-45 0 -81.5 27t-70 54t-72.5 27q-38 0 -73 -31t-76 -87l-50 24q27 53 67 108.5t88.5 93.5t102.5 38q48 0 86 -26.5t70.5 -53.5t64.5 -27
q37 0 74 30.5t76 86.5z" />
    <glyph glyph-name="Imacron" unicode="&#x12a;" horiz-adv-x="593" 
d="M626 1260l-7 -53q-63 -14 -100 -31t-39 -31l-143 -1031q-1 -12 28.5 -29.5t94.5 -31.5l-7 -53h-435l8 53q63 14 99.5 30.5t39.5 30.5l140 1031q2 12 -28 30t-93 32l8 53h434zM704 1548q-7 -22 -26 -57t-29 -52h-449l-19 27q8 20 25.5 54.5t28.5 54.5h447z" />
    <glyph glyph-name="imacron" unicode="&#x12b;" horiz-adv-x="525" 
d="M483 85q-94 -56 -165.5 -91t-119.5 -35q-34 0 -55.5 31.5t-21.5 85.5q0 36 10 104.5t24.5 152t29 166t24.5 147.5t10 94q0 46 -11 56.5t-30 10.5q-12 0 -42.5 -8t-55.5 -16l-15 47q56 26 116 50t108.5 40t68.5 16q28 0 40.5 -19t12.5 -65q0 -35 -10 -105t-25 -156
t-30.5 -172.5t-25.5 -156t-10 -104.5q0 -59 30 -59q31 0 58 7.5t68 25.5zM653 1261q-6 -22 -25.5 -57t-29.5 -52h-449l-18 27q7 20 24.5 54.5t29.5 54.5h447z" />
    <glyph glyph-name="Ibreve" unicode="&#x12c;" horiz-adv-x="593" 
d="M626 1260l-7 -53q-63 -14 -100 -31t-39 -31l-143 -1031q-1 -12 28.5 -29.5t94.5 -31.5l-7 -53h-435l8 53q63 14 99.5 30.5t39.5 30.5l140 1031q2 12 -28 30t-93 32l8 53h434zM760 1655q-74 -161 -166.5 -224t-171.5 -63q-88 0 -159.5 63.5t-105.5 223.5q14 17 31 31
t32 22q28 -106 92.5 -148.5t121.5 -42.5q63 0 141 42.5t135 148.5q13 -8 27 -21t23 -32z" />
    <glyph glyph-name="ibreve" unicode="&#x12d;" horiz-adv-x="525" 
d="M483 85q-94 -56 -165.5 -91t-119.5 -35q-34 0 -55.5 31.5t-21.5 85.5q0 36 10 104.5t24.5 152t29 166t24.5 147.5t10 94q0 46 -11 56.5t-30 10.5q-12 0 -42.5 -8t-55.5 -16l-15 47q56 26 116 50t108.5 40t68.5 16q28 0 40.5 -19t12.5 -65q0 -35 -10 -105t-25 -156
t-30.5 -172.5t-25.5 -156t-10 -104.5q0 -59 30 -59q31 0 58 7.5t68 25.5zM697 1335q-74 -161 -166.5 -224t-171.5 -63q-88 0 -159.5 63.5t-105.5 223.5q14 17 31 31t32 22q28 -106 92.5 -148.5t121.5 -42.5q63 0 141 42.5t135 148.5q13 -8 27 -21t23 -32z" />
    <glyph glyph-name="Iogonek" unicode="&#x12e;" horiz-adv-x="593" 
d="M626 1260l-7 -53q-63 -14 -100 -31t-39 -31l-143 -1031q-1 -12 28.5 -29.5t94.5 -31.5l-7 -53h-435l8 53q63 14 99.5 30.5t39.5 30.5l140 1031q2 12 -28 30t-93 32l8 53h434zM392 -298q-46 -54 -113 -101t-126 -47q-47 0 -89.5 24t-42.5 95q0 75 47 140.5t118 119.5
t142 92l67 -6q-55 -36 -106 -83.5t-83.5 -100t-32.5 -103.5q0 -28 18.5 -43t48.5 -15q21 0 56.5 17t76.5 56z" />
    <glyph glyph-name="iogonek" unicode="&#x12f;" horiz-adv-x="525" 
d="M508 1262q0 -55 -37 -108t-103 -53q-38 0 -58 20.5t-20 54.5q0 36 17 73.5t49 63t75 25.5q38 0 57.5 -21t19.5 -55zM483 85q-94 -56 -165.5 -91t-119.5 -35q-34 0 -55.5 31.5t-21.5 85.5q0 36 10 104.5t24.5 152t29 166t24.5 147.5t10 94q0 46 -11 56.5t-30 10.5
q-12 0 -42.5 -8t-55.5 -16l-15 47q56 26 116 50t108.5 40t68.5 16q28 0 40.5 -19t12.5 -65q0 -35 -10 -105t-25 -156t-30.5 -172.5t-25.5 -156t-10 -104.5q0 -59 30 -59q31 0 58 7.5t68 25.5zM374 -298q-46 -54 -113 -101t-126 -47q-47 0 -89.5 24t-42.5 95q0 75 47 140.5
t118 119.5t142 92l67 -6q-55 -36 -106 -83.5t-83.5 -100t-32.5 -103.5q0 -28 18.5 -43t48.5 -15q21 0 56.5 17t76.5 56z" />
    <glyph glyph-name="Idotaccent" unicode="&#x130;" horiz-adv-x="593" 
d="M626 1260l-7 -53q-63 -14 -100 -31t-39 -31l-143 -1031q-1 -12 28.5 -29.5t94.5 -31.5l-7 -53h-435l8 53q63 14 99.5 30.5t39.5 30.5l140 1031q2 12 -28 30t-93 32l8 53h434zM544 1549q0 -58 -36 -112t-99 -54q-37 0 -55.5 22t-18.5 58q0 37 16.5 75.5t46.5 65t71 26.5
q36 0 55.5 -23t19.5 -58z" />
    <glyph glyph-name="dotlessi" unicode="&#x131;" horiz-adv-x="525" 
d="M483 85q-94 -56 -165.5 -91t-119.5 -35q-34 0 -55.5 31.5t-21.5 85.5q0 36 10 104.5t24.5 152t29 166t24.5 147.5t10 94q0 46 -11 56.5t-30 10.5q-12 0 -42.5 -8t-55.5 -16l-15 47q56 26 116 50t108.5 40t68.5 16q28 0 40.5 -19t12.5 -65q0 -35 -10 -105t-25 -156
t-30.5 -172.5t-25.5 -156t-10 -104.5q0 -59 30 -59q31 0 58 7.5t68 25.5z" />
    <glyph glyph-name="IJ" unicode="&#x132;" horiz-adv-x="1191" 
d="M626 1260l-7 -53q-63 -14 -100 -31t-39 -31l-143 -1031q-1 -12 28.5 -29.5t94.5 -31.5l-7 -53h-435l8 53q63 14 99.5 30.5t39.5 30.5l140 1031q2 12 -28 30t-93 32l8 53h434zM1245 1260l-8 -53q-63 -14 -100.5 -31t-39.5 -31l-129 -940q-21 -155 -62.5 -248t-93.5 -148.5
t-106 -97.5t-126.5 -69.5t-116.5 -27.5q-41 0 -77.5 16t-59 36t-22.5 33q0 14 28 42.5t61 53t50 24.5q13 0 30.5 -16.5t44.5 -33.5t68 -17q31 0 69.5 30t73.5 112.5t56 238.5l139 1012q2 12 -29.5 28.5t-138.5 33.5l6 53h483z" />
    <glyph glyph-name="ij" unicode="&#x133;" horiz-adv-x="1048" 
d="M508 1262q0 -55 -37 -108t-103 -53q-38 0 -58 20.5t-20 54.5q0 36 17 73.5t49 63t75 25.5q38 0 57.5 -21t19.5 -55zM483 85q-94 -56 -165.5 -91t-119.5 -35q-34 0 -55.5 31.5t-21.5 85.5q0 36 10 104.5t24.5 152t29 166t24.5 147.5t10 94q0 46 -11 56.5t-30 10.5
q-12 0 -42.5 -8t-55.5 -16l-15 47q56 26 116 50t108.5 40t68.5 16q28 0 40.5 -19t12.5 -65q0 -35 -10 -105t-25 -156t-30.5 -172.5t-25.5 -156t-10 -104.5q0 -59 30 -59q31 0 58 7.5t68 25.5zM1009 1262q0 -55 -38 -108t-104 -53q-38 0 -57.5 20.5t-19.5 54.5q0 36 17 73.5
t48.5 63t75.5 25.5q38 0 58 -21t20 -55zM926 870q0 -16 -5 -67t-12 -115.5t-13.5 -123.5t-9.5 -91q-7 -65 -19 -172t-29 -227q-21 -138 -64.5 -231t-99.5 -155t-113 -107q-55 -43 -122.5 -62t-110.5 -19t-87 15.5t-74 35t-30 33.5q0 17 24 50t53 60.5t42 27.5t34 -22
t57 -43.5t90 -21.5q84 0 132 94.5t79 281.5q25 148 37.5 265.5t18.5 174.5q2 24 6.5 66t9 88t7.5 83t3 52q0 46 -12 56.5t-29 10.5q-13 0 -43.5 -8t-54.5 -16l-16 47q57 26 117.5 50t108.5 40t67 16q28 0 43 -12t15 -54z" />
    <glyph glyph-name="Jcircumflex" unicode="&#x134;" horiz-adv-x="598" 
d="M652 1260l-8 -53q-63 -14 -100.5 -31t-39.5 -31l-129 -940q-21 -155 -62.5 -248t-93.5 -148.5t-106 -97.5t-126.5 -69.5t-116.5 -27.5q-41 0 -77.5 16t-59 36t-22.5 33q0 14 28 42.5t61 53t50 24.5q13 0 30.5 -16.5t44.5 -33.5t68 -17q31 0 69.5 30t73.5 112.5t56 238.5
l139 1012q2 12 -29.5 28.5t-138.5 33.5l6 53h483zM739 1394q-25 -37 -53 -50l-219 192l-272 -192q-9 6 -20 17.5t-20 32.5l282 306h107z" />
    <glyph glyph-name="jcircumflex" unicode="&#x135;" horiz-adv-x="523" 
d="M401 870q0 -16 -5 -67t-12 -115.5t-14 -123.5t-10 -91q-7 -69 -17.5 -172t-29.5 -227q-25 -149 -69.5 -242t-99 -150.5t-108.5 -100.5q-55 -43 -122.5 -62t-110.5 -19t-87 15.5t-74 35t-30 33.5q0 17 24 50t53 60.5t42 27.5t34 -22t57 -43.5t90 -21.5q84 0 132 94.5
t79 281.5q25 148 37 265.5t19 174.5q3 33 9 93.5t11.5 117.5t5.5 78q0 46 -12 56.5t-29 10.5q-12 0 -35.5 -6t-43 -12l-19.5 -6l-16 47q57 26 117.5 50t108.5 40t67 16q28 0 43 -12t15 -54zM642 1074q-25 -37 -53 -50l-213 252l-278 -252q-9 6 -19.5 17.5t-20.5 32.5
l289 373h107z" />
    <glyph glyph-name="Kcommaaccent" unicode="&#x136;" horiz-adv-x="1136" 
d="M1188 1260l-7 -53q-62 -8 -95 -19t-65 -43l-508 -502h-130l451 475q50 53 36 67.5t-83 21.5l7 53h394zM1114 116q-72 -56 -150.5 -93t-118.5 -37q-30 0 -50 12t-43 48l-369 597l126 78l385 -549q28 -40 72.5 -41t126.5 33zM607 1260l-8 -53q-134 -30 -140 -62l-140 -1031
q-3 -12 27 -29.5t94 -31.5l-7 -53h-435l7 53q63 14 100.5 31t38.5 30l143 1031q1 12 -29 30t-94 32l7 53h436zM622 -274q-14 -69 -77 -137.5t-152 -119.5l-38 38q46 39 73.5 76t37.5 81q10 51 -14.5 81t-91.5 30l-6 48q12 14 56 31.5t89.5 29.5t64.5 9q47 -28 57 -72.5
t1 -94.5z" />
    <glyph glyph-name="kcommaaccent" unicode="&#x137;" horiz-adv-x="934" 
d="M939 866q0 -30 -84.5 -105t-234.5 -166l-207 -126l-89 35l214 161q81 61 126 99.5t45 59.5q0 27 -103 24l-5 49q66 9 129 21t126 12q51 0 67 -15.5t16 -48.5zM465 1417q0 -64 -15 -180.5t-37.5 -260t-47 -293.5t-44 -283.5t-28 -229.5t1.5 -130q-18 -9 -54 -25t-71 -32
t-51 -24l-38 34q5 38 21 136.5t37.5 231.5t45 279t43.5 283.5t33 243.5t13 156t-12.5 60t-35.5 10q-16 0 -51.5 -10t-54.5 -17l-15 49q56 25 118.5 49t113 40t69.5 16q28 0 43.5 -16t15.5 -87zM927 83q-66 -55 -126 -88.5t-100 -33.5q-43 0 -84 47.5t-80 120.5t-75 150.5
t-70.5 139.5t-67.5 85l132 59q35 -21 70.5 -74t70.5 -119t68 -128t63.5 -102.5t57.5 -40.5q72 0 119 28zM494 -274q-14 -69 -77 -137.5t-152 -119.5l-38 38q46 39 73.5 76t37.5 81q10 51 -14.5 81t-91.5 30l-6 48q12 14 56 31.5t89.5 29.5t64.5 9q47 -28 57 -72.5t1 -94.5z
" />
    <glyph glyph-name="kgreenlandic" unicode="&#x138;" horiz-adv-x="1013" 
d="M962 895q7 -6 3 -49.5t-17 -108.5t-34 -136q-27 3 -48 14q4 89 -20.5 128t-53.5 39q-48 0 -132.5 -62.5t-216.5 -230.5q-71 -92 -123.5 -194.5t-54.5 -260.5q-18 -7 -51.5 -22t-66 -29.5t-48.5 -23.5l-35 34q25 94 48.5 208.5t42 225t29.5 195.5t11 120q0 48 -9 59
t-27 11q-15 0 -52 -11.5t-55 -17.5l-15 49q55 24 116.5 48t111 40t68.5 16q27 0 34 -19.5t7 -83.5q0 -19 -4 -65.5t-11.5 -104.5t-16.5 -111.5t-19 -84.5q136 190 235.5 291.5t171.5 139.5t127 38q32 0 58.5 -11.5t46.5 -29.5zM944 233q-27 -54 -65.5 -118t-80.5 -110
t-81 -46q-41 0 -72 49t-56 121t-47 144.5t-46 121.5t-53 49q-23 0 -53.5 -34t-59 -89t-45.5 -119q-5 0 -16.5 2t-15.5 10q68 135 119.5 207.5t92 100.5t73.5 28q37 0 65 -40.5t49.5 -100t41 -119t40.5 -100t48 -40.5q30 0 63.5 39t60.5 79q22 -13 38 -35z" />
    <glyph glyph-name="Lacute" unicode="&#x139;" horiz-adv-x="943" 
d="M878 264q-20 -86 -42 -160.5t-34 -103.5h-804l7 53q63 14 100.5 31t38.5 30l143 1031q1 12 -29 30t-94 32l7 53h436l-8 -53q-134 -30 -140 -62l-134 -978q-4 -36 29 -51.5t133 -15.5h120q56 0 91.5 13.5t65 53.5t67.5 118zM915 1638v-53l-465 -244q-14 9 -22 21.5
t-16 33.5l385 319q13 -7 37.5 -22t48 -30t32.5 -25z" />
    <glyph glyph-name="lacute" unicode="&#x13a;" horiz-adv-x="503" 
d="M463 85q-98 -62 -168 -94t-125 -32q-28 0 -50 30.5t-22 88.5q0 33 12 124t31.5 216.5t41 263.5t41 267.5t31.5 229.5t12 147q0 46 -16 56.5t-35 10.5q-12 0 -44 -9t-57 -18l-16 49q56 25 118 49t112 40t70 16q28 0 44.5 -18t16.5 -64q0 -52 -12.5 -153t-32 -230
t-41.5 -266.5t-41.5 -264.5t-32 -224t-12.5 -142q0 -34 10 -46.5t25 -12.5q42 0 127 33zM746 1958v-53l-465 -244q-14 9 -22 21.5t-16 33.5l385 319q13 -7 37.5 -22t48 -30t32.5 -25z" />
    <glyph glyph-name="Lcommaaccent" unicode="&#x13b;" horiz-adv-x="943" 
d="M878 264q-20 -86 -42 -160.5t-34 -103.5h-804l7 53q63 14 100.5 31t38.5 30l143 1031q1 12 -29 30t-94 32l7 53h436l-8 -53q-134 -30 -140 -62l-134 -978q-4 -36 29 -51.5t133 -15.5h120q56 0 91.5 13.5t65 53.5t67.5 118zM500 -274q-14 -69 -77 -137.5t-152 -119.5
l-38 38q46 39 73.5 76t37.5 81q10 51 -14.5 81t-91.5 30l-6 48q12 14 56 31.5t89.5 29.5t64.5 9q47 -28 57 -72.5t1 -94.5z" />
    <glyph glyph-name="lcommaaccent" unicode="&#x13c;" horiz-adv-x="503" 
d="M463 85q-98 -62 -168 -94t-125 -32q-28 0 -50 30.5t-22 88.5q0 33 12 124t31.5 216.5t41 263.5t41 267.5t31.5 229.5t12 147q0 46 -16 56.5t-35 10.5q-12 0 -44 -9t-57 -18l-16 49q56 25 118 49t112 40t70 16q28 0 44.5 -18t16.5 -64q0 -52 -12.5 -153t-32 -230
t-41.5 -266.5t-41.5 -264.5t-32 -224t-12.5 -142q0 -34 10 -46.5t25 -12.5q42 0 127 33zM285 -274q-14 -69 -77 -137.5t-152 -119.5l-38 38q46 39 73.5 76t37.5 81q10 51 -14.5 81t-91.5 30l-6 48q12 14 56 31.5t89.5 29.5t64.5 9q47 -28 57 -72.5t1 -94.5z" />
    <glyph glyph-name="Lcaron" unicode="&#x13d;" horiz-adv-x="943" 
d="M878 264q-20 -86 -42 -160.5t-34 -103.5h-804l7 53q63 14 100.5 31t38.5 30l143 1031q1 12 -29 30t-94 32l7 53h436l-8 -53q-134 -30 -140 -62l-134 -978q-4 -36 29 -51.5t133 -15.5h120q56 0 91.5 13.5t65 53.5t67.5 118zM1005 1288q-16 -68 -74 -143t-153 -128l-36 39
q90 75 106 159q9 52 -16.5 88.5t-94.5 36.5l-6 45q13 14 57.5 32t91.5 31t67 11q47 -27 57.5 -74t0.5 -97z" />
    <glyph glyph-name="lcaron" unicode="&#x13e;" horiz-adv-x="783" 
d="M463 85q-98 -62 -168 -94t-125 -32q-28 0 -50 30.5t-22 88.5q0 33 12 124t31.5 216.5t41 263.5t41 267.5t31.5 229.5t12 147q0 46 -16 56.5t-35 10.5q-12 0 -44 -9t-57 -18l-16 49q56 25 118 49t112 40t70 16q28 0 44.5 -18t16.5 -64q0 -52 -12.5 -153t-32 -230
t-41.5 -266.5t-41.5 -264.5t-32 -224t-12.5 -142q0 -34 10 -46.5t25 -12.5q42 0 127 33zM810 1288q-16 -68 -74 -143t-153 -128l-36 39q90 75 106 159q9 52 -16.5 88.5t-94.5 36.5l-6 45q13 14 57.5 32t91.5 31t67 11q47 -27 57.5 -74t0.5 -97z" />
    <glyph glyph-name="Ldot" unicode="&#x13f;" horiz-adv-x="943" 
d="M878 264q-20 -86 -42 -160.5t-34 -103.5h-804l7 53q63 14 100.5 31t38.5 30l143 1031q1 12 -29 30t-94 32l7 53h436l-8 -53q-134 -30 -140 -62l-134 -978q-4 -36 29 -51.5t133 -15.5h120q56 0 91.5 13.5t65 53.5t67.5 118zM874 678q0 -41 -19 -84t-54.5 -72.5
t-85.5 -29.5q-48 0 -72.5 28.5t-24.5 75.5q0 39 21 81t57.5 71t83.5 29q45 0 69.5 -28t24.5 -71z" />
    <glyph glyph-name="ldot" unicode="&#x140;" horiz-adv-x="891" 
d="M463 85q-98 -62 -168 -94t-125 -32q-28 0 -50 30.5t-22 88.5q0 33 12 124t31.5 216.5t41 263.5t41 267.5t31.5 229.5t12 147q0 46 -16 56.5t-35 10.5q-12 0 -44 -9t-57 -18l-16 49q56 25 118 49t112 40t70 16q28 0 44.5 -18t16.5 -64q0 -52 -12.5 -153t-32 -230
t-41.5 -266.5t-41.5 -264.5t-32 -224t-12.5 -142q0 -34 10 -46.5t25 -12.5q42 0 127 33zM837 678q0 -41 -19 -84t-54.5 -72.5t-85.5 -29.5q-48 0 -72.5 28.5t-24.5 75.5q0 39 21 81t57.5 71t83.5 29q45 0 69.5 -28t24.5 -71z" />
    <glyph glyph-name="Lslash" unicode="&#x141;" horiz-adv-x="943" 
d="M878 264q-20 -86 -42 -160.5t-34 -103.5h-804l7 53q63 14 100.5 31t38.5 30l143 1031q1 12 -29 30t-94 32l7 53h436l-8 -53q-134 -30 -140 -62l-134 -978q-4 -36 29 -51.5t133 -15.5h120q56 0 91.5 13.5t65 53.5t67.5 118zM691 837q-7 -22 -25 -57t-32 -51l-560 -294
l-23 22q7 24 26 61t31 51l563 293z" />
    <glyph glyph-name="lslash" unicode="&#x142;" horiz-adv-x="543" 
d="M579 957q-11 -34 -16 -47.5t-22 -47.5l-490 -332l-20 23q6 26 11 41t25 58l486 329zM483 85q-98 -62 -168 -94t-125 -32q-28 0 -50 30.5t-22 88.5q0 33 12 124t31.5 216.5t41 263.5t41 267.5t31.5 229.5t12 147q0 46 -16 56.5t-35 10.5q-11 0 -35.5 -6.5t-45 -13.5
l-20.5 -7l-16 49q56 25 118 49t112 40t70 16q28 0 44.5 -18t16.5 -64q0 -52 -12.5 -153t-32 -230t-41.5 -266.5t-41.5 -264.5t-32 -224t-12.5 -142q0 -34 10 -46.5t25 -12.5q42 0 127 33z" />
    <glyph glyph-name="Nacute" unicode="&#x143;" horiz-adv-x="1248" 
d="M1313 1260l-7 -53q-67 -10 -100 -27.5t-35 -34.5l-163 -1176q-57 7 -91.5 25t-57.5 63l-481 920l-118 -863q-1 -13 25.5 -31.5t94.5 -29.5l-7 -53h-374l8 53q68 9 101 28.5t35 32.5l142 1027q-25 30 -56 44.5t-71 21.5l7 53h204q39 0 51.5 -11.5t41.5 -66.5l474 -900
l118 863q2 12 -24 31.5t-97 30.5l7 53h373zM1090 1638v-53l-465 -244q-14 9 -22 21.5t-16 33.5l385 319q13 -7 37.5 -22t48 -30t32.5 -25z" />
    <glyph glyph-name="nacute" unicode="&#x144;" horiz-adv-x="1035" 
d="M1001 85q-91 -54 -167 -90t-118 -36q-35 0 -55.5 31.5t-20.5 85.5q0 21 8.5 80t21.5 137t26 156.5t22 141t9 89.5q0 70 -14.5 98t-53.5 28q-18 0 -62.5 -24t-98.5 -74t-100 -128q-29 -48 -46 -115t-34 -164q-16 -89 -20.5 -148.5t-2.5 -114.5q-18 -8 -52.5 -23.5
t-68 -31.5t-50.5 -24l-35 34q20 99 40 214.5t35.5 224.5t25 192t9.5 118q0 46 -9.5 56.5t-27.5 10.5q-15 0 -50.5 -10t-53.5 -16l-16 49q57 25 119 48.5t111 39.5t67 16q28 0 35 -21t7 -92q0 -21 -3 -63t-6 -67q109 127 216 185t197 58q63 0 96.5 -36t33.5 -133
q0 -52 -13.5 -137t-31 -178.5t-31 -173t-13.5 -120.5q0 -34 9 -46.5t27 -12.5q43 0 120 33zM936 1422l17 -50l-362 -348q-28 6 -53 40l260 398q14 -3 42.5 -10.5t56.5 -15.5t39 -14z" />
    <glyph glyph-name="Ncommaaccent" unicode="&#x145;" horiz-adv-x="1248" 
d="M1313 1260l-7 -53q-67 -10 -100 -27.5t-35 -34.5l-163 -1176q-57 7 -91.5 25t-57.5 63l-481 920l-118 -863q-1 -13 25.5 -31.5t94.5 -29.5l-7 -53h-374l8 53q68 9 101 28.5t35 32.5l142 1027q-25 30 -56 44.5t-71 21.5l7 53h204q39 0 51.5 -11.5t41.5 -66.5l474 -900
l118 863q2 12 -24 31.5t-97 30.5l7 53h373zM644 -274q-14 -69 -77 -137.5t-152 -119.5l-38 38q46 39 73.5 76t37.5 81q10 51 -14.5 81t-91.5 30l-6 48q12 14 56 31.5t89.5 29.5t64.5 9q47 -28 57 -72.5t1 -94.5z" />
    <glyph glyph-name="ncommaaccent" unicode="&#x146;" horiz-adv-x="1035" 
d="M1001 85q-91 -54 -167 -90t-118 -36q-35 0 -55.5 31.5t-20.5 85.5q0 21 8.5 80t21.5 137t26 156.5t22 141t9 89.5q0 70 -14.5 98t-53.5 28q-18 0 -62.5 -24t-98.5 -74t-100 -128q-29 -48 -46 -115t-34 -164q-16 -89 -20.5 -148.5t-2.5 -114.5q-18 -8 -52.5 -23.5
t-68 -31.5t-50.5 -24l-35 34q20 99 40 214.5t35.5 224.5t25 192t9.5 118q0 46 -9.5 56.5t-27.5 10.5q-15 0 -50.5 -10t-53.5 -16l-16 49q57 25 119 48.5t111 39.5t67 16q28 0 35 -21t7 -92q0 -21 -3 -63t-6 -67q109 127 216 185t197 58q63 0 96.5 -36t33.5 -133
q0 -52 -13.5 -137t-31 -178.5t-31 -173t-13.5 -120.5q0 -34 9 -46.5t27 -12.5q43 0 120 33zM538 -274q-14 -69 -77 -137.5t-152 -119.5l-38 38q46 39 73.5 76t37.5 81q10 51 -14.5 81t-91.5 30l-6 48q12 14 56 31.5t89.5 29.5t64.5 9q47 -28 57 -72.5t1 -94.5z" />
    <glyph glyph-name="Ncaron" unicode="&#x147;" horiz-adv-x="1248" 
d="M1313 1260l-7 -53q-67 -10 -100 -27.5t-35 -34.5l-163 -1176q-57 7 -91.5 25t-57.5 63l-481 920l-118 -863q-1 -13 25.5 -31.5t94.5 -29.5l-7 -53h-374l8 53q68 9 101 28.5t35 32.5l142 1027q-25 30 -56 44.5t-71 21.5l7 53h204q39 0 51.5 -11.5t41.5 -66.5l474 -900
l118 863q2 12 -24 31.5t-97 30.5l7 53h373zM1082 1674l-278 -306h-107l-196 306q14 18 25.5 28t26.5 22l219 -192l271 192q12 -11 21 -21.5t18 -28.5z" />
    <glyph glyph-name="ncaron" unicode="&#x148;" horiz-adv-x="1035" 
d="M1001 85q-91 -54 -167 -90t-118 -36q-35 0 -55.5 31.5t-20.5 85.5q0 21 8.5 80t21.5 137t26 156.5t22 141t9 89.5q0 70 -14.5 98t-53.5 28q-18 0 -62.5 -24t-98.5 -74t-100 -128q-29 -48 -46 -115t-34 -164q-16 -89 -20.5 -148.5t-2.5 -114.5q-18 -8 -52.5 -23.5
t-68 -31.5t-50.5 -24l-35 34q20 99 40 214.5t35.5 224.5t25 192t9.5 118q0 46 -9.5 56.5t-27.5 10.5q-15 0 -50.5 -10t-53.5 -16l-16 49q57 25 119 48.5t111 39.5t67 16q28 0 35 -21t7 -92q0 -21 -3 -63t-6 -67q109 127 216 185t197 58q63 0 96.5 -36t33.5 -133
q0 -52 -13.5 -137t-31 -178.5t-31 -173t-13.5 -120.5q0 -34 9 -46.5t27 -12.5q43 0 120 33zM943 1406l-285 -358h-107l-192 358q15 18 26 28t27 22l214 -236l278 236q12 -10 21 -20.5t18 -29.5z" />
    <glyph glyph-name="Eng" unicode="&#x14a;" horiz-adv-x="1171" 
d="M1136 1042q0 -41 -6 -92l-100 -728q-28 -206 -118 -350t-197 -224q-49 -37 -128 -65.5t-148 -28.5q-58 0 -111 22t-86 50.5t-33 47.5q0 8 17.5 29t43.5 44.5t51.5 40.5t41.5 17q14 0 37 -29.5t59.5 -59t91.5 -29.5q116 0 191.5 116.5t108.5 356.5l92 682q11 75 11 133
q0 88 -31 123.5t-83 35.5q-41 0 -109.5 -35.5t-141.5 -102.5t-129.5 -163.5t-72.5 -218.5l-68 -500q-3 -12 28.5 -29.5t94.5 -31.5l-7 -53h-435l7 53q63 14 100 31t39 30l125 904q11 78 3 109t-45 29t-112 -23l-13 65q105 39 192.5 65.5t119.5 26.5q43 0 43 -106
q0 -34 -7.5 -106.5t-21.5 -134.5q84 125 176 201.5t177.5 111t150.5 34.5q45 0 91.5 -22t78.5 -75.5t32 -150.5z" />
    <glyph glyph-name="eng" unicode="&#x14b;" horiz-adv-x="1010" 
d="M907 767q0 -35 -9 -114t-24.5 -182.5t-34.5 -215t-38 -211.5q-23 -123 -62.5 -207t-90.5 -143.5t-112 -110.5q-54 -45 -121 -64.5t-114 -19.5q-42 0 -96 19t-93.5 42.5t-39.5 36.5q0 18 24 51t52.5 60t42.5 27q13 0 41.5 -25.5t68.5 -51t87 -25.5q91 0 140 78.5t87 277.5
q32 167 55.5 311t36.5 244t13 136q0 70 -14.5 98t-54.5 28q-17 0 -62 -24t-99 -74t-100 -128q-28 -48 -45 -115t-35 -164q-16 -89 -20.5 -149.5t-2.5 -113.5q-17 -10 -51.5 -25t-68.5 -30t-50 -24l-36 34q21 99 40.5 214.5t35.5 224.5t25.5 192t9.5 118q0 46 -9.5 56.5
t-27.5 10.5q-13 0 -46 -9t-59 -17l-15 49q59 26 120.5 49.5t110 39t66.5 15.5q27 0 34 -21t7 -92q0 -21 -3 -63t-6 -67q110 128 218 185.5t195 57.5q63 0 96.5 -36t33.5 -133z" />
    <glyph glyph-name="Omacron" unicode="&#x14c;" horiz-adv-x="1135" 
d="M1109 774q0 -141 -49 -288t-139 -261q-85 -107 -195.5 -181.5t-244.5 -74.5q-130 0 -218.5 70.5t-133 188t-44.5 257.5q0 134 45 279.5t126 253.5q84 112 198 192t261 80q135 0 222 -70.5t129.5 -187.5t42.5 -258zM930 756q0 113 -31 205t-90 147t-144 55
q-107 0 -182.5 -62t-123 -159t-70 -206t-22.5 -204q0 -124 32.5 -221t91.5 -152.5t140 -55.5q109 0 185 64.5t123.5 166.5t69 214.5t21.5 207.5zM1066 1548q-7 -22 -26.5 -57t-28.5 -52h-574l-19 27q8 20 25.5 54.5t28.5 54.5h572z" />
    <glyph glyph-name="omacron" unicode="&#x14d;" horiz-adv-x="879" 
d="M831 559q0 -133 -61 -268.5t-173 -227.5q-52 -43 -117 -73.5t-125 -30.5q-97 0 -165.5 50.5t-105 138t-36.5 196.5q0 143 53 267.5t186 228.5q51 40 115.5 68t128.5 28q157 0 228.5 -105.5t71.5 -271.5zM658 496q0 153 -53.5 234.5t-142.5 81.5q-68 0 -114 -39
t-74 -100.5t-40 -132t-12 -134.5q0 -89 27 -163t73 -118.5t101 -44.5q64 0 109 41t72.5 105.5t40.5 136.5t13 133zM877 1261q-6 -22 -25.5 -57t-29.5 -52h-574l-18 27q7 20 24.5 54.5t29.5 54.5h572z" />
    <glyph glyph-name="Obreve" unicode="&#x14e;" horiz-adv-x="1135" 
d="M1109 774q0 -141 -49 -288t-139 -261q-85 -107 -195.5 -181.5t-244.5 -74.5q-130 0 -218.5 70.5t-133 188t-44.5 257.5q0 134 45 279.5t126 253.5q84 112 198 192t261 80q135 0 222 -70.5t129.5 -187.5t42.5 -258zM930 756q0 113 -31 205t-90 147t-144 55
q-107 0 -182.5 -62t-123 -159t-70 -206t-22.5 -204q0 -124 32.5 -221t91.5 -152.5t140 -55.5q109 0 185 64.5t123.5 166.5t69 214.5t21.5 207.5zM1054 1655q-74 -161 -166.5 -224t-171.5 -63q-88 0 -159.5 63.5t-105.5 223.5q14 17 31 31t32 22q28 -106 92.5 -148.5
t121.5 -42.5q63 0 141 42.5t135 148.5q13 -8 27 -21t23 -32z" />
    <glyph glyph-name="obreve" unicode="&#x14f;" horiz-adv-x="879" 
d="M831 559q0 -133 -61 -268.5t-173 -227.5q-52 -43 -117 -73.5t-125 -30.5q-97 0 -165.5 50.5t-105 138t-36.5 196.5q0 143 53 267.5t186 228.5q51 40 115.5 68t128.5 28q157 0 228.5 -105.5t71.5 -271.5zM658 496q0 153 -53.5 234.5t-142.5 81.5q-68 0 -114 -39
t-74 -100.5t-40 -132t-12 -134.5q0 -89 27 -163t73 -118.5t101 -44.5q64 0 109 41t72.5 105.5t40.5 136.5t13 133zM859 1335q-74 -161 -166.5 -224t-171.5 -63q-88 0 -159.5 63.5t-105.5 223.5q14 17 31 31t32 22q28 -106 92.5 -148.5t121.5 -42.5q63 0 141 42.5t135 148.5
q13 -8 27 -21t23 -32z" />
    <glyph glyph-name="Ohungarumlaut" unicode="&#x150;" horiz-adv-x="1135" 
d="M1109 774q0 -141 -49 -288t-139 -261q-85 -107 -195.5 -181.5t-244.5 -74.5q-130 0 -218.5 70.5t-133 188t-44.5 257.5q0 134 45 279.5t126 253.5q84 112 198 192t261 80q135 0 222 -70.5t129.5 -187.5t42.5 -258zM930 756q0 113 -31 205t-90 147t-144 55
q-107 0 -182.5 -62t-123 -159t-70 -206t-22.5 -204q0 -124 32.5 -221t91.5 -152.5t140 -55.5q109 0 185 64.5t123.5 166.5t69 214.5t21.5 207.5zM1158 1711l-289 -366q-15 2 -29.5 11t-27.5 21l214 411q19 -3 58.5 -12t54.5 -17zM891 1711l-289 -366q-15 2 -29.5 11
t-27.5 21l214 411q19 -3 58.5 -12t54.5 -17z" />
    <glyph glyph-name="ohungarumlaut" unicode="&#x151;" horiz-adv-x="879" 
d="M831 559q0 -133 -61 -268.5t-173 -227.5q-52 -43 -117 -73.5t-125 -30.5q-97 0 -165.5 50.5t-105 138t-36.5 196.5q0 143 53 267.5t186 228.5q51 40 115.5 68t128.5 28q157 0 228.5 -105.5t71.5 -271.5zM658 496q0 153 -53.5 234.5t-142.5 81.5q-68 0 -114 -39
t-74 -100.5t-40 -132t-12 -134.5q0 -89 27 -163t73 -118.5t101 -44.5q64 0 109 41t72.5 105.5t40.5 136.5t13 133zM963 1391l-289 -366q-15 2 -29.5 11t-27.5 21l214 411q19 -3 58.5 -12t54.5 -17zM696 1391l-289 -366q-15 2 -29.5 11t-27.5 21l214 411q19 -3 58.5 -12
t54.5 -17z" />
    <glyph glyph-name="OE" unicode="&#x152;" horiz-adv-x="1527" 
d="M1522 1233q-7 -34 -19 -81.5t-25.5 -91.5t-24.5 -70h-52q9 92 -3.5 130.5t-47.5 38.5h-343l41 101h446zM1357 705q-20 -28 -49.5 -63.5t-50.5 -51.5q-23 29 -59 42t-112 13h-161l32 90h377zM1449 264q-19 -86 -40.5 -160.5t-32.5 -103.5h-782l7 53q132 29 138 61
l141 1031q2 12 -28 30t-93 32l7 53h282h152l-7 -53q-64 -14 -99.5 -20.5t-37.5 -20.5l-138 -1002q-2 -19 2.5 -33.5t36.5 -22.5t112 -8h107q56 0 92.5 13.5t67 53.5t67.5 118zM944 1260q-7 -15 -12.5 -54.5t-10 -83.5t-6.5 -75.5l-2 -31.5q-38 74 -105 111t-148 37
q-101 0 -174 -56.5t-121 -147.5t-72.5 -197.5t-28.5 -208.5q-5 -132 26.5 -233.5t92.5 -159t143 -57.5q77 0 129.5 16t105.5 56q27 -31 27.5 -72t-8 -72l-8.5 -31q-72 0 -116.5 -7.5t-83.5 -15.5t-95 -8q-131 0 -220 73t-132.5 194.5t-37.5 265.5q5 150 55 290.5t135.5 253
t196 178.5t235.5 66q52 0 85 -7.5l66 -15t84 -7.5z" />
    <glyph glyph-name="oe" unicode="&#x153;" horiz-adv-x="1396" 
d="M1348 760q0 -44 -20 -94.5t-81.5 -108t-185 -122t-330.5 -135.5l-6.5 14.5t-9 34.5t9.5 35q148 56 235 101t129.5 82.5t56 72.5t13.5 73q0 55 -26.5 81.5t-60.5 26.5q-17 0 -47.5 -13.5t-58.5 -40.5q-68 -63 -117.5 -171.5t-49.5 -218.5q0 -83 25.5 -148.5t64 -102.5
t77.5 -37q44 0 122 29t201 126q9 -6 20.5 -25t14.5 -26q-110 -96 -188 -146t-137 -69t-112 -19q-45 0 -104 32.5t-102.5 108t-43.5 203.5q0 157 68.5 295t200.5 241q47 36 116.5 66.5t138.5 30.5q94 0 140.5 -55.5t46.5 -120.5zM810 570q0 -133 -56 -269t-168 -238
q-50 -44 -116 -74t-122 -30q-92 0 -159.5 50.5t-104 138t-36.5 196.5q0 143 54 266.5t181 229.5q49 41 115.5 68.5t123.5 27.5q143 0 215.5 -100t72.5 -266zM645 497q0 152 -53 233.5t-140 81.5q-59 0 -103 -39t-72.5 -100.5t-42.5 -132t-14 -133.5q0 -89 27 -163.5t71 -119
t95 -44.5q60 0 103.5 41t72 105.5t42.5 136.5t14 134z" />
    <glyph glyph-name="Racute" unicode="&#x154;" horiz-adv-x="1100" 
d="M983 971q0 -49 -25.5 -114.5t-80 -127.5t-140.5 -102.5t-207 -40.5q-35 0 -80.5 5t-77.5 15l11 86q61 -20 122 -20q79 0 148 30.5t112 90.5t43 149q0 99 -44 154.5t-108 79t-126 23.5q-204 0 -392 -42l1 70q90 26 195.5 44.5t242.5 18.5q187 0 296.5 -82t109.5 -237z
M1105 112q-78 -53 -156 -89.5t-105 -36.5q-34 0 -64.5 24t-67.5 107l-222 495l143 21l248 -439q23 -40 45 -55t58 -8.5t100 29.5zM475 1253l-156 -1139q-3 -12 28.5 -29.5t94.5 -31.5l-7 -53h-437l7 53q63 14 100 31t38 30l156 1139h176zM974 1638v-53l-465 -244
q-14 9 -22 21.5t-16 33.5l385 319q13 -7 37.5 -22t48 -30t32.5 -25z" />
    <glyph glyph-name="racute" unicode="&#x155;" horiz-adv-x="763" 
d="M809 850q-16 -21 -39 -59.5t-44.5 -69.5t-34.5 -31q-25 0 -43.5 18t-35 36t-36.5 18q-35 0 -81.5 -55t-90 -141.5t-71.5 -182.5q-21 -75 -34.5 -170.5t-10.5 -174.5q-17 -8 -51.5 -24t-68.5 -31.5t-50 -23.5l-36 34q22 106 42 218.5t35.5 216t24.5 185.5t9 127
q0 46 -12.5 56.5t-28.5 10.5t-50.5 -9.5t-50.5 -14.5l-15 47q57 26 118.5 50t110.5 40t68 16q28 0 34.5 -21.5t6.5 -88.5q0 -14 -4 -49.5t-9.5 -74.5t-9.5 -64q65 123 119 187t101 87.5t90 23.5q36 0 70 -34t78 -52zM819 1422l17 -50l-362 -348q-28 6 -53 40l260 398
q14 -3 42.5 -10.5t56.5 -15.5t39 -14z" />
    <glyph glyph-name="Rcommaaccent" unicode="&#x156;" horiz-adv-x="1100" 
d="M983 971q0 -49 -25.5 -114.5t-80 -127.5t-140.5 -102.5t-207 -40.5q-35 0 -80.5 5t-77.5 15l11 86q61 -20 122 -20q79 0 148 30.5t112 90.5t43 149q0 99 -44 154.5t-108 79t-126 23.5q-204 0 -392 -42l1 70q90 26 195.5 44.5t242.5 18.5q187 0 296.5 -82t109.5 -237z
M1105 112q-78 -53 -156 -89.5t-105 -36.5q-34 0 -64.5 24t-67.5 107l-222 495l143 21l248 -439q23 -40 45 -55t58 -8.5t100 29.5zM475 1253l-156 -1139q-3 -12 28.5 -29.5t94.5 -31.5l-7 -53h-437l7 53q63 14 100 31t38 30l156 1139h176zM529 -274q-14 -69 -77 -137.5
t-152 -119.5l-38 38q46 39 73.5 76t37.5 81q10 51 -14.5 81t-91.5 30l-6 48q12 14 56 31.5t89.5 29.5t64.5 9q47 -28 57 -72.5t1 -94.5z" />
    <glyph glyph-name="rcommaaccent" unicode="&#x157;" horiz-adv-x="763" 
d="M809 850q-16 -21 -39 -59.5t-44.5 -69.5t-34.5 -31q-25 0 -43.5 18t-35 36t-36.5 18q-35 0 -81.5 -55t-90 -141.5t-71.5 -182.5q-21 -75 -34.5 -170.5t-10.5 -174.5q-17 -8 -51.5 -24t-68.5 -31.5t-50 -23.5l-36 34q22 106 42 218.5t35.5 216t24.5 185.5t9 127
q0 46 -12.5 56.5t-28.5 10.5t-50.5 -9.5t-50.5 -14.5l-15 47q57 26 118.5 50t110.5 40t68 16q28 0 34.5 -21.5t6.5 -88.5q0 -14 -4 -49.5t-9.5 -74.5t-9.5 -64q65 123 119 187t101 87.5t90 23.5q36 0 70 -34t78 -52zM276 -274q-14 -69 -77 -137.5t-152 -119.5l-38 38
q46 39 73.5 76t37.5 81q10 51 -14.5 81t-91.5 30l-6 48q12 14 56 31.5t89.5 29.5t64.5 9q47 -28 57 -72.5t1 -94.5z" />
    <glyph glyph-name="Rcaron" unicode="&#x158;" horiz-adv-x="1100" 
d="M983 971q0 -49 -25.5 -114.5t-80 -127.5t-140.5 -102.5t-207 -40.5q-35 0 -80.5 5t-77.5 15l11 86q61 -20 122 -20q79 0 148 30.5t112 90.5t43 149q0 99 -44 154.5t-108 79t-126 23.5q-204 0 -392 -42l1 70q90 26 195.5 44.5t242.5 18.5q187 0 296.5 -82t109.5 -237z
M1105 112q-78 -53 -156 -89.5t-105 -36.5q-34 0 -64.5 24t-67.5 107l-222 495l143 21l248 -439q23 -40 45 -55t58 -8.5t100 29.5zM475 1253l-156 -1139q-3 -12 28.5 -29.5t94.5 -31.5l-7 -53h-437l7 53q63 14 100 31t38 30l156 1139h176zM966 1674l-278 -306h-107l-196 306
q14 18 25.5 28t26.5 22l219 -192l271 192q12 -11 21 -21.5t18 -28.5z" />
    <glyph glyph-name="rcaron" unicode="&#x159;" horiz-adv-x="763" 
d="M809 850q-16 -21 -39 -59.5t-44.5 -69.5t-34.5 -31q-25 0 -43.5 18t-35 36t-36.5 18q-35 0 -81.5 -55t-90 -141.5t-71.5 -182.5q-21 -75 -34.5 -170.5t-10.5 -174.5q-17 -8 -51.5 -24t-68.5 -31.5t-50 -23.5l-36 34q22 106 42 218.5t35.5 216t24.5 185.5t9 127
q0 46 -12.5 56.5t-28.5 10.5t-50.5 -9.5t-50.5 -14.5l-15 47q57 26 118.5 50t110.5 40t68 16q28 0 34.5 -21.5t6.5 -88.5q0 -14 -4 -49.5t-9.5 -74.5t-9.5 -64q65 123 119 187t101 87.5t90 23.5q36 0 70 -34t78 -52zM826 1406l-285 -358h-107l-192 358q15 18 26 28t27 22
l214 -236l278 236q12 -10 21 -20.5t18 -29.5z" />
    <glyph glyph-name="Sacute" unicode="&#x15a;" horiz-adv-x="924" 
d="M902 1198q6 -5 -5 -27.5t-30.5 -51t-39 -51.5t-29.5 -29l-39 6q-31 59 -82.5 97.5t-111.5 38.5q-107 0 -162 -60t-55 -126q0 -29 15 -61.5t59 -70t132 -83.5q158 -82 225 -156t67 -186q0 -125 -68 -232t-181.5 -172t-250.5 -65q-43 0 -95.5 13t-100.5 34.5t-79 47.5
t-31 54q0 17 22 54.5t50 69.5t47 32q13 0 32.5 -26t48.5 -60.5t71.5 -60.5t103.5 -26q113 0 191.5 71t78.5 181q0 83 -56.5 146.5t-208.5 136.5q-132 63 -176.5 138.5t-44.5 153.5q0 88 55 171t154 137t234 54q79 0 146 -27t114 -65zM929 1638v-53l-465 -244q-14 9 -22 21.5
t-16 33.5l385 319q13 -7 37.5 -22t48 -30t32.5 -25z" />
    <glyph glyph-name="sacute" unicode="&#x15b;" horiz-adv-x="736" 
d="M728 844q-38 -45 -78 -82.5t-56 -37.5q-19 0 -42 29.5t-55 59t-77 29.5q-55 0 -97 -36t-42 -94q0 -39 36 -76.5t117 -76.5q54 -26 106 -62t86 -86.5t34 -121.5q0 -69 -37 -129t-96.5 -105t-129.5 -70.5t-135 -25.5q-70 0 -132 24t-100.5 58t-38.5 62q0 16 21 51
t46.5 64.5t39.5 29.5q11 0 25.5 -27.5t40 -64t67 -64t106.5 -27.5q69 0 115.5 45t46.5 111q0 74 -60 124t-135 86q-106 51 -146 104.5t-40 117.5q0 84 55.5 148t137.5 99.5t162 35.5q69 0 113.5 -19.5t77 -42t64.5 -30.5zM790 1422l17 -50l-362 -348q-28 6 -53 40l260 398
q14 -3 42.5 -10.5t56.5 -15.5t39 -14z" />
    <glyph glyph-name="Scircumflex" unicode="&#x15c;" horiz-adv-x="924" 
d="M902 1198q6 -5 -5 -27.5t-30.5 -51t-39 -51.5t-29.5 -29l-39 6q-31 59 -82.5 97.5t-111.5 38.5q-107 0 -162 -60t-55 -126q0 -29 15 -61.5t59 -70t132 -83.5q158 -82 225 -156t67 -186q0 -125 -68 -232t-181.5 -172t-250.5 -65q-43 0 -95.5 13t-100.5 34.5t-79 47.5
t-31 54q0 17 22 54.5t50 69.5t47 32q13 0 32.5 -26t48.5 -60.5t71.5 -60.5t103.5 -26q113 0 191.5 71t78.5 181q0 83 -56.5 146.5t-208.5 136.5q-132 63 -176.5 138.5t-44.5 153.5q0 88 55 171t154 137t234 54q79 0 146 -27t114 -65zM882 1394q-25 -37 -53 -50l-219 192
l-272 -192q-9 6 -20 17.5t-20 32.5l282 306h107z" />
    <glyph glyph-name="scircumflex" unicode="&#x15d;" horiz-adv-x="736" 
d="M728 844q-38 -45 -78 -82.5t-56 -37.5q-19 0 -42 29.5t-55 59t-77 29.5q-55 0 -97 -36t-42 -94q0 -39 36 -76.5t117 -76.5q54 -26 106 -62t86 -86.5t34 -121.5q0 -69 -37 -129t-96.5 -105t-129.5 -70.5t-135 -25.5q-70 0 -132 24t-100.5 58t-38.5 62q0 16 21 51
t46.5 64.5t39.5 29.5q11 0 25.5 -27.5t40 -64t67 -64t106.5 -27.5q69 0 115.5 45t46.5 111q0 74 -60 124t-135 86q-106 51 -146 104.5t-40 117.5q0 84 55.5 148t137.5 99.5t162 35.5q69 0 113.5 -19.5t77 -42t64.5 -30.5zM754 1074q-25 -37 -53 -50l-213 252l-278 -252
q-9 6 -19.5 17.5t-20.5 32.5l289 373h107z" />
    <glyph glyph-name="Scedilla" unicode="&#x15e;" horiz-adv-x="924" 
d="M902 1198q6 -5 -5 -27.5t-30.5 -51t-39 -51.5t-29.5 -29l-39 6q-31 59 -82.5 97.5t-111.5 38.5q-107 0 -162 -60t-55 -126q0 -29 15 -61.5t59 -70t132 -83.5q158 -82 225 -156t67 -186q0 -125 -68 -232t-181.5 -172t-250.5 -65q-43 0 -95.5 13t-100.5 34.5t-79 47.5
t-31 54q0 17 22 54.5t50 69.5t47 32q13 0 32.5 -26t48.5 -60.5t71.5 -60.5t103.5 -26q113 0 191.5 71t78.5 181q0 83 -56.5 146.5t-208.5 136.5q-132 63 -176.5 138.5t-44.5 153.5q0 88 55 171t154 137t234 54q79 0 146 -27t114 -65zM540 -221q0 -53 -31.5 -96.5t-84 -69
t-116.5 -25t-129 36.5l-2 49q64 -29 111 -24t72.5 30t25.5 55q0 53 -86 50q30 71 49.5 140.5t29.5 126.5l78 -2q-7 -37 -18 -87t-17 -71q55 -1 86.5 -32.5t31.5 -80.5z" />
    <glyph glyph-name="scedilla" unicode="&#x15f;" horiz-adv-x="736" 
d="M728 844q-38 -45 -78 -82.5t-56 -37.5q-19 0 -42 29.5t-55 59t-77 29.5q-55 0 -97 -36t-42 -94q0 -39 36 -76.5t117 -76.5q54 -26 106 -62t86 -86.5t34 -121.5q0 -69 -37 -129t-96.5 -105t-129.5 -70.5t-135 -25.5q-70 0 -132 24t-100.5 58t-38.5 62q0 16 21 51
t46.5 64.5t39.5 29.5q11 0 25.5 -27.5t40 -64t67 -64t106.5 -27.5q69 0 115.5 45t46.5 111q0 74 -60 124t-135 86q-106 51 -146 104.5t-40 117.5q0 84 55.5 148t137.5 99.5t162 35.5q69 0 113.5 -19.5t77 -42t64.5 -30.5zM437 -221q0 -53 -31.5 -96.5t-84 -69t-116.5 -25
t-129 36.5l-2 49q64 -29 111 -24t72.5 30t25.5 55q0 53 -86 50q30 71 49.5 140.5t29.5 126.5l78 -2q-7 -37 -18 -87t-17 -71q55 -1 86.5 -32.5t31.5 -80.5z" />
    <glyph glyph-name="Scaron" unicode="&#x160;" horiz-adv-x="924" 
d="M902 1198q6 -5 -5 -27.5t-30.5 -51t-39 -51.5t-29.5 -29l-39 6q-31 59 -82.5 97.5t-111.5 38.5q-107 0 -162 -60t-55 -126q0 -29 15 -61.5t59 -70t132 -83.5q158 -82 225 -156t67 -186q0 -125 -68 -232t-181.5 -172t-250.5 -65q-43 0 -95.5 13t-100.5 34.5t-79 47.5
t-31 54q0 17 22 54.5t50 69.5t47 32q13 0 32.5 -26t48.5 -60.5t71.5 -60.5t103.5 -26q113 0 191.5 71t78.5 181q0 83 -56.5 146.5t-208.5 136.5q-132 63 -176.5 138.5t-44.5 153.5q0 88 55 171t154 137t234 54q79 0 146 -27t114 -65zM921 1674l-278 -306h-107l-196 306
q14 18 25.5 28t26.5 22l219 -192l271 192q12 -11 21 -21.5t18 -28.5z" />
    <glyph glyph-name="scaron" unicode="&#x161;" horiz-adv-x="736" 
d="M728 844q-38 -45 -78 -82.5t-56 -37.5q-19 0 -42 29.5t-55 59t-77 29.5q-55 0 -97 -36t-42 -94q0 -39 36 -76.5t117 -76.5q54 -26 106 -62t86 -86.5t34 -121.5q0 -69 -37 -129t-96.5 -105t-129.5 -70.5t-135 -25.5q-70 0 -132 24t-100.5 58t-38.5 62q0 16 21 51
t46.5 64.5t39.5 29.5q11 0 25.5 -27.5t40 -64t67 -64t106.5 -27.5q69 0 115.5 45t46.5 111q0 74 -60 124t-135 86q-106 51 -146 104.5t-40 117.5q0 84 55.5 148t137.5 99.5t162 35.5q69 0 113.5 -19.5t77 -42t64.5 -30.5zM797 1406l-285 -358h-107l-192 358q15 18 26 28
t27 22l214 -236l278 236q12 -10 21 -20.5t18 -29.5z" />
    <glyph glyph-name="uni0162" unicode="&#x162;" horiz-adv-x="1081" 
d="M1143 1233q-8 -49 -26.5 -125t-35.5 -129h-51q-5 99 -14.5 139.5t-50.5 40.5h-278l25 101h407zM573 1159h-286q-18 0 -34.5 -13.5t-39.5 -53.5t-60 -118l-46 21q5 36 16.5 85t25 98t25.5 82h406zM716 53l-7 -53h-471l7 53q86 19 120.5 38t36.5 34l145 1041q3 28 -123 41
l7 53h435l-7 -53q-64 -7 -101 -17t-39 -24l-142 -1041q-1 -13 28 -33t111 -39zM605 -221q0 -53 -31.5 -96.5t-84 -69t-116.5 -25t-129 36.5l-2 49q64 -29 111 -24t72.5 30t25.5 55q0 53 -86 50q30 71 49.5 140.5t29.5 126.5l78 -2q-7 -37 -18 -87t-17 -71q55 -1 86.5 -32.5
t31.5 -80.5z" />
    <glyph glyph-name="uni0163" unicode="&#x163;" horiz-adv-x="650" 
d="M671 875q-13 -19 -39.5 -43t-52.5 -44.5t-38 -27.5q-12 28 -46 36.5t-105 8.5h-318l-18 34l107 66h488zM608 130q-102 -80 -199.5 -125.5t-145.5 -45.5q-53 0 -96.5 56.5t-43.5 144.5q0 38 2.5 77.5t11.5 94.5l97 608q13 80 27.5 109.5t41.5 47.5l131 79l28 -25
q-7 -7 -21.5 -52.5t-29.5 -135.5l-91 -584q-6 -39 -9 -82t-3 -63q0 -62 21.5 -90.5t49.5 -28.5q35 0 84 15t124 49zM398 -221q0 -53 -31.5 -96.5t-84 -69t-116.5 -25t-129 36.5l-2 49q64 -29 111 -24t72.5 30t25.5 55q0 53 -86 50q30 71 49.5 140.5t29.5 126.5l78 -2
q-7 -37 -18 -87t-17 -71q55 -1 86.5 -32.5t31.5 -80.5z" />
    <glyph glyph-name="Tcaron" unicode="&#x164;" horiz-adv-x="1081" 
d="M1143 1233q-8 -49 -26.5 -125t-35.5 -129h-51q-5 99 -14.5 139.5t-50.5 40.5h-278l25 101h407zM573 1159h-286q-18 0 -34.5 -13.5t-39.5 -53.5t-60 -118l-46 21q5 36 16.5 85t25 98t25.5 82h406zM716 53l-7 -53h-471l7 53q86 19 120.5 38t36.5 34l145 1041q3 28 -123 41
l7 53h435l-7 -53q-64 -7 -101 -17t-39 -24l-142 -1041q-1 -13 28 -33t111 -39zM989 1674l-278 -306h-107l-196 306q14 18 25.5 28t26.5 22l219 -192l271 192q12 -11 21 -21.5t18 -28.5z" />
    <glyph glyph-name="tcaron" unicode="&#x165;" horiz-adv-x="650" 
d="M671 875q-13 -19 -39.5 -43t-52.5 -44.5t-38 -27.5q-12 28 -46 36.5t-105 8.5h-318l-18 34l107 66h488zM608 130q-102 -80 -199.5 -125.5t-145.5 -45.5q-53 0 -96.5 56.5t-43.5 144.5q0 38 2.5 77.5t11.5 94.5l97 608q13 80 27.5 109.5t41.5 47.5l131 79l28 -25
q-7 -7 -21.5 -52.5t-29.5 -135.5l-91 -584q-6 -39 -9 -82t-3 -63q0 -62 21.5 -90.5t49.5 -28.5q35 0 84 15t124 49zM794 1288q-16 -68 -74 -143t-153 -128l-36 39q90 75 106 159q9 52 -16.5 88.5t-94.5 36.5l-6 45q13 14 57.5 32t91.5 31t67 11q47 -27 57.5 -74t0.5 -97z
" />
    <glyph glyph-name="Tbar" unicode="&#x166;" horiz-adv-x="1081" 
d="M1143 1233q-8 -49 -26.5 -125t-35.5 -129h-51q-5 99 -14.5 139.5t-50.5 40.5h-331l41 101h444zM708 1159h-421q-18 0 -34.5 -13.5t-39.5 -53.5t-60 -118l-46 21q5 36 16.5 85t25 98t25.5 82h526zM716 53l-7 -53h-471l7 53q86 19 121 38.5t36 33.5l145 1041
q1 12 -28.5 19.5t-94.5 21.5l7 53h435l-7 -53q-64 -14 -100.5 -20.5t-39.5 -20.5l-142 -1041q-2 -13 27.5 -33t111.5 -39zM929 686l-35 -76h-680l-17 24q6 15 16 37.5t19 38.5h678z" />
    <glyph glyph-name="tbar" unicode="&#x167;" horiz-adv-x="650" 
d="M671 875q-13 -19 -39.5 -43t-52.5 -44.5t-38 -27.5q-12 28 -46 36.5t-105 8.5h-318l-18 34l107 66h488zM608 130q-102 -80 -199.5 -125.5t-145.5 -45.5q-53 0 -96.5 56.5t-43.5 144.5q0 38 3 77.5t11 94.5l97 608q12 82 27.5 109t41.5 48l131 79l28 -25l-7 -12.5
t-18.5 -52.5t-25.5 -123l-91 -584q-6 -39 -9 -82t-3 -63q0 -62 21.5 -90.5t49.5 -28.5q35 0 84 15t124 49zM541 494l-37 -75h-487l-20 27q5 15 16 37t20 36h489z" />
    <glyph glyph-name="Utilde" unicode="&#x168;" horiz-adv-x="1241" 
d="M1302 1260l-7 -53q-127 -29 -132 -62l-89 -633q-37 -262 -173.5 -402.5t-334.5 -140.5q-110 0 -196.5 44t-137 128.5t-50.5 206.5q0 54 9 115l97 682q2 12 -28 30t-94 32l7 53h434l-8 -53q-63 -14 -100 -31t-39 -31l-88 -635q-4 -29 -5.5 -58t-1.5 -55q0 -139 65.5 -220
t193.5 -81q87 0 152 52t105.5 137t54.5 184l92 676q1 12 -25.5 30t-91.5 32l7 53h384zM1129 1614q-29 -54 -68.5 -109.5t-87.5 -93.5t-102 -38q-45 0 -81.5 27t-70 54t-72.5 27q-38 0 -73 -31t-76 -87l-50 24q27 53 67 108.5t88.5 93.5t102.5 38q48 0 86 -26.5t70.5 -53.5
t64.5 -27q37 0 74 30.5t76 86.5z" />
    <glyph glyph-name="utilde" unicode="&#x169;" horiz-adv-x="1048" 
d="M1006 81q-80 -54 -144 -88t-105 -34q-30 0 -58 38t-41 123t2 225q7 68 20 142t24 140.5t11 112.5t-9.5 56.5t-27.5 10.5q-12 0 -40.5 -8t-50.5 -16l-16 47q56 26 115.5 50t106.5 40t67 16q28 0 37 -19t9 -65q0 -44 -12 -120.5t-27.5 -164.5t-27.5 -167t-12 -128
q0 -91 13.5 -132t38.5 -41q45 0 112 28zM676 443l-16 -167q-81 -138 -181.5 -227.5t-204.5 -89.5q-30 0 -66.5 27.5t-63.5 82.5t-27 136q0 45 11 119t25 156.5t25 152.5t11 107q0 46 -11.5 56.5t-29.5 10.5q-13 0 -44.5 -8t-56.5 -16l-13 47q57 26 118.5 50t110.5 40t68 16
q30 0 39.5 -19t9.5 -65q0 -44 -12 -123.5t-28 -170t-28 -170.5t-12 -123q0 -83 19.5 -121.5t50.5 -38.5q39 0 122 76.5t184 261.5zM966 1334q-29 -54 -68.5 -109.5t-87.5 -93.5t-102 -38q-45 0 -81.5 27t-70 54t-72.5 27q-38 0 -73 -31t-76 -87l-50 24q27 53 67 108.5
t88.5 93.5t102.5 38q48 0 86 -26.5t70.5 -53.5t64.5 -27q37 0 74 30.5t76 86.5z" />
    <glyph glyph-name="Umacron" unicode="&#x16a;" horiz-adv-x="1241" 
d="M1302 1260l-7 -53q-127 -29 -132 -62l-89 -633q-37 -262 -173.5 -402.5t-334.5 -140.5q-110 0 -196.5 44t-137 128.5t-50.5 206.5q0 54 9 115l97 682q2 12 -28 30t-94 32l7 53h434l-8 -53q-63 -14 -100 -31t-39 -31l-88 -635q-4 -29 -5.5 -58t-1.5 -55q0 -139 65.5 -220
t193.5 -81q87 0 152 52t105.5 137t54.5 184l92 676q1 12 -25.5 30t-91.5 32l7 53h384zM1120 1548q-7 -22 -26.5 -57t-28.5 -52h-574l-19 27q8 20 25.5 54.5t28.5 54.5h572z" />
    <glyph glyph-name="umacron" unicode="&#x16b;" horiz-adv-x="1048" 
d="M1006 81q-80 -54 -144 -88t-105 -34q-30 0 -58 38t-41 123t2 225q7 68 20 142t24 140.5t11 112.5t-9.5 56.5t-27.5 10.5q-12 0 -40.5 -8t-50.5 -16l-16 47q56 26 115.5 50t106.5 40t67 16q28 0 37 -19t9 -65q0 -44 -12 -120.5t-27.5 -164.5t-27.5 -167t-12 -128
q0 -91 13.5 -132t38.5 -41q45 0 112 28zM676 443l-16 -167q-81 -138 -181.5 -227.5t-204.5 -89.5q-30 0 -66.5 27.5t-63.5 82.5t-27 136q0 45 11 119t25 156.5t25 152.5t11 107q0 46 -11.5 56.5t-29.5 10.5q-13 0 -44.5 -8t-56.5 -16l-13 47q57 26 118.5 50t110.5 40t68 16
q30 0 39.5 -19t9.5 -65q0 -44 -12 -123.5t-28 -170t-28 -170.5t-12 -123q0 -83 19.5 -121.5t50.5 -38.5q39 0 122 76.5t184 261.5zM958 1261q-6 -22 -25.5 -57t-29.5 -52h-574l-18 27q7 20 24.5 54.5t29.5 54.5h572z" />
    <glyph glyph-name="Ubreve" unicode="&#x16c;" horiz-adv-x="1241" 
d="M1302 1260l-7 -53q-127 -29 -132 -62l-89 -633q-37 -262 -173.5 -402.5t-334.5 -140.5q-110 0 -196.5 44t-137 128.5t-50.5 206.5q0 54 9 115l97 682q2 12 -28 30t-94 32l7 53h434l-8 -53q-63 -14 -100 -31t-39 -31l-88 -635q-4 -29 -5.5 -58t-1.5 -55q0 -139 65.5 -220
t193.5 -81q87 0 152 52t105.5 137t54.5 184l92 676q1 12 -25.5 30t-91.5 32l7 53h384zM1108 1655q-74 -161 -166.5 -224t-171.5 -63q-88 0 -159.5 63.5t-105.5 223.5q14 17 31 31t32 22q28 -106 92.5 -148.5t121.5 -42.5q63 0 141 42.5t135 148.5q13 -8 27 -21t23 -32z" />
    <glyph glyph-name="ubreve" unicode="&#x16d;" horiz-adv-x="1048" 
d="M1006 81q-80 -54 -144 -88t-105 -34q-30 0 -58 38t-41 123t2 225q7 68 20 142t24 140.5t11 112.5t-9.5 56.5t-27.5 10.5q-12 0 -40.5 -8t-50.5 -16l-16 47q56 26 115.5 50t106.5 40t67 16q28 0 37 -19t9 -65q0 -44 -12 -120.5t-27.5 -164.5t-27.5 -167t-12 -128
q0 -91 13.5 -132t38.5 -41q45 0 112 28zM676 443l-16 -167q-81 -138 -181.5 -227.5t-204.5 -89.5q-30 0 -66.5 27.5t-63.5 82.5t-27 136q0 45 11 119t25 156.5t25 152.5t11 107q0 46 -11.5 56.5t-29.5 10.5q-13 0 -44.5 -8t-56.5 -16l-13 47q57 26 118.5 50t110.5 40t68 16
q30 0 39.5 -19t9.5 -65q0 -44 -12 -123.5t-28 -170t-28 -170.5t-12 -123q0 -83 19.5 -121.5t50.5 -38.5q39 0 122 76.5t184 261.5zM940 1335q-74 -161 -166.5 -224t-171.5 -63q-88 0 -159.5 63.5t-105.5 223.5q14 17 31 31t32 22q28 -106 92.5 -148.5t121.5 -42.5
q63 0 141 42.5t135 148.5q13 -8 27 -21t23 -32z" />
    <glyph glyph-name="Uring" unicode="&#x16e;" horiz-adv-x="1241" 
d="M1302 1260l-7 -53q-127 -29 -132 -62l-89 -633q-37 -262 -173.5 -402.5t-334.5 -140.5q-110 0 -196.5 44t-137 128.5t-50.5 206.5q0 54 9 115l97 682q2 12 -28 30t-94 32l7 53h434l-8 -53q-63 -14 -100 -31t-39 -31l-88 -635q-4 -29 -5.5 -58t-1.5 -55q0 -139 65.5 -220
t193.5 -81q87 0 152 52t105.5 137t54.5 184l92 676q1 12 -25.5 30t-91.5 32l7 53h384zM972 1608q0 -56 -31.5 -117t-84 -103t-117.5 -42q-58 0 -92.5 39.5t-34.5 91.5q0 60 31 122t84 103.5t118 41.5q58 0 92.5 -39.5t34.5 -96.5zM872 1571q0 33 -15 57.5t-43 24.5
q-50 0 -77 -43t-27 -90q0 -35 16 -60t44 -25q47 0 74.5 44t27.5 92z" />
    <glyph glyph-name="uring" unicode="&#x16f;" horiz-adv-x="1048" 
d="M1006 81q-80 -54 -144 -88t-105 -34q-30 0 -58 38t-41 123t2 225q7 68 20 142t24 140.5t11 112.5t-9.5 56.5t-27.5 10.5q-12 0 -40.5 -8t-50.5 -16l-16 47q56 26 115.5 50t106.5 40t67 16q28 0 37 -19t9 -65q0 -44 -12 -120.5t-27.5 -164.5t-27.5 -167t-12 -128
q0 -91 13.5 -132t38.5 -41q45 0 112 28zM676 443l-16 -167q-81 -138 -181.5 -227.5t-204.5 -89.5q-30 0 -66.5 27.5t-63.5 82.5t-27 136q0 45 11 119t25 156.5t25 152.5t11 107q0 46 -11.5 56.5t-29.5 10.5q-13 0 -44.5 -8t-56.5 -16l-13 47q57 26 118.5 50t110.5 40t68 16
q30 0 39.5 -19t9.5 -65q0 -44 -12 -123.5t-28 -170t-28 -170.5t-12 -123q0 -83 19.5 -121.5t50.5 -38.5q39 0 122 76.5t184 261.5zM804 1288q0 -56 -31.5 -117t-84 -103t-117.5 -42q-58 0 -92.5 39.5t-34.5 91.5q0 60 31 122t84 103.5t118 41.5q58 0 92.5 -39.5t34.5 -96.5z
M704 1251q0 33 -15 57.5t-43 24.5q-50 0 -77 -43t-27 -90q0 -35 16 -60t44 -25q47 0 74.5 44t27.5 92z" />
    <glyph glyph-name="Uhungarumlaut" unicode="&#x170;" horiz-adv-x="1241" 
d="M1302 1260l-7 -53q-127 -29 -132 -62l-89 -633q-37 -262 -173.5 -402.5t-334.5 -140.5q-110 0 -196.5 44t-137 128.5t-50.5 206.5q0 54 9 115l97 682q2 12 -28 30t-94 32l7 53h434l-8 -53q-63 -14 -100 -31t-39 -31l-88 -635q-4 -29 -5.5 -58t-1.5 -55q0 -139 65.5 -220
t193.5 -81q87 0 152 52t105.5 137t54.5 184l92 676q1 12 -25.5 30t-91.5 32l7 53h384zM1212 1711l-289 -366q-15 2 -29.5 11t-27.5 21l214 411q19 -3 58.5 -12t54.5 -17zM945 1711l-289 -366q-15 2 -29.5 11t-27.5 21l214 411q19 -3 58.5 -12t54.5 -17z" />
    <glyph glyph-name="uhungarumlaut" unicode="&#x171;" horiz-adv-x="1048" 
d="M1006 81q-80 -54 -144 -88t-105 -34q-30 0 -58 38t-41 123t2 225q7 68 20 142t24 140.5t11 112.5t-9.5 56.5t-27.5 10.5q-12 0 -40.5 -8t-50.5 -16l-16 47q56 26 115.5 50t106.5 40t67 16q28 0 37 -19t9 -65q0 -44 -12 -120.5t-27.5 -164.5t-27.5 -167t-12 -128
q0 -91 13.5 -132t38.5 -41q45 0 112 28zM676 443l-16 -167q-81 -138 -181.5 -227.5t-204.5 -89.5q-30 0 -66.5 27.5t-63.5 82.5t-27 136q0 45 11 119t25 156.5t25 152.5t11 107q0 46 -11.5 56.5t-29.5 10.5q-13 0 -44.5 -8t-56.5 -16l-13 47q57 26 118.5 50t110.5 40t68 16
q30 0 39.5 -19t9.5 -65q0 -44 -12 -123.5t-28 -170t-28 -170.5t-12 -123q0 -83 19.5 -121.5t50.5 -38.5q39 0 122 76.5t184 261.5zM1044 1391l-289 -366q-15 2 -29.5 11t-27.5 21l214 411q19 -3 58.5 -12t54.5 -17zM777 1391l-289 -366q-15 2 -29.5 11t-27.5 21l214 411
q19 -3 58.5 -12t54.5 -17z" />
    <glyph glyph-name="Uogonek" unicode="&#x172;" horiz-adv-x="1241" 
d="M1302 1260l-7 -53q-127 -29 -132 -62l-89 -633q-37 -262 -173.5 -402.5t-334.5 -140.5q-110 0 -196.5 44t-137 128.5t-50.5 206.5q0 54 9 115l97 682q2 12 -28 30t-94 32l7 53h434l-8 -53q-63 -14 -100 -31t-39 -31l-88 -635q-4 -29 -5.5 -58t-1.5 -55q0 -139 65.5 -220
t193.5 -81q87 0 152 52t105.5 137t54.5 184l92 676q1 12 -25.5 30t-91.5 32l7 53h384zM760 -298q-46 -54 -113 -101t-126 -47q-47 0 -89.5 24t-42.5 95q0 75 47 140.5t118 119.5t142 92l67 -6q-55 -36 -106 -83.5t-83.5 -100t-32.5 -103.5q0 -28 18.5 -43t48.5 -15
q21 0 56.5 17t76.5 56z" />
    <glyph glyph-name="uogonek" unicode="&#x173;" horiz-adv-x="1048" 
d="M1006 81q-80 -54 -144 -88t-105 -34q-30 0 -58 38t-41 123t2 225q7 68 20 142t24 140.5t11 112.5t-9.5 56.5t-27.5 10.5q-12 0 -40.5 -8t-50.5 -16l-16 47q56 26 115.5 50t106.5 40t67 16q28 0 37 -19t9 -65q0 -44 -12 -120.5t-27.5 -164.5t-27.5 -167t-12 -128
q0 -91 13.5 -132t38.5 -41q45 0 112 28zM676 443l-16 -167q-81 -138 -181.5 -227.5t-204.5 -89.5q-30 0 -66.5 27.5t-63.5 82.5t-27 136q0 45 11 119t25 156.5t25 152.5t11 107q0 46 -11.5 56.5t-29.5 10.5q-13 0 -44.5 -8t-56.5 -16l-13 47q57 26 118.5 50t110.5 40t68 16
q30 0 39.5 -19t9.5 -65q0 -44 -12 -123.5t-28 -170t-28 -170.5t-12 -123q0 -83 19.5 -121.5t50.5 -38.5q39 0 122 76.5t184 261.5zM896 -298q-46 -54 -113 -101t-126 -47q-47 0 -89.5 24t-42.5 95q0 75 47 140.5t118 119.5t142 92l67 -6q-55 -36 -106 -83.5t-83.5 -100
t-32.5 -103.5q0 -28 18.5 -43t48.5 -15q21 0 56.5 17t76.5 56z" />
    <glyph glyph-name="Wcircumflex" unicode="&#x174;" horiz-adv-x="1579" 
d="M1682 1260l-6 -53q-65 -15 -104.5 -27t-46.5 -35l-359 -1086q-10 -29 -37.5 -47.5t-57 -28.5t-46.5 -14l-174 954l-382 -864q-13 -30 -42 -48t-60 -27.5t-49 -14.5l-77 1168q-1 25 -27 41t-90 29l7 53h412l-7 -53q-89 -10 -112 -29t-21 -41l58 -839l422 962h68l183 -962
l278 847q8 23 -31 37t-100 25l7 53h394zM1218 1394q-25 -37 -53 -50l-219 192l-272 -192q-9 6 -20 17.5t-20 32.5l282 306h107z" />
    <glyph glyph-name="wcircumflex" unicode="&#x175;" horiz-adv-x="1323" 
d="M1316 860q0 -40 -14 -99.5t-52 -154t-108 -238.5t-183 -352q-17 -9 -57 -28.5t-59 -28.5l-36 34q-11 84 -24 179t-27 187.5t-28 168.5t-27 122q-4 -33 -27 -102.5t-60 -159t-82.5 -184.5t-94.5 -179q-12 -6 -37 -19.5t-50.5 -27t-39.5 -19.5l-34 34q-11 84 -22 191
t-22.5 214t-23 194t-22.5 131q-12 54 -32.5 68t-38.5 14q-12 0 -36 -6.5t-43.5 -12l-19.5 -5.5l-17 47q85 40 161 74t104 34t42.5 -32.5t30.5 -104.5q7 -31 16 -91.5t19 -135.5t18.5 -150t14.5 -135t8 -90q53 103 104 223.5t86 233.5t40 195q33 30 79.5 58.5t71.5 28.5
q6 0 16 -34.5t22 -88t23 -111t19 -102.5q15 -94 34.5 -210t28.5 -210q135 246 184 387.5t49 211.5q0 45 -55 45q-31 0 -79 -15l-20 47q70 42 131.5 61t84.5 19q33 0 58.5 -13t25.5 -63zM1074 1074q-25 -37 -53 -50l-213 252l-278 -252q-9 6 -19.5 17.5t-20.5 32.5l289 373
h107z" />
    <glyph glyph-name="Ycircumflex" unicode="&#x176;" horiz-adv-x="1153" 
d="M1223 1260l-7 -53q-64 -13 -98.5 -26.5t-50.5 -39.5l-418 -654h-128q-16 75 -45.5 166t-66 183t-75.5 173t-74 135q-19 28 -46.5 37t-99.5 2l-5 53q36 8 82.5 17t89 15.5t68.5 6.5q36 0 62 -42q31 -50 66 -121.5t68 -150.5t59 -153.5t40 -129.5l299 463q16 27 -6 41.5
t-90 24.5l7 53h369zM763 53l-7 -53h-472l8 53q86 19 121 38.5t37 33.5l70 512h174l-70 -512q-2 -13 27 -33t112 -39zM996 1394q-25 -37 -53 -50l-219 192l-272 -192q-9 6 -20 17.5t-20 32.5l282 306h107z" />
    <glyph glyph-name="ycircumflex" unicode="&#x177;" horiz-adv-x="944" 
d="M532 50l-121 -153l-33 29q-15 86 -40.5 202.5t-55 235.5t-59 216t-51.5 145q-23 51 -38.5 66.5t-33.5 15.5q-13 0 -43.5 -8t-54.5 -16l-14 47q80 40 157 73t105 33t46 -29t42 -98q30 -84 66 -211t70.5 -270.5t57.5 -277.5zM916 860q0 -45 -37.5 -137.5t-115.5 -249
t-201 -391.5q-90 -173 -180 -304t-187.5 -204.5t-212.5 -73.5q-66 0 -117 22.5t-51 41.5q0 16 19.5 51.5t45.5 68.5t44 43q48 -37 83.5 -47.5t72.5 -10.5q89 0 178.5 106.5t189.5 298.5q52 98 105.5 207t98.5 209.5t73 175.5t28 105q0 53 -53 53q-36 0 -89 -23l-20 47
q72 41 137 64.5t104 23.5q34 0 59.5 -13t25.5 -63zM878 1074q-25 -37 -53 -50l-213 252l-278 -252q-9 6 -19.5 17.5t-20.5 32.5l289 373h107z" />
    <glyph glyph-name="Ydieresis" unicode="&#x178;" horiz-adv-x="1153" 
d="M1223 1260l-7 -53q-64 -13 -98.5 -26.5t-50.5 -39.5l-418 -654h-128q-16 75 -45.5 166t-66 183t-75.5 173t-74 135q-19 28 -46.5 37t-99.5 2l-5 53q36 8 82.5 17t89 15.5t68.5 6.5q36 0 62 -42q31 -50 66 -121.5t68 -150.5t59 -153.5t40 -129.5l299 463q16 27 -6 41.5
t-90 24.5l7 53h369zM763 53l-7 -53h-472l8 53q86 19 121 38.5t37 33.5l70 512h174l-70 -512q-2 -13 27 -33t112 -39zM1017 1550q0 -58 -37 -112t-101 -54q-36 0 -55.5 22t-19.5 58q0 37 16.5 75.5t47.5 65t72 26.5q37 0 57 -23t20 -58zM640 1550q0 -58 -37 -112t-100 -54
q-37 0 -56.5 22t-19.5 58q0 37 17 75.5t48 65t72 26.5q36 0 56 -23t20 -58z" />
    <glyph glyph-name="Zacute" unicode="&#x179;" horiz-adv-x="1036" 
d="M1043 1212l-775 -1102h464q40 0 74.5 49t86.5 178l58 -16q-8 -44 -18.5 -104.5t-20.5 -119t-16 -97.5h-849l-21 48l783 1107h-403q-29 0 -76.5 -52.5t-82.5 -161.5l-61 14l76 329q48 -18 84 -21t89 -3h588zM990 1638v-53l-465 -244q-14 9 -22 21.5t-16 33.5l385 319
q13 -7 37.5 -22t48 -30t32.5 -25z" />
    <glyph glyph-name="zacute" unicode="&#x17a;" horiz-adv-x="776" 
d="M779 881q-110 -118 -189.5 -229.5t-158 -229t-183.5 -252.5l25.5 8t56.5 8q27 0 74 -15t99.5 -29.5t96.5 -14.5q19 0 49 16.5t70 92.5l43 -25q-37 -84 -66.5 -134.5t-68.5 -73.5t-105 -23q-63 0 -119.5 17t-104.5 33.5t-88 16.5q-32 0 -74 -20t-118 -58l-26 39
q74 90 153 200t154.5 220t139 201.5t107.5 143.5h-278q-47 0 -71.5 -24t-54.5 -108l-47 11q19 89 39.5 165t28.5 119q18 -4 44 -12.5t61 -8.5h488zM830 1422l17 -50l-362 -348q-28 6 -53 40l260 398q14 -3 42.5 -10.5t56.5 -15.5t39 -14z" />
    <glyph glyph-name="Zdotaccent" unicode="&#x17b;" horiz-adv-x="1036" 
d="M1043 1212l-775 -1102h464q40 0 74.5 49t86.5 178l58 -16q-8 -44 -18.5 -104.5t-20.5 -119t-16 -97.5h-849l-21 48l783 1107h-403q-29 0 -76.5 -52.5t-82.5 -161.5l-61 14l76 329q48 -18 84 -21t89 -3h588zM774 1549q0 -58 -36 -112t-99 -54q-37 0 -55.5 22t-18.5 58
q0 37 16.5 75.5t46.5 65t71 26.5q36 0 55.5 -23t19.5 -58z" />
    <glyph glyph-name="zdotaccent" unicode="&#x17c;" horiz-adv-x="776" 
d="M779 881q-110 -118 -189.5 -229.5t-158 -229t-183.5 -252.5l25.5 8t56.5 8q27 0 74 -15t99.5 -29.5t96.5 -14.5q19 0 49 16.5t70 92.5l43 -25q-37 -84 -66.5 -134.5t-68.5 -73.5t-105 -23q-63 0 -119.5 17t-104.5 33.5t-88 16.5q-32 0 -74 -20t-118 -58l-26 39
q74 90 153 200t154.5 220t139 201.5t107.5 143.5h-278q-47 0 -71.5 -24t-54.5 -108l-47 11q19 89 39.5 165t28.5 119q18 -4 44 -12.5t61 -8.5h488zM632 1260q0 -58 -36.5 -112t-98.5 -54q-37 0 -56 22t-19 58t16.5 75t47 65.5t71.5 26.5q36 0 55.5 -23t19.5 -58z" />
    <glyph glyph-name="Zcaron" unicode="&#x17d;" horiz-adv-x="1036" 
d="M1043 1212l-775 -1102h464q40 0 74.5 49t86.5 178l58 -16q-8 -44 -18.5 -104.5t-20.5 -119t-16 -97.5h-849l-21 48l783 1107h-403q-29 0 -76.5 -52.5t-82.5 -161.5l-61 14l76 329q48 -18 84 -21t89 -3h588zM982 1674l-278 -306h-107l-196 306q14 18 25.5 28t26.5 22
l219 -192l271 192q12 -11 21 -21.5t18 -28.5z" />
    <glyph glyph-name="zcaron" unicode="&#x17e;" horiz-adv-x="776" 
d="M779 881q-110 -118 -189.5 -229.5t-158 -229t-183.5 -252.5l25.5 8t56.5 8q27 0 74 -15t99.5 -29.5t96.5 -14.5q19 0 49 16.5t70 92.5l43 -25q-37 -84 -66.5 -134.5t-68.5 -73.5t-105 -23q-63 0 -119.5 17t-104.5 33.5t-88 16.5q-32 0 -74 -20t-118 -58l-26 39
q74 90 153 200t154.5 220t139 201.5t107.5 143.5h-278q-47 0 -71.5 -24t-54.5 -108l-47 11q19 89 39.5 165t28.5 119q18 -4 44 -12.5t61 -8.5h488zM837 1406l-285 -358h-107l-192 358q15 18 26 28t27 22l214 -236l278 236q12 -10 21 -20.5t18 -29.5z" />
    <glyph glyph-name="longs" unicode="&#x17f;" horiz-adv-x="592" 
d="M941 1401q-29 -21 -66.5 -49t-70.5 -48.5t-49 -20.5q-19 0 -38 28.5t-44 57t-62 28.5q-52 0 -87 -44.5t-57 -114t-34.5 -146t-19.5 -140.5l-88 -759q-17 -146 -73.5 -278.5t-139 -236t-181.5 -163.5l-31 71q67 37 116.5 126.5t81 203.5t43.5 223l88 760q14 109 37 205.5
t70.5 178t132.5 144.5q53 39 106 66t114 27t110.5 -27t85 -56t56.5 -36z" />
    <glyph glyph-name="uni0180" unicode="&#x180;" horiz-adv-x="977" 
d="M911 610q-1 -106 -35.5 -214t-107.5 -208q-68 -90 -168.5 -159.5t-226.5 -69.5q-32 0 -75 23t-83.5 61.5t-67.5 85.5t-27 96q0 35 10.5 117.5t27 193t35 231t35.5 233t27.5 199t10.5 127.5q0 46 -18 56.5t-35 10.5q-12 0 -35.5 -6.5t-43 -13.5l-19.5 -7l-14 49
q58 26 121.5 50t114.5 39.5t70 15.5q29 0 40 -18t11 -64q0 -47 -11 -138.5t-28.5 -208.5t-37.5 -241.5t-37.5 -240t-28.5 -205t-11 -133.5q0 -35 26 -73t65.5 -65t79.5 -27q65 -1 112 39t77 87q44 68 58.5 149.5t14.5 148.5q0 127 -39.5 192.5t-87.5 65.5q-25 0 -79.5 -44.5
t-118 -125.5t-116.5 -191l-16 106q76 156 158.5 243.5t155 123.5t119.5 36q85 0 142.5 -84t55.5 -242zM720 1176l-37 -74h-600l-22 26q6 15 17 37t20 37h600z" />
    <glyph glyph-name="uni0181" unicode="&#x181;" horiz-adv-x="1264" 
d="M1189 410q0 -130 -67.5 -229.5t-178.5 -155.5t-241 -56q-40 0 -109 4.5t-139.5 11t-119 11l-48.5 4.5l246 108q36 -26 92 -35.5t105 -9.5q85 0 146.5 44.5t94.5 115.5t33 152q0 67 -24 128.5t-78.5 101t-147.5 39.5q-60 0 -104 -7t-89 -15l4 108h91q85 0 163.5 20.5
t128.5 76t50 160.5q0 118 -67.5 165t-218.5 47q-49 0 -115.5 -4t-131.5 -20t-111.5 -51.5t-54.5 -99.5q-10 -75 48 -106q-5 -8 -37 -26.5t-70.5 -35.5t-64.5 -22q-31 15 -47.5 58.5t-8.5 98.5q19 134 167 216.5t440 82.5q175 0 274.5 -30t141.5 -86t42 -134
q0 -104 -63 -190.5t-168 -126.5q109 -22 173 -108t64 -205zM699 1260l-157 -1146q-3 -12 28.5 -32t94.5 -34l-7 -48h-436l7 53q63 14 100 31t39 30l157 1146h174z" />
    <glyph glyph-name="uni0182" unicode="&#x182;" horiz-adv-x="1072" 
d="M983 356q-16 -114 -82.5 -197t-170.5 -128t-233 -45q-40 0 -110.5 2t-143 5t-122.5 5l-50 2l245 108q26 -16 73.5 -23t89.5 -7q124 0 212 65.5t104 183.5q10 74 -9.5 147t-77.5 122t-164 49q-61 0 -111 -7t-95 -15l-15 82q51 16 123 25t142 9q151 0 243.5 -50.5t129 -137
t22.5 -195.5zM1016 1232q-6 -34 -23 -93.5t-36.5 -120t-33.5 -98.5h-55q12 128 8 184t-39 56h-416l41 100h526zM492 0h-494l6 53q65 14 103.5 31t40.5 30l140 1031q2 12 -29.5 30t-95.5 32l7 53h292h155l-7 -53q-65 -14 -101.5 -20t-39.5 -20l-143 -1053q-2 -13 31.5 -27
t141.5 -34z" />
    <glyph glyph-name="uni0183" unicode="&#x183;" horiz-adv-x="979" 
d="M912 610q-2 -106 -36.5 -213.5t-106.5 -208.5q-68 -90 -169 -159.5t-227 -69.5q-35 0 -78 24t-83 63.5t-66 86t-26 92.5q0 35 10.5 117t27 191t35 228.5t35 230.5t27 197t10.5 127q0 21 -4.5 59.5t-14.5 51.5q92 36 141.5 29.5t69.5 -18.5q0 -47 -11 -138.5t-28.5 -208.5
t-37 -241.5t-37 -240t-28.5 -205t-11 -133.5q0 -35 25.5 -73.5t65 -65t80.5 -26.5q61 0 109 37.5t80 88.5q46 72 59.5 151.5t13.5 146.5q0 124 -38.5 191t-86.5 67q-28 0 -86 -48t-122.5 -133t-113.5 -195l-19 102q70 152 153.5 245t162 135t134.5 42q84 0 138 -84t53 -242z
M929 1461q-6 -34 -22 -93t-35 -119.5t-33 -98.5h-53q12 128 8.5 184t-38.5 56h-446l-64 37l150 63h506z" />
    <glyph glyph-name="uni0184" unicode="&#x184;" horiz-adv-x="1041" 
d="M472 -14q-87 0 -193 4.5t-213 9.5l238 106q25 -16 73 -22t92 -6q133 0 223 79.5t90 215.5q0 66 -25 126t-80.5 99t-145.5 39q-68 0 -120.5 -8t-92.5 -17l2 91q50 15 120.5 25.5t139.5 10.5q189 0 285 -89.5t96 -231.5q0 -131 -64 -228t-175 -150.5t-250 -53.5zM433 0
h-433l7 53q63 14 100.5 31t38.5 30l51 371h170l-51 -373q-1 -12 29.5 -30t93.5 -31zM473 1257l-124 -903h-170l92 675l-81 -102q-23 -22 -64 -41t-66 -28q-12 12 -23 30l260 328q24 24 70 44t76 30q8 -5 17 -15.5t13 -17.5z" />
    <glyph glyph-name="uni0185" unicode="&#x185;" horiz-adv-x="988" 
d="M266 1214l-83 -105q-22 -22 -65 -45.5t-68 -32.5q-12 10 -27 30l291 367q28 24 69 48.5t72 40.5q22 -15 34 -34l-133 -836v-2q66 110 135.5 173.5t131.5 90.5t105 27q79 0 136.5 -82.5t57.5 -243.5q0 -108 -35 -215t-108 -207q-66 -91 -167.5 -160t-227.5 -69
q-31 0 -74 23t-84 60.5t-68.5 83.5t-27.5 91q0 29 9.5 108.5t24.5 190t33 235t36 245t33 218.5zM621 788q-24 0 -73.5 -39t-107 -108.5t-107.5 -162.5q-9 -71 -14 -124.5t-5 -82.5q0 -35 26.5 -73.5t66.5 -65t79 -26.5q61 0 109.5 37.5t79.5 88.5q44 70 58.5 150.5
t14.5 147.5q0 131 -40.5 194.5t-86.5 63.5z" />
    <glyph glyph-name="uni0186" unicode="&#x186;" horiz-adv-x="1035" 
d="M1009 784q0 -104 -26.5 -217.5t-78 -219.5t-126.5 -191.5t-172 -136t-215 -50.5q-107 0 -179.5 38.5t-109.5 102t-37 138.5q0 46 11.5 97t49.5 99q30 15 81.5 36.5t101 41t71.5 28.5l15 -60q-81 -41 -114.5 -95.5t-33.5 -113.5q0 -76 58 -133.5t141 -57.5
q80 0 142.5 43.5t109 115.5t77 158t45.5 172.5t15 158.5q0 139 -45 233t-115.5 142.5t-146.5 48.5q-47 0 -125 -25.5t-198 -110.5q-9 5 -19 26t-13 27q95 89 173 134.5t145 61t127 15.5q108 0 196.5 -60t141.5 -173t53 -273z" />
    <glyph glyph-name="uni0187" unicode="&#x187;" horiz-adv-x="1010" 
d="M1436 1459q-1 -12 -28.5 -38t-62.5 -52.5t-61 -39.5q-20 81 -51 104.5t-56 23.5q-103 0 -140 -269q-49 -13 -83.5 -20t-75.5 -17q21 123 62 199t114 139q53 47 108 74t99 27q54 0 94.5 -26.5t61.5 -58t19 -46.5zM1036 1190q5 -6 -16 -39.5t-50 -69.5t-46 -51l-40 10
q-36 51 -93 87.5t-139 36.5q-39 0 -85 -16.5t-86 -47.5q-63 -49 -107 -122t-70.5 -156t-39 -163t-12.5 -143q0 -145 49 -235t119.5 -131t137.5 -41q54 -1 133 32t195 123q9 -5 18 -26t13 -27q-135 -136 -247 -187t-205 -51q-106 0 -195.5 57t-144 166t-54.5 263
q0 126 34 255.5t105.5 246.5t184.5 206q72 57 162 90t184 33q98 0 175 -29.5t120 -70.5z" />
    <glyph glyph-name="uni0188" unicode="&#x188;" horiz-adv-x="864" 
d="M316 -41q-49 0 -109 32t-104 111.5t-44 219.5q0 90 25.5 184t84 180t156.5 151q56 37 136.5 68t149.5 31q59 0 95 -26t61.5 -55.5t51.5 -37.5q-43 -35 -84.5 -74t-69.5 -39q-16 0 -40 28.5t-56 57.5t-73 29q-64 0 -112.5 -43.5t-81.5 -112t-50 -147t-17 -148.5
q0 -129 50.5 -204t128.5 -75q42 0 116.5 32t181.5 120q8 -10 20.5 -26.5t16.5 -24.5q-104 -95 -182 -145t-138.5 -68t-112.5 -18zM819 817q-40 -9 -79 18.5t-75 78.5q6 49 9 75.5t9 74.5q25 150 78 229.5t125 132.5q52 39 105.5 66.5t116.5 27.5q59 0 103.5 -27.5
t77.5 -56.5t56 -35q-29 -21 -66 -49t-70.5 -48.5t-49.5 -20.5q-17 0 -34.5 28.5t-40 57t-57.5 28.5q-122 0 -165 -271q-2 -14 -8 -57.5t-13.5 -96.5t-13.5 -97t-8 -58z" />
    <glyph glyph-name="uni0189" unicode="&#x189;" horiz-adv-x="1148" 
d="M656 684l-36 -75h-533l-20 27q6 15 16.5 36.5t18.5 37.5h532zM1112 748q0 -132 -41 -264.5t-120.5 -242t-195 -175.5t-264.5 -66h-493l7 53q63 14 100 31t38 30l147 1068l-149 -18v73q114 27 233 40t222 13q252 0 384 -147.5t132 -394.5zM527 1199q-15 0 -30 -1t-30 -1
l-143 -1050q-4 -30 25.5 -42.5t120.5 -12.5q108 0 192 58.5t141.5 153.5t87 206.5t29.5 216.5q0 214 -98.5 343t-294.5 129z" />
    <glyph glyph-name="uni018A" unicode="&#x18a;" horiz-adv-x="1355" 
d="M118 993q20 152 191 224.5t456 72.5q156 0 242 -24.5t148 -72.5q115 -91 156 -238.5t20 -308.5q-25 -183 -88.5 -307.5t-152 -199t-189.5 -107t-200 -32.5h-476l8 53q132 28 138 61l146 1072q-107 -16 -159 -57.5t-60 -104.5q-10 -77 53 -109q-5 -8 -38 -26t-73 -35
t-66 -23q-31 16 -47 61.5t-9 100.5zM700 1199h-9q-36 -264 -60.5 -444.5t-40 -294.5t-24 -176.5t-12 -89t-4.5 -31.5l-1 -5q-5 -38 24 -52t124 -14q57 0 125 28t132.5 90t113.5 162t69 244q18 136 -5.5 267.5t-101.5 207.5q-57 56 -132 82t-198 26z" />
    <glyph glyph-name="uni018B" unicode="&#x18b;" horiz-adv-x="1066" 
d="M91 346q14 103 76.5 192.5t169 145t251.5 55.5q70 0 133 -9.5t110 -24.5l-21 -85q-43 7 -90.5 14.5t-108.5 7.5q-108 0 -179.5 -39t-111 -100.5t-48.5 -130.5q-17 -122 46 -207t192 -85q42 0 93 6t82 22l228 -108l-52 -2t-126.5 -5t-146.5 -5t-113 -2q-195 0 -302 87.5
t-82 272.5zM974 0h-487l-1 53q114 20 151 34t39 27l144 1053q2 14 -32.5 25t-94.5 25l6 43h156h291l-7 -53q-69 -14 -106 -32t-38 -30l-141 -1031q-2 -13 32 -30t94 -31zM937 1160h-479q-29 0 -62.5 -64t-91.5 -181l-46 19q5 39 18.5 102.5t29.5 126t27 97.5h593z" />
    <glyph glyph-name="uni018C" unicode="&#x18c;" horiz-adv-x="985" 
d="M945 80q-84 -57 -147 -89t-97 -32q-22 0 -46 27.5t-40.5 99t-16.5 201.5q0 30 10 104.5t26 174.5t34.5 211t34.5 217t26 190.5t10 131.5q0 46 -17 60t-35 14q14 14 56 38t88 43t71 19q18 0 23 -33.5t5 -66.5q0 -37 -11.5 -118.5t-29.5 -189.5t-38.5 -225t-39 -226.5
t-30 -194.5t-11.5 -127q0 -110 12 -159t36 -49q25 0 51.5 5.5t61.5 20.5zM826 811q-29 -19 -39.5 -58.5t-17 -72.5t-24.5 -33t-42.5 25.5t-55.5 60t-68.5 60.5t-81.5 26q-67 0 -119 -45.5t-88.5 -115.5t-55.5 -145t-19 -134q0 -129 44.5 -196t94.5 -67q35 0 81 44t96 118.5
t99 167.5l-20 -171q-45 -84 -101 -156t-116.5 -116t-118.5 -44q-48 0 -100.5 37t-89 116t-36.5 203q0 158 71 295.5t213 231.5q56 35 129 64.5t139 29.5q28 0 58.5 -20t61 -45.5t57.5 -44t49 -15.5zM929 1390h-463q-27 0 -60 -64t-90 -181l-46 19q5 39 18 102.5t29 126
t27 97.5h553z" />
    <glyph glyph-name="uni018D" unicode="&#x18d;" horiz-adv-x="894" 
d="M-96 -364q45 44 93 83.5t85.5 64t49.5 24.5q15 0 53 -32.5t86 -75t96.5 -74.5t86.5 -32q30 0 63.5 25t40.5 73q9 64 -29 110.5t-102 87.5t-136.5 88t-134 109.5t-93.5 152t-15 217.5q12 91 55 176.5t107.5 154t141 108.5t155.5 40q129 0 203 -65t100.5 -169t10.5 -221
q-18 -133 -82 -238.5t-159 -180.5t-207 -117q-6 13 -17 30.5t-8 32.5q0 4 0.5 8.5t2.5 7.5q129 54 203 158.5t93 243.5q13 99 -8.5 186.5t-72 143t-124.5 55.5q-47 0 -94 -36t-82 -100.5t-47 -149.5q-17 -126 13.5 -210t89 -140.5t126.5 -99.5t128 -87t94 -102t22 -146
q-8 -60 -48.5 -116t-100 -91.5t-124.5 -35.5q-60 0 -110.5 20t-93.5 46.5t-82.5 46.5t-77.5 20q-39 0 -73 -11.5t-55 -26.5q-6 5 -11 17t-12 27z" />
    <glyph glyph-name="uni018E" unicode="&#x18e;" horiz-adv-x="937" 
d="M217 1006q19 86 39.5 155.5t32.5 98.5h726l-7 -53q-132 -28 -138 -61l-140 -1031q-1 -12 28.5 -30t92.5 -32l-7 -53h-776l-29 28q0 34 2.5 96t9 121t17.5 85h51q-6 -62 8 -114t37.5 -84t45.5 -32h163q117 0 151 16.5t40 56.5l135 987h-214q-55 0 -91 -11t-65 -48
t-65 -115zM233 653q19 28 52.5 66t55.5 54q24 -30 60.5 -34t112.5 -4h186l-33 -90h-236q-42 0 -95 -6t-82 -14z" />
    <glyph glyph-name="uni018F" unicode="&#x18f;" horiz-adv-x="1106" 
d="M1046 794q0 -153 -45.5 -299.5t-129 -265t-200 -189t-257.5 -70.5q-115 0 -190 49.5t-112 126.5t-37 159q0 51 15 107.5t41 89.5q31 19 72 39.5t74.5 34.5t42.5 14h554l-14 -100h-519q-26 0 -44.5 -25.5t-28 -62t-9.5 -68.5q0 -61 27.5 -116t76.5 -89.5t113 -34.5
q99 0 172 61.5t120.5 160.5t71 213.5t23.5 221.5q0 138 -46 230t-116 137.5t-143 45.5q-55 0 -133 -25.5t-201 -109.5q-7 6 -18 24.5t-13 27.5q96 90 175 134.5t146 59.5t126 15q108 0 200.5 -58t149 -169t56.5 -269z" />
    <glyph glyph-name="uni0190" unicode="&#x190;" horiz-adv-x="958" 
d="M971 1186q-17 -34 -52.5 -82t-62.5 -76l-46 10q-44 60 -95.5 94t-131.5 34q-108 0 -184.5 -66t-76.5 -173q0 -50 30.5 -98.5t103 -82t196.5 -39.5l-12 -81q-63 -2 -134 -19.5t-134.5 -52.5t-103.5 -89t-40 -129q0 -111 66.5 -166t171.5 -55q59 0 106 11.5t104.5 44
t150.5 97.5l34 -55q-104 -102 -182.5 -154.5t-152 -71t-161.5 -18.5q-152 0 -234.5 89.5t-82.5 216.5q0 86 43 160.5t109 130.5t133 87q-70 29 -120 86.5t-50 136.5q0 107 53.5 186.5t144.5 139.5q65 42 140 65t155 23q93 0 175.5 -25t139.5 -79z" />
    <glyph glyph-name="uni0191" unicode="&#x191;" horiz-adv-x="912" 
d="M330 198q-21 -153 -62 -244.5t-91.5 -145.5t-102.5 -96q-53 -43 -123 -70t-115 -27q-40 0 -79 16.5t-64.5 37.5t-24.5 34q2 13 26 39.5t53.5 50.5t46.5 31q39 -27 75.5 -48t78.5 -21q32 0 70.5 29t73 105.5t53.5 220.5l140 1035q2 12 -27.5 30t-92.5 32l8 53h771l26 -27
q-6 -34 -18 -81.5t-25.5 -91.5t-24.5 -70h-52q9 92 -4 131t-48 39h-338l-57 -425h322l24 -30q-19 -28 -48.5 -63.5t-50.5 -51.5q-24 29 -61 42t-112 13h-87z" />
    <glyph glyph-name="florin" unicode="&#x192;" horiz-adv-x="592" 
d="M683 875q-13 -19 -39.5 -43t-52.5 -44.5t-40 -27.5q-10 28 -43.5 36.5t-104.5 8.5h-332l-18 34l111 66h497zM941 1401q-29 -21 -66.5 -49t-70.5 -48.5t-49 -20.5q-19 0 -38 28.5t-44 57t-62 28.5q-52 0 -87 -44.5t-57 -114t-34.5 -146t-19.5 -140.5q-8 -66 -18 -160
t-21 -199.5t-22.5 -208t-22 -186t-19.5 -131.5q-25 -126 -62.5 -211.5t-91.5 -149t-129 -125.5q-54 -45 -122 -63t-111 -18q-42 0 -85.5 15.5t-73 35t-29.5 33.5q0 17 23 50t51 60.5t42 27.5q12 0 34 -22t57.5 -43.5t89.5 -21.5q85 0 136.5 95.5t89.5 281.5q17 81 31 200
t26 249.5t22.5 246.5t20.5 191q16 109 39 205.5t69.5 178t131.5 144.5q53 39 106 66t114 27t110.5 -27t85 -56t56.5 -36z" />
    <glyph glyph-name="uni0193" unicode="&#x193;" horiz-adv-x="1089" 
d="M1084 595l-6 -53q-54 -16 -79 -38t-28 -44q-9 -69 -19.5 -150t-19.5 -146q-90 -84 -200 -139.5t-222 -55.5q-115 0 -215 60.5t-162 174.5t-62 274q0 127 38.5 251.5t106.5 231.5t158 180q84 67 189 108t233 41q69 0 148 -29q23 74 59.5 127t91.5 101q53 47 106.5 74
t97.5 27q54 0 95 -27t63 -58.5t20 -45.5q-2 -12 -29 -38t-62 -52.5t-61 -40.5q-21 82 -51.5 105t-55.5 23q-103 0 -141 -272q1 -12 -21 -43.5t-50 -64t-45 -46.5q-10 2 -19.5 4t-18.5 4q-47 67 -109.5 99t-156.5 32q-40 0 -93 -25.5t-105 -70.5q-63 -53 -110 -147.5
t-73 -203t-26 -201.5q0 -142 52 -233.5t130 -135.5t156 -44q47 0 95 14t83 40l40 298q2 14 -10 26.5t-58 26t-146 29.5l6 53h486z" />
    <glyph glyph-name="uni0194" unicode="&#x194;" horiz-adv-x="1147" 
d="M1221 1207q-41 -7 -63 -15.5t-39.5 -28t-46.5 -60.5l-456 -657q-70 -90 -106.5 -152t-41.5 -94q-9 -65 12 -91t53 -26q30 0 54.5 23.5t30.5 69.5q4 32 -6.5 74.5t-46.5 130.5l-315 724q-22 54 -44 74.5t-77 27.5l7 53h393l-7 -53q-73 -10 -85 -29t10 -73l266 -608
q47 -105 63 -164.5t8 -114.5q-8 -62 -42 -118.5t-92 -93t-137 -36.5q-82 0 -134 55.5t-39 153.5q7 50 32 96t79 124l490 704q41 60 31.5 76.5t-77.5 27.5l8 53h326z" />
    <glyph glyph-name="uni0195" unicode="&#x195;" horiz-adv-x="1477" 
d="M908 760l-188 -80q0 66 -11.5 95.5t-51.5 29.5q-17 0 -62.5 -23.5t-101.5 -72.5t-102 -127q-28 -47 -46.5 -119.5t-31.5 -161.5q-18 -110 -22 -165.5t-1 -97.5q-18 -10 -52.5 -25t-68 -30t-50.5 -24l-35 34q12 71 30.5 184.5t40.5 249.5t43 276t39 266t28.5 220.5
t10.5 136.5q0 46 -12 56.5t-29 10.5q-12 0 -39.5 -6.5t-50 -13.5l-22.5 -7l-14 49q56 25 118 49t111.5 40t69.5 16q28 0 45 -18t17 -64q-1 -28 -9 -98.5t-21 -162.5t-27 -187t-26.5 -174.5t-19.5 -122.5q122 140 230 191.5t190 51.5q67 0 94 -39.5t27 -136.5zM1426 590
q-14 -101 -65.5 -211.5t-130.5 -205.5t-174 -154.5t-194 -59.5q-45 0 -91.5 28t-77.5 84.5t-31 141.5q0 44 9 108t20.5 133t20 129t8.5 97q0 7 19 29.5t47 47t56 40t47 9.5t19 -46q0 -44 -9.5 -109t-21.5 -136.5t-21.5 -136.5t-9.5 -108q0 -101 28 -142.5t62 -41.5
q54 0 105.5 42.5t95 111t73 145.5t38.5 145q11 78 1.5 143t-50.5 104t-126 39l-10 49q21 9 60.5 23t79 27t60.5 19q87 -18 135.5 -94.5t27.5 -249.5z" />
    <glyph glyph-name="uni0196" unicode="&#x196;" horiz-adv-x="660" 
d="M619 233l-31 -37q-79 -93 -136.5 -142t-100.5 -66.5t-80 -17.5q-60 0 -92.5 64.5t-4.5 234.5l110 675q12 88 8.5 130t-37.5 57.5t-113 23.5l7 52q80 16 168.5 34t152.5 49h46l-146 -882q-16 -113 -18 -166t9.5 -69t38.5 -16q29 0 71 25t118 104z" />
    <glyph glyph-name="uni0197" unicode="&#x197;" horiz-adv-x="593" 
d="M626 1260l-7 -53q-63 -14 -100.5 -31t-38.5 -31l-143 -1031q-1 -12 28.5 -29.5t94.5 -31.5l-7 -53h-435l8 53q132 28 139 61l140 1031q2 12 -28 30t-93 32l8 53h434zM582 684l-35 -75h-458l-18 28q6 15 16 36t18 37h456z" />
    <glyph glyph-name="uni0198" unicode="&#x198;" horiz-adv-x="1181" 
d="M607 1260l-8 -53q-134 -30 -140 -62l-140 -1031q-3 -12 27 -29.5t94 -31.5l-7 -53h-435l7 53q63 14 100.5 31t38.5 30l143 1031q1 12 -29 30t-94 32l7 53h436zM1114 116q-83 -62 -156 -96t-113 -34q-30 0 -50 12t-43 48l-369 597l392 460q142 167 286 167q85 0 139.5 -55
t38.5 -174q-3 -24 -11 -53.5t-17 -56.5q-5 -11 -39 -30t-76 -36.5t-71 -25.5l-16 36q21 39 36 77.5t19 67.5q6 58 -12.5 85.5t-51.5 27.5t-67.5 -28t-70.5 -69l-318 -361l351 -503q27 -41 71 -40.5t127 32.5z" />
    <glyph glyph-name="uni0199" unicode="&#x199;" horiz-adv-x="934" 
d="M998 1401q-29 -21 -66.5 -49t-71.5 -48.5t-52 -20.5t-40 28.5t-49.5 57t-64.5 28.5q-90 0 -150 -106t-96 -339q-19 -124 -41.5 -258t-41.5 -260t-28 -229t-2 -165q-18 -10 -54 -25.5t-71 -31t-51 -24.5l-38 34q6 46 20 134t31.5 197.5t36 222.5t34 211t24.5 162
q23 154 82 285t181 222q53 39 117 66t129 27q61 0 112 -27t89.5 -56t60.5 -36zM927 83q-66 -55 -127 -88.5t-99 -33.5q-43 0 -84 47.5t-80 120.5t-75 150.5t-70.5 139.5t-67.5 85l132 59q35 -21 70.5 -74t70.5 -119t68 -128t63.5 -102.5t57.5 -40.5q22 0 51 3.5t68 24.5z
M939 866q0 -30 -84.5 -105t-234.5 -167l-207 -125l-89 35l214 161q137 104 166.5 146t-98.5 37l-5 49q58 8 125 20.5t130 12.5q51 0 67 -15.5t16 -48.5z" />
    <glyph glyph-name="uni019A" unicode="&#x19a;" horiz-adv-x="641" 
d="M519 85q-98 -62 -168 -94t-125 -32q-28 0 -50 30.5t-22 88.5q0 33 12 124t31.5 216.5t41 263.5t41 267.5t31.5 229.5t12 147q0 46 -16 56.5t-35 10.5q-11 0 -35.5 -6.5t-45 -13.5l-20.5 -7l-16 49q56 25 118 49t112 40t70 16q28 0 44.5 -18t16.5 -64q0 -52 -12.5 -153
t-32 -230t-41.5 -266.5t-41.5 -264.5t-32 -224t-12.5 -142q0 -34 10 -46.5t25 -12.5q42 0 127 33zM646 809l-37 -75h-552l-21 27q6 15 17 37t20 36h551z" />
    <glyph glyph-name="uni019B" unicode="&#x19b;" horiz-adv-x="1009" 
d="M982 261q-58 -131 -120 -216.5t-115 -85.5q-31 0 -54.5 13t-42.5 56t-37.5 132.5t-40 241.5t-48.5 383q-35 289 -75.5 423.5t-103.5 134.5q-41 0 -75.5 -42t-75.5 -116l-41 35q55 136 130.5 218t160.5 82q42 0 75 -29t59.5 -107.5t51.5 -225t53 -382.5q19 -160 39 -298
t45.5 -222.5t60.5 -84.5q22 0 54.5 39t61.5 86zM572 814q-79 -128 -146.5 -254.5t-131 -265.5t-132.5 -304q-37 -4 -95.5 -12t-93.5 -19l-25 36q102 120 190.5 256.5t162 276.5t131 270t97.5 237q9 -10 16.5 -42t13 -71t9 -70t4.5 -38zM787 1489q-5 -33 -7 -51t-12 -50
l-494 -452l-24 17q2 25 3.5 45t14.5 61l491 448z" />
    <glyph glyph-name="uni019C" unicode="&#x19c;" horiz-adv-x="1880" 
d="M171 1260h441l-7 -53q-73 -16 -106 -32t-35 -30l-95 -711q-17 -120 -9.5 -186t36 -92t75.5 -26q69 0 170.5 88t215.5 251l91 676q2 14 -30.5 31.5t-92.5 30.5l8 53h441l-7 -53q-136 -30 -141 -62l-97 -718q-22 -165 4.5 -231t97.5 -66t167.5 87t220.5 252l90 676
q6 33 -122 62l8 53h441l-8 -53q-135 -30 -141 -62l-122 -903q-8 -58 -3 -85.5t31.5 -38t83.5 -16.5l-7 -52q-65 -13 -110.5 -23t-85 -22.5t-87.5 -34.5l-32 38l38 276q-135 -174 -247.5 -244t-195.5 -70q-99 0 -146.5 48.5t-60 121t-6.5 146.5q-122 -161 -239.5 -238.5
t-207.5 -77.5q-118 0 -179.5 83t-34.5 279l110 813q5 32 -122 62z" />
    <glyph glyph-name="uni019D" unicode="&#x19d;" horiz-adv-x="1215" 
d="M289 1175l113 -20l-123 -908q-24 -178 -55.5 -280.5t-72.5 -159.5t-94 -100q-54 -44 -120.5 -68t-109.5 -24q-38 0 -72.5 15.5t-55.5 35.5t-20 34q1 12 27 39t58 51.5t51 29.5q36 -28 65.5 -47.5t71.5 -19.5q31 0 68.5 32t72.5 123t59 267zM1313 1260l-7 -53
q-67 -10 -100.5 -27.5t-34.5 -34.5l-163 -1176q-57 7 -91.5 25t-57.5 63q-142 271 -274.5 524t-273.5 520q-29 55 -65 76t-88 30l7 53h204q27 0 40 -3.5t23.5 -20t29.5 -54.5l474 -900l118 863q2 12 -24 31.5t-97 30.5l7 53h373z" />
    <glyph glyph-name="uni019E" unicode="&#x19e;" horiz-adv-x="1008" 
d="M929 -375q-90 -54 -165 -89.5t-117 -35.5q-37 0 -60.5 37.5t-23.5 119.5q0 43 11.5 124t29.5 183t38.5 210.5t38.5 209.5t30 179t12 117q0 70 -14.5 98t-54.5 28q-17 0 -62 -24t-99 -74t-100 -128q-28 -48 -45.5 -115t-34.5 -164q-16 -89 -20 -148.5t-3 -114.5
q-17 -10 -51.5 -25t-68.5 -30t-50 -24l-36 34q21 99 40.5 214.5t35.5 224.5t25.5 192t9.5 118q0 46 -9.5 56.5t-27.5 10.5q-12 0 -37 -6.5t-46.5 -13l-21.5 -6.5l-15 49q56 25 118 48.5t111.5 39.5t67.5 16q27 0 34 -21t7 -92q0 -21 -3 -63t-6 -67q109 127 216.5 185
t196.5 58q63 0 96.5 -36t33.5 -133q0 -42 -11.5 -122t-30 -181t-39.5 -210t-39.5 -211t-30 -183.5t-11.5 -125.5q0 -62 12.5 -78.5t30.5 -16.5q41 0 120 33z" />
    <glyph glyph-name="uni019F" unicode="&#x19f;" horiz-adv-x="1135" 
d="M1109 774q0 -141 -48.5 -288t-139.5 -261q-85 -107 -195.5 -181.5t-244.5 -74.5q-130 0 -218.5 70.5t-133 188t-44.5 257.5q0 134 45 279t126 254q83 112 197.5 192t261.5 80q135 0 222 -70.5t129.5 -187.5t42.5 -258zM918 609h-648q-2 -19 -2.5 -39.5t-0.5 -37.5
q0 -124 32.5 -221t91.5 -152.5t140 -55.5q89 0 156 44.5t114 119t75.5 164t41.5 178.5zM928 710q1 11 1.5 23t0.5 23q0 113 -31 205t-90 147t-144 55q-111 0 -188.5 -67t-125 -171t-67.5 -215h644z" />
    <glyph glyph-name="Ohorn" unicode="&#x1a0;" horiz-adv-x="1200" 
d="M1109 774q0 -141 -49 -288t-139 -261q-85 -107 -195.5 -181.5t-244.5 -74.5q-130 0 -218.5 70.5t-133 188t-44.5 257.5q0 134 45 279.5t126 253.5q84 112 198 192t261 80q135 0 222 -70.5t129.5 -187.5t42.5 -258zM930 756q0 113 -31 205t-90 147t-144 55
q-107 0 -182.5 -62t-123 -159t-70 -206t-22.5 -204q0 -124 32.5 -221t91.5 -152.5t140 -55.5q109 0 185 64.5t123.5 166.5t69 214.5t21.5 207.5zM1280 1423q0 -109 -102.5 -194t-253.5 -140l2 78q168 54 168 171q0 18 -9 41.5t-38 38.5l188 90q24 -15 34.5 -39t10.5 -46z
" />
    <glyph glyph-name="ohorn" unicode="&#x1a1;" horiz-adv-x="968" 
d="M831 559q0 -133 -61 -268.5t-173 -227.5q-52 -43 -117 -73.5t-125 -30.5q-97 0 -165.5 50.5t-105 138t-36.5 196.5q0 143 53 267.5t186 228.5q51 40 115.5 68t128.5 28q157 0 228.5 -105.5t71.5 -271.5zM658 496q0 153 -53.5 234.5t-142.5 81.5q-68 0 -114 -39
t-74 -100.5t-40 -132t-12 -134.5q0 -89 27 -163t73 -118.5t101 -44.5q64 0 109 41t72.5 105.5t40.5 136.5t13 133zM1048 1043q0 -109 -102.5 -194t-253.5 -140l2 78q168 54 168 171q0 18 -9 41.5t-38 38.5l188 90q24 -15 34.5 -39t10.5 -46z" />
    <glyph glyph-name="uni01A2" unicode="&#x1a2;" horiz-adv-x="1680" 
d="M1570 -350h-441l8 53q64 14 102.5 31t39.5 30l150 1093q23 164 -8.5 224t-100.5 60q-47 0 -102 -22.5t-136 -102.5q22 -60 31 -132t6 -144q-5 -137 -53 -275t-136 -245q-87 -108 -197.5 -179.5t-244.5 -71.5q-137 0 -228 76.5t-135 201.5t-38 272q5 132 55.5 276.5
t134.5 249.5q84 103 192.5 174t242.5 71q116 0 195 -47.5t131 -131.5q101 95 190 137t169 42q72 0 128 -29t82 -99.5t9 -195.5q-9 -67 -17 -127.5t-19 -138.5t-27 -195.5t-40.5 -296.5t-60.5 -444q-1 -12 30 -29.5t96 -31.5zM939 722q5 119 -25.5 219t-93 161t-153.5 61
q-102 0 -175.5 -55t-121 -144.5t-72 -195t-28.5 -206.5q-6 -131 27 -235t95.5 -164t146.5 -60q102 0 175.5 56.5t121.5 148.5t73 200.5t30 213.5z" />
    <glyph glyph-name="uni01A3" unicode="&#x1a3;" horiz-adv-x="1355" 
d="M831 559q0 -133 -61 -268.5t-173 -227.5q-52 -43 -117 -73.5t-125 -30.5q-97 0 -165.5 50.5t-105 138t-36.5 196.5q0 143 53 267.5t186 228.5q51 40 115.5 68t128.5 28q157 0 228.5 -105.5t71.5 -271.5zM658 496q0 153 -53.5 234.5t-142.5 81.5q-68 0 -114 -39
t-74 -100.5t-40 -132t-12 -134.5q0 -89 27 -163t73 -118.5t101 -44.5q64 0 109 41t72.5 105.5t40.5 136.5t13 133zM1276 -375q-91 -54 -165.5 -89.5t-116.5 -35.5q-37 0 -60.5 37.5t-23.5 119.5q0 43 11.5 124t29.5 183t38.5 210.5t38.5 209.5t29.5 179t11.5 117
q0 70 -13.5 98t-54.5 28q-18 0 -63 -26t-99 -76t-99 -124q-10 27 -15 50t-11 63q109 127 214.5 185t198.5 58q63 0 96.5 -36t33.5 -133q0 -42 -11.5 -122t-30 -181t-39.5 -210t-39.5 -211t-30 -183.5t-11.5 -125.5q0 -62 12.5 -78.5t30.5 -16.5q40 0 119 33z" />
    <glyph glyph-name="uni01A4" unicode="&#x1a4;" horiz-adv-x="1220" 
d="M118 991q17 130 163 214.5t442 84.5q198 0 305 -37q102 -37 161 -127t47 -223q-11 -99 -56.5 -169.5t-110.5 -115.5t-137 -66.5t-135 -21.5q-41 0 -77.5 10.5t-64.5 25.5l-13 86q71 -36 132 -36q60 0 122 22.5t107.5 78t55.5 151.5q11 105 -28 184t-111 111
q-48 21 -98 29.5t-154 6.5q-182 -5 -270.5 -49.5t-99.5 -125.5q-10 -75 48 -106q-5 -8 -37 -26.5t-70.5 -35.5t-64.5 -22q-31 15 -47 58.5t-9 98.5zM701 1260l-156 -1146q-3 -12 25.5 -28t122.5 -33l-7 -53h-462l8 53q63 14 100 31t38 30l157 1146h174z" />
    <glyph glyph-name="uni01A5" unicode="&#x1a5;" horiz-adv-x="992" 
d="M959 1401q-29 -21 -66.5 -49t-71 -48.5t-50.5 -20.5q-18 0 -38.5 28.5t-46.5 57t-60 28.5q-81 0 -134.5 -97t-88.5 -307q-41 -244 -81 -489.5t-82 -497.5q-34 -206 -41.5 -309.5t2.5 -130.5q-19 -5 -54.5 -18t-70.5 -26.5t-52 -21.5l-35 32q12 71 31 183.5t41.5 249
t46 280t45.5 277.5t39 243.5t27 175.5q22 155 79 278t171 208q52 39 113 66t125 27q58 0 106.5 -27.5t85.5 -56.5t60 -35zM910 627q0 -106 -32 -223t-92 -223q-30 -52 -72 -103t-92.5 -85t-106.5 -34q-47 0 -95 39t-93.5 98.5t-83.5 122.5l41 98q18 -38 58.5 -83t91.5 -77.5
t100 -32.5q50 0 88.5 28t60.5 77q33 70 42 152.5t9 148.5q0 129 -37.5 194.5t-81.5 65.5q-32 0 -86.5 -39.5t-113 -112t-101.5 -170.5l-6 144q93 144 167.5 213t133 90t102.5 21q81 0 140 -79.5t59 -229.5z" />
    <glyph glyph-name="uni01A6" unicode="&#x1a6;" horiz-adv-x="1043" 
d="M333 911l15 87q44 6 91 10.5t100 4.5q165 0 257.5 -38t127.5 -98t26 -127q-22 -162 -157 -250.5t-343 -88.5q-53 0 -104 14l5 89q32 -6 52.5 -8t43.5 -2q153 0 235.5 58t95.5 157q6 47 -16 93.5t-85.5 77.5t-181.5 31q-39 0 -79 -2.5t-83 -7.5zM1066 -73l19 -48
q-46 -34 -99.5 -62.5t-98.5 -46t-67 -17.5q-59 0 -93 74l-273 619l120 63l313 -582q17 -33 60.5 -30.5t118.5 30.5zM437 0h-436l6 53q63 14 100 31t39 30l140 1031q1 12 -29 30t-92 32l7 53h436l-8 -53q-63 -14 -100 -31t-40 -31l-139 -1031q-2 -12 29 -29.5t93 -31.5z" />
    <glyph glyph-name="uni01A7" unicode="&#x1a7;" horiz-adv-x="909" 
d="M70 347q15 114 68.5 191t128 129t155 90t152.5 72t120.5 75t56.5 100q5 38 -12 78.5t-56.5 68.5t-103.5 28q-95 0 -157 -49.5t-95 -115.5l-45 -6q-13 14 -26.5 52t-19.5 74t4 44q30 28 87 53.5t125.5 42t134.5 16.5q105 0 169.5 -29t97 -75.5t41 -99t2.5 -99.5
q-15 -107 -66.5 -175.5t-124.5 -113t-152.5 -78t-151 -69.5t-121 -86.5t-60.5 -130.5q-9 -68 20.5 -121.5t81.5 -84t110 -30.5q94 0 177.5 65.5t138.5 183.5l49 5q3 -27 1 -71t-8 -89.5t-13 -77.5t-14 -36q-71 -45 -163 -76.5t-200 -31.5q-129 0 -206.5 57t-107.5 144
t-17 176z" />
    </font>
</defs>
</svg>
